<svg width="88" height="88" viewBox="0 0 88 88" fill="none" xmlns="http://www.w3.org/2000/svg">
<g clip-path="url(#clip0_278_26210)">
<path fill-rule="evenodd" clip-rule="evenodd" d="M44.2612 18.8593L45.198 18.4227C47.3286 17.4331 49.7691 17.9754 51.2799 19.7715L51.6743 20.2398L52.7062 20.1976C55.0516 20.099 57.0977 21.5323 57.8091 23.7721L57.9922 24.3532L58.9642 24.7088C61.1687 25.5153 62.5105 27.6248 62.3098 29.9632L62.2569 30.5724L63.0176 31.2732C64.7468 32.8615 65.1799 35.3232 64.0988 37.408L63.817 37.9503L64.2537 38.8871C65.2433 41.0177 64.701 43.4582 62.9049 44.969L62.4365 45.3635L62.4788 46.3953C62.5774 48.7407 61.1441 50.7868 58.9043 51.4982L58.3232 51.6813L57.9675 52.6498C57.1611 54.8544 55.0516 56.1961 52.7132 55.9954L52.104 55.9426L51.4032 56.7032C49.8149 58.4324 47.3532 58.8655 45.2684 57.7844L44.7261 57.5027L43.7893 57.9393C41.6587 58.9289 39.2182 58.3866 37.7074 56.5905L37.3129 56.1222L36.2811 56.1644C33.9357 56.263 31.8896 54.8297 31.1782 52.5899L30.9951 52.0088L30.0266 51.6532C27.822 50.8467 26.4803 48.7372 26.681 46.3988L26.7338 45.7896L25.9732 45.0888C24.244 43.5005 23.8109 41.0388 24.892 38.954L25.1737 38.4117L24.7371 37.4749C23.7475 35.3443 24.2898 32.9038 26.0859 31.393L26.5542 30.9986L26.512 29.9667C26.4134 27.6213 27.8467 25.5752 30.0865 24.8638L30.6676 24.6772L31.0232 23.7087C31.8297 21.5041 33.9392 20.1624 36.2776 20.3631L36.8868 20.4159L37.5876 19.6552C39.1759 17.9261 41.6376 17.4929 43.7224 18.5741L44.2647 18.8558L44.2612 18.8593Z" stroke="#222222" stroke-width="2" stroke-miterlimit="22.9256" stroke-linecap="round" stroke-linejoin="round"/>
<path d="M44.4973 51.6815C51.9524 51.6815 57.9959 45.6379 57.9959 38.1829C57.9959 30.7278 51.9524 24.6843 44.4973 24.6843C37.0423 24.6843 30.9987 30.7278 30.9987 38.1829C30.9987 45.6379 37.0423 51.6815 44.4973 51.6815Z" stroke="#222222" stroke-width="2" stroke-miterlimit="22.9256" stroke-linecap="round" stroke-linejoin="round"/>
<path fill-rule="evenodd" clip-rule="evenodd" d="M44.9902 32.2171L46.8038 35.6085L50.5896 36.2846C50.7974 36.3198 50.9559 36.4607 51.0228 36.6614C51.0862 36.8622 51.0404 37.0664 50.896 37.2179L48.2301 39.9929L48.7548 43.8034C48.783 44.0112 48.702 44.2049 48.5294 44.3281C48.3604 44.4514 48.1491 44.469 47.9589 44.3774L44.4971 42.6976L41.0353 44.3774C40.8452 44.469 40.6374 44.4514 40.4648 44.3281C40.2958 44.2049 40.2112 44.0112 40.2394 43.8034L40.7642 39.9929L38.0982 37.2214C37.9539 37.07 37.9046 36.8657 37.9715 36.665C38.0349 36.4642 38.1969 36.3269 38.4011 36.2882L42.1869 35.612L44.0006 32.2206C44.0992 32.034 44.2823 31.9248 44.4901 31.9248C44.7014 31.9248 44.881 32.034 44.9796 32.2206L44.9902 32.2171Z" stroke="#222222" stroke-width="2" stroke-miterlimit="22.9256" stroke-linecap="round" stroke-linejoin="round"/>
<path d="M39.3697 64.9546L36.6369 69.9519C36.5207 70.1667 36.3129 70.2935 36.0699 70.3041C35.8269 70.3146 35.6121 70.2019 35.4783 69.9977L31.784 64.2961L24.4343 63.958C24.1948 63.9474 23.9941 63.8242 23.8779 63.6164C23.7617 63.4086 23.7581 63.1727 23.8744 62.9614L30.0338 51.6603" stroke="#222222" stroke-width="2" stroke-miterlimit="22.9256" stroke-linecap="round" stroke-linejoin="round"/>
<path d="M46.0221 58.2105L52.4632 69.6313C52.5829 69.8461 52.7872 69.9729 53.0302 69.9835C53.2732 69.9941 53.488 69.8814 53.6218 69.6771L57.3161 63.9755L64.6658 63.6374C64.9053 63.6269 65.106 63.5036 65.2222 63.2958C65.3384 63.0881 65.342 62.8521 65.2257 62.6408L62.257 57.2562" stroke="#222222" stroke-width="2" stroke-miterlimit="22.9256" stroke-linecap="round" stroke-linejoin="round"/>
<path d="M23.9587 17L25.8675 20.3069" stroke="#222222" stroke-width="2" stroke-miterlimit="22.9256" stroke-linecap="round" stroke-linejoin="round"/>
<path d="M17.4402 28.5828H21.2541" stroke="#222222" stroke-width="2" stroke-miterlimit="22.9256" stroke-linecap="round" stroke-linejoin="round"/>
<path d="M17 20.3984L22.1733 23.7299" stroke="#222222" stroke-width="2" stroke-miterlimit="22.9256" stroke-linecap="round" stroke-linejoin="round"/>
<path d="M65.0356 17L63.1269 20.3069" stroke="#222222" stroke-width="2" stroke-miterlimit="22.9256" stroke-linecap="round" stroke-linejoin="round"/>
<path d="M71.5543 28.5828H67.7403" stroke="#222222" stroke-width="2" stroke-miterlimit="22.9256" stroke-linecap="round" stroke-linejoin="round"/>
<path d="M71.9944 20.3984L66.8211 23.7299" stroke="#222222" stroke-width="2" stroke-miterlimit="22.9256" stroke-linecap="round" stroke-linejoin="round"/>
</g>
<defs>
<clipPath id="clip0_278_26210">
<rect width="88" height="88" fill="white"/>
</clipPath>
</defs>
</svg>
