<svg width="88" height="88" viewBox="0 0 88 88" fill="none" xmlns="http://www.w3.org/2000/svg">
<g clip-path="url(#clip0_278_26185)">
<path fill-rule="evenodd" clip-rule="evenodd" d="M21.2004 38.3196H35.9718V47.2507H21.2004C20.0414 47.2507 19.089 46.3028 19.089 45.1392V40.4266C19.089 39.2675 20.0369 38.3151 21.2004 38.3151V38.3196ZM43.5057 38.3196H58.277C59.4361 38.3196 60.3885 39.2675 60.3885 40.4311V45.1437C60.3885 46.3028 59.4406 47.2552 58.277 47.2552H43.5057V38.3241V38.3196Z" stroke="#222222" stroke-width="2" stroke-miterlimit="22.9256" stroke-linecap="round" stroke-linejoin="round"/>
<path fill-rule="evenodd" clip-rule="evenodd" d="M21.8115 47.2507H35.9718V70.4814H23.9184C22.7594 70.4814 21.807 69.5334 21.807 68.3699V47.2507H21.8115ZM43.5057 47.2507H57.6661V68.3699C57.6661 69.529 56.7182 70.4814 55.5546 70.4814H43.5012V47.2507H43.5057Z" stroke="#222222" stroke-width="2" stroke-miterlimit="22.9256" stroke-linecap="round" stroke-linejoin="round"/>
<path d="M43.5058 38.3196H35.9719V70.4769H43.5058V38.3196Z" stroke="#222222" stroke-width="2" stroke-miterlimit="22.9256" stroke-linecap="round" stroke-linejoin="round"/>
<path fill-rule="evenodd" clip-rule="evenodd" d="M39.7409 38.3195C40.5271 17.2228 61.0803 37.3267 39.7409 38.3195V38.3195Z" stroke="#222222" stroke-width="2" stroke-miterlimit="22.9256" stroke-linecap="round" stroke-linejoin="round"/>
<path fill-rule="evenodd" clip-rule="evenodd" d="M39.7409 38.3195C38.9547 17.2228 18.4016 37.3267 39.7409 38.3195V38.3195Z" stroke="#222222" stroke-width="2" stroke-miterlimit="22.9256" stroke-linecap="round" stroke-linejoin="round"/>
<path d="M23.258 30.4353L25.401 32.5782M17 24.1772L19.1429 26.3202L17 24.1772Z" stroke="#222222" stroke-width="2" stroke-miterlimit="22.9256" stroke-linecap="round" stroke-linejoin="round"/>
<path d="M19.1482 30.4353L17.0053 32.5782M25.4063 24.1772L23.2633 26.3202L25.4063 24.1772Z" stroke="#222222" stroke-width="2" stroke-miterlimit="22.9256" stroke-linecap="round" stroke-linejoin="round"/>
<path d="M63.0885 26.5807H66.121M54.2338 26.5807H57.2663H54.2338Z" stroke="#222222" stroke-width="2" stroke-miterlimit="22.9256" stroke-linecap="round" stroke-linejoin="round"/>
<path d="M60.1774 29.4919V32.5243M60.1774 20.6372V23.6696V20.6372Z" stroke="#222222" stroke-width="2" stroke-miterlimit="22.9256" stroke-linecap="round" stroke-linejoin="round"/>
<path d="M40.7474 20.8617H41.6908M35.9719 20.8617H36.9153H35.9719Z" stroke="#222222" stroke-width="2" stroke-miterlimit="22.9256" stroke-linecap="round" stroke-linejoin="round"/>
<path d="M38.8335 22.7755V23.7189M38.8335 18V18.9434V18Z" stroke="#222222" stroke-width="2" stroke-miterlimit="22.9256" stroke-linecap="round" stroke-linejoin="round"/>
<path d="M69.9709 41.06L70.6358 40.3951M66.5971 44.4383L67.262 43.7734L66.5971 44.4383Z" stroke="#222222" stroke-width="2" stroke-miterlimit="22.9256" stroke-linecap="round" stroke-linejoin="round"/>
<path d="M69.9754 43.7734L70.6403 44.4383M66.5971 40.3951L67.262 41.06L66.5971 40.3951Z" stroke="#222222" stroke-width="2" stroke-miterlimit="22.9256" stroke-linecap="round" stroke-linejoin="round"/>
</g>
<defs>
<clipPath id="clip0_278_26185">
<rect width="88" height="88" fill="white"/>
</clipPath>
</defs>
</svg>
