<svg width="88" height="88" viewBox="0 0 88 88" fill="none" xmlns="http://www.w3.org/2000/svg">
<g clip-path="url(#clip0_278_26159)">
<path d="M40.1257 63.7631H59.5489" stroke="#222222" stroke-width="2" stroke-miterlimit="22.9256" stroke-linecap="round" stroke-linejoin="round"/>
<path d="M21.899 56.2629V60.218C21.899 62.164 23.4752 63.7629 25.405 63.7629H29.2387" stroke="#222222" stroke-width="2" stroke-miterlimit="22.9256" stroke-linecap="round" stroke-linejoin="round"/>
<path d="M24.1306 34.3308H53.255C55.1796 34.3308 56.7609 35.9244 56.7609 37.8757V58.4246" stroke="#222222" stroke-width="2" stroke-miterlimit="22.9256" stroke-linecap="round" stroke-linejoin="round"/>
<path d="M26.4348 52.981H15.8649M56.7556 52.981H37.4728H56.7556ZM33.1138 52.981H30.7938H33.1138Z" stroke="#222222" stroke-width="2" stroke-miterlimit="22.9256" stroke-linecap="round" stroke-linejoin="round"/>
<path d="M34.6796 69.2696C37.6875 69.2696 40.1258 66.8041 40.1258 63.7629C40.1258 60.7216 37.6875 58.2562 34.6796 58.2562C31.6718 58.2562 29.2334 60.7216 29.2334 63.7629C29.2334 66.8041 31.6718 69.2696 34.6796 69.2696Z" stroke="#222222" stroke-width="2" stroke-miterlimit="22.9256" stroke-linecap="round" stroke-linejoin="round"/>
<path d="M64.9951 69.2696C68.0029 69.2696 70.4412 66.8041 70.4412 63.7629C70.4412 60.7216 68.0029 58.2562 64.9951 58.2562C61.9872 58.2562 59.5489 60.7216 59.5489 63.7629C59.5489 66.8041 61.9872 69.2696 64.9951 69.2696Z" stroke="#222222" stroke-width="2" stroke-miterlimit="22.9256" stroke-linecap="round" stroke-linejoin="round"/>
<path d="M56.7556 41.7782H63.7103C66.3423 41.7782 68.6363 43.1141 69.8587 45.4704L72.7092 50.9666L74.4934 52.2814C75.8927 53.3123 76.6521 54.8218 76.6521 56.5732V61.9905C76.6521 62.9635 75.8667 63.7629 74.8992 63.7629H70.4413" stroke="#222222" stroke-width="2" stroke-miterlimit="22.9256" stroke-linecap="round" stroke-linejoin="round"/>
<path d="M76.6521 56.5732H74.2437" stroke="#222222" stroke-width="2" stroke-miterlimit="22.9256" stroke-linecap="round" stroke-linejoin="round"/>
<path d="M69.6091 53.0073H65.2969C63.8456 53.0073 62.6544 51.8028 62.6544 50.3354V47.9897C62.6544 46.5223 63.8456 45.3179 65.2969 45.3179" stroke="#222222" stroke-width="2" stroke-miterlimit="22.9256" stroke-linecap="round" stroke-linejoin="round"/>
<path d="M15.683 47.0062H13.5607" stroke="#222222" stroke-width="2" stroke-miterlimit="22.9256" stroke-linecap="round" stroke-linejoin="round"/>
<path d="M16.5673 40.4002H14.445" stroke="#222222" stroke-width="2" stroke-miterlimit="22.9256" stroke-linecap="round" stroke-linejoin="round"/>
<path d="M20.2865 34.3308H18.1642" stroke="#222222" stroke-width="2" stroke-miterlimit="22.9256" stroke-linecap="round" stroke-linejoin="round"/>
<path d="M10.1275 47.0062H8" stroke="#222222" stroke-width="2" stroke-miterlimit="22.9256" stroke-linecap="round" stroke-linejoin="round"/>
<path d="M28.3075 47.0062H19.501" stroke="#222222" stroke-width="2" stroke-miterlimit="22.9256" stroke-linecap="round" stroke-linejoin="round"/>
<path d="M33.7745 40.4002H20.3645" stroke="#222222" stroke-width="2" stroke-miterlimit="22.9256" stroke-linecap="round" stroke-linejoin="round"/>
<path d="M50.0975 28.903C52.0898 22.581 57.9417 18 64.8548 18C73.4064 18 80.335 25.0109 80.335 33.6523C80.335 37.5969 78.8942 41.1997 76.5118 43.9504" stroke="#222222" stroke-width="2" stroke-miterlimit="22.9256" stroke-linecap="round" stroke-linejoin="round"/>
<path d="M65.0368 35.4352C66.0595 35.4352 66.8886 34.5969 66.8886 33.5628C66.8886 32.5287 66.0595 31.6904 65.0368 31.6904C64.014 31.6904 63.185 32.5287 63.185 33.5628C63.185 34.5969 64.014 35.4352 65.0368 35.4352Z" stroke="#222222" stroke-width="2" stroke-miterlimit="22.9256" stroke-linecap="round" stroke-linejoin="round"/>
<path d="M65.0367 31.6853V22.7336" stroke="#222222" stroke-width="2" stroke-miterlimit="22.9256" stroke-linecap="round" stroke-linejoin="round"/>
<path d="M66.8886 33.5629H74.7692" stroke="#222222" stroke-width="2" stroke-miterlimit="22.9256" stroke-linecap="round" stroke-linejoin="round"/>
</g>
<defs>
<clipPath id="clip0_278_26159">
<rect width="88" height="88" fill="white"/>
</clipPath>
</defs>
</svg>
