<svg width="77" height="22" viewBox="0 0 77 22" fill="none" xmlns="http://www.w3.org/2000/svg">
<g clip-path="url(#clip0_347_6317)">
<path fill-rule="evenodd" clip-rule="evenodd" d="M0.715783 0.157183C3.04334 0.163845 5.37095 0.160514 7.69966 0.158308C8.79576 0.143947 9.89301 0.717141 10.4912 1.65343C11.0481 2.45472 11.2598 3.42414 11.5338 4.34711C12.3767 7.2245 13.2064 10.1063 14.0514 12.9836C14.0656 13.2437 14.4455 13.3433 14.5198 13.0666C15.3823 10.1616 16.2142 7.24773 17.0701 4.34045C17.3638 3.3157 17.6171 2.22779 18.3017 1.38559C18.7416 0.83999 19.3573 0.451588 20.0266 0.27004C20.5965 0.109601 21.1937 0.170463 21.7778 0.160514C23.8215 0.168257 25.8664 0.142822 27.9101 0.173794C27.896 7.40151 27.9177 14.6292 27.8981 21.8559C25.6874 21.8415 23.4755 21.8758 21.2647 21.8382C21.2647 17.5985 21.2745 13.3587 21.2603 9.1191C21.2461 8.74177 20.6303 8.77382 20.5889 9.12909C19.2722 13.3643 17.9468 17.5974 16.6498 21.8382C15.0886 21.8747 13.5252 21.8459 11.9629 21.8526C10.6484 17.6173 9.34377 13.3787 8.01621 9.14791C7.96052 8.79818 7.55325 8.78598 7.33386 8.99071C7.33822 13.2746 7.3284 17.5586 7.33822 21.8426C5.1307 21.8702 2.92318 21.8437 0.71574 21.8559C0.714545 14.6226 0.714545 7.39039 0.71574 0.15714L0.715783 0.157183ZM30.9289 0.170463C33.1353 0.136204 35.3439 0.188155 37.5503 0.142822C37.5853 4.43341 37.5547 8.72512 37.5656 13.0157C37.7545 13.1873 38.1017 13.2404 38.2174 12.956C39.6868 9.83405 41.1498 6.70875 42.6182 3.58571C43.0833 2.61628 43.461 1.56489 44.2198 0.781377C44.5593 0.456044 44.9818 0.140616 45.4731 0.16272C47.7232 0.163845 49.9733 0.148359 52.2245 0.170463C52.2278 7.39489 52.2278 14.6192 52.2245 21.8437C50.017 21.8614 47.8084 21.8603 45.5998 21.8448C45.5987 17.5653 45.6085 13.2847 45.5954 9.00516C45.5899 8.6377 44.9763 8.66759 44.913 8.99742C43.5287 12.0939 42.1498 15.1925 40.7665 18.289C40.3408 19.2286 39.9369 20.1969 39.3015 21.0159C38.9477 21.4719 38.4314 21.8813 37.8298 21.8537C35.5306 21.8526 33.2302 21.857 30.931 21.8514C30.931 14.6248 30.9343 7.39714 30.9289 0.170463ZM55.4529 10.072C62.3876 10.0244 69.3246 10.072 76.2594 10.0487C76.0257 11.017 75.4078 11.8504 74.7539 12.5774C73.4634 13.9973 71.6086 14.8638 69.7023 14.9148C67.1695 14.9281 64.6356 14.9126 62.1016 14.9225C62.0863 17.2344 62.1016 19.5451 62.0951 21.857C59.8854 21.847 57.6746 21.8636 55.4637 21.847C55.4529 17.9227 55.4746 13.9973 55.4529 10.072Z" fill="#327351"/>
<path fill-rule="evenodd" clip-rule="evenodd" d="M54.6094 0.169425C59.7908 0.162764 64.9722 0.158352 70.1537 0.163888C71.5129 0.262341 72.8252 0.82126 73.9016 1.66009C75.4651 2.89408 76.5197 4.78755 76.6932 6.79401C76.7337 7.5167 76.7195 8.24488 76.6136 8.96091C73.4388 8.97969 70.264 8.96199 67.0891 8.96641C65.9996 8.95646 64.9035 9.01178 63.8215 8.84914C61.3837 8.53596 58.9796 7.50675 57.2525 5.70174C55.7961 4.22206 54.8986 2.22784 54.6094 0.169425Z" fill="url(#paint0_linear_347_6317)"/>
</g>
<defs>
<linearGradient id="paint0_linear_347_6317" x1="54.6094" y1="4.56556" x2="76.7141" y2="4.56556" gradientUnits="userSpaceOnUse">
<stop stop-color="#48ABFC"/>
<stop offset="1" stop-color="#335DCD"/>
</linearGradient>
<clipPath id="clip0_347_6317">
<rect width="76" height="21.7143" fill="white" transform="translate(0.714844 0.142822)"/>
</clipPath>
</defs>
</svg>
