<svg width="85" height="64" viewBox="0 0 85 64" fill="none" xmlns="http://www.w3.org/2000/svg">
<g clip-path="url(#clip0_347_6323)">
<path d="M21.5145 57.658V54.2412C21.5345 53.9538 21.4928 53.6655 21.392 53.3954C21.2913 53.1254 21.1339 52.8798 20.9303 52.675C20.7268 52.4703 20.4817 52.311 20.2114 52.2079C19.9412 52.1048 19.6519 52.0602 19.363 52.0771C18.9848 52.0524 18.6069 52.1293 18.2687 52.2996C17.9305 52.4698 17.6444 52.7274 17.4404 53.0452C17.2544 52.7369 16.9882 52.4842 16.67 52.3138C16.3518 52.1435 15.9932 52.0617 15.6322 52.0771C15.3175 52.0613 15.0041 52.1276 14.7231 52.2694C14.442 52.4113 14.2031 52.6237 14.03 52.8858V52.2138H12.8398V57.658H14.0415V54.6626C14.0159 54.4764 14.032 54.2869 14.0886 54.1076C14.1451 53.9284 14.2408 53.7637 14.3687 53.6255C14.4967 53.4874 14.6537 53.379 14.8286 53.3082C15.0035 53.2374 15.1919 53.206 15.3804 53.2161C16.1701 53.2161 16.5706 53.7286 16.5706 54.6512V57.6808H17.7723V54.6626C17.7478 54.4766 17.7646 54.2875 17.8215 54.1087C17.8785 53.9299 17.9742 53.7657 18.1019 53.6277C18.2296 53.4898 18.3862 53.3814 18.5606 53.3103C18.735 53.2391 18.923 53.207 19.1112 53.2161C19.9238 53.2161 20.3129 53.7286 20.3129 54.6512V57.6808L21.5145 57.658ZM39.293 52.2138H37.336V50.5623H36.1344V52.2138H35.0472V53.2958H36.1573V55.8015C36.1573 57.0658 36.6494 57.8175 38.057 57.8175C38.5829 57.8193 39.0986 57.6732 39.5447 57.3961L39.2014 56.3824C38.8822 56.5719 38.52 56.6777 38.1486 56.6899C37.5764 56.6899 37.3589 56.3255 37.3589 55.7788V53.2958H39.3044L39.293 52.2138ZM49.4439 52.0771C49.1537 52.0686 48.8666 52.1382 48.6128 52.2785C48.3591 52.4188 48.148 52.6247 48.002 52.8744V52.2138H46.8232V57.658H48.0134V54.6056C48.0134 53.7058 48.4025 53.2047 49.1578 53.2047C49.4124 53.2012 49.6651 53.2477 49.9017 53.3414L50.2679 52.2024C49.9961 52.1056 49.7097 52.0556 49.421 52.0543L49.4439 52.0771ZM34.0973 52.6466C33.4236 52.2479 32.649 52.0503 31.8657 52.0771C30.481 52.0771 29.5769 52.7377 29.5769 53.8197C29.5769 54.7081 30.2407 55.2548 31.4652 55.4257L32.0374 55.5054C32.6897 55.5965 32.9987 55.7674 32.9987 56.0749C32.9987 56.4963 32.5638 56.7355 31.7513 56.7355C31.0977 56.7543 30.4568 56.5537 29.9317 56.166L29.3595 57.0886C30.0528 57.5703 30.8831 57.8179 31.7284 57.7947C33.3077 57.7947 34.2232 57.0544 34.2232 56.0179C34.2232 54.9815 33.5022 54.5601 32.312 54.3892L31.7398 54.3095C31.2249 54.2411 30.8129 54.1386 30.8129 53.7742C30.8129 53.4097 31.202 53.1364 31.8543 53.1364C32.4572 53.1433 33.0482 53.3041 33.5709 53.6033L34.0973 52.6466ZM65.975 52.0771C65.6848 52.0686 65.3977 52.1382 65.1439 52.2785C64.8901 52.4188 64.6791 52.6247 64.533 52.8744V52.2138H63.3543V57.658H64.5445V54.6056C64.5445 53.7058 64.9336 53.2047 65.6889 53.2047C65.9435 53.2012 66.1962 53.2477 66.4328 53.3414L66.799 52.2024C66.5271 52.1056 66.2408 52.0556 65.9521 52.0543L65.975 52.0771ZM50.6398 54.9245C50.6257 55.3071 50.6919 55.6884 50.8343 56.0441C50.9768 56.3997 51.1922 56.7219 51.4669 56.9899C51.7416 57.2579 52.0695 57.4659 52.4296 57.6006C52.7897 57.7352 53.174 57.7936 53.5581 57.7719C54.2727 57.8081 54.975 57.5765 55.5265 57.1227L54.9543 56.166C54.5428 56.4783 54.0411 56.65 53.5238 56.6558C53.0838 56.6203 52.6734 56.4214 52.3742 56.0985C52.0749 55.7756 51.9088 55.3524 51.9088 54.9131C51.9088 54.4739 52.0749 54.0507 52.3742 53.7278C52.6734 53.4049 53.0838 53.2059 53.5238 53.1705C54.0411 53.1763 54.5428 53.348 54.9543 53.6603L55.5265 52.7035C54.975 52.2498 54.2727 52.0182 53.5581 52.0543C53.174 52.0327 52.7897 52.091 52.4296 52.2257C52.0695 52.3604 51.7416 52.5684 51.4669 52.8364C51.1922 53.1044 50.9768 53.4266 50.8343 53.7822C50.6919 54.1378 50.6257 54.5192 50.6398 54.9018V54.9245ZM61.7864 54.9245V52.2138H60.5962V52.8744C60.3941 52.6156 60.133 52.4083 59.8346 52.2697C59.5361 52.131 59.2088 52.065 58.8796 52.0771C58.1208 52.0771 57.3931 52.3771 56.8566 52.9111C56.32 53.4451 56.0186 54.1693 56.0186 54.9245C56.0186 55.6797 56.32 56.404 56.8566 56.938C57.3931 57.472 58.1208 57.7719 58.8796 57.7719C59.2088 57.784 59.5361 57.718 59.8346 57.5794C60.133 57.4408 60.3941 57.2335 60.5962 56.9747V57.6353H61.7864V54.9245ZM57.3575 54.9245C57.3765 54.6041 57.4893 54.2961 57.6819 54.0386C57.8745 53.7811 58.1385 53.5853 58.4416 53.4753C58.7446 53.3652 59.0733 53.3458 59.3873 53.4193C59.7013 53.4929 59.9868 53.6562 60.2086 53.8893C60.4305 54.1223 60.5791 54.4148 60.6361 54.7307C60.693 55.0467 60.6559 55.3724 60.5292 55.6676C60.4026 55.9628 60.1919 56.2148 59.9232 56.3924C59.6545 56.57 59.3395 56.6655 59.0169 56.6671C58.7904 56.67 58.5657 56.6262 58.357 56.5384C58.1483 56.4506 57.9601 56.3208 57.8042 56.1571C57.6483 55.9935 57.5282 55.7995 57.4513 55.5873C57.3745 55.3752 57.3425 55.1495 57.3575 54.9245ZM42.9952 52.0771C42.2364 52.0877 41.5129 52.3978 40.9838 52.9393C40.4548 53.4808 40.1635 54.2092 40.1742 54.9644C40.1848 55.7196 40.4964 56.4396 41.0405 56.9661C41.5845 57.4927 42.3165 57.7825 43.0753 57.7719C43.8985 57.814 44.7081 57.5502 45.3469 57.0316L44.7747 56.1546C44.3229 56.5153 43.7631 56.7157 43.184 56.7241C42.7906 56.7578 42.3995 56.6374 42.0938 56.3885C41.7882 56.1397 41.5922 55.782 41.5475 55.3915H45.6101C45.6101 55.2434 45.6101 55.0954 45.6101 54.9359C45.6101 53.2275 44.5458 52.0885 43.0123 52.0885L42.9952 52.0771ZM42.9952 53.1364C43.1733 53.1326 43.3504 53.1638 43.5163 53.2281C43.6823 53.2925 43.834 53.3887 43.9626 53.5114C44.0911 53.6341 44.1942 53.7808 44.2658 53.9432C44.3374 54.1055 44.3762 54.2803 44.3799 54.4576H41.5189C41.5396 54.092 41.7033 53.749 41.9749 53.5021C42.2466 53.2551 42.6046 53.1239 42.9723 53.1364H42.9952ZM72.8129 54.9359V50.027H71.6684V52.8744C71.4663 52.6156 71.2053 52.4083 70.9068 52.2697C70.6083 52.131 70.281 52.065 69.9518 52.0771C69.193 52.0771 68.4653 52.3771 67.9288 52.9111C67.3922 53.4451 67.0908 54.1693 67.0908 54.9245C67.0908 55.6797 67.3922 56.404 67.9288 56.938C68.4653 57.472 69.193 57.7719 69.9518 57.7719C70.281 57.784 70.6083 57.718 70.9068 57.5794C71.2053 57.4408 71.4663 57.2335 71.6684 56.9747V57.6353H72.8129V54.9359ZM74.7984 56.8665C74.8728 56.8656 74.9467 56.8791 75.0159 56.9063C75.0816 56.933 75.1417 56.9716 75.1932 57.0202C75.2435 57.0693 75.2843 57.1272 75.3134 57.1911C75.3424 57.2576 75.3573 57.3293 75.3573 57.4018C75.3573 57.4743 75.3424 57.546 75.3134 57.6125C75.2843 57.6763 75.2435 57.7342 75.1932 57.7833C75.1417 57.8319 75.0816 57.8705 75.0159 57.8972C74.9474 57.9273 74.8733 57.9428 74.7984 57.9428C74.6899 57.942 74.5839 57.9105 74.4928 57.852C74.4016 57.7935 74.329 57.7105 74.2834 57.6125C74.2548 57.5459 74.24 57.4742 74.24 57.4018C74.24 57.3293 74.2548 57.2577 74.2834 57.1911C74.3126 57.1272 74.3533 57.0693 74.4036 57.0202C74.4551 56.9716 74.5153 56.933 74.581 56.9063C74.6555 56.8768 74.7354 56.8632 74.8156 56.8665H74.7984ZM74.7984 57.8289C74.8555 57.8292 74.9121 57.8176 74.9644 57.7947C75.0136 57.7728 75.0582 57.7419 75.096 57.7036C75.1675 57.6259 75.2072 57.5243 75.2072 57.4189C75.2072 57.3134 75.1675 57.2118 75.096 57.1341C75.0583 57.0957 75.0137 57.0648 74.9644 57.043C74.912 57.0203 74.8555 57.0087 74.7984 57.0088C74.7414 57.0091 74.685 57.0208 74.6325 57.043C74.5811 57.064 74.5344 57.095 74.4952 57.1341C74.4236 57.2118 74.3839 57.3134 74.3839 57.4189C74.3839 57.5243 74.4236 57.6259 74.4952 57.7036C74.5345 57.7426 74.5811 57.7736 74.6325 57.7947C74.6902 57.8195 74.7528 57.8312 74.8156 57.8289H74.7984ZM74.8328 57.1512C74.8862 57.1486 74.9388 57.1647 74.9815 57.1968C74.999 57.2112 75.0129 57.2296 75.0218 57.2504C75.0308 57.2712 75.0346 57.2938 75.033 57.3164C75.0338 57.3353 75.0307 57.3542 75.0238 57.3718C75.0169 57.3894 75.0064 57.4055 74.993 57.4189C74.9598 57.4488 74.9175 57.4669 74.8728 57.4701L75.0387 57.658H74.9071L74.7526 57.4701H74.7011V57.658H74.5924V57.1569L74.8328 57.1512ZM74.7069 57.248V57.3847H74.8328C74.8552 57.3913 74.879 57.3913 74.9014 57.3847C74.9054 57.3767 74.9075 57.368 74.9075 57.3591C74.9075 57.3502 74.9054 57.3414 74.9014 57.3334C74.9054 57.3255 74.9075 57.3167 74.9075 57.3078C74.9075 57.2989 74.9054 57.2901 74.9014 57.2822C74.879 57.2755 74.8552 57.2755 74.8328 57.2822L74.7069 57.248ZM68.4126 54.9359C68.4316 54.6155 68.5443 54.3075 68.7369 54.05C68.9295 53.7925 69.1936 53.5967 69.4966 53.4866C69.7996 53.3766 70.1284 53.3572 70.4423 53.4307C70.7563 53.5043 71.0418 53.6676 71.2637 53.9006C71.4856 54.1337 71.6341 54.4261 71.6911 54.7421C71.7481 55.0581 71.7109 55.3838 71.5843 55.679C71.4576 55.9742 71.247 56.2262 70.9783 56.4038C70.7096 56.5814 70.3945 56.6769 70.072 56.6785C69.8454 56.6814 69.6207 56.6376 69.412 56.5498C69.2033 56.462 69.0151 56.3322 68.8592 56.1685C68.7034 56.0049 68.5832 55.8108 68.5064 55.5987C68.4295 55.3866 68.3976 55.1609 68.4126 54.9359ZM28.2265 54.9359V52.2138H27.0363V52.8744C26.8342 52.6156 26.5731 52.4083 26.2746 52.2697C25.9762 52.131 25.6488 52.065 25.3197 52.0771C24.5609 52.0771 23.8332 52.3771 23.2966 52.9111C22.7601 53.4451 22.4586 54.1693 22.4586 54.9245C22.4586 55.6797 22.7601 56.404 23.2966 56.938C23.8332 57.472 24.5609 57.7719 25.3197 57.7719C25.6488 57.784 25.9762 57.718 26.2746 57.5794C26.5731 57.4408 26.8342 57.2335 27.0363 56.9747V57.6353H28.2265V54.9359ZM23.7976 54.9359C23.8166 54.6155 23.9293 54.3075 24.1219 54.05C24.3145 53.7925 24.5786 53.5967 24.8816 53.4866C25.1846 53.3766 25.5134 53.3572 25.8273 53.4307C26.1413 53.5043 26.4268 53.6676 26.6487 53.9006C26.8706 54.1337 27.0192 54.4261 27.0761 54.7421C27.1331 55.0581 27.0959 55.3838 26.9693 55.679C26.8426 55.9742 26.632 56.2262 26.3633 56.4038C26.0946 56.5814 25.7796 56.6769 25.457 56.6785C25.2295 56.683 25.0035 56.6403 24.7935 56.5533C24.5834 56.4662 24.3938 56.3366 24.2367 56.1728C24.0796 56.0089 23.9584 55.8144 23.8809 55.6015C23.8033 55.3885 23.7711 55.1619 23.7862 54.9359H23.7976Z" fill="#231F20"/>
<path d="M51.7276 10.7268H33.7031V42.9652H51.7276V10.7268Z" fill="#FF5F00"/>
<path d="M34.8469 26.8488C34.8436 23.7436 35.5502 20.6783 36.9134 17.8851C38.2765 15.0919 40.2604 12.644 42.7148 10.7268C39.6758 8.34989 36.0263 6.87184 32.1833 6.46156C28.3402 6.05128 24.4587 6.72533 20.9824 8.40667C17.5061 10.088 14.5752 12.7088 12.5246 15.9695C10.4741 19.2302 9.38672 22.9993 9.38672 26.846C9.38672 30.6927 10.4741 34.4618 12.5246 37.7225C14.5752 40.9832 17.5061 43.604 20.9824 45.2853C24.4587 46.9667 28.3402 47.6407 32.1833 47.2304C36.0263 46.8202 39.6758 45.3421 42.7148 42.9652C40.2611 41.0486 38.2777 38.6016 36.9146 35.8094C35.5515 33.0173 34.8444 29.9531 34.8469 26.8488Z" fill="#EB001B"/>
<path d="M76.0459 26.8489C76.0458 30.6959 74.9582 34.4652 72.9073 37.726C70.8564 40.9868 67.925 43.6076 64.4483 45.2887C60.9715 46.9698 57.0896 47.6434 53.2464 47.2325C49.4031 46.8217 45.7535 45.3429 42.7148 42.9653C45.1675 41.0469 47.1503 38.5993 48.5138 35.8069C49.8773 33.0146 50.5857 29.9506 50.5857 26.846C50.5857 23.7415 49.8773 20.6775 48.5138 17.8851C47.1503 15.0928 45.1675 12.6452 42.7148 10.7268C45.7535 8.3492 49.4031 6.87043 53.2464 6.45956C57.0896 6.04869 60.9715 6.72231 64.4483 8.40341C67.925 10.0845 70.8564 12.7053 72.9073 15.9661C74.9582 19.2269 76.0458 22.9962 76.0459 26.8432V26.8489Z" fill="#F79E1B"/>
<path d="M74.0761 39.5484V38.8878H74.345V38.7511H73.6641V38.8878H73.9559V39.5484H74.0761ZM75.3979 39.5484V38.7511H75.1919L74.9515 39.3206L74.7112 38.7511H74.5281V39.5484H74.6769V38.9504L74.9 39.4687H75.0545L75.2777 38.9504V39.5541L75.3979 39.5484Z" fill="#F79E1B"/>
</g>
<defs>
<clipPath id="clip0_347_6323">
<rect width="84" height="68.5714" fill="white" transform="translate(0.714844 -2.28577)"/>
</clipPath>
</defs>
</svg>
