<svg width="73" height="30" viewBox="0 0 73 30" fill="none" xmlns="http://www.w3.org/2000/svg">
<g clip-path="url(#clip0_347_6334)">
<path fill-rule="evenodd" clip-rule="evenodd" d="M54.0818 5.63434L56.5856 3.79199H48.2031V14.8286H56.5856V12.9862H50.5981V10.1682H55.7147V8.32582H50.5981V5.63434H54.0818Z" fill="#21A038"/>
<path fill-rule="evenodd" clip-rule="evenodd" d="M41.8685 8.0907H38.9653V5.63434H43.6103L46.1141 3.79199H36.5703V14.8286H41.5599C44.3543 14.8286 45.9687 13.5642 45.9687 11.3605C45.9687 9.24695 44.5173 8.0907 41.8685 8.0907ZM41.4692 12.9862H38.9653V9.93343H41.4692C42.9933 9.93343 43.7011 10.4394 43.7011 11.4687C43.7011 12.4983 42.939 12.9862 41.4692 12.9862Z" fill="#21A038"/>
<path fill-rule="evenodd" clip-rule="evenodd" d="M63.3706 3.79199H58.8164V14.8286H61.2114V11.7038H63.3887C66.2919 11.7038 68.106 10.1862 68.106 7.74788C68.106 5.3091 66.2919 3.79199 63.3706 3.79199ZM63.316 9.86097H61.1933V5.63434H63.316C64.8586 5.63434 65.6929 6.39289 65.6929 7.74788C65.6929 9.10241 64.8586 9.86097 63.316 9.86097Z" fill="#21A038"/>
<path fill-rule="evenodd" clip-rule="evenodd" d="M32.4715 12.4444C31.8364 12.7877 31.1285 12.9683 30.4031 12.9683C28.2439 12.9683 26.6836 11.4327 26.6836 9.31912C26.6836 7.20604 28.2439 5.67043 30.4031 5.67043C31.1832 5.65247 31.9453 5.90516 32.5804 6.35698L34.3041 5.09249L34.1952 4.98395C33.197 4.09882 31.8544 3.64746 30.3304 3.64746C28.6793 3.64746 27.1733 4.20736 26.0846 5.21907C24.9961 6.2664 24.3795 7.72947 24.4156 9.24704C24.3975 10.7822 24.9961 12.2638 26.0846 13.3476C27.2279 14.4133 28.7521 15.0093 30.3123 14.9733C32.036 14.9733 33.5421 14.3768 34.558 13.2931L33.0158 12.1552L32.4715 12.4444Z" fill="#21A038"/>
<path fill-rule="evenodd" clip-rule="evenodd" d="M16.9206 3.71948C17.3561 4.27938 17.7193 4.89378 18.0273 5.54379L9.64522 11.7038L6.125 9.49968V6.86278L9.62674 9.04833L16.9206 3.71948Z" fill="#21A038"/>
<path fill-rule="evenodd" clip-rule="evenodd" d="M2.55272 9.319C2.55272 9.19289 2.55272 9.08435 2.57081 8.95777L0.447778 8.84961C0.447778 8.99377 0.429688 9.15642 0.429688 9.30104C0.429688 11.8299 1.46414 14.124 3.13322 15.7858L4.63926 14.2866C3.35092 13.0222 2.55272 11.27 2.55272 9.319Z" fill="url(#paint0_linear_347_6334)"/>
<path fill-rule="evenodd" clip-rule="evenodd" d="M9.62807 2.27436C9.7554 2.27436 9.86432 2.27436 9.99126 2.2924L10.1001 0.179313C9.95462 0.179313 9.79158 0.160889 9.64655 0.160889C7.10613 0.160889 4.80189 1.19056 3.13281 2.85237L4.63885 4.3519C5.90863 3.06945 7.68702 2.27436 9.62807 2.27436Z" fill="url(#paint1_linear_347_6334)"/>
<path fill-rule="evenodd" clip-rule="evenodd" d="M9.62783 16.3637C9.50089 16.3637 9.39204 16.3637 9.2651 16.3457L9.15625 18.4592C9.3012 18.4592 9.46471 18.4773 9.60974 18.4773C12.1502 18.4773 14.4544 17.4475 16.1235 15.7858L14.6175 14.2866C13.3473 15.5871 11.5874 16.3637 9.62783 16.3637Z" fill="url(#paint2_linear_347_6334)"/>
<path fill-rule="evenodd" clip-rule="evenodd" d="M13.6207 3.50274L15.4167 2.18429C13.8384 0.919878 11.8247 0.142822 9.62891 0.142822V2.25637C11.1169 2.27433 12.4959 2.72615 13.6207 3.50274Z" fill="url(#paint3_linear_347_6334)"/>
<path fill-rule="evenodd" clip-rule="evenodd" d="M18.8463 9.31898C18.8463 8.75908 18.7916 8.21715 18.7012 7.67529L16.7232 9.13836C16.7232 9.19286 16.7232 9.26494 16.7232 9.31898C16.7232 11.3965 15.8162 13.2569 14.3828 14.5394L15.8162 16.111C17.6669 14.4492 18.8463 12.0105 18.8463 9.31898Z" fill="#21A038"/>
<path fill-rule="evenodd" clip-rule="evenodd" d="M9.62657 16.3637C7.54003 16.3637 5.67134 15.4606 4.38301 14.0336L2.80469 15.4606C4.49186 17.3214 6.9235 18.4773 9.62657 18.4773V16.3637Z" fill="url(#paint4_linear_347_6334)"/>
<path fill-rule="evenodd" clip-rule="evenodd" d="M4.89314 4.09869L3.45977 2.52747C1.59108 4.20723 0.429688 6.62751 0.429688 9.31899H2.55272C2.55272 7.25995 3.45977 5.38114 4.89314 4.09869Z" fill="url(#paint5_linear_347_6334)"/>
<path fill-rule="evenodd" clip-rule="evenodd" d="M49.038 18.6005V29.857H51.4808V25.2512H56.6809V29.857H59.1237V18.6005H56.6809V23.2246H51.4808V18.6005H49.038ZM44.8372 29.857H47.4099L42.6354 18.6005H40.1554L35.2887 29.857H37.7499L38.7308 27.5911H43.9121L44.8372 29.857ZM39.4707 25.7116L41.3583 21.1981L43.1348 25.7116H39.4707ZM64.6012 25.3063H66.1188L69.8567 29.8387H73.003L68.0064 24.0167L72.3736 18.582H69.5793L65.9521 23.4089H64.6012V18.582H62.1585V29.8387H64.6012V25.3063ZM27.2201 22.9853V20.4795H33.6048V18.6005H24.7773V29.857H29.8665C32.7165 29.857 34.3631 28.5674 34.3631 26.3198C34.3631 24.1642 32.8828 22.9853 30.1812 22.9853H27.2201ZM27.2201 27.9779V24.8644H29.7739C31.3283 24.8644 32.0503 25.3803 32.0503 26.4301C32.0503 27.4804 31.2915 27.9964 29.7739 27.9964H27.2201V27.9779Z" fill="#21A038"/>
</g>
<defs>
<linearGradient id="paint0_linear_347_6334" x1="3.57133" y1="15.5682" x2="1.41557" y2="9.33064" gradientUnits="userSpaceOnUse">
<stop stop-color="#F2E913"/>
<stop offset="0.14902" stop-color="#F2E913"/>
<stop offset="0.301961" stop-color="#E7E518"/>
<stop offset="0.580392" stop-color="#CADB26"/>
<stop offset="0.890196" stop-color="#A3CD39"/>
<stop offset="1" stop-color="#A3CD39"/>
</linearGradient>
<linearGradient id="paint1_linear_347_6334" x1="3.97856" y1="3.36347" x2="9.47954" y2="1.26414" gradientUnits="userSpaceOnUse">
<stop stop-color="#0FA8E0"/>
<stop offset="0.0588235" stop-color="#0FA8E0"/>
<stop offset="0.541176" stop-color="#0099F9"/>
<stop offset="0.921569" stop-color="#0291EB"/>
<stop offset="1" stop-color="#0291EB"/>
</linearGradient>
<linearGradient id="paint2_linear_347_6334" x1="9.13685" y1="17.1051" x2="15.6955" y2="15.6196" gradientUnits="userSpaceOnUse">
<stop stop-color="#A3CD39"/>
<stop offset="0.121569" stop-color="#A3CD39"/>
<stop offset="0.290196" stop-color="#86C339"/>
<stop offset="0.870588" stop-color="#21A038"/>
<stop offset="1" stop-color="#21A038"/>
</linearGradient>
<linearGradient id="paint3_linear_347_6334" x1="9.35918" y1="1.01169" x2="14.8129" y2="2.69623" gradientUnits="userSpaceOnUse">
<stop stop-color="#0291EB"/>
<stop offset="0.0509804" stop-color="#0291EB"/>
<stop offset="0.788235" stop-color="#0C8ACB"/>
<stop offset="1" stop-color="#0C8ACB"/>
</linearGradient>
<linearGradient id="paint4_linear_347_6334" x1="3.5654" y1="15.1169" x2="9.41972" y2="17.3077" gradientUnits="userSpaceOnUse">
<stop stop-color="#F2E913"/>
<stop offset="0.129412" stop-color="#F2E913"/>
<stop offset="0.301961" stop-color="#EBE716"/>
<stop offset="0.529412" stop-color="#D9E01F"/>
<stop offset="0.8" stop-color="#BBD62D"/>
<stop offset="0.980392" stop-color="#A3CD39"/>
<stop offset="1" stop-color="#A3CD39"/>
</linearGradient>
<linearGradient id="paint5_linear_347_6334" x1="1.41606" y1="8.58156" x2="3.74794" y2="2.50984" gradientUnits="userSpaceOnUse">
<stop stop-color="#A3CD39"/>
<stop offset="0.0705882" stop-color="#A3CD39"/>
<stop offset="0.258824" stop-color="#81C55F"/>
<stop offset="0.921569" stop-color="#0FA8E0"/>
<stop offset="1" stop-color="#0FA8E0"/>
</linearGradient>
<clipPath id="clip0_347_6334">
<rect width="72.5714" height="29.7143" fill="white" transform="translate(0.429688 0.142822)"/>
</clipPath>
</defs>
</svg>
