<svg width="73" height="38" viewBox="0 0 73 38" fill="none" xmlns="http://www.w3.org/2000/svg">
<g clip-path="url(#clip0_347_6356)">
<path d="M35.5703 23.1227H36.706V25.6651H37.5265L38.9988 23.1227H40.2404L38.4732 26.1066V26.1275L40.3456 29.3836H39.0622L37.5474 26.6519H36.7275V29.3836H35.5912V23.1221H35.5703V23.1227ZM42.8909 24.7828C44.2573 24.7828 45.3727 25.7702 45.3727 27.1358C45.3727 28.5229 44.2789 29.4894 42.9118 29.4894C41.5441 29.4894 40.4503 28.5229 40.4503 27.1358C40.4293 25.7493 41.5231 24.7828 42.8909 24.7828ZM46.256 24.8873H47.3288V28.4177H48.7384V24.8879H49.8107V28.4177H51.2202V24.8879H52.2931V29.3836H46.2978V24.8873H46.256ZM55.4699 24.7828C56.7527 24.7828 57.4679 25.7284 57.4679 26.9053C57.4644 27.053 57.4504 27.2003 57.4261 27.3461H54.3336C54.397 28.1232 55.007 28.5438 55.6804 28.5438C56.1427 28.5438 56.6056 28.3335 56.9632 28.0605L57.4052 28.8592C56.9423 29.2576 56.2479 29.5103 55.5961 29.5103C54.1022 29.5103 53.1771 28.4386 53.1771 27.1567C53.1771 25.7493 54.1231 24.7828 55.4699 24.7828ZM57.9936 28.4386C58.5408 28.3544 58.9403 27.8927 58.9403 26.2953V24.8879H62.2223V29.3836H61.107V25.7905H60.0132V26.2946C60.0132 28.2486 59.4875 29.3836 57.9936 29.4254V28.438V28.4386ZM65.4194 24.7828C66.7021 24.7828 67.4174 25.7284 67.4174 26.9053C67.4139 27.053 67.3999 27.2003 67.3756 27.3461H64.2831C64.3465 28.1232 64.9565 28.5438 65.6299 28.5438C66.0922 28.5438 66.555 28.3335 66.9127 28.0605L67.3546 28.8592C66.8917 29.2576 66.1974 29.5103 65.5456 29.5103C64.0523 29.5103 63.1265 28.4386 63.1265 27.1567C63.1265 25.7493 64.0732 24.7828 65.4194 24.7828ZM68.3432 24.8873H69.4579V26.6107H70.0051L71.0989 24.8879H72.3398L70.9093 27.0306V27.0522L72.5079 29.3836H71.2042L70.026 27.5564H69.4376V29.3836H68.3216V24.8873H68.3425H68.3432ZM42.8909 28.5229C43.627 28.5229 44.237 27.9554 44.237 27.1149C44.237 26.2953 43.627 25.7069 42.8902 25.7069C42.1547 25.7069 41.5656 26.2751 41.5656 27.1149C41.5656 27.9554 42.154 28.5229 42.8909 28.5229ZM56.3323 26.5689C56.3323 25.9805 55.9322 25.6233 55.4274 25.6233C54.8599 25.6233 54.4389 26.0014 54.3336 26.5689H56.3323ZM66.2818 26.5689C66.2818 25.9805 65.8823 25.6233 65.3776 25.6233C64.8088 25.6233 64.3884 26.0014 64.2831 26.5689H66.2818Z" fill="#2D3540"/>
<path d="M51.2854 9.48613V20.0971C51.2863 20.1359 51.2793 20.1745 51.2648 20.2106C51.2504 20.2466 51.2287 20.2794 51.2012 20.3069C51.1737 20.3343 51.1409 20.3559 51.1048 20.3704C51.0687 20.3848 51.0301 20.3918 50.9912 20.3909H48.8245C48.7856 20.3918 48.747 20.3848 48.7109 20.3704C48.6748 20.3559 48.642 20.3343 48.6145 20.3069C48.587 20.2794 48.5653 20.2466 48.5509 20.2106C48.5364 20.1745 48.5294 20.1359 48.5303 20.0971V9.48613C48.5294 9.44729 48.5364 9.40867 48.5509 9.37262C48.5653 9.33656 48.587 9.3038 48.6145 9.27633C48.642 9.24887 48.6748 9.22725 48.7109 9.2128C48.747 9.19835 48.7856 9.19136 48.8245 9.19225H50.9912C51.0301 9.19136 51.0687 9.19835 51.1048 9.2128C51.1409 9.22725 51.1737 9.24887 51.2012 9.27633C51.2287 9.3038 51.2504 9.33656 51.2648 9.37262C51.2793 9.40867 51.2863 9.44729 51.2854 9.48613ZM68.1978 9.19225C68.2822 9.19225 68.3874 9.23405 68.492 9.31829C68.5554 9.38098 68.5554 9.48613 68.5345 9.57037L64.9583 20.2022C64.9365 20.2572 64.899 20.3046 64.8504 20.3383C64.8017 20.372 64.7442 20.3905 64.685 20.3916H62.7497C62.6235 20.3916 62.5183 20.3282 62.4764 20.2022L60.3928 14.004L58.3104 20.2016C58.2887 20.2566 58.2512 20.3039 58.2026 20.3376C58.1539 20.3713 58.0964 20.3899 58.0372 20.3909H56.1019C55.9757 20.3909 55.8705 20.3282 55.8286 20.2016L52.2524 9.56972C52.2314 9.48613 52.2314 9.40188 52.2942 9.31829C52.3367 9.23405 52.442 9.19225 52.5257 9.19225H54.9447C55.0709 9.19225 55.1762 9.27584 55.2186 9.40188L57.1323 15.6843L59.2362 9.40188C59.2579 9.34686 59.2955 9.29951 59.3441 9.2658C59.3928 9.23209 59.4503 9.21354 59.5095 9.21249H61.2133C61.3395 9.21249 61.4448 9.27584 61.4866 9.40188L63.5905 15.6843L65.5048 9.40188C65.522 9.34237 65.5578 9.2899 65.607 9.25218C65.6561 9.21446 65.7161 9.19346 65.7781 9.19225H68.1972H68.1978ZM71.8578 9.19225C72.0049 9.19225 72.1311 9.31829 72.152 9.48613V20.0971C72.1529 20.1359 72.1459 20.1745 72.1314 20.2106C72.1169 20.2466 72.0953 20.2794 72.0678 20.3069C72.0403 20.3343 72.0075 20.3559 71.9714 20.3704C71.9353 20.3848 71.8967 20.3918 71.8578 20.3909H69.6911C69.6522 20.3918 69.6135 20.3848 69.5775 20.3704C69.5414 20.3559 69.5086 20.3343 69.4811 20.3069C69.4536 20.2794 69.4319 20.2466 69.4175 20.2106C69.403 20.1745 69.396 20.1359 69.3969 20.0971V9.48613C69.396 9.44729 69.403 9.40867 69.4175 9.37262C69.4319 9.33656 69.4536 9.3038 69.4811 9.27633C69.5086 9.24887 69.5414 9.22725 69.5775 9.2128C69.6135 9.19835 69.6522 9.19136 69.6911 9.19225H71.8578ZM47.2678 20.0135C47.394 20.1604 47.2887 20.37 47.0991 20.37H44.4487C44.3965 20.3715 44.3447 20.3608 44.2973 20.3389C44.2499 20.3171 44.2081 20.2846 44.1754 20.244L43.7341 19.698C42.8083 20.2858 41.7138 20.6437 40.5573 20.6437C37.3183 20.6437 34.6888 18.0171 34.6888 14.7811C34.6888 11.5452 37.3183 8.91862 40.5573 8.91862C43.7968 8.91862 46.4264 11.5452 46.4264 14.7811C46.4264 15.9371 46.0897 17.0296 45.5006 17.9537L47.2678 20.0128V20.0135ZM25.1172 25.1609C25.6644 25.3712 25.8749 26.1901 25.9168 26.5473C26.0011 27.1991 25.8122 27.4512 25.6017 27.4512C25.3911 27.4512 25.0963 27.1991 24.7811 26.6949C24.4654 26.1901 24.3392 25.6233 24.5079 25.3287C24.6125 25.1394 24.8439 25.0558 25.1178 25.1609H25.1172ZM21.9201 27.5354C22.2568 27.5354 22.6354 27.6824 22.9721 27.9762C23.6239 28.5229 23.8135 29.1531 23.4768 29.6154C23.2872 29.8466 22.9721 29.9936 22.6145 29.9936C22.2568 29.9936 21.8783 29.8675 21.6259 29.6363C21.0368 29.1322 20.8688 28.291 21.2467 27.8293C21.3945 27.6399 21.6259 27.5354 21.9201 27.5354ZM14.5584 33.6076C6.56441 33.6076 0.0859375 27.1358 0.0859375 19.1514C0.0859375 11.1671 6.56506 4.69592 14.5577 4.69592C22.551 4.69592 29.0302 11.1678 29.0302 19.1514C29.0302 21.8616 28.2731 24.4047 26.9903 26.5689C26.9478 26.6316 26.8426 26.6107 26.8216 26.5265C26.3169 22.9758 24.1502 21.0211 20.995 20.4334C20.7211 20.3909 20.6792 20.2231 21.0368 20.1813C22.0045 20.0971 23.3716 20.118 24.0868 20.244C24.1287 19.8868 24.1502 19.5087 24.1502 19.1305C24.1502 13.8564 19.8587 9.56972 14.5786 9.56972C9.29924 9.56972 5.00772 13.8564 5.00772 19.1305C5.00772 24.4047 9.29924 28.6913 14.5793 28.6913H15.0206C14.8707 27.8383 14.8072 26.9723 14.831 26.1065C14.8526 25.5181 14.9788 25.4339 15.2311 25.8962C16.5564 28.1865 18.4498 30.2456 22.1516 31.0652C25.1806 31.7379 28.2097 32.515 31.4701 36.6541C31.7643 37.0113 31.323 37.3895 30.9863 37.0956C27.6631 34.1536 24.634 33.187 21.8783 33.187C18.7858 33.2086 16.6826 33.6076 14.5577 33.6076H14.5584ZM42.0087 17.6598L40.8515 16.2518C40.7259 16.1049 40.8312 15.8737 41.0201 15.8737H43.4601C43.5863 15.5374 43.6497 15.1593 43.6497 14.7811C43.6497 13.0375 42.3454 11.5243 40.5573 11.5243C38.7698 11.5243 37.4648 13.0375 37.4648 14.7811C37.4648 16.5248 38.7698 18.0171 40.5573 18.0171C41.062 18.038 41.5674 17.891 42.0087 17.6598Z" fill="#FF8C00"/>
</g>
<defs>
<clipPath id="clip0_347_6356">
<rect width="72.5714" height="36.5714" fill="white" transform="translate(0 0.714233)"/>
</clipPath>
</defs>
</svg>
