<svg width="68" height="22" viewBox="0 0 68 22" fill="none" xmlns="http://www.w3.org/2000/svg">
<g clip-path="url(#clip0_347_6352)">
<path d="M35.1369 7.05706C35.099 10.0697 37.7941 11.751 39.8243 12.7505C41.9103 13.7762 42.611 14.4338 42.603 15.3509C42.5871 16.7547 40.939 17.3741 39.3964 17.3982C36.7053 17.4405 35.1408 16.6642 33.8968 16.0769L32.9275 20.6602C34.1755 21.2415 36.4864 21.7483 38.8829 21.7704C44.5079 21.7704 48.1882 18.9649 48.2081 14.6148C48.23 9.09432 40.6504 8.78863 40.7021 6.32099C40.72 5.57286 41.4267 4.77444 42.9752 4.57132C43.7415 4.46876 45.8574 4.39032 48.2559 5.50649L49.1973 1.07198C47.9075 0.597359 46.2495 0.142845 44.1854 0.142845C38.8908 0.142845 35.1667 2.98656 35.1369 7.05706ZM58.2439 0.524958C57.2168 0.524958 56.351 1.1303 55.9648 2.05944L47.9294 21.4446H53.5504L54.6691 18.3213H61.5381L62.187 21.4446H67.1412L62.8179 0.524958H58.2439ZM59.0301 6.17619L60.6523 14.0316H56.2097L59.0301 6.17619ZM28.3216 0.524958L23.8909 21.4446H29.2471L33.6759 0.524958H28.3216ZM20.3976 0.524958L14.8224 14.7637L12.5672 2.65674C12.3025 1.30527 11.2575 0.524958 10.0971 0.524958H0.982857L0.855469 1.13231C2.72648 1.54258 4.85228 2.20424 6.14009 2.91215C6.92831 3.34454 7.15323 3.72263 7.41199 4.75031L11.6835 21.4446H17.3443L26.0226 0.524958H20.3976Z" fill="url(#paint0_linear_347_6352)"/>
</g>
<defs>
<linearGradient id="paint0_linear_347_6352" x1="31.3298" y1="22.2043" x2="31.9623" y2="-0.00718786" gradientUnits="userSpaceOnUse">
<stop stop-color="#222357"/>
<stop offset="1" stop-color="#254AA5"/>
</linearGradient>
<clipPath id="clip0_347_6352">
<rect width="66.2857" height="21.7143" fill="white" transform="translate(0.855469 0.142822)"/>
</clipPath>
</defs>
</svg>
