<svg width="56" height="40" viewBox="0 0 56 40" fill="none" xmlns="http://www.w3.org/2000/svg">
<g clip-path="url(#clip0_347_6361)">
<path d="M35.7451 0C24.7849 0 16.0664 8.85894 16.0664 19.7143C16.0664 30.6944 24.9094 39.4286 35.7451 39.4286C46.5809 39.4286 55.4239 30.5696 55.4239 19.7143C55.4239 8.85894 46.5809 0 35.7451 0ZM35.7451 27.076C31.7596 27.076 28.3968 23.7071 28.3968 19.7143C28.3968 15.7215 31.7596 12.3526 35.7451 12.3526C39.7307 12.3526 43.0935 15.7215 43.0935 19.7143C42.9692 23.7071 39.7307 27.076 35.7451 27.076Z" fill="#8B3FFD"/>
<path d="M15.9423 5.73962V34.4376H8.96756L0 5.73962H15.9423Z" fill="#8B3FFD"/>
</g>
<defs>
<clipPath id="clip0_347_6361">
<rect width="55.4286" height="39.4286" fill="white"/>
</clipPath>
</defs>
</svg>
