<svg width="34" height="30" viewBox="0 0 34 30" fill="none" xmlns="http://www.w3.org/2000/svg">
<path d="M12.5 29C13.3284 29 14 28.3284 14 27.5C14 26.6716 13.3284 26 12.5 26C11.6716 26 11 26.6716 11 27.5C11 28.3284 11.6716 29 12.5 29Z" stroke="white" stroke-width="2" stroke-linecap="round" stroke-linejoin="round"/>
<path d="M28.5 29C29.3284 29 30 28.3284 30 27.5C30 26.6716 29.3284 26 28.5 26C27.6716 26 27 26.6716 27 27.5C27 28.3284 27.6716 29 28.5 29Z" stroke="white" stroke-width="2" stroke-linecap="round" stroke-linejoin="round"/>
<path d="M1 1H4.60018C5.56826 1 6.39736 1.69336 6.56863 2.64617L9.93137 21.3538C10.1026 22.3066 10.9317 23 11.8998 23H30" stroke="white" stroke-width="2" stroke-linecap="round" stroke-linejoin="round"/>
<path d="M9.5 18H30.1311C30.2753 18.0001 30.4151 17.9481 30.5267 17.8528C30.6383 17.7576 30.7147 17.625 30.743 17.4776L32.9879 5.77756C33.006 5.68322 33.0038 5.58586 32.9814 5.49251C32.9591 5.39916 32.9171 5.31216 32.8586 5.23777C32.8 5.16338 32.7264 5.10346 32.6429 5.06234C32.5595 5.02123 32.4683 4.99993 32.376 5L11.4192 5" stroke="white" stroke-width="2" stroke-linecap="round" stroke-linejoin="round"/>
</svg>
