<svg width="28" height="28" viewBox="0 0 28 28" fill="none" xmlns="http://www.w3.org/2000/svg">
<path d="M4.78409 20.7812C4.84971 20.5417 4.70589 20.2087 4.56862 19.9686C4.52607 19.8969 4.4797 19.8275 4.42971 19.7608C3.25244 17.9754 2.62495 15.8838 2.62503 13.7452C2.60534 7.60648 7.69565 2.625 13.9902 2.625C19.4797 2.625 24.0625 6.42797 25.1328 11.4762C25.2934 12.2246 25.3746 12.9879 25.375 13.7534C25.375 19.9008 20.481 24.9605 14.1865 24.9605C13.1852 24.9605 11.8349 24.7089 11.0983 24.5027C10.3617 24.2966 9.62612 24.0231 9.43635 23.9498C9.24208 23.8752 9.03578 23.8369 8.82768 23.8366C8.60076 23.8358 8.37602 23.881 8.16706 23.9695L4.45706 25.3083C4.37599 25.3433 4.29005 25.3658 4.20221 25.375C4.13273 25.3748 4.06399 25.3608 3.99995 25.3339C3.93591 25.3069 3.87785 25.2675 3.82912 25.218C3.7804 25.1684 3.74199 25.1097 3.7161 25.0453C3.69021 24.9808 3.67737 24.9118 3.67831 24.8423C3.68287 24.7814 3.69387 24.7211 3.71112 24.6624L4.78409 20.7812Z" stroke="#00AA2E" stroke-width="2" stroke-miterlimit="10" stroke-linecap="round"/>
<path d="M8.74994 15.75C9.71644 15.75 10.4999 14.9665 10.4999 14C10.4999 13.0335 9.71644 12.25 8.74994 12.25C7.78344 12.25 6.99994 13.0335 6.99994 14C6.99994 14.9665 7.78344 15.75 8.74994 15.75Z" fill="#00AA2E"/>
<path d="M13.9999 15.75C14.9664 15.75 15.7499 14.9665 15.7499 14C15.7499 13.0335 14.9664 12.25 13.9999 12.25C13.0334 12.25 12.2499 13.0335 12.2499 14C12.2499 14.9665 13.0334 15.75 13.9999 15.75Z" fill="#00AA2E"/>
<path d="M19.2499 15.75C20.2164 15.75 20.9999 14.9665 20.9999 14C20.9999 13.0335 20.2164 12.25 19.2499 12.25C18.2834 12.25 17.4999 13.0335 17.4999 14C17.4999 14.9665 18.2834 15.75 19.2499 15.75Z" fill="#00AA2E"/>
</svg>
