<svg width="28" height="28" viewBox="0 0 28 28" fill="none" xmlns="http://www.w3.org/2000/svg">
<path d="M14 24C13.6603 23.9996 13.3287 23.8985 13.0481 23.7099C8.89215 20.9312 7.09258 19.026 6.09999 17.8349C3.98472 15.2958 2.97203 12.6891 3.00059 9.86615C3.0339 6.63125 5.669 4 8.8747 4C11.2057 4 12.8202 5.29323 13.7604 6.37031C13.7902 6.40409 13.827 6.43117 13.8684 6.44973C13.9097 6.46829 13.9546 6.4779 14 6.4779C14.0454 6.4779 14.0903 6.46829 14.1316 6.44973C14.173 6.43117 14.2098 6.40409 14.2396 6.37031C15.1798 5.29219 16.7943 4 19.1253 4C22.331 4 24.9661 6.63125 24.9994 9.86667C25.028 12.6901 24.0142 15.2969 21.9 17.8354C20.9074 19.0266 19.1079 20.9318 14.9519 23.7104C14.6713 23.8988 14.3396 23.9997 14 24V24Z" stroke="#FE1F13" stroke-width="2"/>
</svg>
