<svg width="42" height="41" viewBox="0 0 42 41" fill="none" xmlns="http://www.w3.org/2000/svg">
<g clip-path="url(#clip0_235_3563)">
<path d="M10.9219 6.8538V4.83204C10.9219 2.38685 12.9376 0.39032 15.4001 0.39032H32.1028C33.2308 0.39032 34.2034 0.788504 35.0006 1.58207L40.4061 6.94353C41.2034 7.73429 41.6077 8.69891 41.6077 9.81775V36.1708C41.6077 38.6132 39.5919 40.6125 37.1295 40.6125H15.4029C12.9376 40.6125 10.9247 38.6132 10.9247 36.1708V33.7957" stroke="#B8B8B8" stroke-miterlimit="22.9256" stroke-linecap="round" stroke-linejoin="round"/>
<path d="M38.5455 9.47562H35.2548C34.1267 9.47562 33.2051 8.56148 33.2051 7.44264V4.17865" stroke="#B8B8B8" stroke-miterlimit="22.9256" stroke-linecap="round" stroke-linejoin="round"/>
<path d="M10.9217 30.9467C16.7379 30.9467 21.4528 26.2702 21.4528 20.5014C21.4528 14.7326 16.7379 10.0561 10.9217 10.0561C5.10556 10.0561 0.390625 14.7326 0.390625 20.5014C0.390625 26.2702 5.10556 30.9467 10.9217 30.9467Z" stroke="#B8B8B8" stroke-miterlimit="22.9256" stroke-linecap="round" stroke-linejoin="round"/>
<path d="M13.2087 18.617C12.8242 16.1354 8.73331 16.2391 8.73331 18.6535C8.73331 21.3286 13.3302 19.7976 13.3302 22.3493C13.3302 24.5337 9.50795 24.9515 8.51562 22.6606" stroke="#B8B8B8" stroke-miterlimit="22.9256" stroke-linecap="round" stroke-linejoin="round"/>
<path d="M11.0996 16.8084V14.9745" stroke="#B8B8B8" stroke-miterlimit="22.9256" stroke-linecap="round" stroke-linejoin="round"/>
<path d="M11.0996 26.0283V24.1944" stroke="#B8B8B8" stroke-miterlimit="22.9256" stroke-linecap="round" stroke-linejoin="round"/>
<path d="M25.8008 21.3174H36.6457" stroke="#B8B8B8" stroke-miterlimit="22.9256" stroke-linecap="round" stroke-linejoin="round"/>
<path d="M25.8008 25.2964H36.6457" stroke="#B8B8B8" stroke-miterlimit="22.9256" stroke-linecap="round" stroke-linejoin="round"/>
<path d="M21.4648 29.2783H36.6466" stroke="#B8B8B8" stroke-miterlimit="22.9256" stroke-linecap="round" stroke-linejoin="round"/>
</g>
<defs>
<clipPath id="clip0_235_3563">
<rect width="42" height="41" fill="white"/>
</clipPath>
</defs>
</svg>
