<svg width="32" height="56" viewBox="0 0 32 56" fill="none" xmlns="http://www.w3.org/2000/svg">
<path d="M9.68886 39.5789H9.58566C7.83523 39.5789 6.40234 38.1503 6.40234 36.4051V6.5182C6.40234 4.77295 7.83523 3.3443 9.58566 3.3443H24.4702C26.2207 3.3443 27.6536 4.77295 27.6536 6.5182V36.4051C27.6536 38.1503 26.2207 39.5789 24.4702 39.5789H19" stroke="#B8B8B8" stroke-miterlimit="22.9256" stroke-linecap="round" stroke-linejoin="round"/>
<path d="M15.2339 33.437H27.6496M6.40234 33.437H9.68489H6.40234Z" stroke="#B8B8B8" stroke-miterlimit="22.9256" stroke-linecap="round" stroke-linejoin="round"/>
<path d="M15.3848 36.5079H18.6713" stroke="#B8B8B8" stroke-miterlimit="22.9256" stroke-linecap="round" stroke-linejoin="round"/>
<path d="M9.68945 43.0576V33.1283C9.68945 31.6086 10.9358 30.366 12.46 30.366C13.9842 30.366 15.2305 31.6086 15.2305 33.1283V39.8718C15.2305 41.5577 16.0164 43.0061 17.4334 43.9243C19.2632 45.1115 20.3587 47.2604 20.1047 49.5558" stroke="#B8B8B8" stroke-miterlimit="22.9256" stroke-linecap="round" stroke-linejoin="round"/>
<path d="M24.4707 39.579C26.6776 41.815 26.9753 45.2184 25.3638 47.767C24.7525 48.7326 24.4707 49.7141 24.4707 50.8578V53.6518" stroke="#B8B8B8" stroke-miterlimit="22.9256" stroke-linecap="round" stroke-linejoin="round"/>
<path d="M8.04551 53.5489V52.1835C8.04551 50.6995 7.55729 49.4212 6.56102 48.3131L3.83019 45.2738C2.83789 44.1657 2.3457 42.8874 2.3457 41.4034V27.1446C2.3457 25.6684 2.82995 24.3981 3.81432 23.2939L6.40225 20.3892" stroke="#B8B8B8" stroke-miterlimit="22.9256" stroke-linecap="round" stroke-linejoin="round"/>
<path d="M24.1017 5.73859H9.95141C9.33104 5.73859 8.82812 6.29317 8.82812 6.97728V15.846C8.82812 16.5301 9.33104 17.0847 9.95141 17.0847H24.1017C24.7221 17.0847 25.225 16.5301 25.225 15.846V6.97728C25.225 6.29317 24.7221 5.73859 24.1017 5.73859Z" stroke="#B8B8B8" stroke-miterlimit="22.9256" stroke-linecap="round" stroke-linejoin="round"/>
<path d="M8.82812 8.8927H25.225" stroke="#B8B8B8" stroke-miterlimit="22.9256" stroke-linecap="round" stroke-linejoin="round"/>
<path d="M19.8868 15.6362C20.9106 15.6362 21.7405 14.8088 21.7405 13.7881C21.7405 12.7674 20.9106 11.9399 19.8868 11.9399C18.8631 11.9399 18.0332 12.7674 18.0332 13.7881C18.0332 14.8088 18.8631 15.6362 19.8868 15.6362Z" stroke="#B8B8B8" stroke-miterlimit="22.9256" stroke-linecap="round" stroke-linejoin="round"/>
<path d="M20.8984 12.2407C22.1091 11.4532 23.7602 12.308 23.7602 13.7881C23.7602 15.2682 22.1091 16.123 20.8984 15.3355" stroke="#B8B8B8" stroke-miterlimit="22.9256" stroke-linecap="round" stroke-linejoin="round"/>
</svg>
