<svg width="41" height="42" viewBox="0 0 41 42" fill="none" xmlns="http://www.w3.org/2000/svg">
<path d="M9.94979 7.2113H5.46972C3.50478 7.2113 1.89844 8.75681 1.89844 10.6444C1.89844 12.532 3.50478 14.0775 5.46972 14.0775H33.2024V10.9622C33.2024 8.89753 31.4978 7.2113 29.4052 7.2113H27.9732" stroke="#00AA2E" stroke-miterlimit="22.9256" stroke-linecap="round" stroke-linejoin="round"/>
<path d="M1.89844 10.6808V35.8747C1.89844 37.8594 3.53671 39.4801 5.54832 39.4801H33.3523C35.3614 39.4801 37.0021 37.8618 37.0021 35.8747V32.0025M37.0021 21.3974V17.8236C37.0021 15.7589 35.2976 14.0726 33.2049 14.0726H26.9048" stroke="#00AA2E" stroke-miterlimit="22.9256" stroke-linecap="round" stroke-linejoin="round"/>
<path fill-rule="evenodd" clip-rule="evenodd" d="M39.16 21.3998H31.3199C28.3675 21.3998 25.9531 23.7848 25.9531 26.7011C25.9531 29.6175 28.3675 32.0024 31.3199 32.0024H39.16V21.3974V21.3998Z" stroke="#00AA2E" stroke-miterlimit="22.9256" stroke-linecap="round" stroke-linejoin="round"/>
<path d="M30.6148 28.8775C31.8302 28.8775 32.8155 27.9042 32.8155 26.7036C32.8155 25.503 31.8302 24.5297 30.6148 24.5297C29.3994 24.5297 28.4141 25.503 28.4141 26.7036C28.4141 27.9042 29.3994 28.8775 30.6148 28.8775Z" stroke="#00AA2E" stroke-miterlimit="22.9256" stroke-linecap="round" stroke-linejoin="round"/>
<path d="M8.21094 11.5688L17.3577 2.53355C18.2444 1.65768 19.6911 1.65768 20.5778 2.53355L29.7246 11.5688" stroke="#00AA2E" stroke-miterlimit="22.9256" stroke-linecap="round" stroke-linejoin="round"/>
<path d="M13.8008 6.04431C16.8415 8.37349 21.0932 8.37349 24.1339 6.04431" stroke="#00AA2E" stroke-miterlimit="22.9256" stroke-linecap="round" stroke-linejoin="round"/>
<path d="M18.9297 12.1025L20.9388 10.0427" stroke="#00AA2E" stroke-miterlimit="22.9256" stroke-linecap="round" stroke-linejoin="round"/>
</svg>
