<svg width="17" height="18" viewBox="0 0 17 18" fill="none" xmlns="http://www.w3.org/2000/svg">
<path d="M16.9568 4.99902C16.917 4.09557 16.7709 3.47445 16.5616 2.93625C16.3457 2.36496 16.0135 1.85348 15.5783 1.42829C15.1531 0.996482 14.6383 0.660948 14.0736 0.448417C13.5323 0.23913 12.9144 0.0930309 12.011 0.0531976C11.1008 0.00999076 10.8118 0 8.50331 0C6.19479 0 5.90584 0.00999076 4.99902 0.0498241C4.09556 0.0896574 3.47445 0.235886 2.93638 0.445043C2.36496 0.660948 1.85348 0.993108 1.42829 1.42829C0.996481 1.85348 0.661077 2.36833 0.448417 2.933C0.23913 3.47445 0.0930309 4.09219 0.0531976 4.99564C0.00999076 5.90584 0 6.19479 0 8.50331C0 10.8118 0.00999076 11.1008 0.0498241 12.0076C0.0896574 12.9111 0.235886 13.5322 0.445173 14.0704C0.661077 14.6417 0.996481 15.1531 1.42829 15.5783C1.85348 16.0101 2.36833 16.3457 2.933 16.5582C3.47445 16.7675 4.09219 16.9136 4.99577 16.9534C5.90247 16.9934 6.19155 17.0032 8.50006 17.0032C10.8086 17.0032 11.0975 16.9934 12.0044 16.9534C12.9078 16.9136 13.5289 16.7675 14.067 16.5582C15.2097 16.1164 16.1132 15.213 16.555 14.0704C16.7641 13.5289 16.9103 12.9111 16.9502 12.0076C16.99 11.1008 17 10.8118 17 8.50331C17 6.19479 16.9966 5.90584 16.9568 4.99902ZM15.4256 11.9412C15.389 12.7716 15.2495 13.22 15.1333 13.5189C14.8476 14.2597 14.2597 14.8476 13.5189 15.1333C13.22 15.2495 12.7683 15.389 11.9412 15.4255C11.0443 15.4654 10.7754 15.4753 8.50668 15.4753C6.238 15.4753 5.96565 15.4654 5.07206 15.4255C4.24166 15.389 3.79325 15.2495 3.4943 15.1333C3.12568 14.997 2.79015 14.7811 2.5178 14.4988C2.23547 14.2231 2.01956 13.8909 1.88332 13.5223C1.76707 13.2234 1.62759 12.7716 1.59113 11.9445C1.55116 11.0477 1.5413 10.7786 1.5413 8.50993C1.5413 6.24124 1.55116 5.9689 1.59113 5.07544C1.62759 4.24504 1.76707 3.79662 1.88332 3.49768C2.01956 3.12893 2.23547 2.79352 2.52118 2.52105C2.79677 2.23871 3.12893 2.02281 3.49768 1.8867C3.79662 1.77044 4.24841 1.63096 5.07544 1.59437C5.97227 1.55454 6.24137 1.54455 8.50993 1.54455C10.782 1.54455 11.051 1.55454 11.9445 1.59437C12.7749 1.63096 13.2234 1.77044 13.5223 1.8867C13.8909 2.02281 14.2265 2.23871 14.4988 2.52105C14.7811 2.79677 14.997 3.12893 15.1333 3.49768C15.2495 3.79662 15.389 4.24828 15.4256 5.07544C15.4654 5.97227 15.4754 6.24124 15.4754 8.50993C15.4754 10.7786 15.4654 11.0443 15.4256 11.9412Z" fill="white"/>
<path d="M8.50286 4.1355C6.09145 4.1355 4.13495 6.09187 4.13495 8.50341C4.13495 10.9149 6.09145 12.8713 8.50286 12.8713C10.9144 12.8713 12.8708 10.9149 12.8708 8.50341C12.8708 6.09187 10.9144 4.1355 8.50286 4.1355ZM8.50286 11.3368C6.93846 11.3368 5.6695 10.0679 5.6695 8.50341C5.6695 6.93888 6.93846 5.67005 8.50286 5.67005C10.0674 5.67005 11.3362 6.93888 11.3362 8.50341C11.3362 10.0679 10.0674 11.3368 8.50286 11.3368Z" fill="white"/>
<path d="M14.0633 3.96282C14.0633 4.52594 13.6067 4.98253 13.0435 4.98253C12.4804 4.98253 12.0238 4.52594 12.0238 3.96282C12.0238 3.39958 12.4804 2.94312 13.0435 2.94312C13.6067 2.94312 14.0633 3.39958 14.0633 3.96282Z" fill="white"/>
</svg>
