<svg width="27" height="21" viewBox="0 0 27 21" fill="none" xmlns="http://www.w3.org/2000/svg">
<path fill-rule="evenodd" clip-rule="evenodd" d="M13.7585 0.158756C15.7712 0.158756 17.6563 0.617387 19.2755 1.41671L23.4195 0.0205905C23.5465 -0.0222437 23.6773 0.00242763 23.7788 0.0883034C23.8804 0.17411 23.9239 0.296852 23.8984 0.425493L23.0794 4.55744C23.4744 5.1001 23.8043 5.6799 24.0601 6.28917L26.4337 6.75637C26.6062 6.79037 26.7273 6.93456 26.7273 7.10617V11.9222C26.7273 12.0938 26.6062 12.238 26.4337 12.272L23.9021 12.7703C23.3009 14.0334 22.3764 15.158 21.2149 16.0718V20.5523C21.2149 20.7489 21.0505 20.9091 20.8489 20.9091H17.1651C16.9636 20.9091 16.7992 20.7489 16.7992 20.5523V18.1867C15.8339 18.4218 14.8138 18.5481 13.7585 18.5481C12.7032 18.5481 11.6831 18.4217 10.7178 18.1867V20.5523C10.7178 20.7489 10.5533 20.9091 10.3518 20.9091H6.66802C6.4664 20.9091 6.30197 20.7489 6.30197 20.5523V16.0718C4.16894 14.3939 2.83522 12.0049 2.83522 9.35341C2.83522 4.27528 7.72567 0.158756 13.7585 0.158756H13.7585Z" fill="white"/>
<path d="M9.42613 2.5129C10.0267 2.22192 10.6822 1.99322 11.3779 1.83855C12.0522 1.68858 12.7595 1.60838 13.4862 1.60838C14.2394 1.60838 14.9693 1.69368 15.661 1.85283C16.3764 2.01742 17.0498 2.26119 17.6648 2.57122L17.2778 3.21677C16.7224 2.93673 16.1136 2.71643 15.466 2.56748C14.8395 2.42335 14.1752 2.34604 13.4862 2.34604C12.817 2.34604 12.1733 2.41825 11.5667 2.55314C10.9391 2.69273 10.3459 2.89989 9.80056 3.16412L9.42613 2.5129Z" fill="#A10040"/>
<path d="M3.78978 9.91585H2.5744C1.96592 9.91585 1.41312 9.67323 1.01269 9.28229C0.612187 8.89141 0.363632 8.35182 0.363632 7.75793C0.363632 7.16398 0.612187 6.62438 1.01269 6.23344C1.41313 5.84256 1.96599 5.59994 2.5744 5.59994V6.47224C2.21262 6.47224 1.88339 6.61701 1.64451 6.85025C1.40564 7.08342 1.25733 7.40479 1.25733 7.75793C1.25733 8.11101 1.40564 8.43238 1.64458 8.66555C1.88346 8.89872 2.21262 9.04356 2.5744 9.04356H3.78978V9.91586V9.91585Z" fill="white"/>
</svg>
