<svg width="75" height="40" viewBox="0 0 75 40" fill="none" xmlns="http://www.w3.org/2000/svg">
<path d="M63.8722 14.88V25.2H67.5013V17.92H70.969V25.2H74.5174V14.88H63.8722ZM57.098 14.32H60.4045L62.098 11.28H56.7755C52.9045 11.36 50.3238 14.64 50.3238 18.72C50.3238 23.52 53.0658 25.44 56.3722 25.44C59.7593 25.44 62.2593 23.28 62.1787 20.32C62.098 18 60.1625 15.76 57.5819 15.76C56.1303 15.76 54.7593 16.24 53.8722 17.12C53.9529 15.44 55.4045 14.32 57.098 14.32ZM56.2109 18.4C57.5013 18.4 58.3884 19.44 58.3884 20.64C58.3884 21.84 57.4206 22.8 56.1303 22.8C55.1625 22.8 54.0335 21.92 54.0335 20.64C54.0335 19.44 55.0013 18.4 56.2109 18.4V18.4ZM44.598 17.6C46.1303 17.52 47.4206 18.4 47.4206 18.4L48.7916 16C47.5819 15.12 46.3722 14.64 44.7593 14.64C41.2109 14.64 38.7109 17.52 38.7109 20C38.7109 22.96 41.3722 25.44 44.6787 25.44C46.1303 25.44 47.5819 24.96 48.7109 24.08L47.4206 21.6C47.4206 21.6 46.2109 22.4 44.598 22.4C43.5496 22.4 42.1787 21.52 42.1787 20C42.1787 18.48 43.5496 17.6 44.598 17.6V17.6Z" fill="#1B0A40"/>
<path d="M10.0806 20L4.83871 23.04L0 31.44L19.9194 20H10.0806Z" fill="#874691"/>
<path d="M25.1613 11.36L19.9194 14.4L15 22.8L34.9194 11.36H25.1613Z" fill="#DA1844"/>
<path d="M19.9194 8.4L15 0V40L19.9194 31.6V8.4V8.4Z" fill="#F9B229"/>
<path d="M15 0L19.9194 8.4L25.1613 11.36H35L15 0Z" fill="#F07F1A"/>
<path d="M15 17.2V40L19.9194 31.6V25.6L15 17.2Z" fill="#72B22C"/>
<path d="M25.1613 28.64L19.9194 31.6L15 40L34.9194 28.64H25.1613Z" fill="#00743E"/>
<path d="M0 8.64001V31.44L4.91935 23.04V16.96L0 8.64001Z" fill="#5F5A94"/>
<path d="M15 17.2L0 8.64001L4.91935 16.96L25.1613 28.64H35L15 17.2Z" fill="#0D90CD"/>
</svg>
