<svg width="44" height="44" viewBox="0 0 44 44" fill="none" xmlns="http://www.w3.org/2000/svg">
<circle cx="22" cy="22" r="22" fill="#E96E2A"/>
<path d="M22 13.6C21.6448 13.6 21.3042 13.4589 21.0531 13.2078C20.802 12.9566 20.6609 12.616 20.6609 12.2609V9.33913C20.6609 8.98397 20.802 8.64336 21.0531 8.39222C21.3042 8.14109 21.6448 8 22 8C22.3552 8 22.6958 8.14109 22.9469 8.39222C23.198 8.64336 23.3391 8.98397 23.3391 9.33913V12.2609C23.3391 12.616 23.198 12.9566 22.9469 13.2078C22.6958 13.4589 22.3552 13.6 22 13.6ZM22 36C21.6448 36 21.3042 35.8589 21.0531 35.6078C20.802 35.3566 20.6609 35.016 20.6609 34.6609V31.7391C20.6609 31.384 20.802 31.0434 21.0531 30.7922C21.3042 30.5411 21.6448 30.4 22 30.4C22.3552 30.4 22.6958 30.5411 22.9469 30.7922C23.198 31.0434 23.3391 31.384 23.3391 31.7391V34.6609C23.3391 35.016 23.198 35.3566 22.9469 35.6078C22.6958 35.8589 22.3552 36 22 36ZM28.8868 16.4523C28.622 16.4523 28.3631 16.3738 28.143 16.2267C27.9228 16.0796 27.7512 15.8705 27.6498 15.6259C27.5485 15.3812 27.5219 15.112 27.5735 14.8523C27.6251 14.5926 27.7525 14.354 27.9397 14.1667L30.0056 12.1008C30.2578 11.8551 30.5966 11.7187 30.9487 11.721C31.3008 11.7233 31.6379 11.8642 31.8868 12.1132C32.1358 12.3621 32.2767 12.6992 32.279 13.0513C32.2813 13.4034 32.1449 13.7422 31.8992 13.9944L29.8333 16.0603C29.7091 16.1848 29.5616 16.2835 29.3991 16.3508C29.2367 16.418 29.0626 16.4526 28.8868 16.4523ZM13.0473 32.2918C12.7824 32.2918 12.5235 32.2132 12.3033 32.066C12.0831 31.9188 11.9115 31.7097 11.8102 31.4649C11.7089 31.2202 11.6824 30.9509 11.7341 30.6912C11.7858 30.4314 11.9134 30.1928 12.1008 30.0056L14.1667 27.9397C14.2904 27.8126 14.4382 27.7114 14.6013 27.6419C14.7645 27.5725 14.9398 27.5361 15.1172 27.5349C15.2945 27.5337 15.4703 27.5678 15.6344 27.6351C15.7984 27.7025 15.9475 27.8017 16.0729 27.9271C16.1983 28.0525 16.2975 28.2016 16.3649 28.3656C16.4322 28.5297 16.4663 28.7055 16.4651 28.8828C16.4639 29.0602 16.4275 29.2355 16.3581 29.3987C16.2886 29.5618 16.1874 29.7096 16.0603 29.8333L13.9944 31.8992C13.8702 32.0238 13.7226 32.1227 13.56 32.19C13.3975 32.2574 13.2233 32.292 13.0473 32.2918ZM34.6609 23.3391H31.7391C31.384 23.3391 31.0434 23.198 30.7922 22.9469C30.5411 22.6958 30.4 22.3552 30.4 22C30.4 21.6448 30.5411 21.3042 30.7922 21.0531C31.0434 20.802 31.384 20.6609 31.7391 20.6609H34.6609C35.016 20.6609 35.3566 20.802 35.6078 21.0531C35.8589 21.3042 36 21.6448 36 22C36 22.3552 35.8589 22.6958 35.6078 22.9469C35.3566 23.198 35.016 23.3391 34.6609 23.3391ZM12.2609 23.3391H9.33913C8.98397 23.3391 8.64336 23.198 8.39222 22.9469C8.14109 22.6958 8 22.3552 8 22C8 21.6448 8.14109 21.3042 8.39222 21.0531C8.64336 20.802 8.98397 20.6609 9.33913 20.6609H12.2609C12.616 20.6609 12.9566 20.802 13.2078 21.0531C13.4589 21.3042 13.6 21.6448 13.6 22C13.6 22.3552 13.4589 22.6958 13.2078 22.9469C12.9566 23.198 12.616 23.3391 12.2609 23.3391ZM30.9527 32.2918C30.7767 32.292 30.6025 32.2574 30.44 32.19C30.2774 32.1227 30.1298 32.0238 30.0056 31.8992L27.9397 29.8333C27.694 29.5811 27.5575 29.2422 27.5598 28.8901C27.5622 28.538 27.7031 28.201 27.952 27.952C28.201 27.7031 28.538 27.5622 28.8901 27.5598C29.2422 27.5575 29.5811 27.694 29.8333 27.9397L31.8992 30.0056C32.0866 30.1928 32.2141 30.4314 32.2659 30.6912C32.3176 30.9509 32.2911 31.2202 32.1898 31.4649C32.0885 31.7097 31.9169 31.9188 31.6967 32.066C31.4765 32.2132 31.2176 32.2918 30.9527 32.2918ZM15.1132 16.4523C14.9374 16.4527 14.7632 16.4182 14.6008 16.351C14.4383 16.2837 14.2908 16.1849 14.1667 16.0603L12.1008 13.9944C11.8551 13.7422 11.7187 13.4034 11.721 13.0513C11.7233 12.6992 11.8642 12.3621 12.1132 12.1132C12.3621 11.8642 12.6992 11.7233 13.0513 11.721C13.4034 11.7187 13.7422 11.8551 13.9944 12.1008L16.0603 14.1667C16.2475 14.354 16.3749 14.5926 16.4265 14.8523C16.4781 15.112 16.4515 15.3812 16.3502 15.6259C16.2488 15.8705 16.0772 16.0796 15.857 16.2267C15.6369 16.3738 15.378 16.4523 15.1132 16.4523ZM22 28.2087C20.772 28.2087 19.5716 27.8446 18.5506 27.1623C17.5296 26.4801 16.7338 25.5105 16.2639 24.376C15.794 23.2415 15.671 21.9931 15.9106 20.7887C16.1502 19.5844 16.7415 18.4781 17.6098 17.6098C18.4781 16.7415 19.5844 16.1502 20.7887 15.9106C21.9931 15.671 23.2415 15.794 24.376 16.2639C25.5105 16.7338 26.4801 17.5296 27.1623 18.5506C27.8446 19.5716 28.2087 20.772 28.2087 22C28.2068 23.6461 27.552 25.2241 26.3881 26.3881C25.2241 27.552 23.6461 28.2068 22 28.2087Z" fill="white"/>
</svg>
