<svg width="28" height="28" viewBox="0 0 28 28" fill="none" xmlns="http://www.w3.org/2000/svg">
<path d="M20.4963 16.8864L25.0195 20.0703C25.1528 20.1296 25.2987 20.1546 25.444 20.1431C25.5893 20.1316 25.7295 20.0839 25.8517 20.0045C25.974 19.9251 26.0745 19.8163 26.144 19.6882C26.2136 19.5601 26.25 19.4166 26.25 19.2708V8.72924C26.25 8.58344 26.2136 8.43996 26.144 8.31183C26.0745 8.1837 25.974 8.07497 25.8517 7.99554C25.7295 7.9161 25.5893 7.86847 25.444 7.85697C25.2987 7.84548 25.1528 7.87048 25.0195 7.92971L20.4963 11.1136C20.3816 11.1944 20.288 11.3015 20.2234 11.426C20.1588 11.5505 20.125 11.6887 20.125 11.8289V16.1711C20.125 16.3114 20.1588 16.4496 20.2234 16.5741C20.288 16.6986 20.3816 16.8057 20.4963 16.8864V16.8864Z" stroke="#00AA2E" stroke-width="2" stroke-linecap="round" stroke-linejoin="round"/>
<path d="M14.6562 21H4.59375C3.84021 20.9978 3.11814 20.6975 2.58531 20.1647C2.05247 19.6319 1.75216 18.9098 1.75 18.1562V9.84375C1.75216 9.09021 2.05247 8.36814 2.58531 7.83531C3.11814 7.30247 3.84021 7.00216 4.59375 7H14.6825C15.429 7.00231 16.1443 7.29989 16.6722 7.82778C17.2001 8.35566 17.4977 9.07096 17.5 9.8175V18.1562C17.4978 18.9098 17.1975 19.6319 16.6647 20.1647C16.1319 20.6975 15.4098 20.9978 14.6562 21Z" stroke="#00AA2E" stroke-width="2" stroke-miterlimit="10"/>
</svg>
