<svg width="17" height="12" viewBox="0 0 17 12" fill="none" xmlns="http://www.w3.org/2000/svg">
<path d="M16.0624 1.79678C15.8734 1.09421 15.3194 0.540411 14.617 0.351223C13.3336 0 8.2 0 8.2 0C8.2 0 3.06654 0 1.78314 0.337835C1.09421 0.526897 0.526772 1.09433 0.33771 1.79678C0 3.08005 0 5.74144 0 5.74144C0 5.74144 0 8.41622 0.33771 9.6861C0.526897 10.3885 1.0807 10.9425 1.78327 11.1317C3.08005 11.4829 8.20013 11.4829 8.20013 11.4829C8.20013 11.4829 13.3336 11.4829 14.617 11.145C15.3196 10.956 15.8734 10.4021 16.0625 9.69961C16.4003 8.41622 16.4003 5.75495 16.4003 5.75495C16.4003 5.75495 16.4138 3.08005 16.0624 1.79678Z" fill="white"/>
<path d="M6.56551 8.20011L10.8344 5.74141L6.56551 3.28271V8.20011Z" fill="#00AA2E"/>
</svg>
