<svg width="30" height="28" viewBox="0 0 30 28" fill="none" xmlns="http://www.w3.org/2000/svg">
<path d="M11.5 27C12.3284 27 13 26.3284 13 25.5C13 24.6716 12.3284 24 11.5 24C10.6716 24 10 24.6716 10 25.5C10 26.3284 10.6716 27 11.5 27Z" stroke="white" stroke-width="2" stroke-linecap="round" stroke-linejoin="round"/>
<path d="M23.5 27C24.3284 27 25 26.3284 25 25.5C25 24.6716 24.3284 24 23.5 24C22.6716 24 22 24.6716 22 25.5C22 26.3284 22.6716 27 23.5 27Z" stroke="white" stroke-width="2" stroke-linecap="round" stroke-linejoin="round"/>
<path d="M1 1H2.9406C3.90981 1 4.73954 1.69494 4.90958 2.64912L7.88587 19.3509C8.05591 20.3051 8.88564 21 9.85486 21H26" stroke="white" stroke-width="2" stroke-linecap="round" stroke-linejoin="round"/>
<path d="M7.5 16H26.4635C26.591 16.0001 26.7146 15.9481 26.8132 15.8528C26.9119 15.7576 26.9794 15.625 27.0045 15.4776L28.9893 3.77756C29.0053 3.68322 29.0033 3.58586 28.9836 3.49251C28.9638 3.39916 28.9267 3.31216 28.8749 3.23777C28.8232 3.16338 28.7581 3.10346 28.6843 3.06234C28.6105 3.02123 28.5299 2.99993 28.4483 3H9.9191" stroke="white" stroke-width="2" stroke-linecap="round" stroke-linejoin="round"/>
</svg>
