<svg width="64" height="26" viewBox="0 0 64 26" fill="none" xmlns="http://www.w3.org/2000/svg">
<g clip-path="url(#clip0_323_7705)">
<path fill-rule="evenodd" clip-rule="evenodd" d="M25.6821 4.27448L24.3445 4.27505C21.6648 4.27639 19.3686 11.0424 22.537 11.0416L24.5728 11.041C25.7467 11.041 26.6185 11.4687 26.2325 12.6213L25.7008 14.2089L23.5417 14.2094L21.7854 14.1918C19.5387 14.1695 18.0888 13.0649 17.5669 11.3881C17.002 9.57365 17.7996 5.78917 20.1143 3.36482C21.4574 1.95805 23.3178 1.10855 25.7034 1.10824L30.1103 1.10767L29.4215 3.09054C28.9763 4.37166 28.067 4.27624 27.5479 4.2758L25.6821 4.27427V4.27448Z" fill="#1B1918"/>
<path fill-rule="evenodd" clip-rule="evenodd" d="M50.0168 6.07588C47.9784 6.07549 44.9623 6.07495 42.9238 6.07495C41.7499 6.07495 41.2173 6.40005 41.0075 7.07978L40.3398 9.24278C42.3783 9.24317 45.3946 9.24376 47.4329 9.24376C48.6068 9.24376 49.1394 8.91862 49.349 8.23889L50.0168 6.07588Z" fill="#1B1918"/>
<path fill-rule="evenodd" clip-rule="evenodd" d="M48.2903 11.042C46.2518 11.0416 43.2357 11.0411 41.1973 11.0411C40.0233 11.0411 39.4907 11.3662 39.2809 12.0459L38.6133 14.2089C40.6517 14.2093 43.668 14.2099 45.7063 14.2099C46.8803 14.2099 47.4128 13.8847 47.6226 13.205L48.2903 11.042ZM51.6638 1.10972C49.625 1.10933 46.6091 1.10876 44.5707 1.10876C43.3968 1.10876 42.8642 1.4339 42.6544 2.11363L41.9867 4.2766C44.0252 4.27699 47.0414 4.27756 49.0798 4.27756C50.2538 4.27756 50.7863 3.95243 50.9959 3.2727L51.6638 1.10972Z" fill="#1B1918"/>
<path fill-rule="evenodd" clip-rule="evenodd" d="M33.8275 4.26335L35.5933 4.26392C37.0979 4.26449 36.7545 6.15141 35.9932 7.9902C35.322 9.61147 34.133 11.0418 32.7142 11.0416L29.7703 11.041C28.5963 11.041 28.0549 11.3661 27.8265 12.0459L27.0996 14.2089L29.2584 14.2094L31.3685 14.1918C33.2398 14.1763 34.7718 14.0405 36.5635 12.4238C38.4568 10.7156 40.6643 6.27837 40.2861 3.71204C39.9898 1.70121 38.9137 1.10855 36.3078 1.10824L31.5593 1.10767L28.7941 9.23349L30.5511 9.23565C31.5966 9.23677 32.1213 9.25002 32.6774 7.74717L33.8275 4.26335Z" fill="#1B1918"/>
<path fill-rule="evenodd" clip-rule="evenodd" d="M48.8301 14.2098H52.1784L53.6167 10.0851L55.1127 8.82061L56.2906 12.5512C56.655 13.7041 57.0297 14.2098 57.8486 14.2098H60.4115L57.767 6.89013L64.1269 1.09668H60.0197L56.1591 5.22142C55.7092 5.70164 55.2544 6.17454 54.7981 6.73894H54.7595L56.6868 1.09668H53.3388L48.8301 14.2098Z" fill="#1B1918"/>
<path fill-rule="evenodd" clip-rule="evenodd" d="M19.7273 19.3264L18.4727 24.017H19.2062L19.7852 21.7977C19.9107 21.2841 20.0555 20.6542 20.1616 20.1405H20.2002C20.2291 20.5572 20.3257 21.2162 20.3932 21.6621L20.7407 23.988H21.3584L22.6999 21.6136C22.9798 21.0902 23.3466 20.441 23.4624 20.1503H23.5107C23.4238 20.6542 23.3369 21.2744 23.2597 21.7783L22.9605 24.017H23.7133L24.302 19.3264H23.2983L22.1209 21.4101C21.7927 21.9818 21.4356 22.6506 21.2812 22.98H21.2619C21.2233 22.6214 21.1364 22.0691 21.0882 21.7008L20.7118 19.3264H19.7273ZM28.8864 24.017C28.8574 23.4937 28.925 22.6602 29.0794 21.8462L29.5427 19.404C29.2242 19.2974 28.7416 19.2198 28.288 19.2198C26.2613 19.2198 25.0645 20.9449 25.0645 22.573C25.0645 23.4646 25.576 24.1236 26.406 24.1236C27.0623 24.1236 27.7089 23.7747 28.2204 22.8056H28.2397C28.1818 23.2901 28.1336 23.736 28.1336 24.017H28.8864ZM28.3845 21.3422C28.1529 22.5924 27.3615 23.4646 26.6956 23.4646C26.0779 23.4646 25.8946 22.9509 25.8946 22.4276C25.9041 21.129 26.8886 19.8595 28.0949 19.8595C28.3652 19.8595 28.5293 19.8983 28.645 19.9273L28.3845 21.3422ZM30.4402 25.9358L30.8166 23.9104H30.8359C31.0193 24.017 31.3474 24.1236 31.8493 24.1236C33.4032 24.1236 34.5806 22.5633 34.5806 20.9158C34.5806 20.0533 34.156 19.2198 33.1426 19.2198C32.5056 19.2198 31.8879 19.5978 31.4632 20.2083H31.4439L31.579 19.3264H30.8456C30.778 19.8013 30.6815 20.4393 30.585 20.9998L29.6488 25.9358H30.4402ZM31.193 21.9285C31.4343 20.6057 32.2257 19.8885 32.853 19.8885C33.5286 19.8885 33.7506 20.4797 33.7506 20.974C33.7506 22.2048 32.882 23.484 31.8493 23.484C31.4729 23.484 31.1641 23.3967 30.9614 23.232L31.193 21.9285ZM36.0476 19.3264L35.15 24.017H35.9318L36.3275 21.9043H36.4722C37.0513 21.9043 37.3216 22.1369 37.5917 22.8734C37.7462 23.3095 37.8523 23.7553 37.9778 24.017H38.7596C38.6148 23.736 38.5183 23.2805 38.3542 22.7959C38.1226 22.0497 37.833 21.6039 37.3216 21.4779L39.5992 19.3264H38.6341L36.617 21.4004H36.4336L36.8293 19.3264H36.0476ZM42.8035 23.1448C42.5139 23.2998 42.0989 23.4743 41.5488 23.4743C41.0662 23.4743 40.6898 23.2611 40.5065 22.8443C40.4003 22.5924 40.3714 22.1563 40.4099 21.9528C42.1376 21.9818 43.5177 21.6523 43.5177 20.4216C43.5177 19.7529 43.0351 19.2198 42.1472 19.2198C40.6416 19.2198 39.5992 20.8189 39.5992 22.2338C39.5992 23.2707 40.1397 24.1236 41.3751 24.1236C42.0024 24.1236 42.5719 23.9491 42.9193 23.7456L42.8035 23.1448ZM42.7456 20.4506C42.7456 21.1775 41.7611 21.3422 40.5065 21.3326C40.6995 20.596 41.2689 19.8498 42.0314 19.8498C42.456 19.8498 42.7456 20.063 42.7456 20.441V20.4506ZM44.7047 24.017L45.1391 21.6621C45.3225 20.6638 46.0463 19.8885 46.635 19.8885C47.2238 19.8885 47.3299 20.2956 47.3299 20.6929C47.3299 20.877 47.3106 21.0612 47.272 21.2647L46.7508 24.017H47.5229L47.9765 21.6136C48.1695 20.5669 48.8548 19.8885 49.4337 19.8885C49.9549 19.8885 50.1381 20.2083 50.1381 20.7026C50.1381 20.8965 50.1093 21.1387 50.0707 21.3131L49.569 24.017H50.3507L50.8719 21.2453C50.9203 20.9836 50.9491 20.6735 50.9491 20.4506C50.9491 19.5688 50.3604 19.2198 49.8201 19.2198C49.1151 19.2296 48.517 19.5882 48.102 20.2665C48.0634 19.6753 47.7256 19.2198 47.0115 19.2198C46.3937 19.2198 45.805 19.559 45.3707 20.2083H45.3418L45.4672 19.3264H44.7627C44.7144 19.7141 44.6469 20.1696 44.5504 20.6929L43.923 24.017H44.7047Z" fill="#019445"/>
<path d="M5.38704 0.652094C9.21067 -0.332355 13.1288 1.99609 14.1091 5.83545C15.0895 9.67472 12.7706 13.6093 8.9472 14.5936C5.12332 15.578 1.20519 13.2496 0.224875 9.41025C-0.755864 5.57099 1.56353 1.63652 5.38704 0.652094Z" fill="url(#paint0_radial_323_7705)"/>
<path fill-rule="evenodd" clip-rule="evenodd" d="M3.91733 5.14322C4.86562 5.3573 5.83055 5.48882 6.87604 5.52292C8.61963 5.57987 10.5219 5.53057 12.8002 5.52282L13.5976 5.52017C13.7869 5.51948 13.8411 5.73514 13.6322 5.79484L12.9295 5.99568C8.65554 7.29018 5.39935 8.88531 3.04052 12.7729C2.94666 12.9277 2.79153 12.8441 2.8173 12.6593C3.06824 10.8618 3.32778 9.37195 4.14475 7.74337C3.67038 7.07644 3.80082 6.34015 3.31697 5.25453C3.26217 5.13159 3.22005 5.03392 3.19199 4.9573C3.12217 4.76712 3.23096 4.69532 3.37714 4.76012C3.73546 4.91903 3.47334 5.0431 3.91733 5.14322Z" fill="white"/>
<path fill-rule="evenodd" clip-rule="evenodd" d="M3.9178 5.14312C4.86609 5.3573 5.83107 5.48887 6.87651 5.52286C8.42898 5.57354 10.1069 5.53989 12.0646 5.52644C8.23092 6.76336 5.14885 8.52709 2.92098 11.9514C3.14888 10.4594 3.4379 9.15349 4.14529 7.74336C4.03538 7.58888 3.92106 7.42852 3.80372 7.26001C3.83188 7.20099 3.8603 7.14222 3.88975 7.08355C3.4508 6.46661 2.93622 5.75907 2.47852 4.79673C2.48855 4.70249 2.57588 4.67553 2.68411 4.72345C3.04236 4.88249 3.47387 5.04314 3.9178 5.14312Z" fill="#D9DADB"/>
<path fill-rule="evenodd" clip-rule="evenodd" d="M3.22501 3.87857C4.17339 4.09267 5.13825 4.22428 6.1838 4.25831C7.92719 4.31529 9.82965 4.26593 12.1079 4.25821L12.9052 4.25553C13.0946 4.25485 13.1488 4.47052 12.94 4.53022L12.2373 4.73104C7.96324 6.02549 4.57947 7.87723 2.22046 11.7649C2.12648 11.9198 1.96564 11.8904 1.99721 11.7063C2.30298 9.92696 2.63546 8.10721 3.45243 6.47868C2.97806 5.8119 2.41483 5.03887 1.93106 3.95326C1.87626 3.83034 1.83396 3.744 1.80605 3.6675C1.7365 3.47745 1.86918 3.38562 2.02939 3.47046C2.18961 3.55529 2.78101 3.77837 3.22501 3.87857Z" fill="white"/>
</g>
<defs>
<radialGradient id="paint0_radial_323_7705" cx="0" cy="0" r="1" gradientUnits="userSpaceOnUse" gradientTransform="translate(5.97169 6.77807) rotate(-37.2194) scale(10.5009 8.54938)">
<stop stop-color="#84DB00"/>
<stop offset="0.373825" stop-color="#75D604"/>
<stop offset="1" stop-color="#00B133"/>
</radialGradient>
<clipPath id="clip0_323_7705">
<rect width="64" height="26" fill="white"/>
</clipPath>
</defs>
</svg>
