<svg width="152" height="62" viewBox="0 0 152 62" fill="none" xmlns="http://www.w3.org/2000/svg">
<g clip-path="url(#clip0_377_7910)">
<path fill-rule="evenodd" clip-rule="evenodd" d="M60.9961 10.1929L57.8194 10.1942C51.455 10.1974 46.0017 26.3319 53.5266 26.3298L58.3615 26.3284C61.1497 26.3284 63.2201 27.3483 62.3034 30.0969L61.0407 33.8825L55.9127 33.8838L51.7415 33.8419C46.4057 33.7886 42.9622 31.1545 41.7226 27.156C40.3809 22.8293 42.2752 13.8048 47.7727 8.02368C50.9626 4.66908 55.381 2.64334 61.0467 2.6426L71.5132 2.64124L69.8772 7.36964C68.82 10.4246 66.6602 10.1971 65.4275 10.196L60.9961 10.1924V10.1929Z" fill="#1B1918"/>
<path fill-rule="evenodd" clip-rule="evenodd" d="M118.791 14.4887C113.95 14.4877 106.787 14.4865 101.946 14.4865C99.1575 14.4865 97.8926 15.2617 97.3944 16.8826L95.8086 22.0405C100.65 22.0414 107.814 22.0428 112.655 22.0428C115.443 22.0428 116.708 21.2675 117.205 19.6466L118.791 14.4887Z" fill="#1B1918"/>
<path fill-rule="evenodd" clip-rule="evenodd" d="M114.69 26.3309C109.848 26.3299 102.685 26.3286 97.844 26.3286C95.0558 26.3286 93.7909 27.1039 93.2927 28.7249L91.707 33.8827C96.5483 33.8836 103.712 33.885 108.553 33.885C111.341 33.885 112.606 33.1097 113.104 31.4888L114.69 26.3309ZM122.702 2.64619C117.86 2.64528 110.697 2.64392 105.856 2.64392C103.068 2.64392 101.803 3.41924 101.305 5.04014L99.7189 10.198C104.56 10.1989 111.724 10.2003 116.565 10.2003C119.353 10.2003 120.618 9.42496 121.116 7.80406L122.702 2.64619Z" fill="#1B1918"/>
<path fill-rule="evenodd" clip-rule="evenodd" d="M80.3421 10.1663L84.5359 10.1677C88.1092 10.1691 87.2936 14.6686 85.4855 19.0534C83.8915 22.9195 81.0675 26.3304 77.698 26.3298L70.7061 26.3284C67.918 26.3284 66.632 27.1037 66.0896 28.7246L64.3633 33.8825L69.4903 33.8838L74.5019 33.8419C78.9463 33.8049 82.5847 33.4812 86.8401 29.6259C91.3365 25.5525 96.5795 14.9714 95.6812 8.85167C94.9775 4.05661 92.4217 2.64334 86.2328 2.6426L74.955 2.64124L68.3878 22.0182L72.5605 22.0233C75.0435 22.026 76.2898 22.0576 77.6106 18.4739L80.3421 10.1663Z" fill="#1B1918"/>
<path fill-rule="evenodd" clip-rule="evenodd" d="M115.973 33.8849H123.925L127.341 24.049L130.894 21.0337L133.691 29.9298C134.557 32.6789 135.447 33.8849 137.392 33.8849H143.479L137.198 16.4303L152.303 2.61511H142.548L133.379 12.451C132.311 13.5962 131.23 14.7239 130.147 16.0697H130.055L134.632 2.61511H126.681L115.973 33.8849Z" fill="#1B1918"/>
<path fill-rule="evenodd" clip-rule="evenodd" d="M46.8509 46.0861L43.8711 57.2713H45.6132L46.9885 51.9791C47.2865 50.7544 47.6303 49.2522 47.8824 48.0274H47.9741C48.0427 49.021 48.272 50.5925 48.4325 51.6557L49.2577 57.202H50.7248L53.9109 51.54C54.5756 50.292 55.4466 48.7438 55.7216 48.0506H55.8364C55.63 49.2522 55.4237 50.7312 55.2403 51.9329L54.5298 57.2713H56.3176L57.7159 46.0861H55.332L52.5356 51.0548C51.7562 52.4182 50.908 54.0129 50.5413 54.7985H50.4955C50.4038 53.9434 50.1975 52.6262 50.083 51.7481L49.189 46.0861H46.8509ZM68.6037 57.2713C68.5348 56.0233 68.6954 54.0358 69.062 52.0947L70.1623 46.2711C69.4059 46.0169 68.2598 45.8319 67.1824 45.8319C62.369 45.8319 59.5267 49.9455 59.5267 53.8279C59.5267 55.954 60.7416 57.5255 62.7128 57.5255C64.2715 57.5255 65.8071 56.6935 67.022 54.3825H67.0679C66.9303 55.5379 66.8158 56.6012 66.8158 57.2713H68.6037ZM67.4117 50.8929C66.8616 53.8741 64.982 55.954 63.4005 55.954C61.9334 55.954 61.4981 54.7291 61.4981 53.4812C61.5208 50.3846 63.859 47.3572 66.724 47.3572C67.3659 47.3572 67.7555 47.4496 68.0305 47.519L67.4117 50.8929ZM72.294 61.8469L73.1879 57.0171H73.2338C73.6694 57.2713 74.4486 57.5255 75.6406 57.5255C79.3311 57.5255 82.1275 53.8049 82.1275 49.8762C82.1275 47.8194 81.119 45.8319 78.7122 45.8319C77.1994 45.8319 75.7323 46.7331 74.7237 48.1891H74.6779L74.9987 46.0861H73.2568C73.0963 47.2185 72.8671 48.7399 72.6378 50.0765L70.4145 61.8469H72.294ZM74.082 52.291C74.655 49.1366 76.5345 47.4265 78.0244 47.4265C79.629 47.4265 80.1562 48.8362 80.1562 50.0148C80.1562 52.9499 78.0933 56.0003 75.6406 56.0003C74.7466 56.0003 74.0133 55.7921 73.5319 55.3994L74.082 52.291ZM85.6116 46.0861L83.4798 57.2713H85.3365L86.2763 52.2333H86.6201C87.9954 52.2333 88.6373 52.788 89.2789 54.5442C89.6457 55.5842 89.8977 56.6473 90.1958 57.2713H92.0525C91.7087 56.6012 91.4795 55.5149 91.0897 54.3595C90.5396 52.58 89.8519 51.517 88.6373 51.2165L94.0467 46.0861H91.7546L86.9639 51.0316H86.5284L87.4682 46.0861H85.6116ZM101.657 55.1913C100.969 55.5611 99.9835 55.9771 98.6769 55.9771C97.5308 55.9771 96.6368 55.4687 96.2014 54.4749C95.9493 53.8741 95.8805 52.8342 95.9722 52.3489C100.075 52.4182 103.353 51.6324 103.353 48.6976C103.353 47.103 102.207 45.8319 100.098 45.8319C96.5223 45.8319 94.0467 49.6451 94.0467 53.0191C94.0467 55.4917 95.3303 57.5255 98.2643 57.5255C99.7543 57.5255 101.107 57.1095 101.932 56.6241L101.657 55.1913ZM101.519 48.7668C101.519 50.5002 99.1812 50.8929 96.2014 50.8699C96.6599 49.1136 98.0122 47.3341 99.8231 47.3341C100.832 47.3341 101.519 47.8426 101.519 48.7438V48.7668ZM106.172 57.2713L107.204 51.6557C107.639 49.2752 109.359 47.4265 110.757 47.4265C112.155 47.4265 112.407 48.3972 112.407 49.3446C112.407 49.7836 112.361 50.2228 112.27 50.7082L111.032 57.2713H112.866L113.943 51.54C114.401 49.0442 116.029 47.4265 117.403 47.4265C118.642 47.4265 119.077 48.1891 119.077 49.3678C119.077 49.83 119.008 50.4077 118.916 50.8236L117.725 57.2713H119.581L120.819 50.6618C120.934 50.0378 121.003 49.2984 121.003 48.7668C121.003 46.664 119.605 45.8319 118.321 45.8319C116.647 45.8551 115.226 46.7102 114.241 48.3278C114.149 46.9181 113.347 45.8319 111.651 45.8319C110.184 45.8319 108.785 46.6407 107.754 48.1891H107.685L107.983 46.0861H106.31C106.195 47.0106 106.035 48.0968 105.806 49.3446L104.316 57.2713H106.172Z" fill="#019445"/>
<path d="M12.7942 1.55494C21.8753 -0.792596 31.1809 4.75985 33.509 13.9152C35.8375 23.0704 30.3303 32.4528 21.2496 34.8001C12.1679 37.1476 2.86232 31.5952 0.534079 22.4398C-1.79518 13.2846 3.71337 3.90241 12.7942 1.55494Z" fill="url(#paint0_radial_377_7910)"/>
<path fill-rule="evenodd" clip-rule="evenodd" d="M9.30292 12.2644C11.5551 12.7749 13.8468 13.0885 16.3299 13.1698C20.4709 13.3057 24.9889 13.1881 30.3998 13.1696L32.2936 13.1633C32.7432 13.1616 32.8719 13.6759 32.3758 13.8183L30.7069 14.2972C20.5562 17.3841 12.8227 21.1878 7.2205 30.4582C6.99759 30.8273 6.62915 30.6281 6.69036 30.1873C7.28635 25.901 7.90275 22.3483 9.84306 18.4648C8.71642 16.8744 9.02623 15.1186 7.87706 12.5298C7.74692 12.2367 7.64689 12.0038 7.58024 11.821C7.41441 11.3676 7.67279 11.1963 8.01997 11.3509C8.87098 11.7298 8.24844 12.0256 9.30292 12.2644Z" fill="white"/>
<path fill-rule="evenodd" clip-rule="evenodd" d="M9.30501 12.2642C11.5572 12.7749 13.849 13.0887 16.332 13.1698C20.0191 13.2906 24.0042 13.2103 28.6536 13.1783C19.5487 16.1279 12.2288 20.3337 6.93757 28.4993C7.47883 24.9416 8.16524 21.8274 9.84531 18.4648C9.58426 18.0964 9.31275 17.714 9.03408 17.3122C9.10095 17.1714 9.16846 17.0313 9.23841 16.8914C8.1959 15.4202 6.97377 13.733 5.88672 11.4382C5.91054 11.2135 6.11797 11.1492 6.375 11.2635C7.22585 11.6427 8.25069 12.0258 9.30501 12.2642Z" fill="#D9DADB"/>
<path fill-rule="evenodd" clip-rule="evenodd" d="M7.6611 9.24894C9.9135 9.75948 12.2051 10.0733 14.6882 10.1545C18.8288 10.2904 23.3471 10.1727 28.758 10.1542L30.6516 10.1478C31.1013 10.1462 31.23 10.6605 30.7342 10.8029L29.0652 11.2818C18.9144 14.3685 10.8779 18.7842 5.27529 28.0547C5.05211 28.4242 4.6701 28.354 4.74509 27.9152C5.47128 23.672 6.26093 19.3326 8.20124 15.4492C7.0746 13.8592 5.73692 12.0158 4.58798 9.42706C4.45783 9.13394 4.35737 8.92805 4.29109 8.74563C4.12591 8.29243 4.441 8.07346 4.82151 8.27575C5.20202 8.47804 6.60662 9.01 7.6611 9.24894Z" fill="white"/>
</g>
<defs>
<radialGradient id="paint0_radial_377_7910" cx="0" cy="0" r="1" gradientUnits="userSpaceOnUse" gradientTransform="translate(14.1828 16.163) rotate(-37.331) scale(24.9767 20.3568)">
<stop stop-color="#84DB00"/>
<stop offset="0.373825" stop-color="#75D604"/>
<stop offset="1" stop-color="#00B133"/>
</radialGradient>
<clipPath id="clip0_377_7910">
<rect width="152" height="62" fill="white"/>
</clipPath>
</defs>
</svg>
