<svg width="75" height="97" viewBox="0 0 75 97" fill="none" xmlns="http://www.w3.org/2000/svg">
<path d="M8.67838 54.8344C9.5264 50.8118 12.7498 47.7181 16.8038 47.0358L36.1556 43.7793C37.2542 43.5944 38.376 43.5944 39.4746 43.7793L58.7347 47.0204C62.8343 47.7103 66.0794 50.8646 66.8855 54.9429L73.8202 90.0305C74.4311 93.1214 72.0657 96 68.9151 96H6.16398C2.98755 96 0.616278 93.0767 1.27152 89.9686L8.67838 54.8344Z" fill="white" stroke="#00AA2E" stroke-width="2" stroke-linecap="round" stroke-linejoin="round"/>
<path d="M30 37.875H45V45.375L37.5 54.75L30 45.375V37.875Z" fill="white" stroke="#00AA2E" stroke-width="2" stroke-linecap="round" stroke-linejoin="round"/>
<path d="M23.75 6C23.75 3.23858 25.9886 1 28.75 1H46.25C49.0114 1 51.25 3.23858 51.25 6V27.25C51.25 34.8439 45.0939 41 37.5 41C29.9061 41 23.75 34.8439 23.75 27.25V6Z" fill="white" stroke="#00AA2E" stroke-width="2"/>
<path d="M23.75 15.25C23.75 13.5931 25.0931 12.25 26.75 12.25H48.25C49.9069 12.25 51.25 13.5931 51.25 15.25V21H23.75V15.25Z" fill="white" stroke="#00AA2E" stroke-width="2"/>
<path fill-rule="evenodd" clip-rule="evenodd" d="M12.9167 81C11.3058 81 10 82.3058 10 83.9167V86V96H15.8333L22.5 96C25.2614 96 27.5 93.7614 27.5 91C27.5 88.2386 25.2614 86 22.5 86L15.8333 86V83.9167C15.8333 82.3058 14.5275 81 12.9167 81Z" fill="white"/>
<path d="M10 96H9C9 96.5523 9.44772 97 10 97V96ZM15.8333 96V97V96ZM22.5 96V95V96ZM22.5 86V85V86ZM15.8333 86H14.8333C14.8333 86.2652 14.9387 86.5196 15.1262 86.7071C15.3138 86.8946 15.5681 87 15.8333 87V86ZM11 83.9167C11 82.8581 11.8581 82 12.9167 82V80C10.7536 80 9 81.7536 9 83.9167H11ZM11 86V83.9167H9V86H11ZM11 96V86H9V96H11ZM15.8333 95H10V97H15.8333V95ZM22.5 95L15.8333 95V97L22.5 97V95ZM26.5 91C26.5 93.2091 24.7091 95 22.5 95V97C25.8137 97 28.5 94.3137 28.5 91H26.5ZM22.5 87C24.7091 87 26.5 88.7909 26.5 91H28.5C28.5 87.6863 25.8137 85 22.5 85V87ZM15.8333 87L22.5 87V85L15.8333 85V87ZM14.8333 83.9167V86H16.8333V83.9167H14.8333ZM12.9167 82C13.9752 82 14.8333 82.8581 14.8333 83.9167H16.8333C16.8333 81.7536 15.0798 80 12.9167 80V82Z" fill="#00AA2E"/>
<path fill-rule="evenodd" clip-rule="evenodd" d="M62.0833 81C63.6942 81 65 82.3058 65 83.9167V86V96H59.1667L52.5 96C49.7386 96 47.5 93.7614 47.5 91C47.5 88.2386 49.7386 86 52.5 86L59.1667 86V83.9167C59.1667 82.3058 60.4725 81 62.0833 81Z" fill="white"/>
<path d="M65 96H66C66 96.5523 65.5523 97 65 97V96ZM59.1667 96V97V96ZM52.5 96V95V96ZM52.5 86V85V86ZM59.1667 86H60.1667C60.1667 86.2652 60.0613 86.5196 59.8738 86.7071C59.6862 86.8946 59.4319 87 59.1667 87V86ZM64 83.9167C64 82.8581 63.1419 82 62.0833 82V80C64.2464 80 66 81.7536 66 83.9167H64ZM64 86V83.9167H66V86H64ZM64 96V86H66V96H64ZM59.1667 95H65V97H59.1667V95ZM52.5 95L59.1667 95V97L52.5 97V95ZM48.5 91C48.5 93.2091 50.2909 95 52.5 95V97C49.1863 97 46.5 94.3137 46.5 91H48.5ZM52.5 87C50.2909 87 48.5 88.7909 48.5 91H46.5C46.5 87.6863 49.1863 85 52.5 85V87ZM59.1667 87L52.5 87V85L59.1667 85V87ZM60.1667 83.9167V86H58.1667V83.9167H60.1667ZM62.0833 82C61.0248 82 60.1667 82.8581 60.1667 83.9167H58.1667C58.1667 81.7536 59.9202 80 62.0833 80V82Z" fill="#00AA2E"/>
<path d="M20 86V67.75C20 66.0931 21.3431 64.75 23 64.75H52C53.6569 64.75 55 66.0931 55 67.75V86" stroke="#00AA2E" stroke-width="2"/>
<path d="M31.25 64.75H43.75V77.25L37.5 74.125L31.25 77.25V64.75Z" fill="white" stroke="#00AA2E" stroke-width="2" stroke-linecap="round" stroke-linejoin="round"/>
<path d="M31.25 86H43.75" stroke="#00AA2E" stroke-width="2" stroke-linecap="round" stroke-linejoin="round"/>
</svg>
