<svg width="64" height="19" viewBox="0 0 64 19" fill="none" xmlns="http://www.w3.org/2000/svg">
<path d="M19.9319 19L20.4289 16.8841H17.0811L19.2219 19H19.9319ZM20.7234 15.6216L21.2204 13.5061H13.6645L15.8053 15.6216H20.7234ZM21.5157 12.2467L22.0127 10.1308H10.2483L12.3887 12.2467H21.5153H21.5157ZM22.3073 8.86876L22.8043 6.75288H6.83208L8.97321 8.86876H22.3073ZM23.1 5.49384L23.5966 3.37796H3.41585L5.55624 5.49384H23.0996H23.1ZM23.8915 2.11588L24.3863 0H0L2.14076 2.11588H23.8915Z" fill="#EF7E20"/>
<path d="M58.0983 19L60.9221 16.2622L62.3708 10.1309V10.1145L60.0923 7.18321L57.2442 7.18549L57.7611 4.98218L58.1204 4.69821H58.8655L59.1473 5.02475L59.0343 5.49385H63.4577L64.0011 3.14342L62.098 8.63115e-06H57.0777L54.6686 2.11589H62.2043L62.9498 3.37797H53.7367L53.2397 5.49385H56.4763L56.1769 6.75289H52.9448L52.4477 8.86877H60.2473L61.2121 10.1309H52.4249L54.0267 12.2467H60.7043L60.409 13.5058H57.2076L57.0036 14.371L56.6466 14.6549H55.9014L55.6196 14.3307L55.7704 13.6951L55.8191 13.5058H51.3605L50.8631 15.6213H59.912L58.5676 16.8834H50.7834L52.221 18.9992H58.0975L58.0983 19ZM37.5912 19L39.9584 8.86877H44.9237L44.3956 10.1309H40.1317L40.0516 12.2467H43.5056L42.9779 13.5058H40.0048L39.9254 15.6213H42.0902L41.5602 16.8834H39.876L39.796 18.9992H41.8461L46.0962 8.86801H49.4013L49.1067 10.1301H45.8717L45.3746 12.246H48.6097L48.3141 13.505H45.0801L44.5831 15.6205H47.8174L47.5229 16.8826H44.2878L43.7908 18.9985H48.1969L52.1543 2.11437L52.651 -0.00151195H46.8747L45.8919 2.11437H50.987L50.6899 3.37645H45.3077L44.3252 5.49233H50.1928L49.8976 6.75137H43.7399L42.9835 8.38029L42.9854 -0.00189209H37.9056L37.4108 2.11399H41.8143V3.37607H37.1155L36.6185 5.49195H41.8143V6.74871L36.324 6.75099L35.8269 8.86687H38.7911L38.4958 10.129H35.5317L35.0346 12.2448H38.001L37.7061 13.5039H34.7401L34.2431 15.6194H37.211L36.9183 16.8815H33.9478L33.4508 18.9973H37.5901L37.5912 19ZM31.5084 19L32.0054 16.8841L32.3007 15.622L32.7977 13.5065H28.7759L29.0645 12.2475H32.7535L32.9152 11.5488H32.9175L33.6121 8.57644L34.0402 6.75365H30.3201L30.606 5.49461H34.6769L35.1735 3.37873H35.1712L35.4658 2.11665H35.4684L35.9628 0.000768919H27.2048L26.7078 2.11665H34.2974L34.0021 3.37873H26.4129L25.9185 5.49461H29.4387L29.1502 6.75365H25.6206L25.1262 8.86953H32.3759L32.0806 10.1316H24.8312L24.3342 12.2475H27.8945L27.606 13.5065H24.0389L23.5419 15.622H31.1308L30.8358 16.8841H23.247L22.75 19H31.5076H31.5084Z" fill="#00549E"/>
</svg>
