<svg width="44" height="46" viewBox="0 0 44 46" fill="none" xmlns="http://www.w3.org/2000/svg">
<path d="M2.42215 41.1064C2.81384 41.1064 3.11228 41.0054 3.31743 40.8034C3.52261 40.6013 3.65626 40.3013 3.71846 39.9034H1.88122C1.81286 39.9034 1.76311 39.8957 1.73202 39.8801C1.70096 39.8646 1.68538 39.8164 1.68538 39.734V38.7113C1.68538 38.6289 1.69939 38.5776 1.72737 38.5558C1.75534 38.5341 1.80664 38.5232 1.88122 38.5232H3.69979C3.6687 38.332 3.61587 38.1719 3.54125 38.0429C3.46664 37.9139 3.37495 37.8082 3.26611 37.729C3.15732 37.6481 3.03452 37.5922 2.89774 37.558C2.76098 37.5238 2.62108 37.5067 2.47807 37.5067C2.36615 37.5067 2.26358 37.5098 2.1703 37.516C2.07704 37.5222 1.98533 37.5347 1.89518 37.5534C1.80504 37.572 1.71178 37.5953 1.61542 37.6233C1.51905 37.6513 1.40869 37.6839 1.28435 37.7212C1.17243 37.7585 1.09627 37.7663 1.05585 37.7445C1.01543 37.7227 0.973469 37.6528 0.929967 37.5347L0.640864 36.77C0.615973 36.7078 0.598875 36.6565 0.589569 36.6161C0.580235 36.5757 0.577152 36.5415 0.580235 36.5135C0.583346 36.4855 0.598875 36.4622 0.626877 36.4436C0.654851 36.4249 0.693729 36.4001 0.743455 36.3689C1.017 36.2259 1.31387 36.1218 1.63408 36.0565C1.95427 35.9913 2.29467 35.9586 2.65528 35.9586C3.12778 35.9586 3.54902 36.0317 3.91893 36.1778C4.28884 36.3239 4.59972 36.5352 4.85152 36.8119C5.10331 37.0886 5.29448 37.4258 5.42504 37.8238C5.55561 38.2217 5.62089 38.6724 5.62089 39.176C5.62089 39.661 5.56648 40.1164 5.4577 40.5423C5.34889 40.9681 5.17479 41.3396 4.93544 41.6567C4.69609 41.9738 4.38364 42.224 3.9982 42.4075C3.61273 42.5909 3.14334 42.6826 2.58997 42.6826C2.18586 42.6826 1.79262 42.6406 1.41023 42.5567C1.02788 42.4728 0.65017 42.3189 0.277145 42.095C0.208752 42.0577 0.171444 42.0142 0.165221 41.9645C0.159027 41.9148 0.177667 41.8432 0.221169 41.75L0.622196 40.9107C0.665699 40.805 0.707688 40.7459 0.748079 40.7335C0.788499 40.721 0.855351 40.7335 0.948607 40.7708C1.14754 40.8454 1.36359 40.92 1.59675 40.9946C1.8299 41.0692 2.10499 41.1065 2.42209 41.1065L2.42215 41.1064ZM12.4288 42.3841C12.4288 42.4587 12.418 42.51 12.3962 42.538C12.3744 42.566 12.3107 42.58 12.205 42.58H10.8807C10.7378 42.58 10.6663 42.5147 10.6663 42.3841V39.9221H8.59592V42.3841C8.59592 42.4587 8.58505 42.51 8.56329 42.538C8.54152 42.566 8.4778 42.58 8.3721 42.58H7.04785C6.90484 42.58 6.83336 42.5147 6.83336 42.3841V36.2477C6.83336 36.1171 6.90484 36.0518 7.04785 36.0518H8.3721C8.4778 36.0518 8.54152 36.0658 8.56329 36.0938C8.58505 36.1218 8.59592 36.1731 8.59592 36.2477V38.4486H10.6663V36.2477C10.6663 36.1171 10.7378 36.0518 10.8807 36.0518H12.205C12.3107 36.0518 12.3744 36.0658 12.3962 36.0938C12.418 36.1218 12.4288 36.1731 12.4288 36.2477V42.3841ZM18.6958 42.3655C18.6958 42.5085 18.6368 42.58 18.5186 42.58H15.6369C15.2639 42.58 14.9608 42.5271 14.7277 42.4214C14.4945 42.3157 14.3111 42.1774 14.1774 42.0064C14.0438 41.8355 13.9521 41.6443 13.9023 41.4329C13.8526 41.2215 13.8277 41.0132 13.8277 40.8081V37.8238C13.8277 37.6 13.8588 37.3808 13.921 37.1663C13.9831 36.9518 14.0842 36.7622 14.2241 36.5974C14.364 36.4326 14.5489 36.3005 14.7789 36.201C15.009 36.1016 15.2888 36.0518 15.6183 36.0518H18.3694C18.444 36.0518 18.4922 36.0627 18.514 36.0845C18.5357 36.1062 18.5466 36.17 18.5466 36.2757V37.3295C18.5466 37.4103 18.5342 37.4647 18.5093 37.4927C18.4844 37.5207 18.4378 37.5347 18.3694 37.5347H16.1498C16.0255 37.5347 15.926 37.5518 15.8514 37.5859C15.7768 37.6201 15.7208 37.6621 15.6835 37.7119C15.6462 37.7616 15.6214 37.8175 15.6089 37.8797C15.5965 37.9419 15.5903 38.0041 15.5903 38.0662V38.4579H18.0896C18.1642 38.4579 18.2124 38.4704 18.2342 38.4952C18.256 38.5201 18.2668 38.5854 18.2668 38.6911V39.661C18.2668 39.804 18.2078 39.8754 18.0896 39.8754H15.5903V40.5749C15.5903 40.693 15.6043 40.7863 15.6323 40.8547C15.6602 40.923 15.6991 40.9743 15.7488 41.0085C15.7986 41.0427 15.8576 41.0645 15.926 41.0738C15.9944 41.0831 16.069 41.0878 16.1498 41.0878H18.5186C18.5932 41.0878 18.6414 41.0987 18.6632 41.1204C18.6849 41.1422 18.6958 41.2059 18.6958 41.3116V42.3655L18.6958 42.3655ZM21.4843 42.3935C21.4843 42.4681 21.4734 42.5178 21.4517 42.5427C21.4299 42.5675 21.3662 42.58 21.2605 42.58H19.9362C19.7932 42.58 19.7217 42.5178 19.7217 42.3935V36.6673C19.7217 36.4995 19.759 36.3549 19.8336 36.2337C19.9083 36.1125 20.073 36.0518 20.3279 36.0518H22.6967C23.0635 36.0518 23.3883 36.1047 23.6712 36.2104C23.9542 36.3161 24.1919 36.4637 24.3847 36.6533C24.5774 36.843 24.7235 37.0652 24.823 37.3202C24.9225 37.575 24.9722 37.8518 24.9722 38.1501C24.9722 38.2496 24.9629 38.374 24.9442 38.5232C24.9256 38.6724 24.8867 38.8279 24.8277 38.9895C24.7686 39.1512 24.6831 39.3143 24.5712 39.4791C24.4593 39.6439 24.3085 39.7915 24.1189 39.9221C23.9293 40.0527 23.693 40.1583 23.4101 40.2392C23.1273 40.32 22.79 40.3604 22.3983 40.3604H21.4843V42.3934L21.4843 42.3935ZM23.1536 38.2714C23.1536 38.2092 23.1443 38.1362 23.1257 38.0523C23.107 37.9683 23.0744 37.8921 23.0277 37.8238C22.9811 37.7554 22.9143 37.6963 22.8272 37.6466C22.7402 37.5968 22.6283 37.572 22.4915 37.572H21.4843V38.9802H22.4915C22.7091 38.9802 22.8738 38.9071 22.9858 38.761C23.0977 38.6149 23.1536 38.4517 23.1536 38.2714ZM27.714 42.3935C27.714 42.4681 27.7031 42.5178 27.6814 42.5427C27.6596 42.5675 27.5959 42.58 27.4902 42.58H26.1659C26.0229 42.58 25.9514 42.5178 25.9514 42.3935V37.8238C25.9514 37.6 25.9825 37.3808 26.0447 37.1663C26.1069 36.9518 26.2079 36.7622 26.3478 36.5974C26.4877 36.4326 26.6726 36.3005 26.9027 36.201C27.1327 36.1016 27.4125 36.0518 27.742 36.0518H30.5771C30.6517 36.0518 30.6999 36.0627 30.7217 36.0845C30.7434 36.1062 30.7543 36.17 30.7543 36.2757V37.3295C30.7543 37.4103 30.7419 37.4647 30.717 37.4927C30.6921 37.5207 30.6455 37.5347 30.5771 37.5347H28.2736C28.1492 37.5347 28.0498 37.5518 27.9752 37.5859C27.9005 37.6201 27.8446 37.6621 27.8073 37.7119C27.77 37.7616 27.7451 37.8175 27.7327 37.8797C27.7203 37.9419 27.714 38.0041 27.714 38.0662V42.3935H27.714ZM35.5291 38.8589L34.6898 40.2392L33.4215 42.1603C33.3593 42.2536 33.3033 42.3282 33.2536 42.3841C33.2039 42.4401 33.151 42.4821 33.0951 42.5101C33.0391 42.538 32.9738 42.5567 32.8992 42.566C32.8246 42.5753 32.7344 42.58 32.6287 42.58H32.1904C31.9107 42.58 31.7272 42.5101 31.6402 42.3702C31.5531 42.2303 31.5096 42.0546 31.5096 41.8432V36.2477C31.5096 36.1171 31.5811 36.0518 31.7241 36.0518H33.0018C33.1075 36.0518 33.1712 36.0658 33.193 36.0938C33.2147 36.1218 33.2256 36.1731 33.2256 36.2477V39.7915H33.2909L34.1116 38.5046L35.3985 36.4715C35.4607 36.372 35.5167 36.2943 35.5664 36.2384C35.6161 36.1824 35.669 36.1405 35.7249 36.1125C35.7809 36.0845 35.8461 36.0674 35.9208 36.0612C35.9954 36.055 36.0856 36.0519 36.1912 36.0519H36.6296C36.8907 36.0519 37.0694 36.1016 37.1658 36.2011C37.2622 36.3005 37.3104 36.4964 37.3104 36.7886V42.3841C37.3104 42.5147 37.2389 42.58 37.0959 42.58H35.8182C35.7126 42.58 35.6488 42.566 35.6271 42.538C35.6053 42.5101 35.5944 42.4587 35.5944 42.3841V38.8589H35.5291H35.5291ZM38.8025 40.5656C38.8585 40.3231 38.9424 40.121 39.0543 39.9594C39.1662 39.7978 39.3652 39.6797 39.6512 39.605V39.5864C39.4584 39.5305 39.2968 39.4481 39.1662 39.3393C39.0357 39.2305 38.9315 39.1061 38.8538 38.9662C38.7761 38.8263 38.7202 38.6756 38.6859 38.5139C38.6517 38.3523 38.6347 38.1875 38.6347 38.0196C38.6347 37.7212 38.6813 37.4523 38.7746 37.213C38.8678 36.9736 39.0077 36.7669 39.1942 36.5928C39.3807 36.4187 39.6123 36.285 39.889 36.1918C40.1657 36.0985 40.4874 36.0519 40.8542 36.0519H43.2323C43.4872 36.0519 43.652 36.1063 43.7266 36.2151C43.8012 36.3239 43.8385 36.4746 43.8385 36.6674V42.3935C43.8385 42.5179 43.7671 42.58 43.6241 42.58H42.2998C42.1941 42.58 42.1304 42.5675 42.1086 42.5427C42.0869 42.5178 42.076 42.4681 42.076 42.3935V40.0247H41.4698C41.2087 40.0247 41.0206 40.0853 40.9056 40.2065C40.7906 40.3278 40.6989 40.5221 40.6304 40.7894L40.2574 42.3468C40.2388 42.409 40.2123 42.4556 40.1781 42.4867C40.1439 42.5178 40.1035 42.5411 40.0569 42.5567C40.0103 42.5722 39.9605 42.58 39.9077 42.58C39.8549 42.58 39.8036 42.58 39.7538 42.58H38.4575C38.3829 42.58 38.3441 42.5614 38.3409 42.524C38.3379 42.4867 38.3456 42.4246 38.3643 42.3375L38.8026 40.5656H38.8025ZM40.4532 38.1036C40.4532 38.2839 40.5091 38.4191 40.6211 38.5093C40.733 38.5994 40.8635 38.6445 41.0127 38.6445H42.0759V37.572H41.0127C40.8076 37.572 40.663 37.628 40.5791 37.7399C40.4952 37.8518 40.4532 37.973 40.4532 38.1036V38.1036Z" fill="#1C4C96"/>
<path d="M0.830014 44.4065C0.835312 44.3946 0.843272 44.3754 0.853896 44.3488C0.864491 44.3223 0.876124 44.2938 0.888709 44.2633C0.901295 44.2328 0.912927 44.2043 0.923522 44.1778C0.934118 44.1513 0.942078 44.132 0.947404 44.1201C0.959345 44.0923 0.973584 44.0575 0.990178 44.0157C1.00674 43.9739 1.02496 43.9295 1.04486 43.8824C1.06477 43.8353 1.08498 43.7866 1.10552 43.7362C1.12607 43.6858 1.14532 43.6384 1.16321 43.594C1.18112 43.5496 1.19769 43.5095 1.21293 43.4737C1.22818 43.4379 1.23981 43.41 1.24775 43.3901C1.25969 43.3596 1.2723 43.3401 1.28553 43.3315C1.29879 43.3229 1.31802 43.3185 1.34322 43.3185H1.38896C1.42344 43.3185 1.44631 43.3265 1.45758 43.3424C1.46882 43.3583 1.47448 43.3796 1.47448 43.4061V44.687C1.47448 44.6976 1.47216 44.7046 1.46753 44.7079C1.46288 44.7112 1.4559 44.7128 1.44665 44.7128H1.35317C1.34257 44.7128 1.33528 44.7112 1.33128 44.7079C1.3273 44.7046 1.32533 44.6976 1.32533 44.687V43.587H1.31538L1.2156 43.8317C1.20099 43.8662 1.18143 43.9129 1.15693 43.9719C1.1324 44.0309 1.10687 44.0926 1.08035 44.1569C1.0535 44.2212 1.02765 44.2832 1.00246 44.3429C0.977256 44.4026 0.957383 44.449 0.942779 44.4821C0.932184 44.5086 0.921224 44.5268 0.909984 44.5368C0.898352 44.5467 0.879487 44.5517 0.852943 44.5517H0.799265C0.772721 44.5517 0.75352 44.5467 0.741243 44.5368C0.729302 44.5268 0.718034 44.5086 0.707438 44.4821C0.692863 44.4476 0.672961 44.4006 0.647762 44.3409C0.622563 44.2812 0.596411 44.2189 0.568886 44.1539C0.541696 44.089 0.515516 44.0266 0.490317 43.967C0.465118 43.9073 0.444572 43.8603 0.428651 43.8258L0.336824 43.603H0.324884V44.687C0.324884 44.6976 0.322893 44.7046 0.318913 44.7079C0.314933 44.7112 0.307981 44.7129 0.297358 44.7129H0.207185C0.19659 44.7129 0.18961 44.7112 0.18563 44.7079C0.18165 44.7046 0.179688 44.6976 0.179688 44.687V43.4061C0.179688 43.3796 0.184985 43.3583 0.195581 43.3425C0.206176 43.3266 0.228712 43.3186 0.263217 43.3186H0.308934C0.335479 43.3186 0.355016 43.3229 0.367601 43.3315C0.380215 43.3401 0.392464 43.3597 0.404405 43.3902C0.407068 43.3968 0.415673 43.417 0.430277 43.4508C0.444852 43.4846 0.462091 43.5257 0.481992 43.5741C0.501894 43.6225 0.523449 43.6749 0.54663 43.7313C0.569839 43.7876 0.592039 43.8417 0.613285 43.8934C0.634476 43.9451 0.65306 43.9909 0.668981 44.0307C0.684874 44.0704 0.69617 44.0976 0.702757 44.1122C0.708083 44.1241 0.716352 44.144 0.727648 44.1719C0.738888 44.1997 0.750829 44.2289 0.763443 44.2594C0.776028 44.2899 0.787633 44.3191 0.798228 44.3469C0.808851 44.3748 0.816784 44.3946 0.82211 44.4066H0.83007L0.830014 44.4065ZM2.68177 44.677C2.68177 44.689 2.67978 44.6979 2.6758 44.7039C2.67182 44.7099 2.66321 44.7129 2.64995 44.7129H2.09703C2.03469 44.7129 1.98264 44.7042 1.9409 44.687C1.89911 44.6698 1.86598 44.6462 1.84142 44.6164C1.8169 44.5866 1.79932 44.5517 1.78873 44.512C1.77813 44.4722 1.77283 44.4297 1.77283 44.3846V43.6487C1.77283 43.6036 1.77878 43.5609 1.79072 43.5204C1.80266 43.48 1.82155 43.4449 1.84742 43.415C1.87327 43.3852 1.90676 43.3617 1.94785 43.3444C1.98895 43.3272 2.0387 43.3186 2.09703 43.3186H2.63605C2.64931 43.3186 2.65794 43.3215 2.66189 43.3275C2.6659 43.3335 2.66786 43.3425 2.66786 43.3544V43.424C2.66786 43.4373 2.66587 43.4462 2.66189 43.4509C2.65791 43.4555 2.64931 43.4579 2.63605 43.4579H2.09902C2.03803 43.4579 1.99394 43.4718 1.96675 43.4996C1.93956 43.5275 1.92596 43.5699 1.92596 43.6269V43.9054H2.57239C2.58433 43.9054 2.59227 43.9077 2.59628 43.9124C2.60026 43.917 2.60222 43.9259 2.60222 43.9392V44.0049C2.60222 44.0155 2.60023 44.0238 2.59628 44.0297C2.59227 44.0357 2.58433 44.0387 2.57239 44.0387H1.92596V44.4047C1.92596 44.4551 1.93889 44.4955 1.96476 44.526C1.9906 44.5565 2.03536 44.5717 2.09899 44.5717H2.64992C2.66318 44.5717 2.67182 44.5744 2.67577 44.5797C2.67978 44.585 2.68174 44.5943 2.68174 44.6075V44.6771L2.68177 44.677ZM3.15119 43.959C3.10345 43.9378 3.06598 43.9053 3.03879 43.8615C3.0116 43.8178 2.99072 43.7661 2.97614 43.7064L2.88863 43.3504C2.88597 43.3437 2.88563 43.3364 2.88762 43.3285C2.88964 43.3205 2.89659 43.3165 2.9085 43.3165H2.99999C3.00664 43.3165 3.01291 43.3179 3.01889 43.3205C3.02486 43.3232 3.02917 43.3298 3.03183 43.3404L3.12529 43.6924C3.13723 43.7362 3.15217 43.772 3.17005 43.7999C3.18796 43.8277 3.20817 43.8489 3.23071 43.8635C3.25325 43.8781 3.27679 43.888 3.30132 43.8933C3.32587 43.8986 3.35073 43.9013 3.3759 43.9013H3.62055V43.3464C3.61921 43.3358 3.62055 43.3288 3.62453 43.3255C3.62854 43.3222 3.6358 43.3205 3.64642 43.3205H3.74388C3.75451 43.3205 3.7618 43.3222 3.76578 43.3255C3.76978 43.3288 3.77175 43.3358 3.77175 43.3464V43.9013H4.01836C4.04224 43.9013 4.06676 43.8986 4.09196 43.8933C4.11713 43.888 4.14068 43.8781 4.16254 43.8635C4.18443 43.8489 4.20433 43.8277 4.22222 43.7999C4.24013 43.772 4.25504 43.7362 4.26698 43.6924L4.36046 43.3404C4.36312 43.3298 4.36744 43.3232 4.37338 43.3205C4.37935 43.3179 4.38566 43.3165 4.3923 43.3165H4.48579C4.49773 43.3165 4.50468 43.3205 4.50664 43.3285C4.50866 43.3364 4.50832 43.3437 4.50566 43.3504L4.41616 43.7064C4.40155 43.7661 4.38067 43.8178 4.35351 43.8615C4.32632 43.9053 4.28885 43.9378 4.24111 43.959V43.9669C4.27559 43.9776 4.30409 43.9908 4.32663 44.0067C4.34917 44.0226 4.36842 44.0412 4.38432 44.0624C4.40021 44.0836 4.41316 44.1075 4.42308 44.134C4.43303 44.1606 4.442 44.1891 4.44996 44.2196L4.57526 44.681C4.57792 44.6877 4.57823 44.6946 4.57624 44.7019C4.57425 44.7092 4.56662 44.7128 4.55337 44.7128H4.45195C4.44531 44.7128 4.43903 44.7115 4.43303 44.7088C4.42709 44.7062 4.42277 44.6995 4.42011 44.6889L4.29681 44.2414C4.28621 44.2016 4.27292 44.1685 4.257 44.142C4.24111 44.1154 4.22253 44.0949 4.20134 44.0803C4.18012 44.0657 4.15593 44.0554 4.12874 44.0495C4.10155 44.0435 4.07136 44.0405 4.03823 44.0405H3.77172V44.6869C3.77172 44.6975 3.76973 44.7045 3.76575 44.7078C3.76177 44.7111 3.75451 44.7128 3.74386 44.7128H3.64839C3.63779 44.7128 3.63017 44.7111 3.62551 44.7078C3.62089 44.7045 3.61856 44.6975 3.61856 44.6869L3.62055 44.0405H3.35404C3.32088 44.0405 3.29072 44.0435 3.26353 44.0495C3.23634 44.0554 3.21215 44.0657 3.19093 44.0803C3.16971 44.0949 3.15116 44.1154 3.13524 44.142C3.11935 44.1685 3.10606 44.2016 3.09546 44.2414L2.97216 44.6889C2.9695 44.6995 2.96518 44.7062 2.95921 44.7088C2.95327 44.7115 2.94696 44.7128 2.94032 44.7128H2.84087C2.82626 44.7128 2.81799 44.7092 2.81598 44.7019C2.81399 44.6946 2.81432 44.6876 2.81698 44.681L2.94228 44.2196C2.95024 44.1891 2.95918 44.1606 2.96913 44.134C2.97908 44.1075 2.992 44.0837 3.00793 44.0624C3.02382 44.0412 3.04305 44.0226 3.06558 44.0067C3.08815 43.9908 3.11663 43.9776 3.15113 43.9669V43.959H3.15119ZM5.07254 44.1957C5.0659 44.2487 5.05861 44.2945 5.05065 44.3329C5.04272 44.3714 5.03408 44.4049 5.0248 44.4334C5.01553 44.4619 5.00524 44.4874 4.994 44.5099C4.98273 44.5325 4.97045 44.5537 4.9572 44.5736H5.70902V43.4578H5.16403L5.07254 44.1957ZM4.82391 44.7128L4.80603 45.0092C4.80603 45.0198 4.8037 45.0271 4.79905 45.0311C4.79443 45.0351 4.78879 45.037 4.78215 45.037H4.70456C4.68998 45.037 4.68202 45.0277 4.68068 45.0092L4.65881 44.6551C4.65615 44.6313 4.6598 44.6127 4.66972 44.5994C4.67967 44.5862 4.69991 44.5783 4.7304 44.5756L4.78408 44.5716C4.82254 44.5265 4.85236 44.4761 4.87361 44.4204C4.8948 44.3647 4.91072 44.2951 4.92134 44.2116L5.01682 43.4617C5.02211 43.4193 5.03237 43.3848 5.04762 43.3583C5.06287 43.3318 5.0937 43.3185 5.14012 43.3185H5.75272C5.79252 43.3185 5.82069 43.3278 5.83726 43.3464C5.85385 43.3649 5.86215 43.3928 5.86215 43.4299V44.5755L5.92777 44.5795C5.95826 44.5822 5.97718 44.5895 5.98447 44.6014C5.99176 44.6134 5.99473 44.6286 5.99344 44.6471L5.97155 45.0092C5.9702 45.0277 5.96224 45.037 5.94767 45.037H5.86613C5.85419 45.037 5.84822 45.0284 5.84822 45.0112L5.83829 44.7128H4.82388L4.82391 44.7128ZM6.66969 44.5159C6.65246 44.561 6.63424 44.5985 6.61501 44.6283C6.59575 44.6581 6.57392 44.682 6.54936 44.6999C6.52484 44.7178 6.49731 44.7304 6.46681 44.7377C6.43632 44.745 6.40184 44.7486 6.36341 44.7486C6.34614 44.7486 6.32394 44.7473 6.29675 44.7447C6.26956 44.742 6.24005 44.7361 6.20826 44.7268C6.19632 44.7228 6.18901 44.7191 6.18637 44.7158C6.18371 44.7125 6.18306 44.7069 6.18438 44.6989L6.20226 44.6154C6.20493 44.6048 6.20824 44.5992 6.21222 44.5985C6.2162 44.5978 6.22281 44.5982 6.23212 44.5994C6.26259 44.6048 6.28812 44.6084 6.30867 44.6104C6.32921 44.6124 6.34813 44.6127 6.36537 44.6114C6.40251 44.61 6.43396 44.6014 6.45986 44.5855C6.48571 44.5696 6.50858 44.5358 6.52845 44.4841L6.58813 44.3309H6.56029C6.54305 44.3309 6.52814 44.3283 6.51553 44.323C6.50294 44.3177 6.49134 44.3011 6.48072 44.2733L6.0849 43.3404C6.07826 43.3258 6.08426 43.3185 6.10281 43.3185H6.21617C6.22811 43.3185 6.23607 43.3209 6.24005 43.3255C6.24406 43.3302 6.24734 43.3358 6.25 43.3424L6.47278 43.8795L6.614 44.2295H6.62793L6.76119 43.8755L6.96802 43.3404C6.97332 43.3258 6.98526 43.3185 7.00381 43.3185H7.10526C7.11453 43.3185 7.1205 43.3209 7.12314 43.3255C7.1258 43.3302 7.1258 43.3358 7.12314 43.3424L6.66964 44.5159H6.66969ZM7.45336 44.687C7.45336 44.6976 7.45137 44.7046 7.44739 44.7079C7.44341 44.7112 7.43615 44.7128 7.4255 44.7128H7.32409C7.31478 44.7128 7.30786 44.7112 7.3032 44.7079C7.29855 44.7046 7.29625 44.6976 7.29625 44.687V43.3464C7.29625 43.3358 7.29855 43.3288 7.3032 43.3255C7.30786 43.3222 7.31481 43.3205 7.32409 43.3205H7.4255C7.43612 43.3205 7.44341 43.3222 7.44739 43.3255C7.4514 43.3288 7.45336 43.3358 7.45336 43.3464V43.9093H8.19722V43.3464C8.19722 43.3358 8.19921 43.3288 8.20319 43.3255C8.20717 43.3222 8.21443 43.3205 8.22509 43.3205H8.32255C8.33314 43.3205 8.34043 43.3222 8.34444 43.3255C8.34842 43.3288 8.35038 43.3358 8.35038 43.3464V44.687C8.35038 44.6976 8.34839 44.7046 8.34444 44.7079C8.34043 44.7112 8.33317 44.7128 8.32255 44.7128H8.22509C8.21446 44.7128 8.20717 44.7112 8.20319 44.7079C8.19919 44.7046 8.19722 44.6976 8.19722 44.687V44.0445H7.45336V44.687ZM9.54183 44.7128C9.5312 44.7128 9.52291 44.7118 9.51694 44.7099C9.51099 44.7079 9.50603 44.7002 9.50203 44.687L9.3966 44.3807H8.8059C8.80189 44.39 8.79496 44.4095 8.78501 44.4393C8.77506 44.4692 8.76447 44.501 8.75317 44.5348C8.74193 44.5686 8.73128 44.6001 8.72136 44.6293C8.71141 44.6585 8.70443 44.6777 8.70048 44.687C8.69518 44.7042 8.68324 44.7128 8.66468 44.7128H8.5513C8.5407 44.7128 8.53375 44.7095 8.53045 44.7029C8.52714 44.6962 8.5268 44.6889 8.52946 44.681L8.98891 43.3862C8.9995 43.3583 9.01012 43.3401 9.02075 43.3314C9.03134 43.3228 9.04993 43.3179 9.07642 43.3165H9.12816C9.15866 43.3165 9.1792 43.3215 9.18983 43.3314C9.20042 43.3414 9.21037 43.3596 9.21965 43.3862L9.67318 44.681C9.67581 44.6876 9.67581 44.6946 9.67318 44.7019C9.67051 44.7092 9.66387 44.7128 9.65328 44.7128H9.54191L9.54183 44.7128ZM9.20367 43.7879L9.10621 43.4856H9.09626L9.00079 43.78L8.84763 44.2435H9.35285L9.20367 43.788V43.7879ZM9.85209 43.4101C9.85209 43.3796 9.8584 43.3567 9.87099 43.3414C9.8836 43.3262 9.90779 43.3186 9.94358 43.3186H10.4031C10.464 43.3186 10.5201 43.3285 10.5711 43.3484C10.6222 43.3683 10.6663 43.3961 10.7034 43.4319C10.7405 43.4677 10.769 43.5105 10.7889 43.5602C10.8088 43.6099 10.8188 43.6647 10.8188 43.7243C10.8188 43.7615 10.8128 43.8039 10.8009 43.8516C10.7889 43.8994 10.7667 43.9448 10.7342 43.9879C10.7017 44.0309 10.6573 44.0671 10.6009 44.0962C10.5446 44.1254 10.4727 44.14 10.3851 44.14H10.0033V44.689C10.0033 44.6996 10.0013 44.7062 9.99732 44.7089C9.99331 44.7115 9.98605 44.7129 9.97542 44.7129H9.87796C9.86866 44.7129 9.86204 44.7115 9.85806 44.7089C9.85408 44.7062 9.85212 44.6996 9.85212 44.689V43.4101H9.85209ZM10.0032 44.0048H10.3672C10.4587 44.0048 10.5303 43.9812 10.5821 43.9342C10.6338 43.8871 10.6596 43.8198 10.6596 43.7323C10.6596 43.7031 10.655 43.6723 10.6457 43.6398C10.6364 43.6073 10.6205 43.5778 10.5979 43.5513C10.5754 43.5248 10.5452 43.5029 10.5075 43.4857C10.4697 43.4684 10.4223 43.4598 10.3652 43.4598H10.0032V44.0048V44.0048ZM12.1613 44.0127C12.1613 44.2447 12.1119 44.4231 12.0131 44.5478C11.9143 44.6724 11.7681 44.7347 11.5745 44.7347C11.4764 44.7347 11.3912 44.7185 11.3189 44.686C11.2466 44.6535 11.1866 44.6064 11.1389 44.5448C11.0912 44.4831 11.0554 44.4079 11.0315 44.319C11.0076 44.2302 10.9957 44.1301 10.9957 44.0187C10.9957 43.9033 11.01 43.8009 11.0385 43.7114C11.067 43.6219 11.1067 43.5466 11.1578 43.4856C11.2089 43.4246 11.2702 43.3782 11.3418 43.3464C11.4134 43.3146 11.4923 43.2987 11.5785 43.2987C11.7708 43.2987 11.9159 43.3617 12.0141 43.4876C12.1122 43.6136 12.1612 43.7886 12.1612 44.0127H12.1613ZM12.0041 44.0187C12.0041 43.9431 11.9978 43.8702 11.9852 43.7999C11.9726 43.7296 11.9504 43.6676 11.9186 43.6139C11.8867 43.5602 11.8437 43.5171 11.7893 43.4847C11.7349 43.4522 11.666 43.4359 11.5824 43.4359C11.5069 43.4359 11.4416 43.4515 11.3865 43.4827C11.3315 43.5138 11.2864 43.5556 11.2513 43.608C11.2162 43.6604 11.1903 43.7217 11.1737 43.792C11.1571 43.8622 11.1489 43.9358 11.1489 44.0127C11.1489 44.0963 11.1558 44.1735 11.1697 44.2445C11.1837 44.3154 11.2072 44.3771 11.2403 44.4294C11.2735 44.4818 11.3173 44.5229 11.3716 44.5528C11.426 44.5826 11.4943 44.5975 11.5765 44.5975C11.6573 44.5975 11.7253 44.5816 11.7803 44.5498C11.8354 44.518 11.8795 44.4752 11.9126 44.4215C11.9458 44.3678 11.9693 44.3061 11.9832 44.2365C11.9972 44.1669 12.0041 44.0943 12.0041 44.0187L12.0041 44.0187ZM12.7023 44.1957C12.6956 44.2487 12.6883 44.2945 12.6804 44.3329C12.6724 44.3714 12.6638 44.4049 12.6545 44.4334C12.6452 44.4619 12.635 44.4874 12.6237 44.5099C12.6124 44.5325 12.6002 44.5537 12.5869 44.5736H13.3387V43.4578H12.7937L12.7023 44.1957ZM12.4536 44.7128L12.4357 45.0092C12.4357 45.0198 12.4334 45.0271 12.4288 45.0311C12.4241 45.0351 12.4185 45.037 12.4119 45.037H12.3343C12.3197 45.037 12.3117 45.0277 12.3104 45.0092L12.2885 44.6551C12.2859 44.6313 12.2895 44.6127 12.2994 44.5994C12.3094 44.5862 12.3296 44.5783 12.3601 44.5756L12.4138 44.5716C12.4522 44.5265 12.4821 44.4761 12.5033 44.4204C12.5245 44.3647 12.5404 44.2951 12.5511 44.2116L12.6465 43.4617C12.6518 43.4193 12.6621 43.3848 12.6773 43.3583C12.6926 43.3318 12.7234 43.3185 12.7698 43.3185H13.3824C13.4222 43.3185 13.4504 43.3278 13.467 43.3464C13.4836 43.3649 13.4919 43.3928 13.4919 43.4299V44.5755L13.5575 44.5795C13.588 44.5822 13.6069 44.5895 13.6142 44.6014C13.6215 44.6134 13.6244 44.6286 13.6232 44.6471L13.6013 45.0092C13.5999 45.0277 13.592 45.037 13.5774 45.037H13.4958C13.4839 45.037 13.4779 45.0284 13.4779 45.0112L13.468 44.7128H12.4536L12.4536 44.7128ZM13.9832 44.687C13.9832 44.6976 13.9812 44.7046 13.9772 44.7079C13.9732 44.7112 13.966 44.7128 13.9553 44.7128H13.8539C13.8446 44.7128 13.8377 44.7112 13.833 44.7079C13.8284 44.7046 13.8261 44.6976 13.8261 44.687V43.3464C13.8261 43.3358 13.8284 43.3288 13.833 43.3255C13.8377 43.3222 13.8446 43.3205 13.8539 43.3205H13.9553C13.9659 43.3205 13.9732 43.3222 13.9772 43.3255C13.9812 43.3288 13.9832 43.3358 13.9832 43.3464V43.9093H14.727V43.3464C14.727 43.3358 14.729 43.3288 14.733 43.3255C14.737 43.3222 14.7442 43.3205 14.7549 43.3205H14.8524C14.863 43.3205 14.8702 43.3222 14.8742 43.3255C14.8782 43.3288 14.8802 43.3358 14.8802 43.3464V44.687C14.8802 44.6976 14.8782 44.7046 14.8742 44.7079C14.8702 44.7112 14.863 44.7128 14.8524 44.7128H14.7549C14.7443 44.7128 14.737 44.7112 14.733 44.7079C14.729 44.7046 14.727 44.6976 14.727 44.687V44.0445H13.9832V44.687ZM16.0716 44.7128C16.061 44.7128 16.0527 44.7118 16.0467 44.7099C16.0408 44.7079 16.0358 44.7002 16.0318 44.687L15.9264 44.3807H15.3357C15.3317 44.39 15.3248 44.4095 15.3148 44.4393C15.3049 44.4692 15.2943 44.501 15.283 44.5348C15.2717 44.5686 15.2611 44.6001 15.2512 44.6293C15.2412 44.6585 15.2342 44.6777 15.2303 44.687C15.225 44.7042 15.213 44.7128 15.1945 44.7128H15.0811C15.0705 44.7128 15.0636 44.7095 15.0603 44.7029C15.0569 44.6962 15.0566 44.6889 15.0593 44.681L15.5187 43.3862C15.5293 43.3583 15.5399 43.3401 15.5506 43.3314C15.5612 43.3228 15.5797 43.3179 15.6062 43.3165H15.658C15.6885 43.3165 15.709 43.3215 15.7196 43.3314C15.7302 43.3414 15.7402 43.3596 15.7495 43.3862L16.203 44.681C16.2056 44.6876 16.2056 44.6946 16.203 44.7019C16.2003 44.7092 16.1937 44.7128 16.1831 44.7128H16.0717L16.0716 44.7128ZM15.7335 43.7879L15.636 43.4856H15.6261L15.5306 43.78L15.3774 44.2435H15.8827L15.7335 43.788V43.7879ZM17.1695 44.1022H16.8573C16.8228 44.1022 16.791 44.1052 16.7618 44.1112C16.7326 44.1171 16.7058 44.1278 16.6813 44.143C16.6567 44.1582 16.6352 44.1788 16.6166 44.2047C16.598 44.2305 16.5828 44.264 16.5709 44.3051L16.4655 44.691C16.4615 44.7016 16.4565 44.7079 16.4505 44.7099C16.4446 44.7119 16.4383 44.7129 16.4316 44.7129H16.3242C16.3163 44.7129 16.311 44.7109 16.3083 44.7069C16.3057 44.7029 16.3043 44.699 16.3043 44.695V44.683C16.3229 44.6154 16.3415 44.5481 16.36 44.4812C16.3786 44.4142 16.3971 44.3462 16.4157 44.2773C16.4303 44.2269 16.4515 44.1835 16.4793 44.147C16.5072 44.1105 16.549 44.0817 16.6046 44.0605C16.5264 44.0313 16.4681 43.9856 16.4296 43.9233C16.3912 43.8609 16.3719 43.7893 16.3719 43.7084C16.3719 43.6528 16.3815 43.6013 16.4007 43.5543C16.42 43.5072 16.4471 43.4661 16.4823 43.431C16.5174 43.3959 16.5602 43.3683 16.6106 43.3484C16.6609 43.3286 16.718 43.3186 16.7816 43.3186H17.2331C17.2689 43.3186 17.2934 43.3262 17.3067 43.3415C17.32 43.3567 17.3266 43.3796 17.3266 43.4101V44.689C17.3266 44.6996 17.3246 44.7062 17.3206 44.7089C17.3167 44.7115 17.3094 44.7129 17.2988 44.7129H17.1973C17.1867 44.7129 17.1794 44.7115 17.1754 44.7089C17.1715 44.7062 17.1695 44.6996 17.1695 44.689V44.1022L17.1695 44.1022ZM16.7996 43.4598C16.7492 43.4598 16.7068 43.4671 16.6723 43.4817C16.6378 43.4962 16.6096 43.5154 16.5878 43.5393C16.5659 43.5632 16.55 43.5904 16.54 43.6209C16.5301 43.6513 16.5251 43.6825 16.5251 43.7143C16.5251 43.7899 16.5483 43.8513 16.5947 43.8983C16.6411 43.9454 16.7134 43.9689 16.8115 43.9689H17.1695V43.4597H16.7996V43.4598ZM18.6096 44.687C18.6096 44.6976 18.6079 44.7046 18.6046 44.7079C18.6013 44.7112 18.595 44.7128 18.5857 44.7128H18.4803C18.4697 44.7128 18.4624 44.7112 18.4584 44.7079C18.4544 44.7046 18.4525 44.6976 18.4525 44.687V43.4558H18.0547C18.0441 43.4558 18.0374 43.4541 18.0348 43.4508C18.0321 43.4475 18.0308 43.4406 18.0308 43.4299V43.3484C18.0308 43.3378 18.0321 43.3305 18.0348 43.3265C18.0374 43.3225 18.0441 43.3206 18.0547 43.3206H19.0213C19.0319 43.3206 19.0389 43.3226 19.0422 43.3265C19.0455 43.3305 19.0472 43.3378 19.0472 43.3484V43.4299C19.0472 43.4406 19.0455 43.4475 19.0422 43.4508C19.0389 43.4541 19.0319 43.4558 19.0213 43.4558H18.6096V44.687ZM19.2222 43.4101C19.2222 43.3796 19.2285 43.3567 19.2411 43.3414C19.2537 43.3262 19.2779 43.3186 19.3137 43.3186H19.7732C19.8342 43.3186 19.8902 43.3285 19.9412 43.3484C19.9923 43.3683 20.0364 43.3961 20.0735 43.4319C20.1107 43.4677 20.1392 43.5105 20.159 43.5602C20.1789 43.6099 20.1889 43.6647 20.1889 43.7243C20.1889 43.7615 20.1829 43.8039 20.171 43.8516C20.159 43.8994 20.1368 43.9448 20.1044 43.9879C20.0719 44.0309 20.0274 44.0671 19.9711 44.0962C19.9147 44.1254 19.8428 44.14 19.7553 44.14H19.3734V44.689C19.3734 44.6996 19.3714 44.7062 19.3674 44.7089C19.3634 44.7115 19.3562 44.7129 19.3456 44.7129H19.2481C19.2388 44.7129 19.2322 44.7115 19.2282 44.7089C19.2242 44.7062 19.2222 44.6996 19.2222 44.689V43.4101H19.2222ZM19.3734 44.0048H19.7374C19.8288 44.0048 19.9004 43.9812 19.9522 43.9342C20.0039 43.8871 20.0297 43.8198 20.0297 43.7323C20.0297 43.7031 20.0251 43.6723 20.0158 43.6398C20.0065 43.6073 19.9906 43.5778 19.9681 43.5513C19.9455 43.5248 19.9154 43.5029 19.8776 43.4857C19.8398 43.4684 19.7924 43.4598 19.7354 43.4598H19.3734V44.0048V44.0048ZM21.2987 44.7129C21.2881 44.7129 21.2798 44.7119 21.2738 44.7099C21.2679 44.7079 21.2629 44.7003 21.2589 44.687L21.1535 44.3807H20.5628C20.5588 44.39 20.5519 44.4095 20.5419 44.4394C20.532 44.4692 20.5214 44.501 20.5101 44.5348C20.4988 44.5686 20.4882 44.6001 20.4783 44.6293C20.4683 44.6585 20.4613 44.6777 20.4574 44.687C20.4521 44.7042 20.4401 44.7129 20.4216 44.7129H20.3082C20.2976 44.7129 20.2906 44.7095 20.2873 44.7029C20.284 44.6963 20.2837 44.689 20.2864 44.681L20.7458 43.3862C20.7564 43.3583 20.767 43.3401 20.7776 43.3315C20.7882 43.3229 20.8068 43.3179 20.8333 43.3166H20.8851C20.9155 43.3166 20.9361 43.3215 20.9467 43.3315C20.9573 43.3414 20.9673 43.3596 20.9765 43.3862L21.4301 44.681C21.4327 44.6877 21.4327 44.6946 21.4301 44.7019C21.4274 44.7092 21.4208 44.7128 21.4102 44.7128H21.2988L21.2987 44.7129ZM20.9606 43.788L20.8631 43.4857H20.8532L20.7577 43.78L20.6045 44.2435H21.1097L20.9606 43.788V43.788ZM21.7661 44.687C21.7661 44.6976 21.7641 44.7046 21.7602 44.7079C21.7562 44.7112 21.7489 44.7129 21.7383 44.7129H21.6368C21.6275 44.7129 21.6206 44.7112 21.616 44.7079C21.6113 44.7046 21.609 44.6976 21.609 44.687V43.3464C21.609 43.3358 21.6113 43.3288 21.616 43.3256C21.6206 43.3222 21.6276 43.3206 21.6368 43.3206H21.7383C21.7489 43.3206 21.7562 43.3222 21.7602 43.3256C21.7642 43.3288 21.7661 43.3358 21.7661 43.3464V43.9093H22.51V43.3464C22.51 43.3358 22.512 43.3288 22.516 43.3256C22.5199 43.3222 22.5272 43.3206 22.5378 43.3206H22.6353C22.6459 43.3206 22.6532 43.3222 22.6572 43.3256C22.6612 43.3288 22.6631 43.3358 22.6631 43.3464V44.687C22.6631 44.6976 22.6612 44.7046 22.6572 44.7079C22.6532 44.7112 22.6459 44.7129 22.6353 44.7129H22.5378C22.5272 44.7129 22.5199 44.7112 22.516 44.7079C22.5119 44.7046 22.51 44.6976 22.51 44.687V44.0446H21.7661V44.687ZM23.5303 44.5915C23.59 44.5915 23.647 44.5846 23.7014 44.5707C23.7558 44.5567 23.8081 44.5378 23.8585 44.514C23.8718 44.5087 23.8811 44.508 23.8864 44.512C23.8917 44.5159 23.8957 44.5213 23.8983 44.5279L23.9302 44.5975C23.9368 44.6107 23.9391 44.62 23.9371 44.6253C23.9351 44.6306 23.9302 44.6359 23.9222 44.6412C23.8891 44.6611 23.8543 44.677 23.8178 44.689C23.7813 44.7009 23.7449 44.7105 23.7084 44.7178C23.6719 44.7251 23.6361 44.7297 23.6009 44.7317C23.5658 44.7337 23.5336 44.7347 23.5045 44.7347C23.413 44.7347 23.3315 44.7208 23.2599 44.6929C23.1883 44.6651 23.1273 44.6227 23.0769 44.5656C23.0265 44.5086 22.988 44.4364 22.9615 44.3488C22.935 44.2613 22.9217 44.1572 22.9217 44.0366C22.9217 43.9239 22.936 43.8221 22.9645 43.7313C22.993 43.6404 23.0334 43.5632 23.0858 43.4995C23.1382 43.4359 23.2008 43.3868 23.2738 43.3524C23.3467 43.3179 23.4276 43.3006 23.5164 43.3006C23.5735 43.3006 23.6325 43.3059 23.6934 43.3165C23.7544 43.3271 23.8188 43.3497 23.8864 43.3841C23.893 43.3868 23.8976 43.3911 23.9003 43.3971C23.903 43.403 23.901 43.412 23.8944 43.4239L23.8566 43.4995C23.8526 43.5062 23.8486 43.5108 23.8446 43.5134C23.8406 43.5161 23.834 43.5154 23.8247 43.5115C23.7743 43.4876 23.724 43.4704 23.6736 43.4597C23.6232 43.4491 23.5728 43.4438 23.5224 43.4438C23.4442 43.4438 23.3772 43.4604 23.3215 43.4936C23.2658 43.5267 23.2201 43.5705 23.1843 43.6248C23.1485 43.6792 23.122 43.7422 23.1047 43.8138C23.0875 43.8854 23.0789 43.9596 23.0789 44.0365C23.0789 44.1161 23.0865 44.1897 23.1017 44.2573C23.117 44.3249 23.1425 44.3836 23.1783 44.4334C23.2141 44.4831 23.2609 44.5219 23.3185 44.5497C23.3762 44.5776 23.4468 44.5915 23.5303 44.5915V44.5915ZM25.1832 44.687C25.1832 44.6976 25.1812 44.7046 25.1772 44.7079C25.1732 44.7112 25.166 44.7129 25.1554 44.7129H25.0559C25.0466 44.7129 25.0396 44.7112 25.035 44.7079C25.0304 44.7046 25.028 44.6976 25.028 44.687V43.4558H24.2862V44.687C24.2862 44.6976 24.2842 44.7046 24.2802 44.7079C24.2762 44.7112 24.2689 44.7129 24.2583 44.7129H24.1589C24.1496 44.7129 24.1426 44.7112 24.138 44.7079C24.1333 44.7046 24.131 44.6976 24.131 44.687V43.4299C24.131 43.3928 24.1403 43.365 24.1589 43.3464C24.1774 43.3279 24.2033 43.3186 24.2364 43.3186H25.0778C25.148 43.3186 25.1832 43.3557 25.1832 43.4299V44.687ZM26.6073 44.0127C26.6073 44.2448 26.5579 44.4231 26.4591 44.5478C26.3603 44.6724 26.2141 44.7347 26.0205 44.7347C25.9224 44.7347 25.8372 44.7185 25.7649 44.686C25.6927 44.6535 25.6327 44.6065 25.5849 44.5448C25.5372 44.4831 25.5014 44.4079 25.4775 44.3191C25.4536 44.2302 25.4417 44.1301 25.4417 44.0187C25.4417 43.9033 25.456 43.8009 25.4845 43.7114C25.513 43.6219 25.5528 43.5467 25.6038 43.4857C25.6549 43.4247 25.7162 43.3783 25.7878 43.3464C25.8594 43.3146 25.9383 43.2987 26.0245 43.2987C26.2168 43.2987 26.3619 43.3617 26.4601 43.4877C26.5582 43.6136 26.6073 43.7887 26.6073 44.0127H26.6073ZM26.4502 44.0187C26.4502 43.9431 26.4438 43.8702 26.4312 43.7999C26.4186 43.7296 26.3964 43.6676 26.3646 43.614C26.3328 43.5603 26.2897 43.5171 26.2353 43.4847C26.181 43.4522 26.112 43.436 26.0285 43.436C25.9529 43.436 25.8876 43.4515 25.8326 43.4827C25.7775 43.5139 25.7324 43.5557 25.6973 43.608C25.6622 43.6604 25.6363 43.7217 25.6197 43.792C25.6031 43.8623 25.5949 43.9359 25.5949 44.0128C25.5949 44.0963 25.6018 44.1736 25.6158 44.2445C25.6297 44.3154 25.6532 44.3771 25.6864 44.4295C25.7195 44.4819 25.7633 44.5229 25.8176 44.5528C25.872 44.5826 25.9403 44.5975 26.0225 44.5975C26.1034 44.5975 26.1713 44.5816 26.2264 44.5498C26.2814 44.518 26.3255 44.4752 26.3586 44.4215C26.3918 44.3678 26.4153 44.3062 26.4292 44.2365C26.4432 44.1669 26.4501 44.0943 26.4501 44.0187L26.4502 44.0187ZM26.8659 43.4101C26.8659 43.3796 26.8722 43.3567 26.8848 43.3415C26.8974 43.3262 26.9216 43.3186 26.9574 43.3186H27.4168C27.4778 43.3186 27.5339 43.3286 27.5849 43.3484C27.6359 43.3683 27.68 43.3962 27.7172 43.432C27.7543 43.4678 27.7828 43.5105 27.8027 43.5603C27.8226 43.61 27.8325 43.6647 27.8325 43.7243C27.8325 43.7615 27.8266 43.8039 27.8146 43.8517C27.8027 43.8994 27.7805 43.9448 27.748 43.9879C27.7155 44.031 27.6711 44.0671 27.6147 44.0963C27.5584 44.1255 27.4865 44.14 27.3989 44.14H27.017V44.689C27.017 44.6996 27.015 44.7062 27.0111 44.7089C27.0071 44.7115 26.9998 44.7129 26.9892 44.7129H26.8917C26.8824 44.7129 26.8758 44.7115 26.8718 44.7089C26.8679 44.7062 26.8659 44.6996 26.8659 44.689V43.4101H26.8659ZM27.017 44.0048H27.381C27.4725 44.0048 27.5441 43.9813 27.5958 43.9342C27.6475 43.8871 27.6734 43.8198 27.6734 43.7323C27.6734 43.7032 27.6688 43.6723 27.6595 43.6398C27.6502 43.6073 27.6343 43.5778 27.6117 43.5513C27.5892 43.5248 27.559 43.5029 27.5212 43.4857C27.4834 43.4685 27.436 43.4598 27.379 43.4598H27.017V44.0048V44.0048ZM28.5067 44.687C28.5067 44.6976 28.5051 44.7046 28.5018 44.7079C28.4985 44.7112 28.4921 44.7129 28.4829 44.7129H28.3774C28.3668 44.7129 28.3596 44.7112 28.3556 44.7079C28.3516 44.7046 28.3496 44.6976 28.3496 44.687V43.4558H27.9518C27.9412 43.4558 27.9346 43.4542 27.9319 43.4509C27.9293 43.4476 27.9279 43.4406 27.9279 43.43V43.3485C27.9279 43.3379 27.9293 43.3306 27.9319 43.3266C27.9346 43.3226 27.9412 43.3206 27.9518 43.3206H28.9185C28.9291 43.3206 28.936 43.3226 28.9393 43.3266C28.9426 43.3306 28.9443 43.3378 28.9443 43.3485V43.43C28.9443 43.4406 28.9426 43.4476 28.9393 43.4509C28.936 43.4542 28.9291 43.4558 28.9185 43.4558H28.5067V44.687Z" fill="#1C4C96"/>
<path d="M29.2782 44.6869C29.2782 44.6975 29.2762 44.7045 29.2722 44.7078C29.2683 44.7111 29.261 44.7127 29.2503 44.7127H29.1489C29.1396 44.7127 29.1327 44.7111 29.128 44.7078C29.1234 44.7045 29.1211 44.6975 29.1211 44.6869V43.3463C29.1211 43.3357 29.1234 43.3287 29.128 43.3254C29.1327 43.3221 29.1396 43.3205 29.1489 43.3205H29.2503C29.261 43.3205 29.2683 43.3221 29.2722 43.3254C29.2762 43.3287 29.2782 43.3357 29.2782 43.3463V43.9092H30.0221V43.3463C30.0221 43.3357 30.0241 43.3287 30.028 43.3254C30.032 43.3221 30.0393 43.3205 30.0499 43.3205H30.1474C30.158 43.3205 30.1653 43.3221 30.1693 43.3254C30.1733 43.3287 30.1752 43.3357 30.1752 43.3463V44.6869C30.1752 44.6975 30.1732 44.7045 30.1693 44.7078C30.1653 44.7111 30.158 44.7127 30.1474 44.7127H30.0499C30.0393 44.7127 30.032 44.7111 30.028 44.7078C30.024 44.7045 30.0221 44.6975 30.0221 44.6869V44.0444H29.2782V44.6869ZM31.3667 44.7127C31.356 44.7127 31.3478 44.7118 31.3418 44.7098C31.3358 44.7078 31.3309 44.7002 31.3269 44.6869L31.2214 44.3806H30.6307C30.6267 44.3899 30.6198 44.4094 30.6099 44.4393C30.5999 44.4691 30.5893 44.5009 30.578 44.5347C30.5668 44.5685 30.5561 44.6 30.5462 44.6292C30.5363 44.6584 30.5293 44.6776 30.5253 44.6869C30.52 44.7041 30.5081 44.7127 30.4895 44.7127H30.3761C30.3655 44.7127 30.3586 44.7094 30.3553 44.7028C30.352 44.6961 30.3516 44.6889 30.3543 44.6809L30.8137 43.3861C30.8243 43.3582 30.835 43.34 30.8456 43.3314C30.8562 43.3228 30.8748 43.3178 30.9013 43.3165H30.953C30.9835 43.3165 31.004 43.3214 31.0147 43.3314C31.0253 43.3413 31.0352 43.3595 31.0445 43.3861L31.498 44.6809C31.5007 44.6875 31.5007 44.6945 31.498 44.7018C31.4954 44.7091 31.4887 44.7127 31.4781 44.7127H31.3668L31.3667 44.7127ZM31.0285 43.7879L30.9311 43.4856H30.9211L30.8256 43.7799L30.6725 44.2434H31.1777L31.0285 43.7879V43.7879ZM32.4646 44.1021H32.1523C32.1178 44.1021 32.086 44.1051 32.0568 44.1111C32.0276 44.117 32.0008 44.1277 31.9763 44.1429C31.9517 44.1582 31.9302 44.1787 31.9116 44.2046C31.8931 44.2305 31.8778 44.2639 31.8659 44.305L31.7605 44.6909C31.7565 44.7015 31.7515 44.7078 31.7456 44.7098C31.7396 44.7118 31.7333 44.7128 31.7267 44.7128H31.6192C31.6113 44.7128 31.606 44.7108 31.6033 44.7068C31.6007 44.7028 31.5993 44.6989 31.5993 44.6949V44.6829C31.6179 44.6153 31.6365 44.548 31.655 44.4811C31.6736 44.4141 31.6922 44.3462 31.7107 44.2772C31.7253 44.2268 31.7465 44.1834 31.7744 44.1469C31.8022 44.1105 31.844 44.0816 31.8997 44.0604C31.8214 44.0312 31.7631 43.9855 31.7246 43.9232C31.6862 43.8608 31.667 43.7893 31.667 43.7084C31.667 43.6527 31.6766 43.6013 31.6958 43.5542C31.715 43.5071 31.7422 43.466 31.7773 43.4309C31.8125 43.3958 31.8552 43.3683 31.9056 43.3484C31.956 43.3285 32.013 43.3185 32.0766 43.3185H32.5282C32.5639 43.3185 32.5885 43.3262 32.6017 43.3414C32.615 43.3566 32.6216 43.3795 32.6216 43.41V44.6889C32.6216 44.6995 32.6196 44.7062 32.6157 44.7088C32.6117 44.7114 32.6044 44.7128 32.5938 44.7128H32.4924C32.4818 44.7128 32.4744 44.7114 32.4705 44.7088C32.4665 44.7062 32.4645 44.6995 32.4645 44.6889V44.1022L32.4646 44.1021ZM32.0946 43.4597C32.0442 43.4597 32.0018 43.467 31.9673 43.4816C31.9329 43.4962 31.9047 43.5154 31.8828 43.5392C31.8609 43.5631 31.845 43.5903 31.8351 43.6208C31.8251 43.6513 31.8201 43.6824 31.8201 43.7143C31.8201 43.7899 31.8433 43.8512 31.8897 43.8982C31.9362 43.9453 32.0084 43.9689 32.1066 43.9689H32.4646V43.4597H32.0946V43.4597ZM34.1075 43.9669C34.142 43.9775 34.1705 43.9907 34.193 44.0067C34.2155 44.0226 34.2348 44.0411 34.2507 44.0623C34.2666 44.0835 34.2795 44.1074 34.2895 44.1339C34.2994 44.1605 34.3084 44.189 34.3163 44.2195L34.4416 44.6809C34.4443 44.6876 34.4443 44.6945 34.4416 44.7018C34.439 44.7091 34.431 44.7127 34.4177 44.7127H34.3203C34.3136 44.7127 34.3067 44.7114 34.2994 44.7088C34.2921 44.7061 34.2871 44.6994 34.2845 44.6889L34.1632 44.2413C34.1526 44.2016 34.1393 44.1684 34.1234 44.1419C34.1075 44.1154 34.0892 44.0948 34.0687 44.0802C34.0481 44.0656 34.0243 44.0553 33.9971 44.0494C33.9699 44.0434 33.9397 44.0404 33.9066 44.0404H33.5983V44.6868C33.5983 44.6974 33.5963 44.7044 33.5923 44.7077C33.5883 44.711 33.5811 44.7127 33.5704 44.7127H33.475C33.4656 44.7127 33.4587 44.711 33.4541 44.7077C33.4494 44.7044 33.4471 44.6974 33.4471 44.6868V43.3462C33.4471 43.3357 33.4494 43.3287 33.4541 43.3254C33.4587 43.3221 33.4657 43.3204 33.475 43.3204H33.5724C33.583 43.3204 33.5903 43.3221 33.5943 43.3254C33.5983 43.3287 33.5996 43.3357 33.5983 43.3462V43.9012H33.8847C33.9086 43.9012 33.9328 43.8985 33.9573 43.8932C33.9819 43.8879 34.0054 43.878 34.0279 43.8634C34.0505 43.8488 34.0707 43.8276 34.0886 43.7997C34.1065 43.7719 34.1214 43.7361 34.1333 43.6923L34.2268 43.3403C34.2295 43.3297 34.2338 43.3231 34.2397 43.3204C34.2457 43.3178 34.252 43.3164 34.2587 43.3164H34.3501C34.3634 43.3164 34.371 43.3204 34.373 43.3284C34.375 43.3363 34.3747 43.3436 34.372 43.3503L34.2805 43.7063C34.2659 43.766 34.2454 43.817 34.2188 43.8594C34.1923 43.9019 34.1552 43.9343 34.1075 43.9569V43.9668V43.9669ZM35.7723 44.0126C35.7723 44.2446 35.7229 44.423 35.6241 44.5476C35.5253 44.6723 35.3791 44.7346 35.1855 44.7346C35.0874 44.7346 35.0022 44.7184 34.9299 44.6859C34.8577 44.6534 34.7976 44.6063 34.7499 44.5447C34.7022 44.483 34.6664 44.4077 34.6425 44.3189C34.6186 44.2301 34.6067 44.13 34.6067 44.0186C34.6067 43.9032 34.621 43.8008 34.6495 43.7113C34.678 43.6218 34.7178 43.5465 34.7688 43.4855C34.8199 43.4245 34.8812 43.3781 34.9528 43.3463C35.0244 43.3145 35.1033 43.2986 35.1895 43.2986C35.3818 43.2986 35.5269 43.3616 35.6251 43.4875C35.7232 43.6135 35.7722 43.7885 35.7722 44.0126H35.7723ZM35.6151 44.0186C35.6151 43.943 35.6088 43.8701 35.5962 43.7998C35.5836 43.7295 35.5614 43.6675 35.5296 43.6138C35.4978 43.5601 35.4547 43.517 35.4003 43.4845C35.3459 43.4521 35.277 43.4358 35.1935 43.4358C35.1179 43.4358 35.0526 43.4514 34.9976 43.4826C34.9425 43.5137 34.8974 43.5555 34.8623 43.6079C34.8272 43.6603 34.8013 43.7216 34.7847 43.7919C34.7681 43.8621 34.7599 43.9357 34.7599 44.0126C34.7599 44.0962 34.7668 44.1734 34.7807 44.2444C34.7947 44.3153 34.8182 44.3769 34.8513 44.4293C34.8845 44.4817 34.9283 44.5228 34.9826 44.5527C35.037 44.5825 35.1053 44.5974 35.1875 44.5974C35.2683 44.5974 35.3363 44.5815 35.3913 44.5497C35.4464 44.5178 35.4905 44.4751 35.5236 44.4214C35.5568 44.3677 35.5803 44.306 35.5942 44.2364C35.6082 44.1668 35.6151 44.0942 35.6151 44.0186L35.6151 44.0186ZM36.6812 44.4064C36.6865 44.3945 36.6945 44.3753 36.7051 44.3487C36.7157 44.3222 36.7273 44.2937 36.7399 44.2632C36.7525 44.2327 36.7641 44.2042 36.7747 44.1777C36.7853 44.1512 36.7933 44.1319 36.7986 44.12C36.8105 44.0922 36.8248 44.0573 36.8414 44.0155C36.8579 43.9738 36.8762 43.9294 36.8961 43.8823C36.916 43.8352 36.9362 43.7865 36.9567 43.7361C36.9773 43.6857 36.9965 43.6383 37.0144 43.5939C37.0323 43.5495 37.0489 43.5094 37.0641 43.4736C37.0794 43.4378 37.091 43.4099 37.0989 43.39C37.1109 43.3595 37.1235 43.34 37.1367 43.3314C37.15 43.3228 37.1692 43.3184 37.1944 43.3184H37.2402C37.2746 43.3184 37.2975 43.3264 37.3088 43.3423C37.32 43.3582 37.3257 43.3795 37.3257 43.406V44.6869C37.3257 44.6975 37.3234 44.7044 37.3187 44.7077C37.3141 44.7111 37.3071 44.7127 37.2978 44.7127H37.2044C37.1938 44.7127 37.1865 44.7111 37.1825 44.7077C37.1785 44.7044 37.1765 44.6975 37.1765 44.6869V43.5869H37.1666L37.0668 43.8316C37.0522 43.8661 37.0326 43.9128 37.0081 43.9718C36.9836 44.0308 36.9581 44.0925 36.9315 44.1568C36.9047 44.2211 36.8788 44.2831 36.8536 44.3428C36.8285 44.4024 36.8086 44.4488 36.794 44.482C36.7834 44.5085 36.7724 44.5267 36.7612 44.5367C36.7495 44.5466 36.7307 44.5516 36.7041 44.5516H36.6505C36.6239 44.5516 36.6047 44.5466 36.5924 44.5367C36.5805 44.5267 36.5692 44.5085 36.5586 44.482C36.5441 44.4475 36.5242 44.4005 36.499 44.3408C36.4738 44.2811 36.4476 44.2188 36.4201 44.1538C36.3929 44.0888 36.3667 44.0265 36.3415 43.9669C36.3163 43.9072 36.2958 43.8602 36.2798 43.8257L36.188 43.6029H36.1761V44.6869C36.1761 44.6975 36.1741 44.7045 36.1701 44.7078C36.1661 44.7111 36.1592 44.7127 36.1486 44.7127H36.0584C36.0478 44.7127 36.0408 44.7111 36.0368 44.7078C36.0328 44.7045 36.0309 44.6975 36.0309 44.6869V43.406C36.0309 43.3795 36.0362 43.3582 36.0468 43.3424C36.0574 43.3265 36.0799 43.3185 36.1144 43.3185H36.1601C36.1867 43.3185 36.2062 43.3228 36.2188 43.3314C36.2314 43.34 36.2437 43.3596 36.2556 43.3901C36.2583 43.3967 36.2669 43.4169 36.2815 43.4507C36.296 43.4845 36.3133 43.5256 36.3332 43.574C36.3531 43.6224 36.3746 43.6748 36.3978 43.7312C36.421 43.7875 36.4432 43.8416 36.4645 43.8933C36.4857 43.945 36.5043 43.9907 36.5202 44.0305C36.5361 44.0703 36.5474 44.0975 36.554 44.1121C36.5593 44.124 36.5675 44.1439 36.5788 44.1718C36.5901 44.1996 36.602 44.2288 36.6146 44.2593C36.6272 44.2898 36.6388 44.3189 36.6494 44.3468C36.66 44.3746 36.668 44.3945 36.6733 44.4065H36.6813L36.6812 44.4064ZM38.6762 44.6869C38.6762 44.6975 38.6742 44.7044 38.6702 44.7077C38.6662 44.7111 38.659 44.7127 38.6483 44.7127H38.5489C38.5396 44.7127 38.5326 44.7111 38.528 44.7077C38.5233 44.7044 38.521 44.6975 38.521 44.6869V43.4557H37.7792V44.6869C37.7792 44.6975 37.7771 44.7044 37.7732 44.7077C37.7692 44.7111 37.7619 44.7127 37.7513 44.7127H37.6518C37.6425 44.7127 37.6356 44.7111 37.631 44.7077C37.6263 44.7044 37.624 44.6975 37.624 44.6869V43.4298C37.624 43.3927 37.6333 43.3648 37.6518 43.3463C37.6704 43.3277 37.6963 43.3184 37.7294 43.3184H38.5707C38.641 43.3184 38.6762 43.3556 38.6762 43.4298V44.6869ZM39.8676 44.7127C39.8569 44.7127 39.8486 44.7117 39.8427 44.7097C39.8367 44.7077 39.8318 44.7001 39.8278 44.6869L39.7223 44.3806H39.1316C39.1276 44.3899 39.1207 44.4094 39.1107 44.4392C39.1008 44.4691 39.0902 44.5009 39.0789 44.5347C39.0677 44.5685 39.057 44.6 39.0471 44.6292C39.0371 44.6584 39.0302 44.6776 39.0262 44.6869C39.0209 44.7041 39.009 44.7127 38.9904 44.7127H38.877C38.8664 44.7127 38.8595 44.7094 38.8562 44.7028C38.8529 44.6961 38.8525 44.6888 38.8552 44.6809L39.3146 43.3861C39.3252 43.3582 39.3359 43.34 39.3465 43.3313C39.3571 43.3227 39.3757 43.3178 39.4021 43.3164H39.4539C39.4844 43.3164 39.5049 43.3214 39.5156 43.3313C39.5262 43.3413 39.5361 43.3595 39.5454 43.3861L39.9989 44.6809C40.0015 44.6875 40.0015 44.6945 39.9989 44.7017C39.9962 44.709 39.9896 44.7127 39.979 44.7127H39.8676L39.8676 44.7127ZM39.5294 43.7878L39.4319 43.4855H39.422L39.3265 43.7799L39.1734 44.2433H39.6786L39.5294 43.7879V43.7878ZM40.335 44.6869C40.335 44.6975 40.333 44.7044 40.329 44.7077C40.325 44.7111 40.3178 44.7127 40.3071 44.7127H40.2057C40.1964 44.7127 40.1895 44.7111 40.1848 44.7077C40.1802 44.7044 40.1779 44.6975 40.1779 44.6869V43.3463C40.1779 43.3357 40.1802 43.3287 40.1848 43.3254C40.1895 43.3221 40.1964 43.3204 40.2057 43.3204H40.3071C40.3177 43.3204 40.325 43.3221 40.329 43.3254C40.333 43.3287 40.335 43.3357 40.335 43.3463V43.9092H41.0788V43.3463C41.0788 43.3357 41.0808 43.3287 41.0848 43.3254C41.0888 43.3221 41.096 43.3204 41.1067 43.3204H41.2041C41.2147 43.3204 41.222 43.3221 41.226 43.3254C41.23 43.3287 41.232 43.3357 41.232 43.3463V44.6869C41.232 44.6975 41.23 44.7044 41.226 44.7077C41.222 44.7111 41.2148 44.7127 41.2041 44.7127H41.1067C41.0961 44.7127 41.0888 44.7111 41.0848 44.7077C41.0808 44.7044 41.0788 44.6975 41.0788 44.6869V44.0444H40.335V44.6869ZM42.4353 43.5253L42.2643 43.8157L41.7591 44.6392C41.7432 44.6657 41.7292 44.6846 41.7173 44.6959C41.7054 44.7071 41.6868 44.7128 41.6616 44.7128H41.6159C41.5827 44.7128 41.5602 44.7051 41.5482 44.6899C41.5363 44.6746 41.5304 44.6531 41.5304 44.6253V43.3443C41.5304 43.3337 41.5327 43.3268 41.5373 43.3235C41.542 43.3202 41.5489 43.3185 41.5582 43.3185H41.6557C41.6663 43.3185 41.6736 43.3202 41.6776 43.3235C41.6815 43.3268 41.6835 43.3337 41.6835 43.3443V44.5019H41.6895L41.8466 44.2394L42.3677 43.3901C42.3836 43.3635 42.3972 43.345 42.4085 43.3344C42.4197 43.3238 42.4386 43.3185 42.4652 43.3185H42.5129C42.546 43.3185 42.5683 43.3258 42.5796 43.3404C42.5908 43.355 42.5965 43.3769 42.5965 43.406V44.6869C42.5965 44.6975 42.5945 44.7045 42.5905 44.7078C42.5865 44.7111 42.5793 44.7128 42.5686 44.7128H42.4712C42.4605 44.7128 42.4533 44.7111 42.4493 44.7078C42.4453 44.7045 42.4433 44.6975 42.4433 44.6869V43.5254H42.4354L42.4353 43.5253ZM43.6825 44.1021H43.3702C43.3357 44.1021 43.3039 44.1051 43.2747 44.1111C43.2455 44.117 43.2187 44.1277 43.1942 44.1429C43.1696 44.1582 43.1481 44.1787 43.1295 44.2046C43.111 44.2305 43.0957 44.2639 43.0838 44.305L42.9784 44.6909C42.9744 44.7015 42.9694 44.7078 42.9634 44.7098C42.9575 44.7118 42.9512 44.7128 42.9445 44.7128H42.8371C42.8292 44.7128 42.8239 44.7108 42.8212 44.7068C42.8186 44.7028 42.8172 44.6989 42.8172 44.6949V44.6829C42.8358 44.6153 42.8544 44.548 42.8729 44.4811C42.8915 44.4141 42.91 44.3462 42.9286 44.2772C42.9432 44.2268 42.9644 44.1834 42.9922 44.1469C43.0201 44.1105 43.0619 44.0816 43.1175 44.0604C43.0393 44.0312 42.981 43.9855 42.9425 43.9232C42.9041 43.8608 42.8848 43.7893 42.8848 43.7084C42.8848 43.6527 42.8945 43.6013 42.9137 43.5542C42.9329 43.5071 42.96 43.466 42.9952 43.4309C43.0303 43.3958 43.0731 43.3683 43.1235 43.3484C43.1739 43.3285 43.2309 43.3185 43.2945 43.3185H43.746C43.7818 43.3185 43.8064 43.3262 43.8196 43.3414C43.8329 43.3566 43.8395 43.3795 43.8395 43.41V44.6889C43.8395 44.6995 43.8375 44.7062 43.8335 44.7088C43.8296 44.7114 43.8223 44.7128 43.8117 44.7128H43.7102C43.6996 44.7128 43.6923 44.7114 43.6883 44.7088C43.6844 44.7062 43.6824 44.6995 43.6824 44.6889V44.1022L43.6825 44.1021ZM43.3125 43.4597C43.2621 43.4597 43.2197 43.467 43.1852 43.4816C43.1507 43.4962 43.1226 43.5154 43.1007 43.5392C43.0788 43.5631 43.0629 43.5903 43.0529 43.6208C43.043 43.6513 43.038 43.6824 43.038 43.7143C43.038 43.7899 43.0612 43.8512 43.1076 43.8982C43.154 43.9453 43.2263 43.9689 43.3244 43.9689H43.6825V43.4597H43.3125V43.4597Z" fill="#1C4C96"/>
<path fill-rule="evenodd" clip-rule="evenodd" d="M34.3222 17.538C34.2201 26.4945 27.102 33.7232 18.3345 33.7232C13.8559 33.7232 9.80803 31.8361 6.90518 28.7968L10.2123 24.3463C12.1598 26.7141 15.0754 28.219 18.3345 28.219C24.1345 28.219 28.8474 23.4546 28.949 17.538H34.3222H34.3222ZM14.8986 18.108L11.3317 22.908H26.6238C27.5208 21.5014 28.0856 19.8592 28.2136 18.108H14.8986ZM34.1219 22.908H35.481L39.0478 18.108H35.0143C34.9418 19.7751 34.6346 21.3878 34.1219 22.908ZM14.8986 16.728L11.3317 11.928H35.481L39.0478 16.728H14.8986ZM18.3345 0.963041C25.0141 0.963041 30.7362 5.15909 33.1282 11.118H27.0403C25.1212 8.30637 21.9378 6.46723 18.3345 6.46723C15.0577 6.46723 12.1279 7.9884 10.1804 10.3786L6.87109 5.9251C9.77627 2.86486 13.8383 0.963013 18.3345 0.963013L18.3345 0.963041Z" fill="#1C4C96"/>
</svg>
