<svg width="44" height="44" viewBox="0 0 44 44" fill="none" xmlns="http://www.w3.org/2000/svg">
<path fill-rule="evenodd" clip-rule="evenodd" d="M20.7313 0.598471C12.9756 4.12496 6.54838 8.81063 0.93112 15.0339C0.10733 15.9466 0.0953398 15.9665 0.13857 16.3494C0.16266 16.5632 0.24648 17.3098 0.32491 18.0083C1.18445 25.6724 3.85954 33.6817 7.92305 40.758C8.56666 41.8787 8.34732 41.7555 10.4616 42.184C17.9758 43.7065 26.1063 43.7062 33.6264 42.1831C35.7969 41.7434 35.5533 41.8828 36.2387 40.6891C40.5202 33.2325 43.1789 24.8811 43.8706 16.7162L43.934 15.9686L43.5241 15.4915C38.2503 9.35337 30.6868 3.79947 23.1226 0.510581C21.9455 -0.0012491 22.0595 -0.00553913 20.7313 0.598471ZM24.6293 2.98448C31.0551 6.18009 35.8202 9.70988 40.9914 15.1053L42.2956 16.4661L42.2409 17.1428C41.6839 24.0233 38.9258 32.7164 35.2463 39.1882C34.5072 40.4882 34.7338 40.3309 33.1535 40.6413C25.7838 42.0893 18.5491 42.0865 10.998 40.6331L9.52025 40.3487L9.11556 39.6568C5.541 33.5464 2.91475 25.6429 1.98899 18.2098C1.74094 16.2184 1.54195 16.6167 4.03851 14.1074C8.97795 9.14239 14.2277 5.40888 20.323 2.52578C22.1747 1.64996 21.8832 1.61883 24.6293 2.98448ZM21.1396 9.57117C21.1396 9.86685 21.1592 9.88874 21.4251 9.88874H21.7106L21.6612 10.9548C21.5994 12.2876 21.2322 13.5434 20.8901 13.592C20.6933 13.6199 20.6859 13.6549 20.6859 14.5672V15.5135H21.1849H21.6838V14.921V14.3287L22.8406 14.3541L23.9972 14.3795L23.9678 14.9464L23.9383 15.5135H24.4441H24.9498V14.6123V13.7111L24.7004 13.6824L24.4509 13.6537L24.4232 12.2475C24.3836 10.2356 24.4353 9.88874 24.7749 9.88874C25.018 9.88874 25.0406 9.86179 25.0406 9.57117V9.25371H23.0901H21.1396V9.57117ZM15.4936 10.1541L15.1972 10.4193L15.2241 11.3253C15.2493 12.178 15.2388 12.2399 15.0463 12.3747C14.7939 12.5515 14.7513 12.5082 14.5705 11.8909C14.3842 11.2549 14.3881 11.1899 14.6162 11.1303C14.79 11.0849 14.8075 10.6201 14.6421 10.4403C14.5616 10.3528 12.7932 10.9148 12.7932 11.0279C12.7932 11.3652 12.9637 11.5893 13.1878 11.5466C13.4558 11.4953 13.9046 12.6614 13.6746 12.8116C13.4097 12.9845 13.1972 12.8292 12.8838 12.2339C12.3902 11.296 12.0068 11.0219 11.4402 11.2017C11.1371 11.2978 11.1643 11.9753 11.4712 11.9753C11.7414 11.9753 11.9597 12.1833 12.1341 12.6067C12.3034 13.0182 12.5976 13.3361 12.8089 13.3361C12.9001 13.3361 12.9746 13.377 12.9746 13.4269C12.9746 13.4767 12.9387 13.5176 12.8948 13.5176C12.7059 13.5176 12.5874 14.0808 12.6454 14.7044C12.7016 15.3093 12.6932 15.3493 12.4648 15.5609L12.2253 15.783L12.4646 16.0968C12.7321 16.4476 13.0478 16.4289 13.3968 16.0417C13.5674 15.8523 13.6068 14.9163 13.4749 14.1842C13.4178 13.8677 13.5976 13.6083 13.8743 13.6083C14.2495 13.6083 14.5051 15.1416 14.1313 15.1492C14.0364 15.1511 14.0487 15.5314 14.1487 15.6896C14.3167 15.955 16.0713 15.3695 16.0002 15.0717C15.9169 14.7221 15.8912 14.697 15.6191 14.697C15.391 14.697 15.3589 14.6506 15.2159 14.1138C15.1305 13.7932 15.0365 13.4683 15.0073 13.3919C14.9341 13.2014 15.3756 13.0922 15.5692 13.2529C15.6477 13.3181 15.8707 13.6869 16.0646 14.0727C16.465 14.8691 16.6788 15.0598 17.1709 15.0598C17.5371 15.0598 17.558 15.0344 17.6324 14.4981C17.677 14.1775 17.6669 14.162 17.3946 14.1352C17.1492 14.1111 17.0646 14.0263 16.7789 13.5176C16.5585 13.1251 16.3401 12.8667 16.126 12.7448C15.8262 12.5742 15.8134 12.5493 15.9395 12.3819C16.0412 12.2468 16.0648 12.0345 16.0342 11.5284C15.9966 10.9036 16.0098 10.8397 16.2158 10.6487C16.4357 10.4449 16.4363 10.4398 16.2744 10.1657C16.0695 9.81889 15.8711 9.81592 15.4936 10.1541ZM23.3869 11.7712L23.3622 13.563L23.0954 13.5933C22.9486 13.61 22.6572 13.5981 22.4479 13.5666L22.0673 13.5095L22.2396 13.056C22.4149 12.5945 22.5867 11.3183 22.5896 10.4558L22.5911 9.97949H23.0013H23.4114L23.3869 11.7712ZM29.7856 10.2479C29.6618 10.3007 29.5518 10.4639 29.4957 10.6779C29.2506 11.6123 29.2352 11.5572 29.7704 11.6575C30.0943 11.7184 30.1004 11.714 30.2232 11.3256C30.4869 10.4922 31.6259 11.179 31.6113 12.1627C31.6021 12.7855 31.5743 12.792 30.3348 12.4643C30.1741 12.4218 30.1218 12.469 30.0335 12.7366C29.8937 13.1603 29.9279 13.1989 30.5598 13.3331C31.3412 13.4988 31.3594 13.5183 31.178 13.9933C30.7925 15.0026 29.1407 15.3677 29.3571 14.3958C29.4674 13.9 29.451 13.8538 29.1347 13.7695C28.6912 13.6515 28.6199 13.7125 28.4907 14.3213C28.3409 15.027 28.381 15.1107 29.0085 15.404C29.712 15.7328 30.6978 15.7481 31.2823 15.4391C32.5418 14.7735 33.026 11.8299 32.0403 10.8319C31.5718 10.3576 30.3002 10.0282 29.7856 10.2479ZM18.6043 13.6033C18.35 13.8578 18.356 14.3601 18.6165 14.6027C19.2175 15.1627 20.1993 14.3672 19.7134 13.7138C19.4717 13.3887 18.8781 13.3297 18.6043 13.6033ZM26.1603 13.7504C25.9725 13.9382 25.9383 14.039 25.9833 14.272C26.149 15.1299 27.3993 15.0677 27.3993 14.2015C27.3993 13.5559 26.6336 13.2771 26.1603 13.7504ZM4.90036 17.4915C4.97516 17.5379 8.86366 19.2383 13.5414 21.2701L22.0464 24.9642L30.6623 21.2189C35.4009 19.1589 39.269 17.4642 39.2578 17.453C39.2465 17.4418 38.6568 17.5308 37.9472 17.6507C34.5006 18.2333 30.1099 18.7974 26.9004 19.0701C26.0987 19.1382 24.1043 19.1857 22.0467 19.1857C18.4267 19.1857 17.3934 19.1283 13.7911 18.7272C11.226 18.4416 6.29406 17.729 5.00585 17.458C4.83469 17.422 4.80389 17.4318 4.90036 17.4915ZM15.8928 32.5329C12.5357 36.6553 9.80152 40.0402 9.81681 40.0547C9.83221 40.0693 12.5596 38.2299 15.8777 35.9672C19.1959 33.7044 21.9633 31.8508 22.0277 31.8482C22.1234 31.8443 24.9436 33.7426 33.9086 39.8453C34.1207 39.9897 34.2942 40.0879 34.2942 40.0636C34.2942 39.996 22.141 25.0879 22.064 25.0612C22.0269 25.0482 19.2499 28.4105 15.8928 32.5329Z" fill="#E6342A"/>
</svg>
