<svg width="48" height="44" viewBox="0 0 48 44" fill="none" xmlns="http://www.w3.org/2000/svg">
<path d="M11.4752 21.6167L26.7814 28.3259L25.4434 30.613L8.1469 27.439L11.4752 21.6168V21.6167ZM7.43022 28.6682L24.5156 32.081L23.0954 35.0755L3.71484 35.0902L7.43022 28.6682ZM23.9361 -6.10352e-05L33.5988 16.8285L31.9603 19.6527L20.3262 6.48045L23.9361 -6.10352e-05ZM16.2153 13.487L19.6238 7.64623L31.1008 21.2045L29.7915 23.4422L16.2152 13.4871L16.2153 13.487ZM12.1738 20.4684L15.5131 14.5984L28.9685 24.7119L27.6459 27.0967L12.1738 20.4684Z" fill="url(#paint0_linear_322_60247)"/>
<path d="M24.7148 35.0903L34.4875 18.1645L44.1538 35.0681L38.9421 35.072L34.4984 27.3146L30.0364 35.0827L24.7148 35.0903Z" fill="url(#paint1_linear_322_60247)"/>
<path d="M25.6597 42.2218L27.779 42.2243L27.3746 42.9408L25.658 42.9399L25.6597 42.2217V42.2218ZM21.5397 41.5671C21.5405 41.7989 21.5405 42.0306 21.5405 42.2624C21.9264 42.2547 22.3139 42.2869 22.6981 42.2454C23.0377 42.2176 23.0268 41.5941 22.6838 41.5805C22.3038 41.5476 21.9213 41.5737 21.5397 41.567V41.5671ZM20.7848 39.7898C21.037 39.7898 21.2883 39.7898 21.5414 39.7906C21.5405 40.1628 21.5414 40.5358 21.5389 40.9081C22.0643 40.936 22.5981 40.859 23.1176 40.9521C23.5825 41.0434 23.7549 41.5713 23.7078 41.9925C23.7238 42.5026 23.2731 42.9281 22.7771 42.9357C22.113 42.9493 21.4481 42.9365 20.7839 42.9399C20.7839 41.8902 20.7831 40.8404 20.7848 39.7898ZM17.6114 41.6085C17.6105 41.8267 17.6105 42.0458 17.6114 42.2641C18.0746 42.2531 18.5411 42.2887 19.0035 42.2464C19.3398 42.2497 19.3734 41.6559 19.0472 41.6145C18.5689 41.5975 18.0897 41.6154 17.6114 41.6086V41.6085ZM17.6089 40.4682C17.6097 40.6442 17.6114 40.8201 17.6122 40.996C18.0208 40.9877 18.4293 41.0088 18.837 40.9877C19.1035 40.9775 19.1161 40.4759 18.8345 40.4733C18.4268 40.4538 18.0174 40.4716 17.6089 40.4682ZM16.8531 39.7906C17.5669 39.7898 18.2805 39.7898 18.9951 39.7889C19.2414 39.7847 19.5087 39.8541 19.6794 40.0435C19.9097 40.3591 19.8702 40.881 19.5062 41.0798C20.1468 41.2861 20.2309 42.1921 19.8214 42.6523C19.5844 42.8867 19.2355 42.9382 18.9169 42.9407C18.2293 42.9416 17.5416 42.9407 16.854 42.9407C16.8531 41.891 16.8549 40.8403 16.8531 39.7906V39.7906ZM13.8915 40.4919C13.2393 40.6856 13.1157 41.6566 13.6267 42.0653C13.9841 42.3199 14.4825 42.3267 14.8751 42.1542C15.4265 41.9097 15.4972 41.0747 15.1037 40.662C14.7725 40.3871 14.2883 40.3743 13.8915 40.4919H13.8915ZM13.752 39.7661C14.3363 39.6451 14.9869 39.679 15.5072 39.9979C16.3051 40.5055 16.4101 41.7828 15.7662 42.4545C15.3324 42.8723 14.7003 43.0221 14.1143 42.9773C13.6494 42.9459 13.1693 42.7826 12.8533 42.4231C12.4422 41.9461 12.38 41.2252 12.6188 40.6542C12.818 40.189 13.2652 39.8676 13.7519 39.766L13.752 39.7661ZM5.65241 42.2218L7.76499 42.2227L7.36569 42.94L5.65241 42.9409V42.2219V42.2218ZM5.65241 40.996L8.46861 40.9986L8.05504 41.7159L5.65076 41.7126L5.65249 40.996H5.65241ZM10.0364 39.7974L10.6711 39.789L12.4734 42.94L11.5126 42.9409L10.3348 40.887L9.16219 42.9409L8.24579 42.9391L10.0364 39.7974ZM5.65162 39.7899L9.16384 39.789L8.75614 40.4886L5.65249 40.4877L5.65162 39.7898V39.7899ZM2.54632 40.1959L1.38959 42.221L3.70555 42.2244L2.54632 40.1959ZM0.467382 42.2201L2.25376 39.0911L2.88342 39.0903L4.67059 42.2167L5.12707 42.2243V43.8502H4.39066L4.39152 42.9408H0.734683L0.735543 43.8502H0.000860872L0 42.2226L0.467382 42.2201V42.2201ZM25.6599 40.9953L28.4869 40.9961L28.0725 41.7135L25.6607 41.7144L25.6598 40.9953L25.6599 40.9953ZM44.8055 39.7899L45.584 39.7916L45.5815 41.7888L47.3183 39.7899H48V42.9409H47.2434V40.9099L45.4528 42.9435L44.8055 42.9401V39.7899V39.7899ZM40.7705 39.7899H41.548L41.5505 41.793L43.294 39.789L43.9859 39.7907L43.985 42.94L43.2082 42.9409L43.2057 40.9174L41.4286 42.9417L40.7704 42.9409V39.7899H40.7705ZM36.7984 39.7899L37.5559 39.7907L37.555 40.9953L39.1733 40.9961V39.7899H39.9501L39.951 42.9409L39.1734 42.9417V41.7144L37.5568 41.7153L37.5551 42.9401L36.7985 42.941V39.7899L36.7984 39.7899ZM28.2608 42.9409L30.0657 39.7865L30.692 39.7916L32.4868 42.9384L31.5285 42.9409L30.3508 40.8853L29.1763 42.9409H28.2608ZM25.6591 39.7899L29.1755 39.8018L28.7703 40.4894L25.6582 40.487L25.6591 39.7899V39.7899ZM24.0635 39.7899H24.8403L24.8395 42.9409H24.0627L24.0635 39.7899ZM32.7634 39.7899H33.5409L33.5434 41.793L35.2869 39.7891L35.9788 39.7908L35.9779 42.94L35.2011 42.9409L35.1986 40.9175L33.4215 42.9417L32.7633 42.9409V39.7899H32.7634Z" fill="#231F20"/>
<defs>
<linearGradient id="paint0_linear_322_60247" x1="7.3823" y1="11.2491" x2="29.9975" y2="23.7214" gradientUnits="userSpaceOnUse">
<stop stop-color="#FFC540"/>
<stop offset="0.301961" stop-color="#FEC955"/>
<stop offset="0.470588" stop-color="#FF9933"/>
<stop offset="0.611765" stop-color="#FEA239"/>
<stop offset="0.760784" stop-color="#FFBC1F"/>
<stop offset="1" stop-color="#FFDC7C"/>
</linearGradient>
<linearGradient id="paint1_linear_322_60247" x1="20.9524" y1="22.9275" x2="47.9396" y2="30.2417" gradientUnits="userSpaceOnUse">
<stop stop-color="#FFA600"/>
<stop offset="1" stop-color="#FFC847"/>
</linearGradient>
</defs>
</svg>
