<svg width="42" height="42" viewBox="0 0 42 42" fill="none" xmlns="http://www.w3.org/2000/svg">
<path d="M37.9497 19.8159C37.0904 12.0521 31.0985 5.2087 22.3997 4.34851C20.8783 7.29803 19.3686 10.2576 17.7984 13.2893C15.0036 11.7975 12.3084 10.3398 9.57419 8.86803C4.22289 13.5419 2.16831 22.2181 5.67399 29.5588C9.20898 36.9576 17.6402 41.3468 26.3097 38.4995C33.7546 36.0252 38.8989 28.4439 37.9497 19.8159ZM31.8875 18.3562H29.4189C28.6885 18.3562 27.9483 18.3562 27.2081 18.3883C24.8195 18.4885 23.97 20.0606 24.1575 22.198C24.4035 24.6523 25.589 25.4423 28.4619 25.2498V22.3203H31.868V28.2494C29.9931 28.2815 28.126 28.3216 26.2706 28.1391C24.6418 27.9868 23.22 27.4394 22.1029 26.1822C21.6498 25.6648 21.3334 25.0874 20.9877 24.3074C20.3451 25.8774 19.3784 26.9521 17.9859 27.5917C17.0484 28.0168 16.0504 28.1091 15.0544 28.1893C13.4256 28.3216 11.7948 28.2715 10.1171 28.2394V15.3766C12.7928 15.4588 15.488 15.0317 18.0757 16.0864C19.1909 16.5516 20.0112 17.4138 20.6127 18.4685C20.7416 18.7011 20.7709 18.9958 21.0658 19.1783C22.2318 16.329 24.5715 15.4989 27.296 15.3967C28.8174 15.3265 30.3271 15.3766 31.8973 15.3766L31.8875 18.3562Z" fill="#D92419"/>
<path d="M21.6693 2.63555C20.1674 5.56501 18.7163 8.41428 17.2359 11.3437C14.4919 9.874 11.785 8.41428 8.96094 6.88438C12.7635 3.94488 16.9 2.48516 21.6693 2.63555Z" fill="#3EA347"/>
<path d="M17.4627 23.7403C16.6932 25.3624 15.1034 25.2601 13.5234 25.3103V18.3666C14.8671 18.3365 16.2694 18.2162 17.1678 19.4614C18.1345 20.7707 18.1541 22.3307 17.4627 23.7403Z" fill="#D6251B"/>
</svg>
