<svg width="160" height="72" viewBox="0 0 160 72" fill="none" xmlns="http://www.w3.org/2000/svg">
<path d="M25.7413 32.9839C27.6223 35.5492 27.6223 38.6054 26.2961 41.3867C24.7989 44.5648 21.7058 44.3644 18.6317 44.4626V30.8822C21.284 30.7801 23.9933 30.564 25.7413 32.9839Z" fill="#D92419"/>
<path d="M66.1761 33.68C64.5042 18.4693 52.846 5.06174 35.9212 3.37646C32.961 9.15511 30.0237 14.9534 26.9685 20.8931C21.5308 17.9704 16.287 15.1145 10.9671 12.231C0.555277 21.3881 -3.44224 38.3862 3.37862 52.7679C10.2565 67.2636 26.6607 75.8629 43.5286 70.2846C58.0139 65.437 68.0229 50.5838 66.1761 33.68ZM54.3812 30.8201H49.5781C48.1569 30.8201 46.7167 30.8201 45.2766 30.883C40.6293 31.0794 38.9763 34.1592 39.3411 38.3469C39.8199 43.1552 42.1264 44.703 47.7161 44.3259V38.5865H54.3432V50.2027C50.6952 50.2656 47.0625 50.3441 43.4526 49.9867C40.2835 49.6881 37.5171 48.6156 35.3436 46.1526C34.462 45.139 33.8464 44.0077 33.1738 42.4795C31.9236 45.5554 30.0427 47.6611 27.3333 48.9142C25.5094 49.747 23.5676 49.9277 21.6296 50.0849C18.4605 50.3441 15.2876 50.2459 12.0234 50.1831V24.9825C17.2293 25.1436 22.4732 24.3069 27.5081 26.3732C29.6779 27.2846 31.2738 28.9738 32.4442 31.0401C32.695 31.4958 32.752 32.0733 33.3258 32.4307C35.5944 26.8485 40.1467 25.2222 45.4476 25.0218C48.4077 24.8843 51.345 24.9825 54.4002 24.9825L54.3812 30.8201Z" fill="#D92419"/>
<path d="M151.933 52.6874C152.833 48.8572 153.795 44.5281 154.699 40.5958H160C158.119 47.5451 156.291 54.2784 154.41 61.0902H149.455C148.456 57.5153 147.38 53.8816 146.381 50.3068H145.955C144.96 53.8816 144.075 57.4957 143.056 61.0902H138.101C136.254 54.3766 134.392 47.5844 132.511 40.6548H137.812C138.755 44.6853 139.617 48.6765 140.56 52.6874H141.057C142.057 48.6569 143.113 44.6263 144.113 40.5958H148.399C149.375 44.4888 150.413 48.7983 151.431 52.6874H151.933Z" fill="#3EA347"/>
<path d="M122.578 40.6168C116.913 40.5775 112.455 45.1423 112.455 50.8031C112.493 56.6014 116.875 61.0719 122.502 61.0719C128.168 61.0326 132.682 56.5425 132.682 50.9013C132.644 45.2248 128.149 40.6168 122.578 40.6168ZM122.54 56.3657C119.542 56.3657 117.43 54.1187 117.43 50.9445C117.43 47.8843 119.58 45.3034 122.233 45.2445C125.345 45.1816 127.534 47.5072 127.534 50.9642C127.496 54.1383 125.459 56.3657 122.54 56.3657Z" fill="#3EA347"/>
<path d="M95.7435 22.8994C95.3977 19.4031 93.6497 16.7436 90.4388 15.4119C86.445 13.7659 82.2575 14.3787 78.051 14.2412V34.8181C80.8364 34.8181 83.4849 34.9163 86.1183 34.7748C88.0562 34.6766 89.979 34.3781 91.7079 33.2271C95.2989 30.705 96.1842 27.0517 95.7435 22.8994ZM89.7092 28.0848C88.8276 29.6326 85.7535 30.8425 83.2151 30.2297V18.8099C85.6357 18.5899 87.8662 18.7117 89.4394 20.7938C90.7466 22.5419 90.7466 26.2581 89.7092 28.0848Z" fill="#3EA347"/>
<path d="M106.767 53.0046C107.96 52.6078 108.557 52.5881 109.552 51.9518C110.897 51.0797 111.418 48.974 111.167 46.3538C110.859 43.274 109.4 41.4866 106.52 40.9719C103.214 40.3552 99.8929 40.5752 96.5109 40.6145V61.0892H101.466V53.6606H101.85C103.328 56.1826 104.772 58.7243 106.155 61.0695H112.034C110.206 58.2882 108.557 55.6876 106.767 53.0046ZM105.673 49.1312C104.692 50.8793 102.963 50.4629 101.39 50.4629V44.7235C102.887 44.7235 104.407 44.3268 105.464 45.7371C106.269 46.7702 106.288 48.0391 105.673 49.1312Z" fill="#3EA347"/>
<path d="M127.017 14.2795H120.291C118.007 21.0913 115.739 27.8835 113.455 34.7542H118.543C118.988 33.5639 119.39 32.3933 119.793 31.2816H127.708C128.016 32.5111 128.343 33.6229 128.609 34.7542H133.857C131.531 27.8639 129.263 21.0324 127.017 14.2795ZM120.85 27.2078C121.754 24.073 122.617 21.6885 123.464 18.7697H123.848C124.729 21.7474 125.577 24.0926 126.477 27.2078H120.85Z" fill="#3EA347"/>
<path d="M150.683 14.2197V18.7295C148.456 18.7295 146.324 18.7688 144.151 18.7295C142.076 18.6863 140.1 19.1262 139.062 21.0708C137.812 23.3335 137.926 25.8359 139.1 28.1419C139.849 29.6307 141.365 30.0275 142.824 30.2278C143.634 30.326 144.496 30.2671 145.496 30.2671V24.846H150.588V34.8751C147.878 34.7337 145.131 34.934 142.327 34.6748C139.944 34.4587 137.717 33.9598 135.931 32.2313C132.701 29.1161 132.223 25.1642 133.393 21.0708C134.43 17.3388 137.102 15.2332 140.867 14.6754C144.113 14.1608 147.32 14.2197 150.683 14.2197Z" fill="#3EA347"/>
<path d="M89.0935 51.0192H94.1094V61.0877C90.2107 61.0484 86.3462 61.5041 82.6223 60.3334C77.6254 58.7817 75.7824 53.5805 76.569 49.11C77.4734 43.9482 79.9319 41.6265 85.0238 40.9115C87.9991 40.4912 91.0163 40.554 94.0904 40.5933C94.0904 42.2393 94.1284 43.2725 94.1284 45.001C91.8979 45.001 89.8041 45.0402 87.6344 45.0402C82.6413 45.0795 80.0649 49.8446 82.5843 54.3151C83.6216 56.1418 86.426 57.0139 89.1125 56.4011C89.0935 55.2894 89.0935 52.0524 89.0935 51.0192Z" fill="#3EA347"/>
<path d="M34.5002 0.0206647C31.5781 5.76002 28.7547 11.3422 25.8744 17.0816C20.5355 14.2021 15.2688 11.3422 9.77411 8.34489C17.1726 2.58589 25.2208 -0.273964 34.5002 0.0206647Z" fill="#3EA347"/>
<path d="M94.896 34.7335C98.2209 29.3516 101.466 24.1504 104.886 18.6664H96.8568V14.2588H113.356C109.997 19.6799 106.767 24.9047 103.351 30.4241H112.205C112.205 31.8736 112.167 33.2446 112.205 34.7138C106.421 34.7335 100.831 34.7335 94.896 34.7335Z" fill="#3EA347"/>
<path d="M158.427 14.3568H153.278V34.7922H158.427V14.3568Z" fill="#3EA347"/>
<path d="M26.3151 41.3686C24.8179 44.5467 21.7248 44.3463 18.6506 44.4446V30.8406C21.265 30.7817 23.9933 30.546 25.7413 32.9855C27.6223 35.5507 27.6602 38.607 26.3151 41.3686Z" fill="#FEFEFE"/>
<path d="M26.3151 41.3686C24.8179 44.5467 21.7248 44.3463 18.6506 44.4446V30.8406C21.265 30.7817 23.9933 30.546 25.7413 32.9855C27.6223 35.5507 27.6602 38.607 26.3151 41.3686Z" fill="#D6251B"/>
</svg>
