<svg width="147" height="120" viewBox="0 0 147 120" fill="none" xmlns="http://www.w3.org/2000/svg">
<path d="M36.3994 104.902V98.922C36.4344 98.4191 36.3614 97.9146 36.1851 97.442C36.0088 96.9694 35.7334 96.5396 35.3771 96.1813C35.0209 95.823 34.592 95.5443 34.119 95.3639C33.6461 95.1835 33.1399 95.1054 32.6343 95.135C31.9724 95.0918 31.3111 95.2262 30.7192 95.5242C30.1274 95.8222 29.6268 96.2729 29.2697 96.8292C28.9442 96.2896 28.4784 95.8474 27.9215 95.5492C27.3646 95.251 26.7372 95.1079 26.1054 95.135C25.5547 95.1072 25.0062 95.2233 24.5144 95.4715C24.0226 95.7197 23.6045 96.0915 23.3016 96.5501V95.3741H21.2188V104.902H23.3216V99.6595C23.2769 99.3337 23.305 99.0021 23.404 98.6884C23.503 98.3746 23.6704 98.0866 23.8943 97.8447C24.1182 97.6029 24.393 97.4132 24.699 97.2894C25.0051 97.1655 25.3349 97.1104 25.6648 97.1281C27.0467 97.1281 27.7476 98.0251 27.7476 99.6396V104.941H29.8505V99.6595C29.8076 99.334 29.837 99.0031 29.9367 98.6902C30.0364 98.3773 30.2039 98.09 30.4274 97.8485C30.6508 97.6071 30.9249 97.4174 31.2301 97.293C31.5353 97.1685 31.8642 97.1122 32.1937 97.1281C33.6156 97.1281 34.2965 98.0251 34.2965 99.6396V104.941L36.3994 104.902ZM67.5117 95.3741H64.0871V92.484H61.9842V95.3741H60.0816V97.2677H62.0243V101.653C62.0243 103.865 62.8854 105.181 65.3488 105.181C66.2691 105.184 67.1716 104.928 67.9523 104.443L67.3515 102.669C66.793 103.001 66.159 103.186 65.509 103.207C64.5076 103.207 64.1271 102.57 64.1271 101.613V97.2677H67.5318L67.5117 95.3741ZM85.2759 95.135C84.7681 95.1201 84.2656 95.2419 83.8215 95.4874C83.3774 95.733 83.0081 96.0932 82.7525 96.5302V95.3741H80.6897V104.902H82.7725V99.5598C82.7725 97.9852 83.4534 97.1082 84.7752 97.1082C85.2207 97.1021 85.663 97.1834 86.077 97.3474L86.7179 95.3542C86.2422 95.1848 85.741 95.0972 85.2358 95.0951L85.2759 95.135ZM58.4194 96.1315C57.2404 95.4339 55.8849 95.088 54.514 95.135C52.0907 95.135 50.5086 96.291 50.5086 98.1845C50.5086 99.7392 51.6702 100.696 53.8131 100.995L54.8145 101.134C55.956 101.294 56.4967 101.593 56.4967 102.131C56.4967 102.869 55.7357 103.287 54.3138 103.287C53.17 103.32 52.0484 102.969 51.1294 102.291L50.1281 103.905C51.3413 104.748 52.7945 105.181 54.2737 105.141C57.0375 105.141 58.6397 103.845 58.6397 102.031C58.6397 100.218 57.3779 99.4801 55.2951 99.1811L54.2937 99.0416C53.3925 98.922 52.6715 98.7426 52.6715 98.1048C52.6715 97.467 53.3525 96.9886 54.494 96.9886C55.5491 97.0008 56.5835 97.2822 57.4981 97.8058L58.4194 96.1315ZM114.205 95.135C113.697 95.1201 113.195 95.2419 112.751 95.4874C112.307 95.733 111.937 96.0932 111.682 96.5302V95.3741H109.619V104.902H111.702V99.5598C111.702 97.9852 112.383 97.1082 113.705 97.1082C114.15 97.1021 114.592 97.1834 115.006 97.3474L115.647 95.3542C115.172 95.1848 114.67 95.0972 114.165 95.0951L114.205 95.135ZM87.3687 100.118C87.344 100.787 87.4599 101.455 87.7091 102.077C87.9584 102.7 88.3354 103.263 88.8161 103.732C89.2968 104.201 89.8706 104.565 90.5008 104.801C91.1309 105.037 91.8036 105.139 92.4757 105.101C93.7263 105.164 94.9553 104.759 95.9204 103.965L94.919 102.291C94.199 102.837 93.321 103.138 92.4156 103.148C91.6457 103.086 90.9275 102.737 90.4038 102.172C89.8801 101.607 89.5894 100.867 89.5894 100.098C89.5894 99.3293 89.8801 98.5887 90.4038 98.0236C90.9275 97.4586 91.6457 97.1104 92.4156 97.0484C93.321 97.0585 94.199 97.359 94.919 97.9055L95.9204 96.2312C94.9553 95.4371 93.7263 95.0318 92.4757 95.0951C91.8036 95.0572 91.1309 95.1593 90.5008 95.395C89.8706 95.6307 89.2968 95.9947 88.8161 96.4637C88.3354 96.9327 87.9584 97.4965 87.7091 98.1189C87.4599 98.7412 87.344 99.4085 87.3687 100.078V100.118ZM106.875 100.118V95.3741H104.792V96.5302C104.439 96.0772 103.982 95.7145 103.46 95.4719C102.937 95.2293 102.364 95.1138 101.788 95.135C100.46 95.135 99.187 95.6599 98.248 96.5944C97.3091 97.5289 96.7815 98.7964 96.7815 100.118C96.7815 101.439 97.3091 102.707 98.248 103.641C99.187 104.576 100.46 105.101 101.788 105.101C102.364 105.122 102.937 105.007 103.46 104.764C103.982 104.521 104.439 104.159 104.792 103.706V104.862H106.875V100.118ZM99.1247 100.118C99.1579 99.5571 99.3552 99.0182 99.6923 98.5676C100.029 98.1169 100.491 97.7742 101.022 97.5817C101.552 97.3891 102.127 97.3551 102.677 97.4839C103.226 97.6126 103.726 97.8984 104.114 98.3062C104.502 98.714 104.762 99.2258 104.862 99.7788C104.962 100.332 104.897 100.902 104.675 101.418C104.454 101.935 104.085 102.376 103.615 102.687C103.144 102.997 102.593 103.165 102.029 103.168C101.632 103.173 101.239 103.096 100.874 102.942C100.508 102.789 100.179 102.561 99.9064 102.275C99.6336 101.989 99.4234 101.649 99.2888 101.278C99.1543 100.907 99.0984 100.512 99.1247 100.118ZM73.9905 95.135C72.6627 95.1535 71.3965 95.6962 70.4707 96.6438C69.5449 97.5913 69.0352 98.8661 69.0538 100.188C69.0724 101.509 69.6177 102.769 70.5699 103.691C71.522 104.612 72.8028 105.119 74.1307 105.101C75.5714 105.175 76.9882 104.713 78.1061 103.805L77.1048 102.271C76.3141 102.902 75.3345 103.252 74.321 103.267C73.6325 103.326 72.9481 103.115 72.4133 102.68C71.8784 102.244 71.5354 101.618 71.4571 100.935H78.5668C78.5668 100.676 78.5668 100.417 78.5668 100.138C78.5668 97.1481 76.7042 95.1549 74.0206 95.1549L73.9905 95.135ZM73.9905 96.9886C74.3022 96.982 74.6121 97.0366 74.9026 97.1492C75.1931 97.2618 75.4585 97.4303 75.6835 97.645C75.9085 97.8597 76.0889 98.1165 76.2142 98.4006C76.3395 98.6846 76.4073 98.9905 76.4138 99.3007H71.407C71.4433 98.661 71.7298 98.0608 72.2052 97.6286C72.6805 97.1965 73.307 96.9668 73.9505 96.9886H73.9905ZM126.172 100.138V91.5472H124.169V96.5302C123.815 96.0772 123.358 95.7145 122.836 95.4719C122.314 95.2293 121.741 95.1138 121.165 95.135C119.837 95.135 118.563 95.6599 117.624 96.5944C116.685 97.5289 116.158 98.7964 116.158 100.118C116.158 101.439 116.685 102.707 117.624 103.641C118.563 104.576 119.837 105.101 121.165 105.101C121.741 105.122 122.314 105.007 122.836 104.764C123.358 104.521 123.815 104.159 124.169 103.706V104.862H126.172V100.138ZM129.646 103.516C129.776 103.515 129.906 103.538 130.027 103.586C130.142 103.633 130.247 103.7 130.337 103.785C130.425 103.871 130.496 103.973 130.547 104.084C130.598 104.201 130.624 104.326 130.624 104.453C130.624 104.58 130.598 104.705 130.547 104.822C130.496 104.934 130.425 105.035 130.337 105.121C130.247 105.206 130.142 105.273 130.027 105.32C129.907 105.373 129.777 105.4 129.646 105.4C129.456 105.398 129.271 105.343 129.111 105.241C128.952 105.139 128.825 104.993 128.745 104.822C128.695 104.705 128.669 104.58 128.669 104.453C128.669 104.326 128.695 104.201 128.745 104.084C128.796 103.973 128.867 103.871 128.955 103.785C129.045 103.7 129.151 103.633 129.266 103.586C129.396 103.534 129.536 103.511 129.676 103.516H129.646ZM129.646 105.201C129.746 105.201 129.845 105.181 129.937 105.141C130.023 105.102 130.101 105.048 130.167 104.981C130.292 104.845 130.362 104.668 130.362 104.483C130.362 104.299 130.292 104.121 130.167 103.985C130.101 103.917 130.023 103.863 129.937 103.825C129.845 103.786 129.746 103.765 129.646 103.765C129.546 103.766 129.448 103.786 129.356 103.825C129.266 103.862 129.184 103.916 129.116 103.985C128.99 104.121 128.921 104.299 128.921 104.483C128.921 104.668 128.99 104.845 129.116 104.981C129.184 105.05 129.266 105.104 129.356 105.141C129.457 105.184 129.566 105.205 129.676 105.201H129.646ZM129.706 104.015C129.8 104.01 129.892 104.038 129.967 104.094C129.997 104.12 130.022 104.152 130.037 104.188C130.053 104.225 130.06 104.264 130.057 104.304C130.058 104.337 130.053 104.37 130.041 104.401C130.029 104.432 130.01 104.46 129.987 104.483C129.929 104.535 129.855 104.567 129.776 104.573L130.067 104.902H129.837L129.566 104.573H129.476V104.902H129.286V104.025L129.706 104.015ZM129.486 104.184V104.423H129.706C129.746 104.435 129.787 104.435 129.826 104.423C129.834 104.409 129.837 104.394 129.837 104.378C129.837 104.363 129.834 104.347 129.826 104.334C129.834 104.32 129.837 104.304 129.837 104.289C129.837 104.273 129.834 104.258 129.826 104.244C129.787 104.232 129.746 104.232 129.706 104.244L129.486 104.184ZM118.471 100.138C118.504 99.5771 118.702 99.0381 119.039 98.5875C119.376 98.1369 119.838 97.7942 120.368 97.6016C120.898 97.4091 121.474 97.3751 122.023 97.5038C122.573 97.6325 123.072 97.9184 123.46 98.3261C123.849 98.7339 124.109 99.2458 124.208 99.7987C124.308 100.352 124.243 100.922 124.021 101.438C123.8 101.955 123.431 102.396 122.961 102.707C122.491 103.017 121.939 103.185 121.375 103.187C120.979 103.192 120.585 103.116 120.22 102.962C119.855 102.809 119.525 102.581 119.253 102.295C118.98 102.008 118.77 101.669 118.635 101.298C118.501 100.927 118.445 100.532 118.471 100.138ZM48.1454 100.138V95.3741H46.0625V96.5302C45.7088 96.0772 45.252 95.7145 44.7296 95.4719C44.2073 95.2293 43.6345 95.1138 43.0585 95.135C41.7306 95.135 40.4571 95.6599 39.5181 96.5944C38.5792 97.5289 38.0517 98.7964 38.0517 100.118C38.0517 101.439 38.5792 102.707 39.5181 103.641C40.4571 104.576 41.7306 105.101 43.0585 105.101C43.6345 105.122 44.2073 105.007 44.7296 104.764C45.252 104.521 45.7088 104.159 46.0625 103.706V104.862H48.1454V100.138ZM40.3948 100.138C40.4281 99.5771 40.6253 99.0381 40.9624 98.5875C41.2995 98.1369 41.7616 97.7942 42.2919 97.6016C42.8221 97.4091 43.3974 97.3751 43.9469 97.5038C44.4963 97.6325 44.996 97.9184 45.3843 98.3261C45.7726 98.7339 46.0325 99.2458 46.1322 99.7987C46.2319 100.352 46.1669 100.922 45.9453 101.438C45.7236 101.955 45.355 102.396 44.8848 102.707C44.4145 103.017 43.8633 103.185 43.2988 103.187C42.9006 103.195 42.5052 103.121 42.1376 102.968C41.7699 102.816 41.4381 102.589 41.1632 102.302C40.8883 102.016 40.6762 101.675 40.5405 101.303C40.4048 100.93 40.3484 100.533 40.3748 100.138H40.3948Z" fill="#231F20"/>
<path d="M89.2695 22.772H57.7266V79.1892H89.2695V22.772Z" fill="#FF5F00"/>
<path d="M59.7311 50.9857C59.7253 45.5515 60.9619 40.1873 63.3474 35.2992C65.7329 30.4111 69.2047 26.1273 73.4998 22.7721C68.1817 18.6125 61.795 16.0259 55.0697 15.308C48.3444 14.59 41.5518 15.7696 35.4682 18.7119C29.3847 21.6542 24.2556 26.2406 20.6671 31.9469C17.0787 37.6531 15.1758 44.249 15.1758 50.9807C15.1758 57.7124 17.0787 64.3083 20.6671 70.0146C24.2556 75.7208 29.3847 80.3072 35.4682 83.2495C41.5518 86.1919 48.3444 87.3715 55.0697 86.6535C61.795 85.9355 68.1817 83.3489 73.4998 79.1893C69.206 75.8352 65.735 71.553 63.3496 66.6667C60.9642 61.7805 59.7268 56.4182 59.7311 50.9857Z" fill="#EB001B"/>
<path d="M131.829 50.9857C131.829 57.7179 129.926 64.3142 126.337 70.0206C122.748 75.7271 117.618 80.3134 111.533 83.2553C105.449 86.1973 98.6559 87.3761 91.9302 86.6571C85.2045 85.938 78.8177 83.3502 73.5 79.1893C77.7921 75.8322 81.2621 71.5488 83.6482 66.6623C86.0342 61.7757 87.274 56.4137 87.274 50.9807C87.274 45.5477 86.0342 40.1857 83.6482 35.2991C81.2621 30.4126 77.7921 26.1292 73.5 22.7721C78.8177 18.6112 85.2045 16.0234 91.9302 15.3044C98.6559 14.5853 105.449 15.7642 111.533 18.7061C117.618 21.648 122.748 26.2343 126.337 31.9408C129.926 37.6472 131.829 44.2435 131.829 50.9757V50.9857Z" fill="#F79E1B"/>
<path d="M128.385 73.2098V72.0537H128.856V71.8145H127.664V72.0537H128.175V73.2098H128.385ZM130.698 73.2098V71.8145H130.338L129.917 72.8111L129.497 71.8145H129.176V73.2098H129.436V72.1633L129.827 73.0702H130.097L130.488 72.1633V73.2197L130.698 73.2098Z" fill="#F79E1B"/>
</svg>
