<svg width="145" height="70" viewBox="0 0 145 70" fill="none" xmlns="http://www.w3.org/2000/svg">
<g clip-path="url(#clip0_377_8243)">
<path d="M140.786 4.21721C140.786 8.02516 140.786 62.0825 140.786 65.8932C136.969 65.8932 82.7871 65.8932 78.9701 65.8932C78.9701 62.0825 78.9701 8.02524 78.9701 4.21721C82.7871 4.21721 136.969 4.21721 140.786 4.21721ZM145 69.9999H74.7578V0.0112915H142.895H145V69.9999Z" fill="#171796"/>
<path d="M140.898 4.10333C140.898 7.92868 140.898 62.1796 140.898 66.007C137.062 66.007 82.6886 66.007 78.8555 66.007C78.8555 62.1796 78.8555 7.92868 78.8555 4.10333C82.6886 4.10333 137.062 4.10333 140.898 4.10333Z" fill="white"/>
<path d="M101.876 38.4046C101.668 38.1346 101.518 37.8654 101.402 37.6008C101.644 39.5618 101.734 40.8852 102.792 42.1563C102.792 42.1563 103.437 41.3031 103.022 39.2404C102.845 39.1888 102.645 39.1057 102.449 38.9739C102.449 38.9739 102.691 39.8123 102.539 40.6582C102.539 40.6582 102.155 40.3795 101.876 38.4046Z" fill="#171796"/>
<path d="M100.04 38.201C99.912 38.0404 99.6684 37.7048 99.5402 37.4637C99.4529 38.6001 99.1515 41.6012 100.158 42.5389C100.158 42.5389 100.847 42.0331 101.093 37.6646C100.944 37.9083 100.689 38.1681 100.563 38.3095C100.563 38.3095 100.732 39.6966 100.232 40.675C100.232 40.675 99.7322 40.2966 100.04 38.201Z" fill="#171796"/>
<path d="M97.639 40.4926C98.4894 39.4813 98.7404 36.4528 98.7404 36.4528C98.8586 36.3745 98.9767 36.2894 99.0908 36.1977C99.1405 36.1575 99.1875 36.1173 99.2351 36.0724C99.2304 36.1856 99.2351 36.2987 99.2473 36.4126C99.1237 38.2342 98.9814 40.1122 98.4109 41.0478C97.8498 41.962 96.8269 42.4395 96.8269 42.4395C95.8612 40.731 97.0264 38.4372 97.9988 36.8427C98.1224 36.7978 98.2405 36.7409 98.366 36.6792C98.023 37.9055 97.374 39.3655 97.6391 40.4926H97.639Z" fill="#171796"/>
<path d="M95.2543 35.236C95.247 35.4322 95.2826 35.5903 95.3087 35.6727C95.3181 35.7062 95.3322 35.7511 95.3557 35.796C94.5483 36.5876 93.9516 37.3411 92.7562 38.9999C91.5582 40.6582 89.6641 40.7245 89.6641 40.7245C89.8459 39.3803 90.2131 38.3215 91.2266 37.1756C92.2401 36.0324 93.5354 34.9876 94.4919 34.2931C94.7356 34.407 95.053 34.48 95.4605 34.4304C95.4913 34.4278 95.5215 34.421 95.5525 34.4183C95.4249 34.5837 95.3491 34.7492 95.3041 34.9072C94.584 35.3184 92.4911 36.3792 91.6408 38.0878C91.6408 38.0878 92.967 37.6739 95.2544 35.236H95.2543Z" fill="#171796"/>
<path d="M93.7534 33.5631L93.8319 33.4211C93.8554 33.3763 93.8837 33.3313 93.9172 33.2912C93.138 33.5939 90.3626 34.638 89.4653 35.1034C88.5659 35.5688 87.2686 36.6229 86.5625 38.7634C86.5625 38.7634 88.4358 38.9335 89.9795 37.6577C91.5259 36.3792 93.3252 34.5977 94.0971 34.0311C94.0186 33.9602 93.9575 33.8912 93.9172 33.8323C93.9172 33.8323 91.8238 35.6847 89.6169 36.4811C89.6169 36.4811 90.0861 35.6231 90.9593 35.0043C92.0251 34.2482 92.8185 33.9931 93.7534 33.5631Z" fill="#171796"/>
<path d="M92.1656 32.3041C92.1938 32.2304 92.2247 32.1574 92.2575 32.0892C91.3414 32.278 89.052 32.5499 88.0291 32.8613C87.0109 33.1761 85.1591 33.9222 84.0625 36.0082C84.0625 36.0082 85.6726 36.5073 88.713 35.0774C91.7508 33.6508 92.7005 33.3576 93.2804 33.2042C92.8187 33.1686 92.4897 33.0153 92.3213 32.9108C91.1119 33.4473 89.4875 34.0856 87.8794 34.1277C87.8794 34.1277 88.6753 33.5658 89.5063 33.2183C90.413 32.8407 91.4051 32.4956 92.1656 32.3041H92.1656Z" fill="#171796"/>
<path d="M92.2397 30.7991C92.5357 30.9384 92.7633 31.0093 93.1519 31.0495C92.9411 31.1841 92.7397 31.3589 92.5599 31.5927C91.4894 31.9002 89.6637 32.2376 86.6542 32.4526C83.6426 32.6703 82.0352 32.1171 82.0352 32.1171C83.0841 31.4795 84.758 30.8272 85.8898 30.6095C87.0214 30.3926 89.9933 30.4141 91.2953 30.2392C91.3094 30.2533 91.4679 30.3832 91.7236 30.5366C90.6303 30.6357 88.2932 30.7442 87.0905 31.3543C87.0905 31.3543 89.3134 31.6497 92.2398 30.7991L92.2397 30.7991Z" fill="#171796"/>
<path d="M92.0163 29.074C92.166 28.9822 92.3479 28.8945 92.5754 28.8121C91.0505 28.3487 88.9571 27.6167 85.8079 27.4084C83.4971 27.2597 81.8305 27.3923 80.9688 27.6121C80.9688 27.6121 83.0708 29.0934 85.477 29.6152C87.8799 30.135 89.8357 29.8041 91.2613 29.8161C91.3559 29.6768 91.4626 29.5188 91.6304 29.3627C89.9591 29.3721 87.1817 28.9394 86.1871 28.6086C86.1871 28.6086 88.661 27.898 92.0163 29.074Z" fill="#171796"/>
<path d="M92.0076 27.2831C92.0171 27.326 92.1949 28.1832 93.1916 28.6607C91.0512 27.7224 86.8342 27.184 84.5683 26.2464C81.5043 24.9752 80.9453 23.3901 80.9453 23.3901C83.5978 23.3211 85.7402 23.9686 87.3906 24.4717C89.3251 25.065 92.2708 26.1587 93.3031 26.6168C92.9145 26.6336 92.4909 26.7447 92.1359 26.9832C90.9734 26.5016 89.9788 26.1233 88.6766 25.7428C87.4262 25.3792 86.5356 25.1856 85.473 25.1689C85.473 25.1689 86.6114 26.0476 88.8209 26.6617C90.3197 27.0803 91.1532 27.1914 92.0076 27.2832V27.2831Z" fill="#171796"/>
<path d="M92.0044 25.1594C92.0917 25.3107 92.1843 25.4661 92.2837 25.6108C88.8975 25.0435 85.1758 22.4893 84.0248 20.9067C82.8763 19.3235 83.2032 16.9608 83.2032 16.9608C84.3181 17.1858 86.7429 19.272 87.3705 19.8974C87.9981 20.5236 89.8988 22.3667 91.211 23.3967L91.5613 24.3819C90.4344 23.4798 89.3075 22.5603 88.4759 21.9341C87.8343 21.4526 86.6389 20.5076 85.2818 20.1928C85.2818 20.1928 86.0443 21.4732 87.1906 22.3855C88.4337 23.3753 89.2786 23.7985 89.7076 24.0303C90.6117 24.5145 91.0761 24.7127 92.0044 25.1594Z" fill="#171796"/>
<path d="M92.6667 20.9396C92.662 21.0883 92.6574 21.2537 92.662 21.4265L92.6789 21.5705C91.8594 20.5264 91.0263 19.3356 90.0861 18.1804C89.2571 17.1597 88.5753 16.6868 87.8342 16.2148C88.1115 17.7645 89.4444 19.4823 90.0861 20.0676C90.7324 20.6536 91.8667 21.6816 92.7761 22.2844L92.7996 22.3949C92.8728 22.6695 92.9774 22.9454 93.1285 23.2126C93.3392 23.5837 93.6191 23.952 93.95 24.3063C93.6829 24.1764 93.3823 24.035 93.0769 23.9072L92.795 23.7912C90.2969 22.4659 87.8155 19.7274 86.8142 17.8186C85.81 15.912 86.2242 13.7006 86.4946 12.5145C87.6283 13.4735 89.2619 15.3661 89.9747 16.3942C90.8512 17.6559 91.9708 19.4421 92.6668 20.8974V20.9396H92.6667Z" fill="#171796"/>
<path d="M95.8628 35.9989C94.8331 37.0269 92.6593 39.3328 92.8652 41.8349C92.8652 41.8349 94.8828 41.2061 95.7118 39.73C96.5428 38.2552 97.0561 37.327 97.4072 36.9961C97.1817 37.027 96.9595 37.0244 96.7394 36.9915L96.5548 36.9607C96.0453 37.8889 95.0319 39.4152 94.1177 39.9449C94.1177 39.9449 93.8862 38.7114 96.5709 36.2119C96.6065 36.1081 96.6609 35.9943 96.7366 35.8643C96.4903 35.9494 96.2111 36.0036 95.8963 35.9943L95.8628 35.9989Z" fill="#171796"/>
<path d="M117.865 38.4046C118.068 38.1346 118.222 37.8654 118.333 37.6008C118.094 39.5618 118.006 40.8852 116.948 42.1563C116.948 42.1563 116.301 41.3031 116.718 39.2404C116.896 39.1888 117.092 39.1057 117.289 38.9739C117.289 38.9739 117.047 39.8123 117.199 40.6582C117.199 40.6582 117.583 40.3795 117.865 38.4046Z" fill="#171796"/>
<path d="M119.7 38.201C119.828 38.0404 120.071 37.7048 120.199 37.4637C120.287 38.6001 120.59 41.6012 119.581 42.5389C119.581 42.5389 118.893 42.0331 118.648 37.6646C118.795 37.9083 119.051 38.1681 119.177 38.3095C119.177 38.3095 119.008 39.6966 119.508 40.675C119.508 40.675 120.008 40.2966 119.7 38.201Z" fill="#171796"/>
<path d="M122.098 40.4926C121.25 39.4813 120.997 36.4528 120.997 36.4528C120.881 36.3745 120.763 36.2894 120.647 36.1977C120.597 36.1575 120.552 36.1173 120.504 36.0724C120.507 36.1856 120.502 36.2987 120.492 36.4126C120.613 38.2342 120.76 40.1122 121.33 41.0478C121.885 41.962 122.914 42.4395 122.914 42.4395C123.874 40.731 122.713 38.4372 121.738 36.8427C121.62 36.7978 121.496 36.7409 121.373 36.6792C121.716 37.9055 122.365 39.3655 122.098 40.4926H122.098Z" fill="#171796"/>
<path d="M124.482 35.236C124.489 35.4322 124.453 35.5903 124.427 35.6727C124.415 35.7062 124.404 35.7511 124.38 35.796C125.187 36.5876 125.786 37.3411 126.98 38.9999C128.178 40.6582 130.072 40.7245 130.072 40.7245C129.887 39.3803 129.525 38.3215 128.509 37.1756C127.496 36.0324 126.198 34.9876 125.244 34.2931C125 34.407 124.681 34.48 124.278 34.4304C124.247 34.4278 124.214 34.421 124.184 34.4183C124.311 34.5837 124.39 34.7492 124.432 34.9072C125.154 35.3184 127.245 36.3792 128.095 38.0878C128.095 38.0878 126.769 37.6739 124.482 35.236Z" fill="#171796"/>
<path d="M125.986 33.5631L125.906 33.4211C125.88 33.3763 125.854 33.3313 125.823 33.2912C126.6 33.5939 129.372 34.638 130.273 35.1034C131.17 35.5688 132.467 36.6229 133.173 38.7634C133.173 38.7634 131.302 38.9335 129.756 37.6577C128.212 36.3792 126.413 34.5977 125.641 34.0311C125.721 33.9602 125.778 33.8912 125.823 33.8323C125.823 33.8323 127.914 35.6847 130.123 36.4811C130.123 36.4811 129.65 35.6231 128.778 35.0043C127.713 34.2482 126.919 33.9931 125.986 33.5631H125.986Z" fill="#171796"/>
<path d="M127.572 32.3041C127.544 32.2304 127.513 32.1574 127.48 32.0892C128.394 32.278 130.685 32.5499 131.706 32.8613C132.729 33.1761 134.576 33.9222 135.677 36.0082C135.677 36.0082 134.065 36.5073 131.024 35.0774C127.987 33.6508 127.035 33.3576 126.457 33.2042C126.919 33.1686 127.246 33.0153 127.416 32.9108C128.626 33.4473 130.248 34.0856 131.858 34.1277C131.858 34.1277 131.062 33.5658 130.229 33.2183C129.324 32.8407 128.332 32.4956 127.572 32.3041H127.572Z" fill="#171796"/>
<path d="M127.494 30.7991C127.196 30.9384 126.968 31.0093 126.582 31.0495C126.791 31.1841 126.994 31.3589 127.174 31.5927C128.245 31.9002 130.07 32.2376 133.08 32.4526C136.089 32.6703 137.697 32.1171 137.697 32.1171C136.65 31.4795 134.976 30.8272 133.842 30.6095C132.713 30.3926 129.743 30.4141 128.439 30.2392C128.422 30.2533 128.266 30.3832 128.01 30.5366C129.106 30.6357 131.439 30.7442 132.643 31.3543C132.643 31.3543 130.423 31.6497 127.494 30.7991L127.494 30.7991Z" fill="#171796"/>
<path d="M127.722 29.074C127.569 28.9822 127.386 28.8945 127.164 28.8121C128.686 28.3487 130.782 27.6167 133.928 27.4084C136.24 27.2597 137.906 27.3923 138.768 27.6121C138.768 27.6121 136.666 29.0934 134.262 29.6152C131.857 30.135 129.901 29.8041 128.476 29.8161C128.381 29.6768 128.274 29.5188 128.108 29.3627C129.776 29.3721 132.555 28.9394 133.548 28.6086C133.548 28.6086 131.076 27.898 127.723 29.074H127.722Z" fill="#171796"/>
<path d="M127.726 27.2831C127.72 27.326 127.545 28.1832 126.545 28.6607C128.685 27.7224 132.905 27.184 135.168 26.2464C138.232 24.9752 138.791 23.3901 138.791 23.3901C136.142 23.3211 133.997 23.9686 132.346 24.4717C130.412 25.065 127.466 26.1587 126.434 26.6168C126.822 26.6336 127.244 26.7447 127.599 26.9832C128.761 26.5016 129.758 26.1233 131.06 25.7428C132.313 25.3792 133.201 25.1856 134.264 25.1689C134.264 25.1689 133.125 26.0476 130.918 26.6617C129.417 27.0803 128.583 27.1914 127.726 27.2832L127.726 27.2831Z" fill="#171796"/>
<path d="M127.736 25.1594C127.648 25.3107 127.554 25.4661 127.457 25.6108C130.84 25.0435 134.562 22.4893 135.713 20.9067C136.864 19.3235 136.535 16.9608 136.535 16.9608C135.419 17.1858 132.992 19.272 132.365 19.8974C131.738 20.5236 129.839 22.3667 128.527 23.3967L128.174 24.3819C129.302 23.4798 130.43 22.5603 131.262 21.9341C131.904 21.4526 133.099 20.5076 134.458 20.1928C134.458 20.1928 133.691 21.4732 132.545 22.3855C131.302 23.3753 130.461 23.7985 130.03 24.0303C129.126 24.5145 128.662 24.7127 127.736 25.1594H127.736Z" fill="#171796"/>
<path d="M127.07 20.9396C127.075 21.0883 127.08 21.2537 127.075 21.4265L127.06 21.5705C127.877 20.5264 128.709 19.3356 129.651 18.1804C130.48 17.1597 131.164 16.6868 131.9 16.2148C131.623 17.7645 130.293 19.4823 129.648 20.0676C129.007 20.6536 127.87 21.6816 126.961 22.2844L126.935 22.3949C126.864 22.6695 126.76 22.9454 126.609 23.2126C126.395 23.5837 126.118 23.952 125.789 24.3063C126.054 24.1764 126.355 24.035 126.66 23.9072L126.939 23.7912C129.44 22.4659 131.922 19.7274 132.923 17.8186C133.927 15.912 133.508 13.7006 133.243 12.5145C132.111 13.4735 130.477 15.3661 129.762 16.3942C128.886 17.6559 127.766 19.4421 127.07 20.8974V20.9396H127.07Z" fill="#171796"/>
<path d="M123.874 35.9989C124.909 37.0269 127.08 39.3328 126.874 41.8349C126.874 41.8349 124.859 41.2061 124.027 39.73C123.197 38.2552 122.683 37.327 122.332 36.9961C122.558 37.027 122.783 37.0244 123 36.9915L123.185 36.9607C123.694 37.8889 124.707 39.4152 125.624 39.9449C125.624 39.9449 125.853 38.7114 123.173 36.2119C123.13 36.1081 123.078 35.9943 123.005 35.8643C123.249 35.9494 123.528 36.0036 123.843 35.9943L123.874 35.9989H123.874Z" fill="#171796"/>
<path d="M108.297 15.893C108.297 15.7088 109 15.5596 109.869 15.5596C110.74 15.5596 111.446 15.7088 111.446 15.893C111.446 16.0772 110.74 16.2286 109.869 16.2286C109 16.2286 108.297 16.0772 108.297 15.893Z" fill="#171796"/>
<path d="M102.945 17.4831C102.945 17.3813 103.4 17.299 103.958 17.299C104.519 17.299 104.972 17.3813 104.972 17.4831C104.972 17.5849 104.519 17.6653 103.958 17.6653C103.4 17.6653 102.945 17.5849 102.945 17.4831Z" fill="#171796"/>
<path d="M110.176 16.6306C110.176 16.8027 110.039 16.94 109.866 16.94C109.696 16.94 109.559 16.8027 109.559 16.6306C109.559 16.4605 109.695 16.3205 109.866 16.3205C110.039 16.3205 110.176 16.4604 110.176 16.6306Z" fill="#171796"/>
<path d="M108.031 15.4203C107.509 14.1733 107.158 13.2518 107.172 12.9424C107.179 12.7582 107.402 12.6209 107.613 12.5546C107.823 12.4884 108.005 12.477 108.146 12.5827C108.42 12.793 108.668 14.4754 108.766 15.1772C108.496 15.2294 108.34 15.2595 108.031 15.4203H108.031Z" fill="#171796"/>
<path d="M109.064 15.1491C109.198 15.1343 109.333 15.1276 109.471 15.1229C109.39 14.4539 109.155 13.3387 109.019 12.9021C108.884 12.4628 108.71 12.1433 108.422 12.0657C108.422 12.0657 108.644 12.6778 108.768 13.3108C108.89 13.9436 108.985 14.5491 109.064 15.1492V15.1491Z" fill="#171796"/>
<path d="M108.342 17.4738C107.54 17.9413 106.633 17.8683 106.633 17.8683C106.808 17.5514 106.972 17.2561 107.479 16.8972C107.981 16.5382 108.804 16.4458 109.129 16.4906C109.055 16.7317 108.726 17.2494 108.342 17.4737L108.342 17.4738Z" fill="#171796"/>
<path d="M102.473 18.0998C102.509 18.5747 102.632 19.0421 102.8 19.371C102.8 19.371 102.208 18.9269 102.061 18.5512C101.917 18.1775 101.884 17.9203 102.474 18.0998H102.473Z" fill="#171796"/>
<path d="M102.585 19.6094C102.978 19.789 103.333 20.2142 103.333 20.2142C102.736 20.3514 102.469 20.5236 102.469 20.5236C101.323 19.7178 100.378 20.5309 100.378 20.5309C99.7577 20.1785 99.6349 19.3213 99.945 18.8673C100.255 18.4139 100.954 18.4944 101.287 18.5747C101.493 19.2364 102.23 19.4487 102.585 19.6093L102.585 19.6094Z" fill="#171796"/>
<path d="M103.466 20.3656C103.466 20.3656 103.88 20.9181 104.183 21.1639C104.183 21.1639 102.642 21.1499 102.251 22.48C102.251 22.48 101.718 21.6675 102.107 21.1331C102.528 20.5619 102.914 20.4881 103.466 20.3656Z" fill="#171796"/>
<path d="M104.006 15.2296C104.153 15.2296 104.439 15.2979 104.439 15.5316C104.439 15.768 104.07 16.3374 103.971 16.5925H103.961C103.864 16.3374 103.492 15.768 103.492 15.5316C103.492 15.2979 103.779 15.2296 103.928 15.2296H104.006Z" fill="#171796"/>
<path d="M103.684 17.0672C103.615 16.7343 103.485 15.8716 103.277 15.6801C103.083 15.5007 102.794 15.4819 102.652 15.4912C102.51 15.5006 102.356 15.6473 102.415 15.8436C102.474 16.0371 103.113 16.9942 103.197 17.1147C103.348 17.0886 103.317 17.0979 103.684 17.0672Z" fill="#171796"/>
<path d="M104.246 17.0672C104.32 16.7343 104.45 15.8716 104.656 15.6801C104.85 15.5007 105.139 15.4819 105.281 15.4912C105.425 15.5006 105.579 15.6473 105.518 15.8436C105.456 16.0371 104.819 16.9942 104.737 17.1147C104.585 17.0886 104.618 17.0979 104.246 17.0672H104.246Z" fill="#171796"/>
<path d="M104.657 14.0689H104.16V13.5183H103.758V14.0689H103.258V14.4138H103.758V15.0614H104.16V14.4138H104.657V14.0689Z" fill="#171796"/>
<path d="M98.6236 17.8327C98.6236 17.7262 98.6304 17.6224 98.6451 17.5159C98.6854 17.2494 98.6874 17.0203 98.6592 16.8307C98.2988 16.9681 98.0578 17.0558 97.5625 17.8494C97.5625 17.8494 98.3511 17.3672 98.6236 17.8326V17.8327Z" fill="#171796"/>
<path d="M99.3096 19.0919C99.3189 18.8936 99.4491 18.272 99.6149 17.8327C99.8136 17.2942 99.7022 16.512 99.4566 16.0352C99.2243 15.5764 99.0961 15.1466 99.1364 14.6717C99.1364 14.6717 98.6698 14.8277 98.4027 14.9904C98.3577 15.5437 98.6792 16.0942 98.8357 16.4082C99.0156 16.7793 98.98 17.2608 98.9404 17.5561C98.8694 18.057 98.9753 18.5936 99.3096 19.0919Z" fill="#171796"/>
<path d="M99.3625 14.8792C99.3458 14.8182 99.3458 14.6454 99.3794 14.5745C99.3794 14.5745 100.113 13.8612 100.731 13.7386C101.12 13.6603 101.363 13.8331 101.475 13.9275C101.475 13.9275 101.257 13.9014 100.93 14.1706C100.598 14.4379 100.193 14.7613 99.8813 14.8417C99.5752 14.9221 99.5094 14.896 99.3624 14.8793L99.3625 14.8792Z" fill="#171796"/>
<path d="M101.537 13.9838C101.814 14.2584 102.043 14.549 102.039 14.8015C102.034 15.0641 101.731 15.7204 101.57 15.9709C101.412 16.2213 101.177 16.5475 101.208 16.9467C101.217 17.1475 101.355 17.3512 101.523 17.5186C101.523 17.5186 100.625 17.3056 100.514 16.7531C100.414 16.2569 100.628 15.9099 100.769 15.6353C100.907 15.3782 101.321 14.7754 101.426 14.5249C101.52 14.2986 101.57 14.109 101.537 13.9838Z" fill="#171796"/>
<path d="M116.793 17.4831C116.793 17.3813 116.336 17.299 115.778 17.299C115.216 17.299 114.762 17.3813 114.762 17.4831C114.762 17.5849 115.216 17.6653 115.778 17.6653C116.336 17.6653 116.793 17.5849 116.793 17.4831Z" fill="#171796"/>
<path d="M109.879 14.152C109.943 13.7007 110.471 12.7342 110.471 12.3116C110.471 11.9781 110.201 11.7088 109.867 11.7088C109.535 11.7088 109.266 11.978 109.266 12.3116C109.266 12.7341 109.791 13.7006 109.858 14.152H109.879H109.879Z" fill="#171796"/>
<path d="M111.705 15.4203C112.229 14.1733 112.579 13.2518 112.565 12.9424C112.555 12.7582 112.333 12.6209 112.125 12.5546C111.914 12.4884 111.727 12.477 111.592 12.5827C111.317 12.793 111.063 14.4754 110.969 15.1772C111.237 15.2294 111.395 15.2595 111.705 15.4203Z" fill="#171796"/>
<path d="M110.673 15.1491C110.541 15.1343 110.4 15.1276 110.266 15.1229C110.349 14.4539 110.578 13.3387 110.716 12.9021C110.853 12.4628 111.026 12.1433 111.315 12.0657C111.315 12.0657 111.09 12.6778 110.969 13.3108C110.846 13.9436 110.752 14.5491 110.673 15.1492L110.673 15.1491Z" fill="#171796"/>
<path d="M110.609 16.4905C110.932 16.4457 111.753 16.5381 112.257 16.8972C112.764 17.2561 112.93 17.5514 113.103 17.8682C113.103 17.8682 112.196 17.9412 111.393 17.4738C111.009 17.2493 110.683 16.7318 110.609 16.4906L110.609 16.4905Z" fill="#171796"/>
<path d="M117.266 18.0998C117.23 18.5747 117.104 19.0421 116.941 19.371C116.941 19.371 117.533 18.9269 117.675 18.5512C117.819 18.1775 117.858 17.9203 117.266 18.0998H117.266Z" fill="#171796"/>
<path d="M118.45 18.5748C118.78 18.4944 119.478 18.414 119.789 18.8674C120.101 19.3215 119.978 20.1787 119.358 20.531C119.358 20.531 118.415 19.7179 117.267 20.5237C117.267 20.5237 116.999 20.3515 116.402 20.2143C116.402 20.2143 116.755 19.789 117.153 19.6095C117.506 19.4489 118.239 19.2365 118.45 18.5749L118.45 18.5748Z" fill="#171796"/>
<path d="M116.273 20.3656C116.273 20.3656 115.853 20.9181 115.551 21.1639C115.551 21.1639 117.094 21.1499 117.483 22.48C117.483 22.48 118.018 21.6675 117.627 21.1331C117.208 20.5619 116.82 20.4881 116.273 20.3656Z" fill="#171796"/>
<path d="M115.732 15.2296C115.587 15.2296 115.301 15.2979 115.301 15.5316C115.301 15.768 115.67 16.3374 115.767 16.5925H115.779C115.876 16.3374 116.243 15.768 116.243 15.5316C116.243 15.2979 115.961 15.2296 115.814 15.2296H115.732H115.732Z" fill="#171796"/>
<path d="M116.051 17.0672C116.122 16.7343 116.254 15.8716 116.46 15.6801C116.654 15.5007 116.943 15.4819 117.085 15.4912C117.23 15.5006 117.381 15.6473 117.32 15.8436C117.263 16.0371 116.619 16.9942 116.538 17.1147C116.392 17.0886 116.418 17.0979 116.051 17.0672Z" fill="#171796"/>
<path d="M115.488 17.0672C115.419 16.7343 115.289 15.8716 115.08 15.6801C114.886 15.5007 114.598 15.4819 114.455 15.4912C114.311 15.5006 114.159 15.6473 114.221 15.8436C114.278 16.0371 114.917 16.9942 115 17.1147C115.151 17.0886 115.121 17.0979 115.488 17.0672H115.488Z" fill="#171796"/>
<path d="M115.074 14.0689H115.574V13.5183H115.976V14.0689H116.474V14.4138H115.976V15.0614H115.574V14.4138H115.074V14.0689Z" fill="#171796"/>
<path d="M121.111 17.8327C121.111 17.7262 121.104 17.6224 121.092 17.5159C121.051 17.2494 121.049 17.0203 121.078 16.8307C121.437 16.9681 121.679 17.0558 122.172 17.8494C122.172 17.8494 121.386 17.3672 121.111 17.8326V17.8327Z" fill="#171796"/>
<path d="M120.424 19.0919C120.417 18.8936 120.289 18.272 120.123 17.8327C119.922 17.2942 120.035 16.512 120.28 16.0352C120.512 15.5764 120.644 15.1466 120.599 14.6717C120.599 14.6717 121.066 14.8277 121.335 14.9904C121.378 15.5437 121.058 16.0942 120.902 16.4082C120.72 16.7793 120.76 17.2608 120.8 17.5561C120.867 18.057 120.763 18.5936 120.424 19.0919Z" fill="#171796"/>
<path d="M120.376 14.8792C120.391 14.8182 120.391 14.6454 120.357 14.5745C120.357 14.5745 119.621 13.8612 119.007 13.7386C118.617 13.6603 118.373 13.8331 118.262 13.9275C118.262 13.9275 118.48 13.9014 118.807 14.1706C119.136 14.4379 119.545 14.7613 119.855 14.8417C120.161 14.9221 120.225 14.896 120.376 14.8793L120.376 14.8792Z" fill="#171796"/>
<path d="M118.199 13.9838C117.923 14.2584 117.691 14.549 117.695 14.8015C117.703 15.0641 118.005 15.7204 118.167 15.9709C118.325 16.2213 118.56 16.5475 118.531 16.9467C118.517 17.1475 118.38 17.3512 118.216 17.5186C118.216 17.5186 119.114 17.3056 119.225 16.7531C119.322 16.2569 119.109 15.9099 118.962 15.6353C118.83 15.3782 118.415 14.7754 118.311 14.5249C118.219 14.2986 118.167 14.109 118.199 13.9838Z" fill="#171796"/>
<path d="M94.232 42.5622C94.6798 42.0732 95.4415 42.4965 96.2113 43.2004C96.9811 43.907 97.4665 44.6275 97.014 45.1165C96.602 45.5678 95.8065 45.1801 95.0348 44.4781C94.2649 43.7722 93.7816 43.049 94.2319 42.5621L94.232 42.5622Z" fill="#171796"/>
<path d="M99.2754 53.3099C99.7868 53.3192 100.31 53.2837 100.845 53.2013C101.837 53.048 102.886 52.8471 103.935 52.4526L103.584 51.9657C102.623 52.3134 101.667 52.4949 100.757 52.6341C100.182 52.7218 99.6351 52.7527 99.0928 52.7312H99.0834C99.0928 52.6247 99.1022 52.5135 99.1123 52.3936C99.1357 52.0012 99.3606 51.3676 99.5929 50.8834C100.035 49.9432 101.129 47.4391 103.403 46.995C103.623 46.9548 103.158 46.4251 102.958 46.4513C102.751 46.4774 102.346 46.7399 102.164 46.8597C102.164 46.8597 102.164 46.324 102.16 46.2296C102.155 46.1325 102.072 46.0996 101.982 46.0996C101.894 46.1017 101.343 46.0996 101.17 46.2979C100.649 46.8953 99.7748 48.5093 99.2774 49.7094C98.7808 50.9097 98.4418 51.2733 97.919 51.0917C97.3976 50.9096 97.0807 50.3095 96.1666 50.4917C95.8538 50.5553 95.5034 50.7676 95.2262 51.0797C95.1913 51.1199 95.1456 51.1815 95.1081 51.2544C94.7906 50.9002 94.6087 50.416 94.6087 49.8889C94.6087 48.7383 95.551 47.798 96.7089 47.798C97.8667 47.798 98.8044 48.7383 98.8044 49.8889C98.8044 50.047 98.7761 50.3021 98.7761 50.3021C98.8681 50.1226 99.2137 49.3243 99.2828 49.1803C98.972 48.0531 97.933 47.224 96.7088 47.224C95.6523 47.224 94.7389 47.8355 94.3053 48.7242C94.4711 47.6701 94.9946 46.7205 95.3712 46.3688C95.8135 45.9482 96.5739 45.8156 96.5739 45.8156C96.0786 45.894 95.4207 45.5865 94.6865 44.9155C93.9905 44.2753 93.628 43.7201 93.6093 43.2526C93.6542 43.9136 93.6327 44.28 93.4482 44.8164C93.1925 45.5464 92.5012 46.8905 92.7475 48.4074C92.8824 49.2392 93.4885 50.4822 94.504 51.4955C94.7033 51.7078 94.7859 52.0132 94.8167 52.1946C94.812 52.2516 94.8074 52.3085 94.8047 52.3628C95.0302 52.2114 95.8444 52.0694 96.1048 52.0694C96.3632 52.0694 96.9524 51.9395 97.1659 52.2704C97.2914 52.4639 97.4405 52.4733 97.6633 52.5516C97.8882 52.6293 97.8928 52.9837 98.1553 52.8584C98.4512 52.719 98.8754 52.8042 99.0057 52.8939C99.1573 52.9983 99.2634 53.1135 99.2754 53.3099Z" fill="#171796"/>
<path d="M98.7852 53.7707C98.5435 54.1537 98.1979 54.2951 97.814 54.3687C97.1489 54.4912 96.1427 54.522 95.2762 53.7519C95.0553 53.5556 94.9251 53.3172 94.8593 53.0594C94.807 52.8256 95.0297 52.6837 95.2191 52.6367C95.4063 52.5918 96.6137 52.4639 96.7554 52.5256C96.8977 52.5892 96.9406 52.7191 96.952 52.8611C96.9642 53.0031 97.0823 52.979 97.2245 52.979C97.3642 52.979 97.6152 53.0145 97.6909 53.2134C97.7669 53.4142 97.9581 53.4116 98.0366 53.3313C98.2259 53.1423 99.0998 53.1798 98.7851 53.7706L98.7852 53.7707Z" fill="#171796"/>
<path d="M125.506 42.5622C125.059 42.0732 124.294 42.4965 123.527 43.2004C122.76 43.907 122.275 44.6275 122.722 45.1165C123.136 45.5678 123.932 45.1801 124.702 44.4781C125.471 43.7722 125.956 43.049 125.506 42.5621V42.5622Z" fill="#171796"/>
<path d="M120.459 53.3099C119.953 53.3192 119.425 53.2837 118.892 53.2013C117.897 53.048 116.851 52.8471 115.805 52.4526L116.152 51.9657C117.111 52.3134 118.068 52.4949 118.977 52.6341C119.553 52.7218 120.104 52.7527 120.645 52.7312H120.656C120.645 52.6247 120.632 52.5135 120.628 52.3936C120.602 52.0012 120.374 51.3676 120.147 50.8834C119.7 49.9432 118.608 47.4391 116.33 46.995C116.115 46.9548 116.576 46.4251 116.782 46.4513C116.986 46.4774 117.391 46.7399 117.571 46.8597C117.571 46.8597 117.571 46.324 117.578 46.2296C117.583 46.1325 117.668 46.0996 117.756 46.0996C117.843 46.1017 118.393 46.0996 118.565 46.2979C119.089 46.8953 119.963 48.5093 120.459 49.7094C120.956 50.9097 121.296 51.2733 121.816 51.0917C122.34 50.9096 122.655 50.3095 123.568 50.4917C123.884 50.5553 124.236 50.7676 124.513 51.0797C124.549 51.1199 124.589 51.1815 124.629 51.2544C124.947 50.9002 125.127 50.416 125.127 49.8889C125.127 48.7383 124.184 47.798 123.028 47.798C121.873 47.798 120.931 48.7383 120.931 49.8889C120.936 50.047 120.964 50.3021 120.964 50.3021C120.869 50.1226 120.524 49.3243 120.454 49.1803C120.767 48.0531 121.802 47.224 123.028 47.224C124.085 47.224 124.998 47.8355 125.432 48.7242C125.266 47.6701 124.738 46.7205 124.366 46.3688C123.921 45.9482 123.159 45.8156 123.159 45.8156C123.659 45.894 124.314 45.5865 125.048 44.9155C125.747 44.2753 126.104 43.7201 126.128 43.2526C126.08 43.9136 126.102 44.28 126.289 44.8164C126.542 45.5464 127.236 46.8905 126.99 48.4074C126.852 49.2392 126.246 50.4822 125.235 51.4955C125.034 51.7078 124.949 52.0132 124.918 52.1946C124.925 52.2516 124.932 52.3085 124.934 52.3628C124.707 52.2114 123.893 52.0694 123.632 52.0694C123.372 52.0694 122.782 51.9395 122.571 52.2704C122.446 52.4639 122.297 52.4733 122.072 52.5516C121.849 52.6293 121.847 52.9837 121.579 52.8584C121.283 52.719 120.862 52.8042 120.73 52.8939C120.575 52.9983 120.474 53.1135 120.459 53.3099H120.459Z" fill="#171796"/>
<path d="M120.95 53.7707C121.192 54.1537 121.538 54.2951 121.924 54.3687C122.589 54.4912 123.595 54.522 124.461 53.7519C124.679 53.5556 124.81 53.3172 124.878 53.0594C124.933 52.8256 124.708 52.6837 124.518 52.6367C124.329 52.5918 123.124 52.4639 122.979 52.5256C122.84 52.5892 122.797 52.7191 122.783 52.8611C122.771 53.0031 122.655 52.979 122.513 52.979C122.371 52.979 122.122 53.0145 122.047 53.2134C121.971 53.4142 121.777 53.4116 121.699 53.3313C121.512 53.1423 120.636 53.1798 120.95 53.7706V53.7707Z" fill="#171796"/>
<path d="M105.157 51.8899C106.429 51.1954 107.677 50.1252 108.799 48.4147L108.998 48.0765C108.692 48.2112 108.3 48.1193 108.3 48.1193C108.281 48.1476 108.231 48.2231 108.207 48.2654C107.161 49.8084 106.003 50.7796 104.816 51.4151L105.157 51.89L105.157 51.8899Z" fill="#171796"/>
<path d="M108.791 50.5929C107.927 51.3777 106.391 51.7581 106.391 51.7581C106.928 51.2544 107.937 50.2459 108.353 49.8628C108.768 49.4824 109.72 48.1477 109.867 47.7224H109.873C110.02 48.1477 110.97 49.4824 111.384 49.8628C111.801 50.2459 112.812 51.2544 113.349 51.7581C113.349 51.7581 111.813 51.3777 110.946 50.5929L110.721 51.0536C110.544 51.434 110.198 52.0273 109.871 52.2751H109.864C109.537 52.0273 109.199 51.434 109.016 51.0536L108.791 50.5929H108.791Z" fill="#171796"/>
<path d="M114.572 51.8899C113.301 51.1928 112.055 50.1225 110.936 48.4147L110.734 48.0765C111.037 48.2112 111.433 48.1193 111.433 48.1193C111.452 48.1476 111.504 48.2231 111.53 48.2654C112.571 49.8064 113.732 50.7796 114.913 51.4151L114.572 51.89V51.8899Z" fill="#171796"/>
<path d="M105.329 18.6737C104.552 18.7708 103.648 18.7306 103.61 18.7306L103.534 18.726L103.549 18.7989C103.601 19.1178 103.74 19.3522 103.954 19.4934L104.039 19.5476L104.046 19.4486C104.09 18.8699 105.324 18.8558 105.339 18.8558H105.395V18.6643L105.329 18.6736L105.329 18.6737ZM102.703 17.9484C102.703 17.9484 103.705 18.3214 104.709 18.2718C105.713 18.2203 107.56 18.1989 108.154 17.9109C108.154 17.9109 108.056 18.2839 107.579 18.5016C107.579 18.5016 107.83 18.5016 108.076 18.7186C108.076 18.7186 107.934 19.0259 107.507 19.1914C107.507 19.1914 108.27 19.9823 109.087 19.926C109.087 19.926 108.71 20.3935 107.874 20.214C107.039 20.0326 106.771 19.5671 106.627 19.3849C106.627 19.3849 106.736 19.8316 106.686 20.0132C106.686 20.0132 106.319 19.9897 106.03 19.6307C106.03 19.6307 106.238 19.9896 106.281 20.2925C106.281 20.2925 106.051 20.3205 105.64 20.0774C105.64 20.0774 105.725 20.299 105.741 20.559C105.741 20.559 104.775 20.2496 104.306 19.8102C104.306 19.8102 104.299 20.1122 104.321 20.285C104.321 20.285 102.819 20.1336 102.703 17.9483V17.9484Z" fill="#171796"/>
<path d="M114.344 18.7309V18.8561H114.403C114.415 18.8561 115.643 18.8702 115.691 19.4489L115.7 19.5479L115.783 19.4937C115.999 19.3525 116.136 19.118 116.19 18.7992L116.202 18.7263L116.131 18.7309C116.122 18.7309 115.189 18.7711 114.407 18.674L114.344 18.6647V18.7309V18.7309ZM115.421 20.2853C115.442 20.1125 115.432 19.8105 115.432 19.8105C114.964 20.2499 113.998 20.5593 113.998 20.5593C114.014 20.2994 114.099 20.0777 114.099 20.0777C113.69 20.3208 113.458 20.2928 113.458 20.2928C113.501 19.9899 113.712 19.631 113.712 19.631C113.422 19.9899 113.056 20.0135 113.056 20.0135C113.001 19.832 113.112 19.3852 113.112 19.3852C112.966 19.5674 112.7 20.0329 111.865 20.2143C111.026 20.3939 110.652 19.9263 110.652 19.9263C111.466 19.9826 112.232 19.1917 112.232 19.1917C111.805 19.0263 111.661 18.7189 111.661 18.7189C111.907 18.5019 112.16 18.5019 112.16 18.5019C111.682 18.2842 111.583 17.9112 111.583 17.9112C112.179 18.1992 114.029 18.2206 115.03 18.2721C116.029 18.3217 117.033 17.9487 117.033 17.9487C116.917 20.1339 115.421 20.2853 115.421 20.2853L115.421 20.2853Z" fill="#171796"/>
<path d="M108.462 53.5368L109.452 55.2902L109.286 55.5996C108.988 56.1407 108.661 56.7214 108.476 57.0409C108.337 56.842 107.951 56.3035 107.446 55.5996L107.267 55.3464C107.724 54.6519 108.225 53.8984 108.462 53.5367L108.462 53.5368ZM111.268 53.5368C111.479 53.8509 111.886 54.4651 112.291 55.0773L112.468 55.3465C111.874 56.1709 111.413 56.8212 111.256 57.0409L110.286 55.2902L111.268 53.5368H111.268ZM116.042 49.1261L116.614 49.5414C116.425 49.8112 114.436 52.5938 112.923 54.7088L112.748 54.4444L111.54 52.6226L111.204 52.1143L110.03 54.2172L109.866 54.5266L108.529 52.1142L106.81 54.7087L106.625 54.4508C105.138 52.374 103.298 49.8016 103.116 49.5411L103.693 49.1258L101.875 48.4333L101.906 50.4084L102.521 49.969L106.194 55.1031L106.376 55.3603L105.765 56.2818L105.159 55.8779L105.15 57.8222L106.991 57.0948L106.376 56.6856C106.468 56.549 106.632 56.2985 106.833 55.9958L107.015 56.2537L108.54 58.382L109.696 56.3313L109.869 56.0293L111.192 58.382L112.902 55.9958L113.074 56.2603C113.195 56.4425 113.292 56.5912 113.359 56.6856L112.741 57.0948L114.583 57.8222L114.573 55.8779L113.965 56.2818L113.531 55.6255L113.356 55.3603L117.211 49.969L117.827 50.4084L117.862 48.4333L116.042 49.1258L116.042 49.1261Z" fill="#171796"/>
<path d="M116.258 30.5179C116.137 30.9994 116.061 31.6517 116.532 31.8171C117.988 32.2853 119.655 31.9778 120.202 31.3396C120.361 31.1581 120.425 30.9264 120.425 30.6666C120.425 30.0591 120.08 29.287 119.736 28.5328L119.494 27.9876C119.402 27.77 119.364 27.5718 119.364 27.3923C119.364 26.7848 119.804 26.4018 120.034 26.2437C122.073 24.8521 122.97 23.7819 123.491 22.8508L123.584 22.6593C124.377 21.3862 125.897 20.8993 126.444 20.6823C126.463 20.8357 126.482 21.0339 126.482 21.2636C126.482 21.7572 126.401 22.3787 126.093 22.9192C125.833 23.3752 125.44 23.85 124.952 24.2948L124.77 24.4622L125.277 25.2491L125.551 25.0884C126.134 24.7602 126.948 24.3866 127.564 24.1856C127.336 24.6819 126.964 25.3958 126.567 25.7548C126.188 26.0997 125.864 26.3314 125.44 26.4165L125.142 26.4754L125.364 27.4251L125.641 27.3447L125.878 27.2784C126.129 27.182 126.631 27.1625 127.074 27.3662C126.955 27.626 126.648 28.0728 125.885 28.273L125.549 28.358L125.585 28.6206L125.667 29.2683L125.951 29.2421C126.316 29.2086 126.645 29.2488 126.958 29.3647C127.453 29.5514 127.68 29.7477 127.838 29.9439C127.542 30.1422 126.979 30.4542 126.368 30.473C126.171 30.4777 125.966 30.4704 125.76 30.4496L125.501 30.4235L125.309 31.1956L125.589 31.2713C126.122 31.4107 126.655 31.6658 126.996 32.4667C126.783 32.5659 126.385 32.6891 125.812 32.5732C125.469 32.5023 125.154 32.4031 124.877 32.2732L124.694 32.1881L123.974 32.8685L124.597 33.1712C124.872 33.3012 125.118 33.419 125.274 33.5657C125.127 33.7097 124.836 33.9012 124.348 33.8443C124.057 33.8088 123.775 33.7358 123.517 33.6313L123.309 33.5463L122.847 34.1323L123.373 34.4705C123.801 34.7564 123.896 35.0658 123.896 35.2828C123.896 35.323 123.891 35.3611 123.884 35.3967C123.387 35.4221 122.947 35.2641 122.551 34.9071L122.355 34.7276L121.777 35.2427L121.971 35.4623C122.376 35.9211 122.541 36.2331 122.611 36.4193C122.111 36.4099 121.574 36.1809 121.017 35.7342C120.839 35.5923 120.719 35.4576 120.612 35.2829L120.484 35.0726L119.788 35.3305L119.849 35.5856C119.892 35.7603 119.914 35.9426 119.914 36.1241C119.914 36.3913 119.869 36.6652 119.778 36.9438C119.708 37.1709 119.525 37.4475 119.364 37.6551C119.206 37.4568 119.035 37.2017 118.931 36.8569C118.884 36.6961 118.862 36.5026 118.862 36.2682C118.862 36.2521 118.862 36.2334 118.862 36.2139L118.867 35.9139H118.116L118.083 36.2139L118.081 36.2541C118.005 36.8355 117.847 37.5232 117.252 38.2197C116.954 38.5674 116.599 38.6805 116.353 38.716C116.35 38.4655 116.308 38.1843 116.236 37.9933C116.009 37.3839 115.545 36.325 115.015 35.3211C114.837 34.9829 114.78 34.6687 114.78 34.4117C114.78 34.1257 114.849 33.9127 114.889 33.8062C114.93 33.6957 114.811 33.5443 114.721 33.4761C114.636 33.4071 114.446 33.306 114.37 33.3576L114.281 33.4473C114.103 33.6529 113.918 33.9931 113.873 34.2108C113.821 34.48 113.864 34.7372 113.921 34.9408C114.062 35.2361 114.271 35.6567 114.387 35.9802C114.505 36.3063 114.477 36.8186 114.38 37.1308C114.29 37.4215 113.777 38.0972 113.71 38.1823C113.646 38.2907 113.589 38.402 113.558 38.5037C113.734 38.8628 113.743 39.1581 113.691 39.375C113.641 39.5834 113.492 39.933 113.374 40.1975C113.129 40.8236 113.201 40.9509 113.201 40.9509C113.352 41.0715 113.587 41.2462 113.67 41.3106C113.67 41.3058 113.71 41.3386 113.71 41.3367C113.71 41.3367 114.64 41.9201 114.92 42.1444C115.136 42.3191 115.523 42.7089 115.751 42.9714L116.551 43.6137C116.776 43.6632 116.977 43.7061 117.12 43.7484C117.588 43.8883 117.932 44.1288 118.381 44.623L118.4 44.6485C118.457 44.7502 118.507 44.8091 118.557 44.8969C118.597 44.9465 118.739 45.1306 118.824 45.3242C118.867 45.4093 118.812 45.4989 118.651 45.5251C118.341 45.5793 117.588 45.44 117.406 45.5559C117.21 45.6859 117.278 45.8586 117.278 46.0287C117.278 46.0287 116.937 45.8231 116.722 45.8681C116.419 45.9317 116.236 46.0709 116.066 46.5646C115.988 46.4776 115.893 46.3803 115.891 46.2224C115.843 46.1373 115.789 46.0448 115.739 45.9625C115.742 46.4045 115.493 46.6242 115.363 46.6878C115.214 46.7634 114.524 47.0448 114.079 46.1252C114.079 46.1252 114.84 46.3757 115.048 46.0094C115.254 45.6411 114.92 45.1094 114.712 44.956C114.439 44.7551 113.977 44.6036 113.677 44.656L113.663 44.6586C113.298 44.6699 113.071 44.5026 113.071 44.5026L113.047 44.4952C112.543 44.4691 111.996 43.9801 111.586 43.3186L111.55 44.3392C111.768 44.4436 112.088 44.6914 112.387 45.2159C112.697 45.7476 113.379 46.1943 113.914 46.5393C114.449 46.8861 114.626 47.4888 114.626 47.4888C114.271 47.4842 113.954 47.3703 113.67 47.1982C113.587 47.2357 113.537 47.302 113.502 47.3991C113.469 47.4814 113.594 47.7105 113.717 47.9067C114.25 48.3769 114.293 48.9012 114.293 48.9012C113.537 48.8262 112.953 48.488 112.495 48.0487L111.522 47.5618C111.172 47.6804 110.778 47.7252 110.163 47.1533L110.142 47.1318C110.021 47.0207 109.936 46.8981 109.867 46.7729C109.803 46.8982 109.713 47.0207 109.595 47.1318C108.965 47.7272 108.565 47.6823 108.215 47.5618L107.241 48.0487C106.784 48.488 106.197 48.8262 105.444 48.9012C105.444 48.9012 105.487 48.3768 106.02 47.9067C106.14 47.7105 106.268 47.4814 106.237 47.3991C106.2 47.302 106.147 47.2356 106.067 47.1982C105.785 47.3703 105.466 47.4842 105.108 47.4888C105.108 47.4888 105.286 46.886 105.823 46.5393C106.356 46.1943 107.04 45.7476 107.345 45.2159C107.649 44.6914 107.968 44.4436 108.186 44.3392L108.148 43.3186C107.741 43.9802 107.194 44.4692 106.687 44.4952L106.664 44.5026C106.664 44.5026 106.439 44.6699 106.072 44.6586L106.06 44.656C105.759 44.6037 105.295 44.7551 105.023 44.956C104.816 45.1094 104.481 45.6411 104.689 46.0094C104.897 46.3758 105.659 46.1252 105.659 46.1252C105.21 47.0448 104.523 46.7634 104.374 46.6878C104.244 46.6242 103.995 46.4045 104 45.9625C103.948 46.0448 103.891 46.1374 103.846 46.2224C103.841 46.3803 103.749 46.4775 103.668 46.5646C103.498 46.0709 103.316 45.9317 103.015 45.8681C102.799 45.8231 102.456 46.0287 102.456 46.0287C102.456 45.8587 102.527 45.6859 102.328 45.5559C102.146 45.44 101.395 45.5793 101.083 45.5251C100.924 45.4989 100.87 45.4093 100.912 45.3242C100.993 45.1306 101.137 44.9465 101.177 44.8969C101.23 44.8091 101.277 44.7502 101.336 44.6485L101.352 44.623C101.805 44.1288 102.146 43.8883 102.617 43.7484C102.759 43.7061 102.961 43.6632 103.183 43.6137L103.984 42.9714C104.215 42.7089 104.601 42.3191 104.814 42.1444C105.096 41.92 106.025 41.3367 106.025 41.3367C106.025 41.3387 106.067 41.3058 106.067 41.3106C106.152 41.2462 106.382 41.0715 106.531 40.9509C106.531 40.9509 106.607 40.8236 106.361 40.1975C106.242 39.933 106.095 39.5833 106.045 39.375C105.994 39.1581 106 38.8628 106.176 38.5037C106.146 38.402 106.09 38.2907 106.025 38.1823C105.96 38.0972 105.444 37.4215 105.354 37.1308C105.257 36.8186 105.229 36.3063 105.347 35.9802C105.468 35.6566 105.672 35.2361 105.811 34.9408C105.873 34.7372 105.915 34.48 105.863 34.2108C105.79 33.9248 105.558 33.5277 105.364 33.3576C105.29 33.306 105.103 33.4071 105.016 33.4761C104.926 33.5443 104.81 33.6957 104.845 33.8062C104.888 33.9127 104.957 34.1257 104.957 34.4117C104.957 34.6688 104.9 34.9829 104.725 35.3211C104.192 36.325 103.728 37.3839 103.498 37.9933C103.429 38.1843 103.387 38.4655 103.382 38.716C103.138 38.6805 102.783 38.5673 102.485 38.2197C101.89 37.5232 101.734 36.8355 101.658 36.2541L101.653 36.2139L101.625 35.9139H100.87L100.872 36.2139C100.872 36.2334 100.872 36.2521 100.872 36.2682C100.872 36.5026 100.853 36.6961 100.806 36.8569C100.704 37.2017 100.534 37.4568 100.373 37.6551C100.212 37.4475 100.029 37.1709 99.9579 36.9438C99.8679 36.6653 99.823 36.3913 99.823 36.1241C99.823 35.9426 99.8443 35.7604 99.8874 35.5856L99.9464 35.3305L99.2525 35.0726L99.125 35.2829C99.0183 35.4576 98.9001 35.5923 98.7223 35.7342C98.1585 36.1809 97.6284 36.4099 97.1262 36.4193C97.1954 36.2332 97.3632 35.9211 97.7658 35.4623L97.9598 35.2427L97.3847 34.7276L97.1854 34.9071C96.788 35.2642 96.3498 35.4221 95.8524 35.3967C95.8457 35.3611 95.8431 35.323 95.8431 35.2828C95.8431 35.0658 95.933 34.7564 96.3619 34.4705L96.8874 34.1323L96.4283 33.5463L96.2195 33.6313C95.9619 33.7357 95.682 33.8088 95.3887 33.8443C94.9008 33.9012 94.6094 33.7097 94.4651 33.5657C94.6188 33.419 94.8651 33.3012 95.1396 33.1712L95.7625 32.8685L95.0429 32.1881L94.8604 32.2732C94.5832 32.4031 94.2683 32.5023 93.9227 32.5732C93.3523 32.689 92.9542 32.5659 92.7462 32.4667C93.0844 31.6658 93.6153 31.4106 94.1428 31.2713L94.4274 31.1956L94.2328 30.4235L93.9797 30.4496C93.769 30.4704 93.5649 30.4778 93.369 30.473C92.7575 30.4543 92.1965 30.1422 91.8984 29.9439C92.0569 29.7477 92.2844 29.5514 92.7817 29.3647C93.0938 29.2487 93.4207 29.2086 93.7804 29.2421L94.0697 29.2683L94.1878 28.3581L93.8516 28.2731C93.0918 28.0728 92.7837 27.626 92.6629 27.3662C93.1059 27.1626 93.608 27.182 93.859 27.2785L94.0959 27.3448L94.3724 27.4252L94.5979 26.4755L94.2946 26.4166C93.871 26.3315 93.5489 26.0998 93.1697 25.7549C92.7744 25.396 92.4005 24.682 92.173 24.1857C92.7885 24.3866 93.6053 24.7603 94.1879 25.0885L94.4604 25.2492L94.9672 24.4623L94.78 24.2949C94.2994 23.8501 93.906 23.3753 93.6436 22.9193C93.3356 22.3787 93.2577 21.7573 93.2577 21.2637C93.2577 21.034 93.2765 20.8358 93.2933 20.6824C93.8423 20.8994 95.3625 21.3863 96.1531 22.6594L96.2458 22.8509C96.7665 23.7819 97.664 24.8521 99.7024 26.2438C99.9325 26.4018 100.373 26.7849 100.373 27.3924C100.373 27.5719 100.337 27.77 100.243 27.9877L100.001 28.5329C99.66 29.2871 99.3097 30.0592 99.3097 30.6667C99.3097 30.9265 99.3761 31.1582 99.5346 31.3397C100.082 31.9779 101.746 32.2854 103.205 31.8172C103.676 31.6518 103.6 30.9995 103.479 30.518C103.432 30.305 103.226 29.7833 103.122 29.3366C103.117 29.3225 103.11 29.3105 103.107 29.2964C102.921 28.7767 102.98 27.9684 103.335 27.6824V27.6851C103.479 27.5197 103.792 27.2504 104.272 27.2102L104.367 27.2028C104.703 27.1889 105.823 27.0261 106.375 25.481L106.373 25.412C106.351 25.3558 106.318 25.2942 106.271 25.2211L105.956 24.741C105.838 24.524 105.442 23.8034 105.314 23.1349C105.224 22.6547 105.032 22.3714 104.81 22.1872C104.547 21.9723 104.024 21.8162 104.024 21.8162C104.178 21.7739 104.492 21.7002 104.609 21.6909C104.618 21.6956 104.691 21.6741 104.697 21.6788L104.98 21.6105C104.649 21.3554 104.241 20.9628 103.998 20.6066C104.09 20.6328 104.358 20.7104 104.677 20.8404C104.641 20.7292 104.609 20.4767 104.609 20.4767C104.715 20.5404 105.035 20.7152 105.307 20.8143C105.307 20.8143 105.835 20.989 106.001 21.0339C106.001 21.0339 105.98 20.7433 105.965 20.6067C106.115 20.6422 106.261 20.6796 106.436 20.7079C106.436 20.7079 106.536 20.7226 106.541 20.7247L106.735 20.7601C106.654 20.5686 106.626 20.4695 106.536 20.3469C106.612 20.3751 106.735 20.3918 106.856 20.4227C106.934 20.2779 106.932 20.1976 106.932 20.1976C107.093 20.3892 107.874 20.576 108.068 20.5947C108.257 20.6135 108.532 20.6631 108.705 20.7789C109.077 21.0227 109.43 21.5565 109.567 22.1968L109.581 22.3079L109.621 22.6005L109.865 24.2099L109.872 24.2119L110.116 22.5985L110.159 22.3079L110.173 22.194C110.308 21.5564 110.661 21.0226 111.032 20.7789C111.208 20.6631 111.48 20.6135 111.667 20.5946C111.863 20.5759 112.645 20.3891 112.808 20.1975C112.808 20.1975 112.804 20.2779 112.882 20.4199C113.005 20.3917 113.125 20.3751 113.201 20.3469C113.111 20.4675 113.088 20.5667 113.005 20.7601L113.199 20.7247C113.201 20.7226 113.303 20.7059 113.303 20.7059C113.476 20.6778 113.623 20.6423 113.774 20.6068C113.76 20.7434 113.739 21.034 113.739 21.034C113.903 20.9891 114.43 20.8144 114.43 20.8144C114.705 20.7153 115.022 20.5405 115.126 20.4768C115.126 20.4768 115.096 20.7293 115.06 20.8404C115.38 20.7105 115.648 20.6302 115.742 20.6067C115.498 20.963 115.088 21.3555 114.757 21.6106L115.041 21.6768C115.048 21.6742 115.121 21.6937 115.126 21.6888C115.245 21.6982 115.56 21.7711 115.713 21.8161C115.713 21.8161 115.191 21.9694 114.927 22.1871C114.707 22.3713 114.513 22.6546 114.423 23.1348C114.298 23.8033 113.903 24.5238 113.784 24.7409L113.772 24.7388C113.68 24.8949 113.578 25.0509 113.466 25.221C113.419 25.294 113.384 25.3557 113.365 25.412L113.36 25.481C113.917 27.026 115.031 27.1888 115.37 27.2028L115.462 27.2101C115.943 27.2503 116.256 27.5195 116.403 27.685V27.6823C116.756 27.9683 116.815 28.7767 116.63 29.2963C116.625 29.3104 116.62 29.3225 116.613 29.3365C116.521 29.7357 116.344 30.1991 116.277 30.4423L116.258 30.518L116.258 30.5179Z" fill="#171796"/>
<path d="M0 0H70.2444V70H0V0Z" fill="#171796"/>
<path d="M8.9438 40.6039C9.50489 40.6039 9.93317 40.9133 10.2533 41.5488C10.5823 42.2011 10.7479 43.2473 10.7479 44.6604C10.7479 45.4091 10.6439 45.9932 10.4353 46.3923C10.2412 46.7681 10.0138 46.9596 9.76066 46.9596C9.5144 46.9596 9.30835 46.7961 9.12841 46.4587C8.94114 46.1044 8.84445 45.584 8.84445 44.9136C8.84445 44.9136 8.84445 40.8262 8.84445 40.6039C8.89417 40.6039 8.9438 40.6039 8.9438 40.6039V40.6039ZM12.538 40.7171C11.8084 39.1954 10.6035 38.4252 8.95048 38.4252H6.43359V53.0311H8.84445C8.84445 53.0311 8.84445 49.1944 8.84445 48.7858C9.31102 49.1943 9.81972 49.4374 10.3789 49.4374C11.1789 49.4374 11.8468 49.0149 12.3649 48.1804C12.9407 47.2427 13.234 45.8538 13.234 44.0528C13.234 42.7984 12.9998 41.674 12.5381 40.717L12.538 40.7171Z" fill="white"/>
<path d="M63.2248 37.7L63.0355 37.8989C63.0355 37.8989 57.9849 43.1603 57.611 43.5527C57.611 43.0303 57.611 38.4019 57.611 38.4019H55.2357V53.0407H57.611C57.611 53.0407 57.611 47.1203 57.611 47.0279C57.67 46.9663 60.7078 43.7557 61.0487 43.3939C61.0675 43.9211 61.3925 53.0407 61.3925 53.0407H63.8094L63.2248 37.7ZM51.7174 37.8989C51.7174 37.8989 46.6668 43.1603 46.2929 43.5527C46.2929 43.0303 46.2929 38.4019 46.2929 38.4019H43.9202V53.0407H46.2929C46.2929 53.0407 46.2929 47.1203 46.2929 47.0279C46.3519 46.9663 49.3897 43.7557 49.7307 43.3939C49.7495 43.9211 50.0743 53.0407 50.0743 53.0407H52.4939L51.9066 37.7L51.7173 37.8989H51.7174ZM37.9864 49.4214C37.2145 48.4812 36.8219 47.2476 36.8219 45.754C36.8219 44.2231 37.1957 42.9901 37.9321 42.09C38.7348 41.1048 39.9188 40.6039 41.4484 40.6039H41.5665V38.0495H41.4484C39.0616 38.0495 37.2173 38.7964 35.9716 40.2656C34.838 41.5964 34.2621 43.4481 34.2621 45.7754C34.2621 48.0224 34.8876 49.8701 36.1186 51.2665C37.4112 52.7359 39.2181 53.4799 41.484 53.4799H41.6021V50.9262H41.484C39.99 50.9262 38.8134 50.4206 37.9864 49.4214L37.9864 49.4214ZM20.4014 49.5133C20.0813 50.475 19.6149 50.9639 19.0115 50.9639C18.4336 50.9639 17.9764 50.4677 17.659 49.4919C17.3281 48.4759 17.1596 47.186 17.1596 45.6598C17.1596 44.0933 17.3235 42.8033 17.6496 41.8277C17.9625 40.8921 18.4195 40.4172 19.0115 40.4172C19.6813 40.4172 20.1619 40.8853 20.4719 41.8492C20.7565 42.7184 20.9008 43.9876 20.9008 45.6197C20.9008 47.1982 20.733 48.5068 20.4014 49.5134V49.5133ZM22.1935 40.1619C21.4384 38.7608 20.3679 38.0496 19.0134 38.0496C17.7302 38.0496 16.7099 38.7636 15.9803 40.174C15.2609 41.5583 14.8984 43.3967 14.8984 45.641C14.8984 47.9636 15.2467 49.8395 15.9334 51.2191C16.634 52.6202 17.6689 53.3314 19.0134 53.3314C20.3819 53.3314 21.4646 52.5873 22.229 51.1179C22.9465 49.7403 23.311 47.8905 23.311 45.6195C23.311 43.3752 22.9344 41.5396 22.1935 40.1619ZM28.8918 49.4214C28.1199 48.4812 27.7294 47.2503 27.7294 45.754C27.7294 44.2231 28.1038 42.9901 28.8401 42.09C29.6402 41.1048 30.8241 40.6039 32.3559 40.6039H32.4719V38.0495H32.3559C29.967 38.0495 28.1248 38.7964 26.877 40.2656C25.7427 41.5964 25.1701 43.4481 25.1701 45.7754C25.1701 48.0224 25.7923 49.8701 27.024 51.2665C28.3194 52.7359 30.1235 53.4799 32.3913 53.4799H32.5075V50.9262H32.3913C30.8953 50.9262 29.718 50.4206 28.8918 49.4214V49.4214Z" fill="white"/>
<path d="M6.45312 16.928V31.6518H9.16872C9.16872 31.6518 9.16872 19.716 9.16872 19.3758H12.5313C12.5313 19.716 12.5313 31.6518 12.5313 31.6518H15.245V16.928H6.45312Z" fill="white"/>
<path d="M23.5838 29.4662C22.9422 29.4662 22.4589 28.9962 22.1039 28.0298C21.7348 27.0211 21.5475 25.738 21.5475 24.2211C21.5475 22.6666 21.7321 21.3835 22.0945 20.4151C22.4401 19.4888 22.9281 19.0374 23.5838 19.0374C24.3181 19.0374 24.8437 19.4935 25.1846 20.4318C25.4993 21.2965 25.6605 22.5582 25.6605 24.181C25.6605 25.7521 25.4712 27.0521 25.1013 28.0486C24.749 29.0036 24.2517 29.4663 23.5838 29.4663V29.4662ZM27.1566 18.6878C26.3068 17.2726 25.1013 16.552 23.5765 16.552C22.1321 16.552 20.9817 17.2753 20.1575 18.6998C19.3527 20.0934 18.9453 21.9438 18.9453 24.2023C18.9453 26.5389 19.3359 28.4269 20.1078 29.8112C20.8964 31.231 22.0636 31.9516 23.5765 31.9516C25.1182 31.9516 26.335 31.1982 27.1994 29.714C28.0042 28.3278 28.4116 26.466 28.4116 24.1809C28.4116 21.9246 27.9901 20.0748 27.1566 18.6878Z" fill="white"/>
<path d="M43.2151 16.928V19.3758C43.2151 19.3758 45.1688 19.3758 45.4669 19.3758C45.4669 19.716 45.4669 31.6518 45.4669 31.6518H48.1804C48.1804 31.6518 48.1804 19.716 48.1804 19.3758C48.4811 19.3758 50.4699 19.3758 50.4699 19.3758V16.928H43.2151ZM37.253 22.0574C36.9738 22.0574 35.7757 22.0574 35.7757 22.0574C35.167 22.0574 34.7126 21.918 34.4259 21.6461C34.2179 21.4525 34.1159 21.1927 34.1159 20.8545V16.928H31.4023V21.1331C31.4023 22.0996 31.7862 22.9194 32.544 23.5696C33.2897 24.2118 34.2085 24.5407 35.2717 24.5407C35.2717 24.5407 36.9571 24.5407 37.2531 24.5407C37.2531 24.8736 37.2531 31.6518 37.2531 31.6518H39.9693V16.928H37.2531C37.2531 16.928 37.2531 21.7286 37.2531 22.0574H37.253Z" fill="white"/>
<path d="M56.5355 22.0193C56.5421 21.7192 56.5945 19.6592 56.6012 19.3759C56.8503 19.3759 57.5838 19.3759 57.5838 19.3759C58.2852 19.3759 58.7658 19.5861 59.0571 20.0161C59.2914 20.3751 59.4592 21.0676 59.5638 22.0193H56.5355ZM62.121 20.8881C62.121 19.4777 61.6848 18.4115 60.823 17.7431C60.1363 17.2019 59.1987 16.928 58.0341 16.928H54.0112L53.5117 31.6518H56.2246C56.2246 31.6518 56.4757 24.7885 56.4878 24.465C56.7838 24.465 59.6013 24.467 59.8786 24.467C59.9095 24.767 60.6383 31.6545 60.6383 31.6545L63.3734 31.6518L62.1209 20.8881H62.121Z" fill="white"/>
</g>
<defs>
<clipPath id="clip0_377_8243">
<rect width="145" height="70" fill="white"/>
</clipPath>
</defs>
</svg>
