<svg width="62" height="30" viewBox="0 0 62 30" fill="none" xmlns="http://www.w3.org/2000/svg">
<g clip-path="url(#clip0_322_59751)">
<path d="M60.1975 1.80736C60.1975 3.43934 60.1975 26.6068 60.1975 28.2399C58.5654 28.2399 35.398 28.2399 33.766 28.2399C33.766 26.6068 33.766 3.43937 33.766 1.80736C35.398 1.80736 58.5654 1.80736 60.1975 1.80736ZM61.9995 29.9999H31.9648V0.00482178H61.0995H61.9995V29.9999Z" fill="#171796"/>
<path d="M60.2473 1.75861C60.2473 3.39804 60.2473 26.6484 60.2473 28.2887C58.6072 28.2887 35.3577 28.2887 33.7188 28.2887C33.7188 26.6484 33.7188 3.39804 33.7188 1.75861C35.3577 1.75861 58.6072 1.75861 60.2473 1.75861Z" fill="white"/>
<path d="M43.56 16.4591C43.4711 16.3434 43.407 16.228 43.3574 16.1146C43.4607 16.955 43.4992 17.5222 43.9517 18.067C43.9517 18.067 44.2273 17.7013 44.0499 16.8173C43.9742 16.7952 43.8889 16.7596 43.8051 16.7031C43.8051 16.7031 43.9084 17.0624 43.8436 17.4249C43.8436 17.4249 43.6794 17.3055 43.56 16.4591Z" fill="#171796"/>
<path d="M42.7744 16.3718C42.7199 16.303 42.6158 16.1592 42.5609 16.0558C42.5236 16.5429 42.3947 17.8291 42.8252 18.2309C42.8252 18.2309 43.1197 18.0142 43.225 16.142C43.1613 16.2464 43.052 16.3578 42.9983 16.4183C42.9983 16.4183 43.0703 17.0128 42.8565 17.4321C42.8565 17.4321 42.643 17.2699 42.7744 16.3718Z" fill="#171796"/>
<path d="M41.7482 17.3541C42.1118 16.9206 42.2191 15.6227 42.2191 15.6227C42.2696 15.5891 42.3201 15.5527 42.3689 15.5133C42.3902 15.4961 42.4103 15.4789 42.4306 15.4597C42.4286 15.5082 42.4306 15.5567 42.4358 15.6055C42.383 16.3861 42.3222 17.191 42.0782 17.592C41.8383 17.9838 41.4009 18.1884 41.4009 18.1884C40.988 17.4562 41.4862 16.4732 41.902 15.7898C41.9548 15.7706 42.0053 15.7462 42.059 15.7197C41.9123 16.2453 41.6348 16.871 41.7482 17.3541H41.7482Z" fill="#171796"/>
<path d="M40.7282 15.1011C40.7251 15.1852 40.7403 15.253 40.7515 15.2883C40.7555 15.3027 40.7615 15.3219 40.7716 15.3411C40.4263 15.6804 40.1712 16.0033 39.6601 16.7142C39.1478 17.4249 38.3379 17.4533 38.3379 17.4533C38.4157 16.8773 38.5727 16.4235 39.006 15.9324C39.4394 15.4424 39.9932 14.9947 40.4022 14.697C40.5064 14.7458 40.6421 14.7771 40.8164 14.7559C40.8296 14.7547 40.8425 14.7519 40.8557 14.7507C40.8012 14.8216 40.7687 14.8925 40.7495 14.9602C40.4416 15.1364 39.5467 15.5911 39.1831 16.3233C39.1831 16.3233 39.7502 16.1459 40.7283 15.1011H40.7282Z" fill="#171796"/>
<path d="M40.0865 14.3842L40.12 14.3233C40.1301 14.3041 40.1421 14.2848 40.1565 14.2676C39.8233 14.3973 38.6366 14.8448 38.2529 15.0443C37.8684 15.2438 37.3136 15.6955 37.0117 16.6129C37.0117 16.6129 37.8127 16.6858 38.4728 16.139C39.134 15.5911 39.9034 14.8276 40.2334 14.5847C40.1998 14.5544 40.1737 14.5248 40.1565 14.4995C40.1565 14.4995 39.2614 15.2934 38.3178 15.6347C38.3178 15.6347 38.5184 15.267 38.8918 15.0018C39.3475 14.6778 39.6867 14.5684 40.0865 14.3842Z" fill="#171796"/>
<path d="M39.4081 13.8446C39.4202 13.813 39.4334 13.7817 39.4474 13.7524C39.0557 13.8334 38.0768 13.9499 37.6394 14.0834C37.2041 14.2183 36.4123 14.538 35.9434 15.432C35.9434 15.432 36.6318 15.6459 37.9319 15.0331C39.2308 14.4217 39.6369 14.296 39.8848 14.2303C39.6874 14.2151 39.5467 14.1494 39.4747 14.1046C38.9576 14.3345 38.263 14.608 37.5754 14.6261C37.5754 14.6261 37.9157 14.3853 38.271 14.2364C38.6587 14.0745 39.083 13.9266 39.4081 13.8446H39.4081Z" fill="#171796"/>
<path d="M39.4415 13.1997C39.568 13.2594 39.6653 13.2898 39.8315 13.307C39.7414 13.3647 39.6552 13.4396 39.5784 13.5398C39.1206 13.6716 38.34 13.8162 37.0531 13.9083C35.7654 14.0016 35.0781 13.7645 35.0781 13.7645C35.5266 13.4913 36.2424 13.2117 36.7263 13.1184C37.2102 13.0255 38.4809 13.0347 39.0377 12.9597C39.0437 12.9657 39.1114 13.0214 39.2208 13.0872C38.7533 13.1296 37.754 13.1762 37.2397 13.4376C37.2397 13.4376 38.1902 13.5642 39.4415 13.1997L39.4415 13.1997Z" fill="#171796"/>
<path d="M39.3449 12.4603C39.4089 12.421 39.4867 12.3834 39.5839 12.3481C38.9319 12.1494 38.0368 11.8358 36.6902 11.7465C35.7022 11.6828 34.9896 11.7396 34.6211 11.8338C34.6211 11.8338 35.5199 12.4686 36.5488 12.6923C37.5762 12.915 38.4125 12.7732 39.022 12.7783C39.0625 12.7186 39.1081 12.6509 39.1799 12.584C38.4652 12.5881 37.2777 12.4026 36.8524 12.2609C36.8524 12.2609 37.9102 11.9563 39.3449 12.4603Z" fill="#171796"/>
<path d="M39.3414 11.6928C39.3455 11.7111 39.4215 12.0785 39.8477 12.2832C38.9325 11.881 37.1293 11.6503 36.1605 11.2485C34.8503 10.7037 34.6113 10.0243 34.6113 10.0243C35.7455 9.99476 36.6615 10.2723 37.3673 10.4879C38.1944 10.7422 39.454 11.2109 39.8953 11.4072C39.7292 11.4144 39.5481 11.462 39.3962 11.5642C38.8992 11.3578 38.4739 11.1957 37.9171 11.0326C37.3825 10.8768 37.0016 10.7939 36.5473 10.7867C36.5473 10.7867 37.0341 11.1633 37.9788 11.4265C38.6197 11.6058 38.9761 11.6535 39.3414 11.6928V11.6928Z" fill="#171796"/>
<path d="M39.3403 10.7826C39.3776 10.8475 39.4172 10.9141 39.4597 10.9761C38.0118 10.733 36.4205 9.63828 35.9283 8.96005C35.4372 8.28153 35.577 7.26892 35.577 7.26892C36.0537 7.36535 37.0905 8.25944 37.3589 8.5275C37.6272 8.79587 38.44 9.58577 39.001 10.0272L39.1508 10.4494C38.669 10.0628 38.1871 9.66871 37.8315 9.40034C37.5572 9.194 37.0461 8.78899 36.4658 8.65407C36.4658 8.65407 36.7918 9.20284 37.2819 9.5938C37.8135 10.018 38.1748 10.1994 38.3582 10.2987C38.7448 10.5062 38.9434 10.5912 39.3403 10.7826Z" fill="#171796"/>
<path d="M39.6231 8.97412C39.6211 9.03783 39.6191 9.10872 39.6211 9.18278L39.6283 9.24449C39.2779 8.79703 38.9217 8.28668 38.5196 7.7916C38.1652 7.35416 37.8736 7.1515 37.5568 6.94919C37.6753 7.61337 38.2453 8.34958 38.5196 8.6004C38.796 8.85154 39.281 9.29212 39.6699 9.55047L39.6799 9.59781C39.7112 9.7155 39.756 9.83375 39.8206 9.94827C39.9107 10.1073 40.0303 10.2652 40.1718 10.417C40.0576 10.3613 39.9291 10.3007 39.7985 10.2459L39.6779 10.1962C38.6098 9.62824 37.5488 8.4546 37.1206 7.63656C36.6913 6.81941 36.8684 5.8717 36.984 5.36334C37.4687 5.77434 38.1672 6.58546 38.472 7.02607C38.8468 7.56682 39.3255 8.33234 39.6231 8.95603V8.97412H39.6231Z" fill="#171796"/>
<path d="M40.9887 15.4281C40.5485 15.8687 39.6189 16.8569 39.707 17.9292C39.707 17.9292 40.5697 17.6597 40.9242 17.0271C41.2795 16.3951 41.499 15.9973 41.6491 15.8555C41.5527 15.8687 41.4577 15.8676 41.3635 15.8535L41.2846 15.8403C41.0668 16.2381 40.6335 16.8922 40.2426 17.1192C40.2426 17.1192 40.1436 16.5906 41.2915 15.5194C41.3067 15.4749 41.33 15.4261 41.3624 15.3704C41.257 15.4069 41.1377 15.4301 41.0031 15.4261L40.9887 15.4281Z" fill="#171796"/>
<path d="M50.3977 16.4591C50.4847 16.3434 50.5504 16.228 50.598 16.1146C50.4958 16.955 50.4583 17.5222 50.0057 18.067C50.0057 18.067 49.7293 17.7013 49.9075 16.8173C49.9836 16.7952 50.0674 16.7596 50.1515 16.7031C50.1515 16.7031 50.0482 17.0624 50.113 17.4249C50.113 17.4249 50.2772 17.3055 50.3977 16.4591Z" fill="#171796"/>
<path d="M51.1821 16.3718C51.2366 16.303 51.3408 16.1592 51.3956 16.0558C51.433 16.5429 51.5627 17.8291 51.1313 18.2309C51.1313 18.2309 50.8369 18.0142 50.7324 16.142C50.7952 16.2464 50.9046 16.3578 50.9583 16.4183C50.9583 16.4183 50.8862 17.0128 51.1 17.4321C51.1 17.4321 51.3135 17.2699 51.1821 16.3718Z" fill="#171796"/>
<path d="M52.206 17.3541C51.8435 16.9206 51.7353 15.6227 51.7353 15.6227C51.6857 15.5891 51.6351 15.5527 51.5855 15.5133C51.5643 15.4961 51.545 15.4789 51.5247 15.4597C51.5258 15.5082 51.5235 15.5567 51.5195 15.6055C51.5711 16.3861 51.634 17.191 51.878 17.592C52.115 17.9838 52.5552 18.1884 52.5552 18.1884C52.9654 17.4562 52.4692 16.4732 52.0521 15.7898C52.0016 15.7706 51.9488 15.7462 51.8963 15.7197C52.043 16.2453 52.3205 16.871 52.206 17.3541H52.206Z" fill="#171796"/>
<path d="M53.227 15.1011C53.2302 15.1852 53.2149 15.253 53.2038 15.2883C53.1986 15.3027 53.1937 15.3219 53.1834 15.3411C53.5287 15.6804 53.7849 16.0033 54.2952 16.7142C54.8074 17.4249 55.6173 17.4533 55.6173 17.4533C55.5384 16.8773 55.3835 16.4235 54.9492 15.9324C54.5159 15.4424 53.9611 14.9947 53.553 14.697C53.4489 14.7458 53.3122 14.7771 53.1401 14.7559C53.1269 14.7547 53.1128 14.7519 53.0996 14.7507C53.1541 14.8216 53.1877 14.8925 53.2058 14.9602C53.5146 15.1364 54.4085 15.5911 54.7722 16.3233C54.7722 16.3233 54.2051 16.1459 53.227 15.1011Z" fill="#171796"/>
<path d="M53.8705 14.3842L53.836 14.3233C53.8251 14.3041 53.8139 14.2848 53.8008 14.2676C54.1328 14.3973 55.3183 14.8448 55.7032 15.0443C56.0869 15.2438 56.6417 15.6955 56.9433 16.6129C56.9433 16.6129 56.1434 16.6858 55.4825 16.139C54.8221 15.5911 54.0527 14.8276 53.7227 14.5847C53.7571 14.5544 53.7815 14.5248 53.8007 14.4995C53.8007 14.4995 54.6947 15.2934 55.6392 15.6347C55.6392 15.6347 55.4369 15.267 55.0644 15.0018C54.6086 14.6778 54.2694 14.5684 53.8705 14.3842H53.8705Z" fill="#171796"/>
<path d="M54.547 13.8446C54.5349 13.813 54.5217 13.7817 54.5077 13.7524C54.8986 13.8334 55.8783 13.9499 56.3148 14.0834C56.7522 14.2183 57.542 14.538 58.0126 15.432C58.0126 15.432 57.3233 15.6459 56.0233 15.0331C54.7243 14.4217 54.3174 14.296 54.0703 14.2303C54.2677 14.2151 54.4075 14.1494 54.4804 14.1046C54.9976 14.3345 55.6912 14.608 56.3797 14.6261C56.3797 14.6261 56.0393 14.3853 55.6832 14.2364C55.2963 14.0745 54.8722 13.9266 54.547 13.8446H54.547Z" fill="#171796"/>
<path d="M54.515 13.1997C54.3873 13.2594 54.29 13.2898 54.125 13.307C54.2143 13.3647 54.3012 13.4396 54.3781 13.5398C54.8359 13.6716 55.6165 13.8162 56.9033 13.9083C58.1899 14.0016 58.8775 13.7645 58.8775 13.7645C58.4298 13.4913 57.7141 13.2117 57.2291 13.1184C56.7463 13.0255 55.4767 13.0347 54.9188 12.9597C54.9116 12.9657 54.8451 13.0214 54.7357 13.0872C55.2044 13.1296 56.2016 13.1762 56.7168 13.4376C56.7168 13.4376 55.7672 13.5642 54.515 13.1997L54.515 13.1997Z" fill="#171796"/>
<path d="M54.6118 12.4603C54.5461 12.421 54.468 12.3834 54.373 12.3481C55.0239 12.1494 55.9199 11.8358 57.2653 11.7465C58.2537 11.6828 58.9662 11.7396 59.3348 11.8338C59.3348 11.8338 58.4359 12.4686 57.4082 12.6923C56.3797 12.915 55.5434 12.7732 54.9338 12.7783C54.8934 12.7186 54.8477 12.6509 54.7768 12.584C55.4897 12.5881 56.6781 12.4026 57.1026 12.2609C57.1026 12.2609 56.0456 11.9563 54.6119 12.4603H54.6118Z" fill="#171796"/>
<path d="M54.6153 11.6928C54.6124 11.7111 54.5375 12.0785 54.1102 12.2832C55.0254 11.881 56.8294 11.6503 57.7974 11.2485C59.1075 10.7037 59.3465 10.0243 59.3465 10.0243C58.2135 9.99476 57.2963 10.2723 56.5906 10.4879C55.7635 10.7422 54.5039 11.2109 54.0625 11.4072C54.2286 11.4144 54.4089 11.462 54.5607 11.5642C55.0578 11.3578 55.484 11.1957 56.0407 11.0326C56.5765 10.8768 56.9559 10.7939 57.4105 10.7867C57.4105 10.7867 56.9238 11.1633 55.9802 11.4265C55.3381 11.6058 54.9817 11.6535 54.6152 11.6928L54.6153 11.6928Z" fill="#171796"/>
<path d="M54.6175 10.7826C54.5799 10.8475 54.5394 10.9141 54.498 10.9761C55.9448 10.733 57.5361 9.63828 58.0283 8.96005C58.5202 8.28153 58.3796 7.26892 58.3796 7.26892C57.9026 7.36535 56.8649 8.25944 56.5968 8.5275C56.3285 8.79587 55.5163 9.58577 54.9555 10.0272L54.8046 10.4494C55.2867 10.0628 55.7694 9.66871 56.125 9.40034C56.3994 9.194 56.9105 8.78899 57.4916 8.65407C57.4916 8.65407 57.1636 9.20284 56.6737 9.5938C56.1422 10.018 55.7826 10.1994 55.5984 10.2987C55.2118 10.5062 55.0132 10.5912 54.6174 10.7826H54.6175Z" fill="#171796"/>
<path d="M54.333 8.97412C54.335 9.03783 54.3371 9.10872 54.335 9.18278L54.3287 9.24449C54.678 8.79703 55.0336 8.28668 55.4365 7.7916C55.7909 7.35416 56.0834 7.1515 56.3982 6.94919C56.2797 7.61337 55.7108 8.34958 55.4353 8.6004C55.161 8.85154 54.6751 9.29212 54.2862 9.55047L54.275 9.59781C54.2449 9.7155 54.2002 9.83375 54.1356 9.94827C54.0443 10.1073 53.9258 10.2652 53.7852 10.417C53.8985 10.3613 54.0271 10.3007 54.1577 10.2459L54.277 10.1962C55.3463 9.62824 56.4074 8.4546 56.8356 7.63656C57.2649 6.81941 57.0858 5.8717 56.9722 5.36334C56.4883 5.77434 55.7898 6.58546 55.4841 7.02607C55.1093 7.56682 54.6306 8.33234 54.333 8.95603V8.97412H54.333Z" fill="#171796"/>
<path d="M52.9659 15.4281C53.4084 15.8687 54.3369 16.8569 54.2487 17.9292C54.2487 17.9292 53.3872 17.6597 53.0316 17.0271C52.6763 16.3951 52.4568 15.9973 52.3066 15.8555C52.4031 15.8687 52.4993 15.8676 52.5922 15.8535L52.6711 15.8403C52.889 16.2381 53.3223 16.8922 53.7141 17.1192C53.7141 17.1192 53.8122 16.5906 52.6663 15.5194C52.6479 15.4749 52.6258 15.4261 52.5942 15.3704C52.6987 15.4069 52.8181 15.4301 52.9527 15.4261L52.9659 15.4281H52.9659Z" fill="#171796"/>
<path d="M46.3047 6.81137C46.3047 6.73242 46.6055 6.66846 46.9768 6.66846C47.3493 6.66846 47.6513 6.73242 47.6513 6.81137C47.6513 6.89031 47.3493 6.95517 46.9768 6.95517C46.6055 6.95517 46.3047 6.89031 46.3047 6.81137Z" fill="#171796"/>
<path d="M44.0176 7.49275C44.0176 7.44916 44.2119 7.41388 44.4506 7.41388C44.6906 7.41388 44.884 7.44916 44.884 7.49275C44.884 7.53638 44.6906 7.57084 44.4506 7.57084C44.2119 7.57084 44.0176 7.53638 44.0176 7.49275Z" fill="#171796"/>
<path d="M47.1097 7.12739C47.1097 7.20117 47.0512 7.25999 46.9771 7.25999C46.9043 7.25999 46.8457 7.20117 46.8457 7.12739C46.8457 7.05451 46.9042 6.99451 46.9771 6.99451C47.0512 6.99451 47.1097 7.05447 47.1097 7.12739Z" fill="#171796"/>
<path d="M46.1937 6.60873C45.9701 6.0743 45.8201 5.67935 45.8264 5.54675C45.8292 5.4678 45.9245 5.40898 46.0146 5.38058C46.1047 5.35218 46.1825 5.3473 46.2425 5.3926C46.3598 5.48271 46.466 6.20376 46.5077 6.50452C46.3923 6.52689 46.3254 6.53981 46.1937 6.60873H46.1937Z" fill="#171796"/>
<path d="M46.6337 6.49249C46.6914 6.48614 46.7491 6.48329 46.8079 6.48125C46.7735 6.19454 46.6731 5.71662 46.6145 5.52951C46.5568 5.34122 46.4828 5.2043 46.3594 5.17102C46.3594 5.17102 46.4544 5.43337 46.5072 5.70463C46.5597 5.97586 46.6002 6.23535 46.6337 6.49253V6.49249Z" fill="#171796"/>
<path d="M46.3247 7.48873C45.9815 7.68907 45.5938 7.65779 45.5938 7.65779C45.6687 7.52201 45.7387 7.39544 45.9554 7.24162C46.17 7.08775 46.5222 7.04816 46.6611 7.06735C46.6295 7.1707 46.4889 7.39255 46.3248 7.48869L46.3247 7.48873Z" fill="#171796"/>
<path d="M43.8157 7.75713C43.8309 7.96065 43.8834 8.16096 43.9555 8.30191C43.9555 8.30191 43.7023 8.11159 43.6395 7.95056C43.5778 7.79042 43.5637 7.68018 43.8157 7.75713H43.8157Z" fill="#171796"/>
<path d="M43.8647 8.40402C44.0329 8.48097 44.1848 8.6632 44.1848 8.6632C43.9296 8.72202 43.8151 8.7958 43.8151 8.7958C43.3252 8.45047 42.9211 8.79894 42.9211 8.79894C42.6559 8.64793 42.6034 8.28056 42.736 8.08599C42.8686 7.89167 43.1674 7.92613 43.31 7.96056C43.3981 8.24413 43.7129 8.33514 43.8647 8.40399L43.8647 8.40402Z" fill="#171796"/>
<path d="M44.2414 8.72809C44.2414 8.72809 44.4185 8.96489 44.5482 9.07024C44.5482 9.07024 43.889 9.06421 43.722 9.63424C43.722 9.63424 43.4941 9.28603 43.6603 9.057C43.8405 8.81221 44.0055 8.7806 44.2414 8.72809Z" fill="#171796"/>
<path d="M44.4715 6.52692C44.5344 6.52692 44.6569 6.5562 44.6569 6.65638C44.6569 6.75769 44.4991 7.0017 44.4566 7.11104H44.4523C44.4109 7.0017 44.252 6.75769 44.252 6.65638C44.252 6.5562 44.3745 6.52692 44.4382 6.52692H44.4715Z" fill="#171796"/>
<path d="M44.3334 7.31454C44.3038 7.17185 44.2482 6.80216 44.1592 6.72007C44.0763 6.64319 43.9526 6.63513 43.892 6.63913C43.8312 6.64316 43.7655 6.70602 43.7907 6.79014C43.816 6.87308 44.0892 7.28326 44.1248 7.33491C44.1896 7.32371 44.1764 7.32771 44.3334 7.31454Z" fill="#171796"/>
<path d="M44.5742 7.31454C44.6058 7.17185 44.6615 6.80216 44.7496 6.72007C44.8325 6.64319 44.9559 6.63513 45.0168 6.63913C45.0785 6.64316 45.1442 6.70602 45.1181 6.79014C45.0917 6.87308 44.8194 7.28326 44.784 7.33491C44.7192 7.32371 44.7332 7.32771 44.5743 7.31454H44.5742Z" fill="#171796"/>
<path d="M44.7507 6.02953H44.538V5.79358H44.3662V6.02953H44.1523V6.17736H44.3662V6.45491H44.538V6.17736H44.7507V6.02953Z" fill="#171796"/>
<path d="M42.1705 7.6426C42.1705 7.59698 42.1734 7.55249 42.1797 7.50683C42.1969 7.3926 42.1978 7.29443 42.1857 7.2132C42.0316 7.27206 41.9286 7.30966 41.7168 7.64977C41.7168 7.64977 42.054 7.44311 42.1705 7.64257V7.6426Z" fill="#171796"/>
<path d="M42.4638 8.1822C42.4678 8.09723 42.5235 7.83085 42.5944 7.64256C42.6793 7.41179 42.6317 7.07656 42.5267 6.87222C42.4273 6.67558 42.3725 6.49136 42.3898 6.28784C42.3898 6.28784 42.1903 6.35469 42.076 6.42444C42.0568 6.66156 42.1943 6.89747 42.2612 7.03207C42.3381 7.19111 42.3229 7.39745 42.306 7.52402C42.2756 7.7387 42.3209 7.96866 42.4638 8.1822Z" fill="#171796"/>
<path d="M42.4871 6.37681C42.48 6.3507 42.48 6.27664 42.4943 6.24625C42.4943 6.24625 42.808 5.94052 43.0723 5.88801C43.2384 5.85444 43.3426 5.9285 43.3903 5.96895C43.3903 5.96895 43.297 5.95775 43.1572 6.07316C43.0154 6.18771 42.8424 6.3263 42.7089 6.36076C42.5781 6.39522 42.5499 6.38402 42.4871 6.37685L42.4871 6.37681Z" fill="#171796"/>
<path d="M43.415 5.99304C43.5336 6.11073 43.6318 6.2353 43.6297 6.3435C43.6277 6.45605 43.4983 6.73731 43.4294 6.84465C43.3617 6.95199 43.2612 7.0918 43.2744 7.26286C43.2784 7.34894 43.3372 7.43623 43.409 7.50797C43.409 7.50797 43.0254 7.41668 42.9777 7.17992C42.9352 6.96723 43.0265 6.81854 43.087 6.70085C43.1458 6.59065 43.3229 6.3323 43.3677 6.22496C43.4082 6.12796 43.4294 6.0467 43.415 5.99304Z" fill="#171796"/>
<path d="M49.939 7.49275C49.939 7.44916 49.7436 7.41388 49.5048 7.41388C49.2646 7.41388 49.0703 7.44916 49.0703 7.49275C49.0703 7.53638 49.2646 7.57084 49.5048 7.57084C49.7436 7.57084 49.939 7.53638 49.939 7.49275Z" fill="#171796"/>
<path d="M46.983 6.06511C47.0102 5.87168 47.2361 5.45747 47.2361 5.27636C47.2361 5.13341 47.1207 5.01801 46.9778 5.01801C46.8361 5.01801 46.7207 5.13338 46.7207 5.27636C46.7207 5.45744 46.9454 5.87165 46.9738 6.06511H46.983H46.983Z" fill="#171796"/>
<path d="M47.764 6.60873C47.9879 6.0743 48.1377 5.67935 48.1317 5.54675C48.1277 5.4678 48.0324 5.40898 47.9434 5.38058C47.8533 5.35218 47.7732 5.3473 47.7156 5.3926C47.5982 5.48271 47.4897 6.20376 47.4492 6.50452C47.5638 6.52689 47.6315 6.53981 47.764 6.60873Z" fill="#171796"/>
<path d="M47.3226 6.49249C47.2661 6.48614 47.2061 6.48329 47.1484 6.48125C47.184 6.19454 47.2822 5.71662 47.341 5.52951C47.3995 5.34122 47.4736 5.2043 47.597 5.17102C47.597 5.17102 47.5008 5.43337 47.4492 5.70463C47.3967 5.97586 47.3562 6.23535 47.3226 6.49253L47.3226 6.49249Z" fill="#171796"/>
<path d="M47.2949 7.06736C47.4327 7.04813 47.7839 7.08773 47.9995 7.24163C48.2162 7.39546 48.2871 7.52203 48.3611 7.6578C48.3611 7.6578 47.9734 7.68909 47.6301 7.48874C47.466 7.39257 47.3262 7.17075 47.295 7.0674L47.2949 7.06736Z" fill="#171796"/>
<path d="M50.1405 7.75713C50.1253 7.96065 50.0717 8.16096 50.002 8.30191C50.002 8.30191 50.2551 8.11159 50.3156 7.95056C50.3773 7.79042 50.3937 7.68018 50.1406 7.75713H50.1405Z" fill="#171796"/>
<path d="M50.6471 7.96064C50.788 7.92618 51.0865 7.89175 51.2194 8.08607C51.3528 8.28067 51.3003 8.64804 51.0351 8.79901C51.0351 8.79901 50.6319 8.45055 50.1411 8.79587C50.1411 8.79587 50.0266 8.7221 49.7715 8.66327C49.7715 8.66327 49.9225 8.48101 50.0923 8.4041C50.2433 8.33525 50.557 8.24424 50.6471 7.96067L50.6471 7.96064Z" fill="#171796"/>
<path d="M49.717 8.72809C49.717 8.72809 49.5376 8.96489 49.4082 9.07024C49.4082 9.07024 50.0682 9.06421 50.2345 9.63424C50.2345 9.63424 50.4632 9.28603 50.2962 9.057C50.1168 8.81221 49.9509 8.7806 49.717 8.72809Z" fill="#171796"/>
<path d="M49.485 6.52692C49.4233 6.52692 49.3008 6.5562 49.3008 6.65638C49.3008 6.75769 49.4586 7.0017 49.5002 7.11104H49.5053C49.5467 7.0017 49.7037 6.75769 49.7037 6.65638C49.7037 6.5562 49.5831 6.52692 49.5203 6.52692H49.485H49.485Z" fill="#171796"/>
<path d="M49.623 7.31454C49.6535 7.17185 49.71 6.80216 49.7981 6.72007C49.8811 6.64319 50.0047 6.63513 50.0653 6.63913C50.1273 6.64316 50.1919 6.70602 50.1658 6.79014C50.1414 6.87308 49.8658 7.28326 49.8314 7.33491C49.7689 7.32371 49.7801 7.32771 49.623 7.31454Z" fill="#171796"/>
<path d="M49.3816 7.31454C49.3524 7.17185 49.2967 6.80216 49.2074 6.72007C49.1245 6.64319 49.0011 6.63513 48.9402 6.63913C48.8785 6.64316 48.8136 6.70602 48.84 6.79014C48.8641 6.87308 49.1376 7.28326 49.173 7.33491C49.2378 7.32371 49.2246 7.32771 49.3816 7.31454H49.3816Z" fill="#171796"/>
<path d="M49.2051 6.02953H49.4189V5.79358H49.5908V6.02953H49.8035V6.17736H49.5908V6.45491H49.4189V6.17736H49.2051V6.02953Z" fill="#171796"/>
<path d="M51.7862 7.6426C51.7862 7.59698 51.783 7.55249 51.7778 7.50683C51.7606 7.3926 51.7597 7.29443 51.7718 7.2132C51.9256 7.27206 52.0289 7.30966 52.2396 7.64977C52.2396 7.64977 51.9035 7.44311 51.7862 7.64257V7.6426Z" fill="#171796"/>
<path d="M51.4912 8.1822C51.4881 8.09723 51.4336 7.83085 51.3627 7.64256C51.2766 7.41179 51.3251 7.07656 51.4295 6.87222C51.5288 6.67558 51.5854 6.49136 51.5662 6.28784C51.5662 6.28784 51.7656 6.35469 51.881 6.42444C51.8994 6.66156 51.7625 6.89747 51.6959 7.03207C51.6178 7.19111 51.635 7.39745 51.6523 7.52402C51.6807 7.7387 51.6362 7.96866 51.4912 8.1822Z" fill="#171796"/>
<path d="M51.4704 6.37681C51.4767 6.3507 51.4767 6.27664 51.4624 6.24625C51.4624 6.24625 51.1476 5.94052 50.8853 5.88801C50.7182 5.85444 50.614 5.9285 50.5664 5.96895C50.5664 5.96895 50.6597 5.95775 50.7995 6.07316C50.9401 6.18771 51.1151 6.3263 51.2477 6.36076C51.3783 6.39522 51.4059 6.38402 51.4704 6.37685L51.4704 6.37681Z" fill="#171796"/>
<path d="M50.5398 5.99304C50.4216 6.11073 50.3223 6.2353 50.3242 6.3435C50.3274 6.45605 50.4568 6.73731 50.5257 6.84465C50.5934 6.95199 50.6939 7.0918 50.6815 7.26286C50.6755 7.34894 50.6169 7.43623 50.547 7.50797C50.547 7.50797 50.9307 7.41668 50.9783 7.17992C51.0199 6.96723 50.9287 6.81854 50.8658 6.70085C50.8093 6.59065 50.6319 6.3323 50.5875 6.22496C50.5481 6.12796 50.5257 6.0467 50.5398 5.99304Z" fill="#171796"/>
<path d="M40.291 18.2409C40.4824 18.0314 40.8081 18.2128 41.1373 18.5144C41.4664 18.8173 41.674 19.1261 41.4805 19.3356C41.3043 19.529 40.9642 19.3629 40.6342 19.062C40.305 18.7595 40.0984 18.4495 40.2909 18.2409L40.291 18.2409Z" fill="#171796"/>
<path d="M42.4483 22.8471C42.667 22.8511 42.8909 22.8359 43.1196 22.8006C43.5438 22.7348 43.9923 22.6487 44.4409 22.4797L44.2908 22.271C43.8798 22.42 43.4708 22.4978 43.082 22.5574C42.836 22.595 42.6021 22.6083 42.3703 22.5991H42.3662C42.3703 22.5534 42.3743 22.5058 42.3786 22.4544C42.3886 22.2862 42.4848 22.0147 42.5841 21.8072C42.7732 21.4042 43.241 20.331 44.213 20.1407C44.3071 20.1235 44.1086 19.8965 44.0228 19.9077C43.9347 19.9189 43.7613 20.0314 43.6835 20.0827C43.6835 20.0827 43.6835 19.8531 43.6815 19.8127C43.6795 19.7711 43.6439 19.757 43.6055 19.757C43.5682 19.7579 43.3323 19.757 43.2583 19.8419C43.0355 20.098 42.6619 20.7897 42.4492 21.304C42.2368 21.8184 42.0919 21.9742 41.8684 21.8964C41.6454 21.8184 41.5099 21.5612 41.119 21.6393C40.9853 21.6666 40.8355 21.7575 40.7169 21.8913C40.702 21.9085 40.6825 21.9349 40.6664 21.9662C40.5307 21.8144 40.4529 21.6068 40.4529 21.3809C40.4529 20.8878 40.8558 20.4849 41.3509 20.4849C41.846 20.4849 42.2469 20.8878 42.2469 21.3809C42.2469 21.4487 42.2348 21.558 42.2348 21.558C42.2742 21.4811 42.4219 21.139 42.4515 21.0773C42.3186 20.5942 41.8743 20.2388 41.3509 20.2388C40.8991 20.2388 40.5086 20.5009 40.3232 20.8818C40.3941 20.43 40.6179 20.0231 40.7789 19.8723C40.9681 19.6921 41.2932 19.6352 41.2932 19.6352C41.0814 19.6688 40.8001 19.5371 40.4862 19.2495C40.1886 18.9751 40.0336 18.7372 40.0256 18.5368C40.0448 18.8201 40.0356 18.9771 39.9567 19.207C39.8474 19.5199 39.5518 20.0959 39.6571 20.746C39.7148 21.1025 39.9739 21.6352 40.4082 22.0695C40.4934 22.1605 40.5287 22.2913 40.5418 22.3691C40.5398 22.3935 40.5378 22.4179 40.5367 22.4412C40.6331 22.3763 40.9813 22.3155 41.0926 22.3155C41.2031 22.3155 41.4551 22.2598 41.5463 22.4016C41.6 22.4845 41.6638 22.4886 41.759 22.5221C41.8552 22.5554 41.8572 22.7073 41.9694 22.6536C42.0959 22.5939 42.2773 22.6304 42.333 22.6688C42.3978 22.7136 42.4432 22.7629 42.4483 22.8471Z" fill="#171796"/>
<path d="M42.2386 23.0446C42.1353 23.2088 41.9875 23.2693 41.8233 23.3009C41.5389 23.3534 41.1087 23.3666 40.7382 23.0365C40.6438 22.9524 40.5881 22.8502 40.56 22.7398C40.5376 22.6395 40.6328 22.5787 40.7138 22.5586C40.7938 22.5394 41.3101 22.4845 41.3707 22.511C41.4315 22.5382 41.4499 22.5939 41.4548 22.6548C41.46 22.7156 41.5105 22.7053 41.5713 22.7053C41.631 22.7053 41.7383 22.7205 41.7707 22.8057C41.8032 22.8918 41.885 22.8907 41.9185 22.8563C41.9995 22.7753 42.3731 22.7914 42.2386 23.0445L42.2386 23.0446Z" fill="#171796"/>
<path d="M53.6641 18.2409C53.4727 18.0314 53.1458 18.2128 52.8178 18.5144C52.4898 18.8173 52.2823 19.1261 52.4737 19.3356C52.6508 19.529 52.9909 19.3629 53.32 19.062C53.6489 18.7595 53.8564 18.4495 53.6641 18.2409V18.2409Z" fill="#171796"/>
<path d="M51.5078 22.8471C51.2915 22.8511 51.0656 22.8359 50.8377 22.8006C50.4124 22.7348 49.965 22.6487 49.5176 22.4797L49.6662 22.271C50.0763 22.42 50.4853 22.4978 50.8742 22.5574C51.1201 22.595 51.356 22.6083 51.587 22.5991H51.5919C51.587 22.5534 51.5819 22.5058 51.5798 22.4544C51.5686 22.2862 51.4713 22.0147 51.3744 21.8072C51.183 21.4042 50.7163 20.331 49.7423 20.1407C49.6502 20.1235 49.8476 19.8965 49.9357 19.9077C50.0226 19.9189 50.1957 20.0314 50.2729 20.0827C50.2729 20.0827 50.2729 19.8531 50.2758 19.8127C50.2778 19.7711 50.3142 19.757 50.3518 19.757C50.3891 19.7579 50.6242 19.757 50.6979 19.8419C50.9218 20.098 51.2954 20.7897 51.5078 21.304C51.7204 21.8184 51.8654 21.9742 52.0881 21.8964C52.3119 21.8184 52.4465 21.5612 52.8371 21.6393C52.972 21.6666 53.1227 21.7575 53.2412 21.8913C53.2564 21.9085 53.2736 21.9349 53.2908 21.9662C53.4266 21.8144 53.5035 21.6068 53.5035 21.3809C53.5035 20.8878 53.1006 20.4849 52.6064 20.4849C52.1125 20.4849 51.7095 20.8878 51.7095 21.3809C51.7115 21.4487 51.7236 21.558 51.7236 21.558C51.6831 21.4811 51.5353 21.139 51.5058 21.0773C51.6395 20.5942 52.082 20.2388 52.6064 20.2388C53.0581 20.2388 53.4487 20.5009 53.634 20.8818C53.5632 20.43 53.3373 20.0231 53.1783 19.8723C52.988 19.6921 52.662 19.6352 52.662 19.6352C52.8758 19.6688 53.1562 19.5371 53.4699 19.2495C53.7686 18.9751 53.9216 18.7372 53.9316 18.5368C53.9112 18.8201 53.9204 18.9771 54.0005 19.207C54.1087 19.5199 54.4054 20.0959 54.3001 20.746C54.2413 21.1025 53.9821 21.6352 53.5499 22.0695C53.4638 22.1605 53.4273 22.2913 53.4141 22.3691C53.4173 22.3935 53.4202 22.4179 53.4213 22.4412C53.324 22.3763 52.9759 22.3155 52.8646 22.3155C52.7532 22.3155 52.5009 22.2598 52.4108 22.4016C52.3572 22.4845 52.2935 22.4886 52.1973 22.5221C52.102 22.5554 52.1012 22.7073 51.9867 22.6536C51.8601 22.5939 51.6799 22.6304 51.6234 22.6688C51.5573 22.7136 51.514 22.7629 51.5077 22.8471H51.5078Z" fill="#171796"/>
<path d="M51.7164 23.0446C51.8197 23.2088 51.9675 23.2693 52.1326 23.3009C52.417 23.3534 52.8472 23.3666 53.2176 23.0365C53.3109 22.9524 53.3666 22.8502 53.3959 22.7398C53.4191 22.6395 53.323 22.5787 53.2421 22.5586C53.1611 22.5394 52.6457 22.4845 52.584 22.511C52.5242 22.5382 52.5059 22.5939 52.4999 22.6548C52.495 22.7156 52.4454 22.7053 52.3845 22.7053C52.3237 22.7053 52.2175 22.7205 52.1851 22.8057C52.1526 22.8918 52.0697 22.8907 52.0364 22.8563C51.9564 22.7753 51.5818 22.7914 51.7164 23.0445V23.0446Z" fill="#171796"/>
<path d="M44.9641 22.2386C45.5079 21.9409 46.0415 21.4823 46.5213 20.7492L46.6065 20.6042C46.4757 20.662 46.3078 20.6226 46.3078 20.6226C46.2998 20.6347 46.2785 20.6671 46.2682 20.6852C45.8208 21.3465 45.3257 21.7627 44.8184 22.0351L44.9641 22.2386L44.9641 22.2386Z" fill="#171796"/>
<path d="M46.5168 21.6827C46.1471 22.019 45.4902 22.1821 45.4902 22.1821C45.7201 21.9662 46.1514 21.534 46.3294 21.3698C46.5067 21.2068 46.9137 20.6347 46.9765 20.4525H46.9794C47.0423 20.6347 47.4484 21.2068 47.6254 21.3698C47.8037 21.534 48.2358 21.9662 48.4657 22.1821C48.4657 22.1821 47.8088 22.019 47.438 21.6827L47.3418 21.8801C47.2661 22.0432 47.1183 22.2974 46.9785 22.4036H46.9753C46.8356 22.2974 46.6909 22.0432 46.6129 21.8801L46.5167 21.6827H46.5168Z" fill="#171796"/>
<path d="M48.9906 22.2386C48.447 21.9398 47.9144 21.4811 47.4357 20.7492L47.3496 20.6042C47.4791 20.662 47.6483 20.6226 47.6483 20.6226C47.6564 20.6347 47.6785 20.6671 47.6897 20.6852C48.1351 21.3457 48.6313 21.7627 49.1364 22.0351L48.9906 22.2386V22.2386Z" fill="#171796"/>
<path d="M45.0367 8.00306C44.7047 8.0447 44.3181 8.02747 44.3018 8.02747L44.2694 8.02547L44.2757 8.05672C44.2978 8.19338 44.3574 8.29384 44.4487 8.35438L44.4852 8.37761L44.4881 8.33515C44.5073 8.08715 45.0348 8.08112 45.0411 8.08112H45.0652V7.99903L45.0368 8.00303L45.0367 8.00306ZM43.9141 7.69224C43.9141 7.69224 44.3422 7.85209 44.7716 7.83083C45.2009 7.80875 45.9907 7.79958 46.2447 7.67615C46.2447 7.67615 46.2031 7.836 45.9987 7.92929C45.9987 7.92929 46.1061 7.92929 46.2114 8.02229C46.2114 8.02229 46.1505 8.154 45.9683 8.22492C45.9683 8.22492 46.2943 8.5639 46.6436 8.53978C46.6436 8.53978 46.4825 8.74012 46.1252 8.66321C45.7679 8.58544 45.6535 8.38595 45.5918 8.30786C45.5918 8.30786 45.6383 8.49933 45.617 8.57713C45.617 8.57713 45.46 8.56707 45.3366 8.41321C45.3366 8.41321 45.4256 8.56703 45.444 8.69682C45.444 8.69682 45.3456 8.70884 45.1696 8.60463C45.1696 8.60463 45.2061 8.69963 45.213 8.81104C45.213 8.81104 44.8 8.67844 44.5993 8.49016C44.5993 8.49016 44.5965 8.61958 44.6057 8.69361C44.6057 8.69361 43.9637 8.62875 43.9141 7.6922V7.69224Z" fill="#171796"/>
<path d="M48.8909 8.02749V8.08118H48.9161C48.9213 8.08118 49.4465 8.08721 49.4668 8.33521L49.4709 8.37767L49.5065 8.35444C49.5985 8.2939 49.6571 8.19341 49.6803 8.05678L49.6855 8.02553L49.6551 8.02753C49.6511 8.02753 49.2522 8.04476 48.9181 8.00312L48.8909 7.99913V8.02753V8.02749ZM49.3515 8.69367C49.3607 8.61961 49.3564 8.49022 49.3564 8.49022C49.1561 8.67851 48.7431 8.81111 48.7431 8.81111C48.75 8.69973 48.7864 8.6047 48.7864 8.6047C48.6114 8.7089 48.5121 8.69688 48.5121 8.69688C48.5304 8.56709 48.6206 8.41327 48.6206 8.41327C48.4969 8.56709 48.3402 8.57719 48.3402 8.57719C48.3166 8.49942 48.3643 8.30792 48.3643 8.30792C48.3018 8.38601 48.1881 8.5855 47.8308 8.66327C47.4724 8.74022 47.3125 8.53984 47.3125 8.53984C47.6606 8.56396 47.9878 8.22498 47.9878 8.22498C47.8055 8.1541 47.7438 8.02235 47.7438 8.02235C47.8492 7.92935 47.9574 7.92935 47.9574 7.92935C47.7527 7.83606 47.7102 7.67621 47.7102 7.67621C47.9654 7.79964 48.7564 7.80881 49.1845 7.83089C49.6116 7.85215 50.0409 7.6923 50.0409 7.6923C49.9912 8.62881 49.3515 8.6937 49.3515 8.6937L49.3515 8.69367Z" fill="#171796"/>
<path d="M46.3771 22.9443L46.8004 23.6958L46.7295 23.8284C46.6018 24.0603 46.4623 24.3092 46.3831 24.4461C46.3234 24.3609 46.1584 24.1301 45.9428 23.8284L45.8659 23.7199C46.0613 23.4222 46.2757 23.0993 46.377 22.9443L46.3771 22.9443ZM47.577 22.9443C47.6671 23.0789 47.841 23.3422 48.0144 23.6045L48.0901 23.7199C47.8361 24.0733 47.6387 24.3519 47.5718 24.4461L47.1568 23.6958L47.5769 22.9443H47.577ZM49.6181 21.054L49.8629 21.232C49.7819 21.3477 48.9316 22.5402 48.2847 23.4466L48.2098 23.3333L47.6933 22.5525L47.5495 22.3347L47.0475 23.2359L46.9775 23.3685L46.4055 22.3346L45.6705 23.4466L45.5916 23.336C44.9556 22.446 44.169 21.3436 44.0912 21.2319L44.338 21.0539L43.5605 20.7571L43.5738 21.6036L43.8369 21.4153L45.4073 23.6156L45.4851 23.7258L45.2239 24.1208L44.9648 23.9477L44.9608 24.7809L45.7483 24.4692L45.4851 24.2938C45.5247 24.2353 45.5944 24.1279 45.6805 23.9982L45.7585 24.1087L46.4106 25.0209L46.9045 24.142L46.9785 24.0125L47.5445 25.0209L48.2754 23.9982L48.3492 24.1116C48.4009 24.1896 48.4425 24.2534 48.4709 24.2938L48.2065 24.4692L48.9943 24.7809L48.99 23.9477L48.73 24.1208L48.5446 23.8395L48.4697 23.7258L50.1179 21.4153L50.3813 21.6036L50.3965 20.7571L49.6179 21.0539L49.6181 21.054Z" fill="#171796"/>
<path d="M49.7107 13.0791C49.6591 13.2854 49.6266 13.565 49.8281 13.6359C50.4505 13.8365 51.1635 13.7048 51.3974 13.4312C51.4651 13.3535 51.4926 13.2542 51.4926 13.1428C51.4926 12.8825 51.3448 12.5516 51.1979 12.2284L51.0946 11.9947C51.0552 11.9014 51.0389 11.8165 51.0389 11.7395C51.0389 11.4792 51.2272 11.315 51.3253 11.2473C52.1972 10.6509 52.5809 10.1922 52.8036 9.79321L52.8432 9.71112C53.1821 9.16549 53.8321 8.95683 54.066 8.86383C54.0741 8.92958 54.0824 9.01452 54.0824 9.11298C54.0824 9.32453 54.0479 9.59087 53.9162 9.8225C53.8049 10.0179 53.6367 10.2214 53.4283 10.412L53.3503 10.4838L53.567 10.821L53.6843 10.7522C53.9334 10.6115 54.2818 10.4514 54.545 10.3652C54.4477 10.5779 54.2887 10.8839 54.1188 11.0378C53.9566 11.1856 53.8181 11.2849 53.6367 11.3213L53.5092 11.3466L53.6045 11.7536L53.7228 11.7191L53.8241 11.6907C53.9314 11.6494 54.1461 11.6411 54.3355 11.7283C54.2847 11.8397 54.1532 12.0312 53.8273 12.117L53.6835 12.1534L53.6987 12.266L53.734 12.5435L53.8554 12.5323C54.0115 12.518 54.1521 12.5352 54.2859 12.5848C54.4974 12.6649 54.5947 12.749 54.6624 12.8331C54.5358 12.9181 54.2948 13.0518 54.0336 13.0598C53.9495 13.0619 53.8617 13.0587 53.7736 13.0498L53.6631 13.0386L53.581 13.3695L53.7007 13.402C53.9282 13.4617 54.1562 13.571 54.302 13.9143C54.211 13.9568 54.0408 14.0096 53.7957 13.9599C53.6491 13.9295 53.5145 13.8871 53.3959 13.8314L53.3179 13.7949L53.0102 14.0865L53.2765 14.2162C53.3939 14.2719 53.4992 14.3224 53.5658 14.3853C53.5032 14.447 53.3787 14.5291 53.1701 14.5047C53.0455 14.4895 52.9249 14.4582 52.8148 14.4134L52.7255 14.377L52.528 14.6281L52.753 14.773C52.9361 14.8956 52.9766 15.0282 52.9766 15.1212C52.9766 15.1384 52.9746 15.1548 52.9717 15.17C52.7591 15.1809 52.5708 15.1132 52.4017 14.9602L52.3177 14.8832L52.0706 15.104L52.1535 15.1981C52.3266 15.3947 52.3974 15.5285 52.427 15.6083C52.2132 15.6043 51.9836 15.5061 51.7457 15.3147C51.6697 15.2538 51.618 15.1961 51.5723 15.1212L51.5178 15.0311L51.2203 15.1416L51.2464 15.251C51.2647 15.3259 51.2739 15.404 51.2739 15.4817C51.2739 15.5963 51.2547 15.7137 51.216 15.8331C51.1858 15.9304 51.1077 16.0489 51.0389 16.1379C50.9712 16.0529 50.8983 15.9436 50.8538 15.7958C50.8334 15.7269 50.8242 15.644 50.8242 15.5435C50.8242 15.5366 50.8242 15.5286 50.8242 15.5202L50.8262 15.3917H50.5054L50.4913 15.5202L50.4901 15.5375C50.4577 15.7866 50.39 16.0814 50.1357 16.3799C50.0083 16.5289 49.8565 16.5773 49.7512 16.5926C49.75 16.4852 49.7319 16.3647 49.7015 16.2828C49.6042 16.0217 49.4059 15.5679 49.1792 15.1376C49.1031 14.9927 49.0787 14.858 49.0787 14.7479C49.0787 14.6253 49.1083 14.534 49.1255 14.4884C49.1427 14.441 49.092 14.3761 49.0535 14.3469C49.017 14.3173 48.9361 14.274 48.9037 14.2961L48.8652 14.3345C48.7892 14.4227 48.7102 14.5685 48.691 14.6617C48.6689 14.7771 48.687 14.8873 48.7114 14.9746C48.7719 15.1012 48.8612 15.2814 48.9108 15.4201C48.9613 15.5598 48.9493 15.7794 48.9077 15.9132C48.8692 16.0378 48.6497 16.3274 48.6213 16.3638C48.594 16.4103 48.5696 16.458 48.5564 16.5016C48.6313 16.6555 48.6354 16.782 48.6133 16.875C48.5917 16.9643 48.5281 17.1141 48.4775 17.2275C48.373 17.4958 48.4035 17.5504 48.4035 17.5504C48.4683 17.6021 48.5685 17.6769 48.6041 17.7045C48.6041 17.7025 48.6213 17.7165 48.6213 17.7157C48.6213 17.7157 49.019 17.9657 49.1384 18.0619C49.2309 18.1367 49.3967 18.3038 49.494 18.4163L49.8361 18.6916C49.9322 18.7128 50.0183 18.7312 50.0791 18.7493C50.2795 18.8093 50.4264 18.9123 50.6187 19.1241L50.6267 19.135C50.6511 19.1786 50.6724 19.2039 50.6936 19.2415C50.7108 19.2628 50.7717 19.3417 50.8081 19.4247C50.8262 19.4611 50.8029 19.4995 50.7341 19.5107C50.6015 19.534 50.2795 19.4743 50.2017 19.524C50.1176 19.5797 50.1469 19.6537 50.1469 19.7266C50.1469 19.7266 50.0011 19.6385 49.909 19.6577C49.7796 19.685 49.7015 19.7447 49.6286 19.9562C49.5953 19.919 49.5546 19.8773 49.5537 19.8096C49.5334 19.7731 49.5101 19.7335 49.4889 19.6982C49.49 19.8876 49.3836 19.9818 49.3279 20.0091C49.2642 20.0415 48.9694 20.1621 48.7792 19.7679C48.7792 19.7679 49.1043 19.8753 49.1933 19.7183C49.2814 19.5605 49.1385 19.3326 49.0495 19.2668C48.933 19.1807 48.7355 19.1158 48.607 19.1383L48.601 19.1394C48.4451 19.1443 48.3479 19.0725 48.3479 19.0725L48.3378 19.0694C48.1223 19.0582 47.8884 18.8486 47.713 18.5651L47.6978 19.0025C47.7911 19.0473 47.9277 19.1535 48.0554 19.3782C48.188 19.6061 48.4796 19.7976 48.7083 19.9454C48.937 20.094 49.0131 20.3524 49.0131 20.3524C48.8613 20.3504 48.7256 20.3016 48.6042 20.2278C48.5686 20.2439 48.5474 20.2723 48.5321 20.3139C48.518 20.3492 48.5717 20.4474 48.6242 20.5314C48.8521 20.733 48.8704 20.9577 48.8704 20.9577C48.5473 20.9255 48.2974 20.7806 48.1019 20.5923L47.6858 20.3836C47.536 20.4344 47.3678 20.4537 47.1046 20.2086L47.0954 20.1993C47.0441 20.1517 47.0076 20.0992 46.9781 20.0455C46.9508 20.0992 46.9123 20.1517 46.8618 20.1993C46.5924 20.4545 46.4213 20.4353 46.2715 20.3836L45.8554 20.5923C45.6599 20.7806 45.4089 20.9255 45.0868 20.9577C45.0868 20.9577 45.1052 20.7329 45.3331 20.5314C45.3844 20.4474 45.4393 20.3492 45.426 20.3139C45.4099 20.2723 45.3876 20.2438 45.3531 20.2278C45.2326 20.3016 45.096 20.3504 44.9431 20.3524C44.9431 20.3524 45.0191 20.094 45.249 19.9454C45.4768 19.7976 45.7693 19.6061 45.8999 19.3782C46.0296 19.1535 46.1662 19.0473 46.2592 19.0025L46.2431 18.5651C46.0689 18.8487 45.835 19.0582 45.6183 19.0694L45.6083 19.0725C45.6083 19.0725 45.5121 19.1443 45.3552 19.1394L45.3503 19.1383C45.2217 19.1159 45.0231 19.1807 44.9066 19.2668C44.8185 19.3326 44.675 19.5605 44.7639 19.7183C44.8529 19.8753 45.1789 19.7679 45.1789 19.7679C44.9866 20.162 44.6931 20.0415 44.6293 20.0091C44.5737 19.9818 44.4672 19.8876 44.4692 19.6982C44.4471 19.7335 44.4227 19.7732 44.4035 19.8096C44.4015 19.8773 44.3619 19.9189 44.3274 19.9562C44.2546 19.7447 44.1768 19.685 44.0482 19.6577C43.956 19.6385 43.8091 19.7266 43.8091 19.7266C43.8091 19.6537 43.8395 19.5797 43.7546 19.524C43.6765 19.4743 43.3557 19.534 43.2219 19.5107C43.1542 19.4995 43.131 19.4611 43.1491 19.4247C43.1835 19.3417 43.2452 19.2628 43.2624 19.2415C43.2848 19.2039 43.3049 19.1786 43.3304 19.135L43.3373 19.1241C43.5308 18.9123 43.6765 18.8093 43.878 18.7493C43.9388 18.7312 44.025 18.7128 44.1199 18.6916L44.4623 18.4163C44.5613 18.3038 44.7264 18.1367 44.8176 18.0619C44.9382 17.9657 45.3351 17.7157 45.3351 17.7157C45.3351 17.7166 45.3531 17.7025 45.3531 17.7045C45.3896 17.6769 45.4877 17.6021 45.5518 17.5504C45.5518 17.5504 45.5839 17.4958 45.4789 17.2275C45.4281 17.1141 45.3652 16.9643 45.344 16.875C45.3219 16.782 45.3248 16.6555 45.3997 16.5016C45.3868 16.458 45.3632 16.4103 45.3351 16.3638C45.3075 16.3274 45.0869 16.0378 45.0484 15.9132C45.007 15.7794 44.9947 15.5598 45.0455 15.4201C45.0971 15.2814 45.1841 15.1012 45.2438 14.9746C45.2702 14.8874 45.2883 14.7772 45.2662 14.6617C45.2346 14.5392 45.1356 14.369 45.0524 14.2961C45.0211 14.274 44.9411 14.3173 44.9037 14.3469C44.8653 14.3761 44.8156 14.441 44.8309 14.4884C44.849 14.534 44.8785 14.6253 44.8785 14.7479C44.8785 14.8581 44.8541 14.9927 44.7792 15.1376C44.5513 15.5678 44.353 16.0217 44.2546 16.2828C44.2253 16.3647 44.2072 16.4852 44.2052 16.5926C44.1008 16.5773 43.949 16.5289 43.8215 16.3799C43.5673 16.0814 43.5004 15.7866 43.468 15.5375L43.466 15.5202L43.4539 15.3917H43.131L43.1319 15.5202C43.1319 15.5286 43.1319 15.5366 43.1319 15.5435C43.1319 15.644 43.1239 15.7269 43.1035 15.7958C43.0602 15.9436 42.9873 16.0529 42.9184 16.1379C42.8495 16.0489 42.7715 15.9304 42.741 15.8331C42.7026 15.7137 42.6834 15.5963 42.6834 15.4817C42.6834 15.404 42.6925 15.3259 42.7109 15.251L42.7361 15.1416L42.4394 15.0311L42.3849 15.1212C42.3393 15.1961 42.2887 15.2538 42.2127 15.3147C41.9716 15.5061 41.745 15.6043 41.5303 15.6083C41.5598 15.5285 41.6316 15.3947 41.8037 15.1981L41.8867 15.104L41.6408 14.8832L41.5556 14.9602C41.3856 15.1132 41.1983 15.1809 40.9856 15.17C40.9827 15.1548 40.9816 15.1384 40.9816 15.1212C40.9816 15.0282 41.02 14.8956 41.2034 14.773L41.4281 14.6281L41.2319 14.377L41.1426 14.4134C41.0324 14.4582 40.9127 14.4895 40.7873 14.5047C40.5787 14.5291 40.4541 14.447 40.3924 14.3853C40.4581 14.3224 40.5634 14.2719 40.6808 14.2162L40.9471 14.0865L40.6395 13.7949L40.5614 13.8314C40.4429 13.8871 40.3083 13.9295 40.1605 13.9599C39.9166 14.0096 39.7464 13.9568 39.6574 13.9143C39.802 13.571 40.029 13.4617 40.2546 13.402L40.3763 13.3695L40.2931 13.0386L40.1848 13.0498C40.0947 13.0587 40.0075 13.0619 39.9237 13.0598C39.6622 13.0518 39.4224 12.9181 39.2949 12.8331C39.3627 12.749 39.46 12.6649 39.6726 12.5848C39.806 12.5351 39.9458 12.518 40.0996 12.5323L40.2233 12.5435L40.2738 12.1535L40.1301 12.117C39.8052 12.0312 39.6734 11.8397 39.6218 11.7284C39.8112 11.6411 40.0259 11.6494 40.1332 11.6908L40.2345 11.7192L40.3527 11.7536L40.4492 11.3466L40.3195 11.3214C40.1384 11.2849 40.0006 11.1856 39.8385 11.0378C39.6695 10.884 39.5096 10.578 39.4123 10.3653C39.6755 10.4514 40.0248 10.6115 40.2739 10.7522L40.3904 10.8211L40.6071 10.4838L40.527 10.4121C40.3215 10.2215 40.1533 10.018 40.0411 9.82253C39.9094 9.59087 39.8761 9.32456 39.8761 9.11302C39.8761 9.01456 39.8842 8.92961 39.8914 8.86387C40.1261 8.95687 40.7761 9.16553 41.1142 9.71116L41.1538 9.79325C41.3765 10.1922 41.7602 10.6509 42.6318 11.2473C42.7302 11.3151 42.9184 11.4792 42.9184 11.7396C42.9184 11.8165 42.9033 11.9014 42.8628 11.9947L42.7595 12.2284C42.6137 12.5516 42.4639 12.8825 42.4639 13.1429C42.4639 13.2542 42.4923 13.3535 42.56 13.4313C42.7939 13.7048 43.5056 13.8366 44.1293 13.6359C44.3307 13.5651 44.2983 13.2855 44.2466 13.0791C44.2265 12.9879 44.1385 12.7642 44.0939 12.5728C44.0919 12.5668 44.0888 12.5616 44.0876 12.5556C44.0079 12.3328 44.0331 11.9864 44.1849 11.8639V11.865C44.2466 11.7941 44.3804 11.6787 44.5859 11.6615L44.6263 11.6584C44.7701 11.6524 45.2491 11.5826 45.485 10.9204L45.4838 10.8909C45.4746 10.8667 45.4606 10.8403 45.4405 10.809L45.3056 10.6033C45.2551 10.5103 45.0861 10.2014 45.0312 9.91493C44.9928 9.70916 44.9107 9.58773 44.8157 9.50878C44.7032 9.41667 44.4797 9.34978 44.4797 9.34978C44.5454 9.33166 44.68 9.30009 44.7296 9.29609C44.7336 9.29809 44.7649 9.28889 44.7672 9.29089L44.8886 9.26163C44.7468 9.15229 44.5726 8.98405 44.4684 8.83141C44.5078 8.84261 44.6223 8.87589 44.7589 8.93158C44.7437 8.88395 44.7296 8.77572 44.7296 8.77572C44.7753 8.80301 44.9119 8.87792 45.0284 8.92041C45.0284 8.92041 45.2539 8.99529 45.3248 9.01452C45.3248 9.01452 45.3159 8.88998 45.3096 8.83144C45.3736 8.84664 45.4362 8.86269 45.5111 8.87478C45.5111 8.87478 45.5538 8.8811 45.5559 8.88199L45.6388 8.89719C45.6043 8.8151 45.5923 8.77261 45.5538 8.7201C45.5863 8.73219 45.6388 8.73933 45.6905 8.75257C45.7238 8.69053 45.7229 8.6561 45.7229 8.6561C45.7917 8.73822 46.1258 8.81828 46.2088 8.8263C46.2897 8.83433 46.4074 8.85559 46.4811 8.90525C46.6401 9.0097 46.791 9.23848 46.8496 9.51289L46.8556 9.56051L46.8728 9.68594L46.9773 10.3757L46.9802 10.3765L47.0846 9.68508L47.1027 9.56051L47.1087 9.51171C47.1664 9.23845 47.3174 9.00967 47.4764 8.90521C47.5512 8.85559 47.6678 8.83433 47.7476 8.82627C47.8317 8.81824 48.1657 8.73819 48.2358 8.65607C48.2358 8.65607 48.2337 8.69053 48.267 8.75139C48.3199 8.73929 48.3712 8.73216 48.4037 8.7201C48.3652 8.77179 48.3552 8.81428 48.3199 8.89719L48.4028 8.88199C48.4037 8.8811 48.4473 8.87393 48.4473 8.87393C48.5213 8.86191 48.5839 8.84667 48.6488 8.83148C48.6427 8.89002 48.6335 9.01455 48.6335 9.01455C48.7036 8.99533 48.9291 8.92045 48.9291 8.92045C49.0465 8.87796 49.1823 8.80308 49.2268 8.77575C49.2268 8.77575 49.2138 8.88399 49.1986 8.93161C49.3352 8.87593 49.4497 8.8415 49.4902 8.83144C49.3857 8.98413 49.2107 9.15233 49.0689 9.26167L49.1903 9.29006C49.1935 9.28892 49.2247 9.29727 49.2268 9.2952C49.2776 9.29923 49.4122 9.33048 49.4779 9.34975C49.4779 9.34975 49.2543 9.41546 49.1418 9.50875C49.0477 9.58769 48.9648 9.70909 48.9263 9.9149C48.8726 10.2014 48.7036 10.5102 48.6528 10.6032L48.6479 10.6023C48.6083 10.6692 48.5647 10.7361 48.517 10.809C48.4969 10.8403 48.4817 10.8667 48.4737 10.8908L48.4717 10.9204C48.7096 11.5826 49.1863 11.6523 49.3312 11.6583L49.3705 11.6615C49.576 11.6787 49.7097 11.7941 49.7726 11.865V11.8638C49.9236 11.9864 49.9488 12.3328 49.8699 12.5556C49.8676 12.5616 49.8656 12.5668 49.8627 12.5728C49.8231 12.7438 49.7473 12.9425 49.7189 13.0467L49.7109 13.0791L49.7107 13.0791Z" fill="#171796"/>
<path d="M0 0H30.0356V30H0V0Z" fill="#171796"/>
<path d="M3.82528 17.4017C4.0652 17.4017 4.24833 17.5343 4.38522 17.8066C4.52587 18.0862 4.59671 18.5345 4.59671 19.1402C4.59671 19.461 4.55223 19.7114 4.46302 19.8824C4.38005 20.0435 4.28278 20.1255 4.17456 20.1255C4.06926 20.1255 3.98116 20.0555 3.90422 19.9109C3.82414 19.759 3.7828 19.536 3.7828 19.2487C3.7828 19.2487 3.7828 17.4969 3.7828 17.4017C3.80406 17.4017 3.82528 17.4017 3.82528 17.4017V17.4017ZM5.36211 17.4502C5.05014 16.798 4.53497 16.468 3.82814 16.468H2.75195V22.7276H3.7828C3.7828 22.7276 3.7828 21.0833 3.7828 20.9082C3.9823 21.0833 4.19981 21.1874 4.43891 21.1874C4.78098 21.1874 5.06655 21.0064 5.28809 20.6487C5.53432 20.2469 5.65973 19.6516 5.65973 18.8798C5.65973 18.3422 5.55957 17.8603 5.36214 17.4501L5.36211 17.4502Z" fill="white"/>
<path d="M27.0348 16.1572L26.9538 16.2424C26.9538 16.2424 24.7943 18.4973 24.6344 18.6655C24.6344 18.4416 24.6344 16.458 24.6344 16.458H23.6187V22.7317H24.6344C24.6344 22.7317 24.6344 20.1944 24.6344 20.1548C24.6596 20.1284 25.9585 18.7524 26.1043 18.5974C26.1124 18.8233 26.2513 22.7317 26.2513 22.7317H27.2847L27.0348 16.1572ZM22.1144 16.2424C22.1144 16.2424 19.9548 18.4973 19.7949 18.6655C19.7949 18.4416 19.7949 16.458 19.7949 16.458H18.7804V22.7317H19.7949C19.7949 22.7317 19.7949 20.1944 19.7949 20.1548C19.8202 20.1284 21.1191 18.7524 21.2649 18.5974C21.2729 18.8233 21.4118 22.7317 21.4118 22.7317H22.4464L22.1953 16.1572L22.1143 16.2424H22.1144ZM16.2432 21.1806C15.9131 20.7777 15.7453 20.249 15.7453 19.6089C15.7453 18.9528 15.9051 18.4244 16.22 18.0386C16.5632 17.6164 17.0695 17.4017 17.7235 17.4017H17.774V16.307H17.7235C16.7029 16.307 15.9143 16.627 15.3817 17.2567C14.897 17.827 14.6507 18.6206 14.6507 19.618C14.6507 20.581 14.9182 21.3729 15.4445 21.9714C15.9973 22.6011 16.7698 22.92 17.7387 22.92H17.7892V21.8255H17.7387C17.0999 21.8255 16.5968 21.6089 16.2432 21.1806L16.2432 21.1806ZM8.72411 21.22C8.58721 21.6322 8.38778 21.8417 8.12978 21.8417C7.88266 21.8417 7.68719 21.629 7.55147 21.2108C7.41 20.7754 7.33795 20.2226 7.33795 19.5685C7.33795 18.8971 7.40801 18.3443 7.54747 17.9262C7.68123 17.5252 7.87663 17.3217 8.12978 17.3217C8.41617 17.3217 8.62166 17.5223 8.75425 17.9354C8.87591 18.3079 8.93762 18.8518 8.93762 19.5513C8.93762 20.2278 8.86589 20.7886 8.72411 21.2201V21.22ZM9.49036 17.2123C9.16748 16.6118 8.70977 16.307 8.1306 16.307C7.5819 16.307 7.14566 16.613 6.83369 17.2174C6.52608 17.8107 6.37109 18.5986 6.37109 19.5604C6.37109 20.5558 6.52001 21.3598 6.81361 21.951C7.1132 22.5515 7.55571 22.8563 8.1306 22.8563C8.71576 22.8563 9.17871 22.5374 9.50555 21.9077C9.81235 21.3173 9.96819 20.5245 9.96819 19.5512C9.96819 18.5894 9.80717 17.8027 9.49036 17.2123ZM12.3545 21.1806C12.0244 20.7777 11.8574 20.2502 11.8574 19.6089C11.8574 18.9528 12.0175 18.4244 12.3324 18.0386C12.6745 17.6164 13.1807 17.4017 13.8357 17.4017H13.8853V16.307H13.8357C12.8142 16.307 12.0265 16.627 11.493 17.2567C11.008 17.827 10.7631 18.6206 10.7631 19.618C10.7631 20.581 11.0291 21.3729 11.5558 21.9714C12.1097 22.6011 12.8811 22.92 13.8508 22.92H13.9005V21.8255H13.8508C13.2112 21.8255 12.7077 21.6089 12.3545 21.1806V21.1806Z" fill="white"/>
<path d="M2.75977 7.25482V13.565H3.92092C3.92092 13.565 3.92092 8.44969 3.92092 8.30389H5.35872C5.35872 8.44969 5.35872 13.565 5.35872 13.565H6.51905V7.25482H2.75977Z" fill="white"/>
<path d="M10.0849 12.6284C9.81056 12.6284 9.60393 12.427 9.45212 12.0128C9.29432 11.5805 9.21424 11.0306 9.21424 10.3805C9.21424 9.71429 9.29317 9.16438 9.44812 8.74934C9.5959 8.35236 9.80453 8.15894 10.0849 8.15894C10.3989 8.15894 10.6236 8.3544 10.7694 8.75651C10.904 9.1271 10.9729 9.66784 10.9729 10.3633C10.9729 11.0367 10.892 11.5938 10.7338 12.0209C10.5831 12.4301 10.3705 12.6285 10.0849 12.6285V12.6284ZM11.6126 8.00907C11.2493 7.40258 10.7338 7.09375 10.0818 7.09375C9.46417 7.09375 8.97229 7.40372 8.61988 8.01425C8.27577 8.6115 8.10156 9.40453 8.10156 10.3724C8.10156 11.3738 8.26857 12.183 8.59862 12.7763C8.93584 13.3847 9.43489 13.6936 10.0818 13.6936C10.741 13.6936 11.2613 13.3707 11.6309 12.7346C11.975 12.1405 12.1492 11.3426 12.1492 10.3633C12.1492 9.39629 11.969 8.60351 11.6126 8.00907Z" fill="white"/>
<path d="M18.4787 7.25482V8.30389C18.4787 8.30389 19.3141 8.30389 19.4415 8.30389C19.4415 8.44969 19.4415 13.565 19.4415 13.565H20.6018C20.6018 13.565 20.6018 8.44969 20.6018 8.30389C20.7304 8.30389 21.5808 8.30389 21.5808 8.30389V7.25482H18.4787ZM15.9294 9.45312C15.81 9.45312 15.2977 9.45312 15.2977 9.45312C15.0375 9.45312 14.8431 9.39341 14.7206 9.27686C14.6316 9.19392 14.588 9.08258 14.588 8.93764V7.25482H13.4277V9.05704C13.4277 9.47121 13.5919 9.82256 13.9159 10.1012C14.2348 10.3765 14.6276 10.5174 15.0822 10.5174C15.0822 10.5174 15.8029 10.5174 15.9294 10.5174C15.9294 10.6601 15.9294 13.565 15.9294 13.565H17.0909V7.25482H15.9294C15.9294 7.25482 15.9294 9.31221 15.9294 9.45312H15.9294Z" fill="white"/>
<path d="M24.1738 9.43682C24.1766 9.30822 24.199 8.42536 24.2019 8.30392C24.3084 8.30392 24.622 8.30392 24.622 8.30392C24.9219 8.30392 25.1274 8.39403 25.252 8.57829C25.3522 8.73215 25.4239 9.02896 25.4686 9.43682H24.1738ZM26.5621 8.95201C26.5621 8.34755 26.3755 7.8906 26.007 7.60414C25.7134 7.37223 25.3125 7.25482 24.8146 7.25482H23.0944L22.8809 13.565H24.0409C24.0409 13.565 24.1482 10.6236 24.1534 10.485C24.28 10.485 25.4847 10.4858 25.6032 10.4858C25.6165 10.6144 25.9281 13.5662 25.9281 13.5662L27.0976 13.5651L26.562 8.95201H26.5621Z" fill="white"/>
</g>
<defs>
<clipPath id="clip0_322_59751">
<rect width="62" height="30" fill="white"/>
</clipPath>
</defs>
</svg>
