<svg width="80" height="13" viewBox="0 0 80 13" fill="none" xmlns="http://www.w3.org/2000/svg">
<path d="M5.35481 0.0856009C6.84004 -0.149612 8.42353 0.0904763 9.71217 0.923094C10.9261 1.71042 11.9338 2.88952 12.433 4.29593C12.6948 5.03114 12.796 5.81847 12.796 6.59984C12.796 8.49932 12.7969 10.3988 12.796 12.2973C12.8224 12.6417 12.5351 12.9558 12.2022 12.9371C10.1535 12.9361 8.10485 12.9498 6.05626 12.9302C3.22296 12.8525 0.57199 10.5259 0.121975 7.59498C0.080345 7.19638 0 6.80071 0 6.39919C0.0728517 5.6059 0.168287 4.80091 0.479364 4.06375C1.32455 2.00479 3.21161 0.407489 5.35481 0.0857092V0.0856009ZM5.71501 3.30979C4.64284 3.53817 3.72106 4.40514 3.3799 5.48586C3.00544 6.659 3.34681 8.04872 4.25058 8.86064C4.97858 9.56141 6.02983 9.82414 6.99699 9.65686C7.86111 9.5211 8.63917 8.96899 9.13446 8.22683C9.61569 7.50148 9.73767 6.55867 9.54856 5.70926C9.36706 4.90915 8.83857 4.23395 8.19571 3.77631C7.47812 3.26851 6.55738 3.12874 5.71501 3.30979ZM37.1069 0.560036C37.5125 0.46166 37.9833 0.596439 38.2329 0.95668C38.404 1.18799 38.4456 1.4881 38.4419 1.7725C38.4361 5.15411 38.4465 8.5368 38.4361 11.9194C38.4475 12.5178 37.9238 13.0325 37.3508 12.994C36.7893 13.0128 36.2741 12.4971 36.292 11.9084C36.2873 8.49834 36.2892 5.08716 36.2901 1.67597C36.257 1.15733 36.6162 0.660362 37.1069 0.559927V0.560036ZM25.5627 1.14076C26.2547 0.962639 27.0545 1.42711 27.1916 2.17413C27.3608 2.92798 26.7321 3.67891 26.0127 3.7164C25.2951 3.83937 24.5323 3.23514 24.5227 2.46254C24.4905 1.82873 24.9765 1.2569 25.5627 1.14076ZM63.1091 1.15842C63.7765 0.95668 64.5773 1.32472 64.7863 2.03827C65.0633 2.82268 64.41 3.68487 63.6395 3.7203C62.956 3.81282 62.2176 3.28725 62.1609 2.54813C62.0843 1.9192 62.5343 1.31595 63.1091 1.15842ZM16.4973 2.40534C16.7752 2.16525 17.1553 2.16124 17.4985 2.16124C18.4117 2.16817 19.326 2.15138 20.2391 2.17012C21.2498 2.19179 22.2964 2.54218 23.0082 3.31672C24.1418 4.53016 24.1323 6.68164 22.9931 7.88826C22.3068 8.6303 21.315 8.99943 20.3384 9.03778C19.6454 9.05848 18.9515 9.03486 18.2585 9.05154C18.2444 10.0387 18.2736 11.0267 18.2434 12.0139C18.2094 12.6388 17.5855 13.0974 17.0068 12.9804C16.5066 12.9203 16.0973 12.443 16.1068 11.9174C16.103 9.06032 16.1058 6.20331 16.1049 3.34619C16.0917 2.99288 16.2155 2.61986 16.4973 2.40534ZM18.2642 4.09419C18.2519 5.11283 18.2472 6.1305 18.2718 7.14817C18.8646 7.15207 19.4564 7.15207 20.0492 7.15012C20.5087 7.15109 21.0002 7.00451 21.3104 6.63441C21.7245 6.1227 21.7594 5.33526 21.4352 4.76549C21.1657 4.31077 20.6325 4.09332 20.1362 4.08932C19.5123 4.08737 18.8883 4.08043 18.2643 4.09419H18.2642ZM44.9792 3.4437C44.8762 2.74293 45.467 2.09829 46.1421 2.16427C47.1186 2.16232 48.0962 2.15539 49.0728 2.16828C50.0872 2.18887 51.146 2.51964 51.8646 3.29614C53.0114 4.49788 53.0151 6.64134 51.8967 7.86378C51.1943 8.62944 50.1733 9.01037 49.1702 9.03984C48.4942 9.05165 47.8192 9.04472 47.1442 9.04374C47.1102 10.0279 47.1537 11.0141 47.1215 11.9983C47.1026 12.5691 46.5817 13.0218 46.0448 12.9952C45.4813 13.015 44.967 12.4983 44.985 11.9077C44.9746 9.08599 44.9859 6.26441 44.9794 3.4437H44.9792ZM47.1357 4.09224C47.129 5.10785 47.1329 6.12454 47.1338 7.14026C47.7152 7.16095 48.2975 7.14709 48.8799 7.15012C49.3441 7.15803 49.8451 7.02618 50.1675 6.65705C50.5816 6.17676 50.6298 5.42876 50.366 4.85985C50.1118 4.33233 49.519 4.08238 48.9763 4.08823C48.3627 4.08726 47.7492 4.08325 47.1357 4.09213V4.09224ZM75.3804 3.08931C75.8106 2.42701 76.9242 2.50176 77.2428 3.24186C77.43 3.74381 77.3147 4.29788 77.3543 4.82345C77.8875 4.83818 78.4226 4.80091 78.9549 4.84512C79.3652 4.88445 79.7102 5.27622 79.6989 5.70916C79.7415 6.17276 79.3813 6.61956 78.9341 6.64903C78.4074 6.68544 77.8799 6.65293 77.3543 6.66669C77.3467 7.7602 77.3449 8.85458 77.3543 9.94797C77.3411 10.3968 77.6115 10.8496 78.0454 10.9548C78.5417 11.1565 79.1014 10.9026 79.5817 11.1526C80.166 11.443 80.1206 12.4479 79.5553 12.7381C79.0788 12.9989 78.5219 13.0078 77.9973 12.9861C77.2164 12.9369 76.391 12.6967 75.8503 12.0728C75.3945 11.5512 75.2083 10.8308 75.2007 10.1389C75.1922 8.98242 75.2045 7.82705 75.1942 6.67059C74.8434 6.65976 74.4492 6.70602 74.1552 6.46398C73.7213 6.13429 73.7147 5.37351 74.1429 5.03494C74.4351 4.78098 74.8378 4.83613 75.1923 4.81836C75.2556 4.24652 75.0571 3.6009 75.3805 3.0892L75.3804 3.08931ZM25.5711 4.6916C26.2027 4.48098 26.9608 4.99279 26.9364 5.70623C26.9468 7.77407 26.9449 9.84375 26.9383 11.9115C26.9552 12.4518 26.5232 12.9242 26.0174 12.9852C25.4076 13.0955 24.7771 12.5728 24.796 11.9173C24.7828 9.94797 24.796 7.97862 24.7894 6.00927C24.7186 5.44729 25.0022 4.81446 25.5713 4.69149L25.5711 4.6916ZM31.254 4.69647C32.5085 4.51348 33.8699 4.88347 34.7794 5.82736C35.0583 6.13841 35.3609 6.53495 35.2644 6.99064C35.1727 7.52206 34.6196 7.87147 34.1213 7.75728C33.7337 7.71892 33.5418 7.32824 33.2582 7.10678C32.4177 6.39323 31.0281 6.48771 30.3332 7.37341C29.7546 8.10668 29.713 9.22468 30.179 10.0298C30.491 10.573 31.063 10.9205 31.6643 10.9795C32.3685 11.0877 33.0833 10.7669 33.556 10.2266C33.815 9.89207 34.2679 9.76509 34.6565 9.91168C35.2105 10.0917 35.4809 10.8742 35.1132 11.3603C34.2169 12.7904 32.38 13.253 30.8494 12.87C29.5409 12.5581 28.3687 11.5611 27.9196 10.2285C27.5045 9.07397 27.6331 7.72759 28.2476 6.67558C28.8981 5.59301 30.0391 4.85682 31.254 4.69636V4.69647ZM41.4936 5.19149C41.7214 4.93461 41.9957 4.66993 42.3529 4.65909C42.7869 4.60687 43.2586 4.87361 43.3835 5.32443C43.5092 5.69843 43.3608 6.11468 43.0914 6.37752C42.4219 7.07135 41.7433 7.75543 41.0758 8.45121C41.8301 9.4276 42.6073 10.3851 43.3617 11.3604C43.7314 11.7906 43.6321 12.5365 43.1557 12.8358C42.7501 13.1035 42.1602 13.0355 41.853 12.6389C40.9889 11.5691 40.1333 10.4924 39.2692 9.42457C39.0528 9.14602 38.8069 8.84786 38.7899 8.47288C38.7804 8.14514 38.9714 7.85966 39.1822 7.63636C39.9508 6.81946 40.727 6.01046 41.4937 5.1916L41.4936 5.19149ZM56.4035 4.71121C57.6249 4.51142 58.9457 4.81359 59.91 5.63927C60.6399 6.24556 61.1682 7.12043 61.3224 8.08404C61.5123 9.15187 61.2703 10.2954 60.6502 11.1704C59.924 12.2196 58.7272 12.8829 57.4907 12.9607C56.1435 13.1024 54.7481 12.5335 53.8585 11.4687C53.1684 10.6568 52.8611 9.54071 52.9291 8.46996C52.9888 7.5044 53.4312 6.58912 54.0816 5.90905C54.7028 5.25856 55.5405 4.86191 56.4035 4.71131V4.71121ZM56.4735 6.74448C55.2179 7.11848 54.7424 8.84374 55.3834 9.96076C55.9988 11.1526 57.7611 11.3219 58.626 10.3407C59.442 9.45794 59.3596 7.85468 58.4276 7.09497C57.8924 6.62942 57.1277 6.52119 56.4735 6.74459V6.74448ZM63.2009 4.69149C63.8343 4.48184 64.585 4.98867 64.5699 5.70125C64.5775 7.77493 64.5765 9.8496 64.5699 11.9223C64.5803 12.5768 63.9469 13.0974 63.3381 12.9842C62.8304 12.9271 62.4163 12.4468 62.4267 11.9144C62.423 9.84461 62.42 7.77396 62.4276 5.70417C62.423 5.23277 62.7614 4.79571 63.201 4.69149H63.2009ZM66.0769 5.81241C66.0258 5.2396 66.4721 4.69636 67.0223 4.6579C67.53 4.58509 68.0102 4.95216 68.1567 5.45119C68.9877 4.72789 70.1524 4.49658 71.1981 4.74945C71.9118 4.92269 72.5622 5.39897 72.9159 6.07319C73.2194 6.6214 73.3291 7.26009 73.3291 7.88707C73.3348 9.19694 73.3309 10.5069 73.3319 11.8169C73.3404 12.1673 73.2222 12.5384 72.9471 12.7568C72.4971 13.1337 71.7549 13.055 71.4089 12.5659C71.2454 12.3543 71.1952 12.0767 71.1981 11.811C71.1952 10.5975 71.2009 9.38307 71.1962 8.16963C71.2047 7.68338 71.0128 7.17656 70.629 6.88522C70.0665 6.47579 69.2477 6.50927 68.7192 6.96594C68.4101 7.2395 68.239 7.6628 68.2305 8.08198C68.2134 9.38806 68.2437 10.696 68.2154 12.0019C68.1964 12.618 67.5952 13.0787 67.0242 12.9871C66.5089 12.9438 66.0655 12.4636 66.0825 11.9183C66.0674 9.88297 66.0777 7.84774 66.0769 5.81241Z" fill="#3E3E3C"/>
<path d="M6.06931 5.04006C6.89555 4.80484 7.84376 5.48101 7.8599 6.38936C7.93264 7.21407 7.2161 7.95915 6.43325 7.93943C5.70151 7.97681 5.00578 7.35481 4.95936 6.58915C4.89036 5.8756 5.40282 5.1887 6.06931 5.04006Z" fill="#D66544"/>
</svg>
