<svg>
    <symbol id="telegram-icon" viewBox="0 0 17 14" fill="none" xmlns="http://www.w3.org/2000/svg">
        <path d="M6.67066 9.22694L6.38945 13.1357C6.79179 13.1357 6.96604 12.9649 7.17501 12.7598L9.06134 10.9783L12.97 13.807C13.6869 14.2018 14.1919 13.9939 14.3853 13.1553L16.951 1.27498L16.9517 1.27428C17.179 0.227083 16.5684 -0.182415 15.87 0.0744835L0.789228 5.78015C-0.240005 6.17495 -0.224421 6.74195 0.614266 6.99885L4.46982 8.18394L13.4255 2.64627C13.847 2.37047 14.2302 2.52307 13.915 2.79887L6.67066 9.22694Z" fill="white"/>
    </symbol>
    <symbol id="instagram-icon" viewBox="0 0 17 18" fill="none" xmlns="http://www.w3.org/2000/svg">
        <path d="M16.9568 4.99902C16.917 4.09557 16.7709 3.47445 16.5616 2.93625C16.3457 2.36496 16.0135 1.85348 15.5783 1.42829C15.1531 0.996482 14.6383 0.660948 14.0736 0.448417C13.5323 0.23913 12.9144 0.0930309 12.011 0.0531976C11.1008 0.00999076 10.8118 0 8.50331 0C6.19479 0 5.90584 0.00999076 4.99902 0.0498241C4.09556 0.0896574 3.47445 0.235886 2.93638 0.445043C2.36496 0.660948 1.85348 0.993108 1.42829 1.42829C0.996481 1.85348 0.661077 2.36833 0.448417 2.933C0.23913 3.47445 0.0930309 4.09219 0.0531976 4.99564C0.00999076 5.90584 0 6.19479 0 8.50331C0 10.8118 0.00999076 11.1008 0.0498241 12.0076C0.0896574 12.9111 0.235886 13.5322 0.445173 14.0704C0.661077 14.6417 0.996481 15.1531 1.42829 15.5783C1.85348 16.0101 2.36833 16.3457 2.933 16.5582C3.47445 16.7675 4.09219 16.9136 4.99577 16.9534C5.90247 16.9934 6.19155 17.0032 8.50006 17.0032C10.8086 17.0032 11.0975 16.9934 12.0044 16.9534C12.9078 16.9136 13.5289 16.7675 14.067 16.5582C15.2097 16.1164 16.1132 15.213 16.555 14.0704C16.7641 13.5289 16.9103 12.9111 16.9502 12.0076C16.99 11.1008 17 10.8118 17 8.50331C17 6.19479 16.9966 5.90584 16.9568 4.99902ZM15.4256 11.9412C15.389 12.7716 15.2495 13.22 15.1333 13.5189C14.8476 14.2597 14.2597 14.8476 13.5189 15.1333C13.22 15.2495 12.7683 15.389 11.9412 15.4255C11.0443 15.4654 10.7754 15.4753 8.50668 15.4753C6.238 15.4753 5.96565 15.4654 5.07206 15.4255C4.24166 15.389 3.79325 15.2495 3.4943 15.1333C3.12568 14.997 2.79015 14.7811 2.5178 14.4988C2.23547 14.2231 2.01956 13.8909 1.88332 13.5223C1.76707 13.2234 1.62759 12.7716 1.59113 11.9445C1.55116 11.0477 1.5413 10.7786 1.5413 8.50993C1.5413 6.24124 1.55116 5.9689 1.59113 5.07544C1.62759 4.24504 1.76707 3.79662 1.88332 3.49768C2.01956 3.12893 2.23547 2.79352 2.52118 2.52105C2.79677 2.23871 3.12893 2.02281 3.49768 1.8867C3.79662 1.77044 4.24841 1.63096 5.07544 1.59437C5.97227 1.55454 6.24137 1.54455 8.50993 1.54455C10.782 1.54455 11.051 1.55454 11.9445 1.59437C12.7749 1.63096 13.2234 1.77044 13.5223 1.8867C13.8909 2.02281 14.2265 2.23871 14.4988 2.52105C14.7811 2.79677 14.997 3.12893 15.1333 3.49768C15.2495 3.79662 15.389 4.24828 15.4256 5.07544C15.4654 5.97227 15.4754 6.24124 15.4754 8.50993C15.4754 10.7786 15.4654 11.0443 15.4256 11.9412Z" fill="white"/>
        <path d="M8.50286 4.1355C6.09145 4.1355 4.13495 6.09187 4.13495 8.50341C4.13495 10.9149 6.09145 12.8713 8.50286 12.8713C10.9144 12.8713 12.8708 10.9149 12.8708 8.50341C12.8708 6.09187 10.9144 4.1355 8.50286 4.1355ZM8.50286 11.3368C6.93846 11.3368 5.6695 10.0679 5.6695 8.50341C5.6695 6.93888 6.93846 5.67005 8.50286 5.67005C10.0674 5.67005 11.3362 6.93888 11.3362 8.50341C11.3362 10.0679 10.0674 11.3368 8.50286 11.3368Z" fill="white"/>
        <path d="M14.0633 3.96282C14.0633 4.52594 13.6067 4.98253 13.0435 4.98253C12.4804 4.98253 12.0238 4.52594 12.0238 3.96282C12.0238 3.39958 12.4804 2.94312 13.0435 2.94312C13.6067 2.94312 14.0633 3.39958 14.0633 3.96282Z" fill="white"/>
    </symbol>
    <symbol id="youtube-icon" viewBox="0 0 17 12" fill="" xmlns="http://www.w3.org/2000/svg">
        <path d="M16.0624 1.79678C15.8734 1.09421 15.3194 0.540411 14.617 0.351223C13.3336 0 8.2 0 8.2 0C8.2 0 3.06654 0 1.78314 0.337835C1.09421 0.526897 0.526772 1.09433 0.33771 1.79678C0 3.08005 0 5.74144 0 5.74144C0 5.74144 0 8.41622 0.33771 9.6861C0.526897 10.3885 1.0807 10.9425 1.78327 11.1317C3.08005 11.4829 8.20013 11.4829 8.20013 11.4829C8.20013 11.4829 13.3336 11.4829 14.617 11.145C15.3196 10.956 15.8734 10.4021 16.0625 9.69961C16.4003 8.41622 16.4003 5.75495 16.4003 5.75495C16.4003 5.75495 16.4138 3.08005 16.0624 1.79678Z" fill="white"/>
        <path d="M6.56551 8.20011L10.8344 5.74141L6.56551 3.28271V8.20011Z" fill="#00AA2E"/>
    </symbol>
    <symbol id="youtube-icon-grey" viewBox="0 0 17 12" fill="" xmlns="http://www.w3.org/2000/svg">
        <path d="M16.0624 1.79678C15.8734 1.09421 15.3194 0.540411 14.617 0.351223C13.3336 0 8.2 0 8.2 0C8.2 0 3.06654 0 1.78314 0.337835C1.09421 0.526897 0.526772 1.09433 0.33771 1.79678C0 3.08005 0 5.74144 0 5.74144C0 5.74144 0 8.41622 0.33771 9.6861C0.526897 10.3885 1.0807 10.9425 1.78327 11.1317C3.08005 11.4829 8.20013 11.4829 8.20013 11.4829C8.20013 11.4829 13.3336 11.4829 14.617 11.145C15.3196 10.956 15.8734 10.4021 16.0625 9.69961C16.4003 8.41622 16.4003 5.75495 16.4003 5.75495C16.4003 5.75495 16.4138 3.08005 16.0624 1.79678Z" fill="white"/>
        <path d="M6.56551 8.20011L10.8344 5.74141L6.56551 3.28271V8.20011Z" fill="#8F9295"/>
    </symbol>
    <symbol id="vk-icon" viewBox="0 0 18 10" fill="none" xmlns="http://www.w3.org/2000/svg">
        <path d="M17.8396 8.91937C17.7912 8.8405 17.4919 8.20732 16.0518 6.90591C14.5442 5.54315 14.7467 5.76443 16.5626 3.40809C17.6685 1.97303 18.1107 1.09665 17.9723 0.722004C17.8407 0.364883 17.0273 0.459093 17.0273 0.459093L14.3226 0.474429C14.3226 0.474429 14.1223 0.448138 13.9727 0.53468C13.8275 0.620126 13.7341 0.81731 13.7341 0.81731C13.7341 0.81731 13.3055 1.92811 12.7339 2.8724C11.529 4.86505 11.0463 4.97022 10.8494 4.84643C10.3915 4.55832 10.5063 3.68743 10.5063 3.06959C10.5063 1.13828 10.8067 0.333114 9.9201 0.124976C9.62533 0.0559615 9.40932 0.00995199 8.65664 0.00228373C7.69132 -0.00757546 6.87338 0.00557012 6.41097 0.225759C6.1027 0.372551 5.86531 0.700095 6.01044 0.718718C6.18933 0.741723 6.59436 0.824978 6.80925 1.1098C7.08715 1.47678 7.07702 2.30276 7.07702 2.30276C7.07702 2.30276 7.23678 4.57585 6.70462 4.85848C6.33897 5.05238 5.8383 4.65692 4.76385 2.8483C4.21369 1.92263 3.79741 0.898375 3.79741 0.898375C3.79741 0.898375 3.71752 0.707763 3.57464 0.605885C3.40138 0.482098 3.15836 0.442661 3.15836 0.442661L0.586419 0.457997C0.586419 0.457997 0.200516 0.468952 0.0587555 0.632177C-0.0672538 0.777873 0.0486297 1.07803 0.0486297 1.07803C0.0486297 1.07803 2.06253 5.66474 4.34195 7.97727C6.43347 10.097 8.8074 9.95787 8.8074 9.95787H9.88298C9.88298 9.95787 10.2081 9.92282 10.3735 9.74864C10.5265 9.5887 10.5209 9.28854 10.5209 9.28854C10.5209 9.28854 10.4995 7.88306 11.1701 7.67602C11.8305 7.47226 12.6788 9.03439 13.5777 9.6358C14.2573 10.0904 14.7737 9.99074 14.7737 9.99074L17.178 9.95787C17.178 9.95787 18.4359 9.88228 17.8396 8.91937Z" fill="white"/>
    </symbol>
    <symbol id="location-icon" width="24" height="24" viewBox="0 0 24 24" fill="none" xmlns="http://www.w3.org/2000/svg">
        <path d="M12 2.25C8.27344 2.25 5.25 5.12766 5.25 8.67188C5.25 12.75 9.75 19.2127 11.4023 21.4448C11.4709 21.5391 11.5608 21.6157 11.6647 21.6686C11.7686 21.7215 11.8835 21.749 12 21.749C12.1165 21.749 12.2314 21.7215 12.3353 21.6686C12.4392 21.6157 12.5291 21.5391 12.5977 21.4448C14.25 19.2136 18.75 12.7533 18.75 8.67188C18.75 5.12766 15.7266 2.25 12 2.25Z" stroke="#B8B8B8" stroke-linecap="round" stroke-linejoin="round"/>
        <path d="M12 11.25C13.2426 11.25 14.25 10.2426 14.25 9C14.25 7.75736 13.2426 6.75 12 6.75C10.7574 6.75 9.75 7.75736 9.75 9C9.75 10.2426 10.7574 11.25 12 11.25Z" stroke="#B8B8B8" stroke-linecap="round" stroke-linejoin="round"/>
    </symbol>
    <symbol id="arrow-icon" viewBox="0 0 16 16" fill="none" xmlns="http://www.w3.org/2000/svg">
        <path d="M3.5 5.75L8 10.25L12.5 5.75" stroke="#C4C4C4" stroke-miterlimit="10" stroke-linecap="round"/>
    </symbol>
    <symbol id="search-icon" viewBox="0 0 24 24" fill="" xmlns="http://www.w3.org/2000/svg">
        <path d="M10.3636 3C8.90722 3 7.48354 3.43187 6.2726 4.24099C5.06167 5.05011 4.11786 6.20015 3.56052 7.54567C3.00319 8.89119 2.85737 10.3718 3.14149 11.8002C3.42562 13.2286 4.12693 14.5406 5.15675 15.5704C6.18657 16.6003 7.49863 17.3016 8.92703 17.5857C10.3554 17.8698 11.836 17.724 13.1815 17.1667C14.527 16.6093 15.6771 15.6655 16.4862 14.4546C17.2953 13.2437 17.7272 11.82 17.7272 10.3636C17.7271 8.41069 16.9512 6.5378 15.5703 5.15688C14.1894 3.77597 12.3165 3.00012 10.3636 3V3Z" stroke="" stroke-width="2" stroke-miterlimit="10"/>
        <path d="M15.8574 15.8573L21 20.9999" stroke="" stroke-width="2" stroke-miterlimit="10" stroke-linecap="round"/>
    </symbol>
    <symbol id="chat-icon" viewBox="0 0 28 28" fill="none" xmlns="http://www.w3.org/2000/svg">
        <path d="M4.78409 20.7812C4.84971 20.5417 4.70589 20.2087 4.56862 19.9686C4.52607 19.8969 4.4797 19.8275 4.42971 19.7608C3.25244 17.9754 2.62495 15.8838 2.62503 13.7452C2.60534 7.60648 7.69565 2.625 13.9902 2.625C19.4797 2.625 24.0625 6.42797 25.1328 11.4762C25.2934 12.2246 25.3746 12.9879 25.375 13.7534C25.375 19.9008 20.481 24.9605 14.1865 24.9605C13.1852 24.9605 11.8349 24.7089 11.0983 24.5027C10.3617 24.2966 9.62612 24.0231 9.43635 23.9498C9.24208 23.8752 9.03578 23.8369 8.82768 23.8366C8.60076 23.8358 8.37602 23.881 8.16706 23.9695L4.45706 25.3083C4.37599 25.3433 4.29005 25.3658 4.20221 25.375C4.13273 25.3748 4.06399 25.3608 3.99995 25.3339C3.93591 25.3069 3.87785 25.2675 3.82912 25.218C3.7804 25.1684 3.74199 25.1097 3.7161 25.0453C3.69021 24.9808 3.67737 24.9118 3.67831 24.8423C3.68287 24.7814 3.69387 24.7211 3.71112 24.6624L4.78409 20.7812Z" stroke="#00AA2E" stroke-width="2" stroke-miterlimit="10" stroke-linecap="round"/>
        <path d="M8.74994 15.75C9.71644 15.75 10.4999 14.9665 10.4999 14C10.4999 13.0335 9.71644 12.25 8.74994 12.25C7.78344 12.25 6.99994 13.0335 6.99994 14C6.99994 14.9665 7.78344 15.75 8.74994 15.75Z" fill="#00AA2E"/>
        <path d="M13.9999 15.75C14.9664 15.75 15.7499 14.9665 15.7499 14C15.7499 13.0335 14.9664 12.25 13.9999 12.25C13.0334 12.25 12.2499 13.0335 12.2499 14C12.2499 14.9665 13.0334 15.75 13.9999 15.75Z" fill="#00AA2E"/>
        <path d="M19.2499 15.75C20.2164 15.75 20.9999 14.9665 20.9999 14C20.9999 13.0335 20.2164 12.25 19.2499 12.25C18.2834 12.25 17.4999 13.0335 17.4999 14C17.4999 14.9665 18.2834 15.75 19.2499 15.75Z" fill="#00AA2E"/>
    </symbol>
    <symbol id="camera-icon" viewBox="0 0 28 28" fill="none" xmlns="http://www.w3.org/2000/svg">
        <path d="M20.4963 16.8864L25.0195 20.0703C25.1528 20.1296 25.2987 20.1546 25.444 20.1431C25.5893 20.1316 25.7295 20.0839 25.8517 20.0045C25.974 19.9251 26.0745 19.8163 26.144 19.6882C26.2136 19.5601 26.25 19.4166 26.25 19.2708V8.72924C26.25 8.58344 26.2136 8.43996 26.144 8.31183C26.0745 8.1837 25.974 8.07497 25.8517 7.99554C25.7295 7.9161 25.5893 7.86847 25.444 7.85697C25.2987 7.84548 25.1528 7.87048 25.0195 7.92971L20.4963 11.1136C20.3816 11.1944 20.288 11.3015 20.2234 11.426C20.1588 11.5505 20.125 11.6887 20.125 11.8289V16.1711C20.125 16.3114 20.1588 16.4496 20.2234 16.5741C20.288 16.6986 20.3816 16.8057 20.4963 16.8864V16.8864Z" stroke="#00AA2E" stroke-width="2" stroke-linecap="round" stroke-linejoin="round"/>
        <path d="M14.6562 21H4.59375C3.84021 20.9978 3.11814 20.6975 2.58531 20.1647C2.05247 19.6319 1.75216 18.9098 1.75 18.1562V9.84375C1.75216 9.09021 2.05247 8.36814 2.58531 7.83531C3.11814 7.30247 3.84021 7.00216 4.59375 7H14.6825C15.429 7.00231 16.1443 7.29989 16.6722 7.82778C17.2001 8.35566 17.4977 9.07096 17.5 9.8175V18.1562C17.4978 18.9098 17.1975 19.6319 16.6647 20.1647C16.1319 20.6975 15.4098 20.9978 14.6562 21Z" stroke="#00AA2E" stroke-width="2" stroke-miterlimit="10"/>
    </symbol>
    <symbol id="book-icon" viewBox="0 0 28 28" fill="none" xmlns="http://www.w3.org/2000/svg">
        <path d="M14 8.75001V24.5M14 8.75001C14.875 5.29594 18.1797 3.53227 25.375 3.50001C25.49 3.49957 25.604 3.52191 25.7103 3.56573C25.8167 3.60955 25.9133 3.67398 25.9947 3.75532C26.076 3.83666 26.1404 3.93329 26.1843 4.03965C26.2281 4.146 26.2504 4.25998 26.25 4.37501V20.125C26.25 20.3571 26.1578 20.5796 25.9937 20.7437C25.8296 20.9078 25.607 21 25.375 21C18.375 21 15.6707 22.4115 14 24.5C12.3391 22.4219 9.62498 21 2.62498 21C2.08466 21 1.74998 20.5598 1.74998 20.0195V4.37501C1.74954 4.25998 1.77188 4.146 1.8157 4.03965C1.85952 3.93329 1.92395 3.83666 2.00529 3.75532C2.08663 3.67398 2.18326 3.60955 2.28962 3.56573C2.39597 3.52191 2.50995 3.49957 2.62498 3.50001C9.82021 3.53227 13.125 5.29594 14 8.75001Z" stroke="#00AA2E" stroke-width="2" stroke-linecap="round" stroke-linejoin="round"/>
    </symbol>
    <symbol id="heart-icon" viewBox="0 0 28 28" fill="" xmlns="http://www.w3.org/2000/svg">
        <path d="M14 24C13.6603 23.9996 13.3287 23.8985 13.0481 23.7099C8.89215 20.9312 7.09258 19.026 6.09999 17.8349C3.98472 15.2958 2.97203 12.6891 3.00059 9.86615C3.0339 6.63125 5.669 4 8.8747 4C11.2057 4 12.8202 5.29323 13.7604 6.37031C13.7902 6.40409 13.827 6.43117 13.8684 6.44973C13.9097 6.46829 13.9546 6.4779 14 6.4779C14.0454 6.4779 14.0903 6.46829 14.1316 6.44973C14.173 6.43117 14.2098 6.40409 14.2396 6.37031C15.1798 5.29219 16.7943 4 19.1253 4C22.331 4 24.9661 6.63125 24.9994 9.86667C25.028 12.6901 24.0142 15.2969 21.9 17.8354C20.9074 19.0266 19.1079 20.9318 14.9519 23.7104C14.6713 23.8988 14.3396 23.9997 14 24V24Z" stroke="" stroke-width="2"/>
    </symbol>
    <symbol id="cart-icon" viewBox="0 0 34 30" fill="none" xmlns="http://www.w3.org/2000/svg">
        <path d="M12.5 29C13.3284 29 14 28.3284 14 27.5C14 26.6716 13.3284 26 12.5 26C11.6716 26 11 26.6716 11 27.5C11 28.3284 11.6716 29 12.5 29Z" stroke="white" stroke-width="2" stroke-linecap="round" stroke-linejoin="round"/>
        <path d="M28.5 29C29.3284 29 30 28.3284 30 27.5C30 26.6716 29.3284 26 28.5 26C27.6716 26 27 26.6716 27 27.5C27 28.3284 27.6716 29 28.5 29Z" stroke="white" stroke-width="2" stroke-linecap="round" stroke-linejoin="round"/>
        <path d="M1 1H4.60018C5.56826 1 6.39736 1.69336 6.56863 2.64617L9.93137 21.3538C10.1026 22.3066 10.9317 23 11.8998 23H30" stroke="white" stroke-width="2" stroke-linecap="round" stroke-linejoin="round"/>
        <path d="M9.5 18H30.1311C30.2753 18.0001 30.4151 17.9481 30.5267 17.8528C30.6383 17.7576 30.7147 17.625 30.743 17.4776L32.9879 5.77756C33.006 5.68322 33.0038 5.58586 32.9814 5.49251C32.9591 5.39916 32.9171 5.31216 32.8586 5.23777C32.8 5.16338 32.7264 5.10346 32.6429 5.06234C32.5595 5.02123 32.4683 4.99993 32.376 5L11.4192 5" stroke="white" stroke-width="2" stroke-linecap="round" stroke-linejoin="round"/>
    </symbol>
    <symbol id="burger-icon" viewBox="0 0 24 24" fill="none" xmlns="http://www.w3.org/2000/svg">
        <path d="M3.75 7.5H20.25M3.75 12H20.25M3.75 16.5H20.25" stroke="#00AA2E" stroke-width="2" stroke-miterlimit="10" stroke-linecap="round"/>
    </symbol>
    <symbol id="arrow-slider" viewBox="0 0 24 20" fill="" xmlns="http://www.w3.org/2000/svg">
        <path d="M9.80002 18.8001L1.00002 10.0001L9.80002 1.20007" stroke="" stroke-width="2" stroke-linecap="round" stroke-linejoin="round"/>
        <path d="M1 10H23" stroke="" stroke-width="2" stroke-linecap="round" stroke-linejoin="round"/>
    </symbol>
    <symbol id="target-icon" viewBox="0 0 28 28" fill="none" xmlns="http://www.w3.org/2000/svg">
        <circle cx="12" cy="16" r="11.8182" fill="white"/>
        <circle cx="12" cy="16" r="9.09091" fill="#00AA2E"/>
        <circle cx="12" cy="16" r="6.36364" fill="white"/>
        <circle cx="12" cy="16" r="3.63636" fill="#00AA2E"/>
        <path d="M12 15.5992L21.7627 5.83655" stroke="#00AA2E" stroke-width="2" stroke-miterlimit="22.9256" stroke-linecap="round" stroke-linejoin="round"/>
        <path fill-rule="evenodd" clip-rule="evenodd" d="M22.4875 1.45453L23.2498 4.41015L26.1447 5.11176L21.6146 9.63635L18.775 8.82424L17.9629 5.98464L22.4875 1.45453Z" fill="white" stroke="#00AA2E" stroke-width="2" stroke-miterlimit="22.9256" stroke-linecap="round" stroke-linejoin="round"/>
    </symbol>
    <symbol id="checked-icon" viewBox="0 0 10 10" fill="none" xmlns="http://www.w3.org/2000/svg">
        <path d="M9.5 1.25L3.2 8.75L0.5 5.75" stroke="#00AA2E" stroke-linecap="round" stroke-linejoin="round"/>
    </symbol>
    <symbol id="facebook-icon" viewBox="0 0 15 30" fill="none" xmlns="http://www.w3.org/2000/svg">
        <path d="M12.2751 5.55354H14.8571V1.05611C14.4116 0.994826 12.8796 0.856934 11.0954 0.856934C7.37261 0.856934 4.82239 3.19875 4.82239 7.5029V11.4641H0.714233V16.4919H4.82239V29.1426H9.85919V16.493H13.8012L14.4269 11.4653H9.85801V8.00143C9.85919 6.54825 10.2504 5.55354 12.2751 5.55354Z" fill="white"/>
    </symbol>
    <symbol id="close-icon" viewBox="0 0 14 14" fill="" xmlns="http://www.w3.org/2000/svg">
        <path d="M12.25 1.75L1.75 12.25M12.25 12.25L1.75 1.75L12.25 12.25Z" stroke="" stroke-width="2" stroke-linecap="round" stroke-linejoin="round"/>
    </symbol>
    <symbol id="close-light" viewBox="0 0 14 14" fill="" xmlns="http://www.w3.org/2000/svg">
        <path d="M12.25 1.75L1.75 12.25M12.25 12.25L1.75 1.75L12.25 12.25Z" stroke="" stroke-width="1.2" stroke-linecap="round" stroke-linejoin="round"/>
    </symbol>
    <symbol id="pig-icon" viewBox="0 0 27 21" fill="none" xmlns="http://www.w3.org/2000/svg">
        <path fill-rule="evenodd" clip-rule="evenodd" d="M13.7585 0.158756C15.7712 0.158756 17.6563 0.617387 19.2755 1.41671L23.4195 0.0205905C23.5465 -0.0222437 23.6773 0.00242763 23.7788 0.0883034C23.8804 0.17411 23.9239 0.296852 23.8984 0.425493L23.0794 4.55744C23.4744 5.1001 23.8043 5.6799 24.0601 6.28917L26.4337 6.75637C26.6062 6.79037 26.7273 6.93456 26.7273 7.10617V11.9222C26.7273 12.0938 26.6062 12.238 26.4337 12.272L23.9021 12.7703C23.3009 14.0334 22.3764 15.158 21.2149 16.0718V20.5523C21.2149 20.7489 21.0505 20.9091 20.8489 20.9091H17.1651C16.9636 20.9091 16.7992 20.7489 16.7992 20.5523V18.1867C15.8339 18.4218 14.8138 18.5481 13.7585 18.5481C12.7032 18.5481 11.6831 18.4217 10.7178 18.1867V20.5523C10.7178 20.7489 10.5533 20.9091 10.3518 20.9091H6.66802C6.4664 20.9091 6.30197 20.7489 6.30197 20.5523V16.0718C4.16894 14.3939 2.83522 12.0049 2.83522 9.35341C2.83522 4.27528 7.72567 0.158756 13.7585 0.158756H13.7585Z" fill="white"/>
        <path d="M9.42613 2.5129C10.0267 2.22192 10.6822 1.99322 11.3779 1.83855C12.0522 1.68858 12.7595 1.60838 13.4862 1.60838C14.2394 1.60838 14.9693 1.69368 15.661 1.85283C16.3764 2.01742 17.0498 2.26119 17.6648 2.57122L17.2778 3.21677C16.7224 2.93673 16.1136 2.71643 15.466 2.56748C14.8395 2.42335 14.1752 2.34604 13.4862 2.34604C12.817 2.34604 12.1733 2.41825 11.5667 2.55314C10.9391 2.69273 10.3459 2.89989 9.80056 3.16412L9.42613 2.5129Z" fill="#A10040"/>
        <path d="M3.78978 9.91585H2.5744C1.96592 9.91585 1.41312 9.67323 1.01269 9.28229C0.612187 8.89141 0.363632 8.35182 0.363632 7.75793C0.363632 7.16398 0.612187 6.62438 1.01269 6.23344C1.41313 5.84256 1.96599 5.59994 2.5744 5.59994V6.47224C2.21262 6.47224 1.88339 6.61701 1.64451 6.85025C1.40564 7.08342 1.25733 7.40479 1.25733 7.75793C1.25733 8.11101 1.40564 8.43238 1.64458 8.66555C1.88346 8.89872 2.21262 9.04356 2.5744 9.04356H3.78978V9.91586V9.91585Z" fill="white"/>
    </symbol>
    <symbol id="plus-icon" viewBox="0 0 10 10" fill="none" xmlns="http://www.w3.org/2000/svg">
        <path d="M5 1V9" stroke="white" stroke-linecap="round"/>
        <path d="M1 5L9 5" stroke="white" stroke-linecap="round"/>
    </symbol>
    <symbol id="minus-icon" viewBox="0 0 10 2" fill="none" xmlns="http://www.w3.org/2000/svg">
        <path d="M1 1L9 1" stroke="white" stroke-linecap="round"/>
    </symbol>
    <symbol id="arrow-icon-down" xmlns="http://www.w3.org/2000/svg" viewBox="0 0 10 6" fill="none">
        <path d="M9.5 5.25L5 0.75L0.5 5.25" stroke="#D9DADB" stroke-linecap="round" stroke-linejoin="round"/>
    </symbol>
</svg>
