<svg width="302" height="188" viewBox="0 0 302 188" fill="none" xmlns="http://www.w3.org/2000/svg">
<rect width="207.159" height="133.064" transform="matrix(0.984626 0.173935 -0.156685 0.987533 56.9083 34.2915)" fill="white"/>
<path d="M119.017 88.9518C125.509 101.373 123.436 114.438 115.747 125.303C107.04 137.732 93.6399 134.484 80.1208 132.526L89.3304 74.4701C101.006 76.0842 113.009 77.2553 119.017 88.9518Z" fill="#D92419"/>
<path d="M294.099 122.629C297.084 56.5421 255.356 -9.55789 182.776 -29.7776C165.983 -7.44076 149.275 14.9974 131.959 37.9472C110.248 21.3065 89.3353 5.09961 68.1105 -11.283C16.5805 19.7049 -12.3042 89.0385 7.69696 155.562C27.8695 222.614 93.5149 271.887 170.749 261.119C237.113 251.629 290.733 196.064 294.099 122.629ZM244.656 101.358L223.736 97.6576C217.546 96.5626 211.273 95.4529 204.958 94.6111C184.584 91.8672 175.305 103.714 174.067 121.835C172.907 142.688 181.909 151.059 206.51 153.759L210.384 129.309L239.248 134.415L231.407 183.901C215.476 181.358 199.601 178.894 184.119 174.59C170.517 170.876 159.192 164.176 151.387 152.008C148.232 147.011 146.314 141.717 144.416 134.689C136.895 146.829 127.281 154.35 114.634 157.601C106.128 159.744 97.5483 159.017 89.0013 158.194C75.023 156.856 61.2694 153.993 47.0947 151.211L64.1046 43.8537C86.6704 48.5509 110.075 49.0266 130.61 61.7087C139.446 67.263 145.257 75.6889 148.96 85.3934C149.744 87.5279 149.603 90.0319 151.861 91.9969C165.51 69.9639 186.435 66.543 209.659 69.7738C222.644 71.4688 235.372 74.1503 248.679 76.5043L244.656 101.358Z" fill="#D92419"/>
<path d="M180.531 -45.8964C163.984 -23.7953 147.971 -2.28498 131.606 19.8481C110.366 3.53977 89.4256 -12.6299 67.5883 -29.5576C103.581 -48.3082 140.445 -54.2642 180.531 -45.8964Z" fill="#3EA347"/>
<path d="M115.841 125.239C107.135 137.668 93.7347 134.42 80.2155 132.463L89.4412 74.3053C100.922 76.0748 113.021 77.1767 119.016 88.9572C125.507 101.378 123.601 114.473 115.841 125.239Z" fill="#FEFEFE"/>
<path d="M115.841 125.239C107.135 137.668 93.7347 134.42 80.2155 132.463L89.4412 74.3053C100.922 76.0748 113.021 77.1767 119.016 88.9572C125.507 101.378 123.601 114.473 115.841 125.239Z" fill="#D6251B"/>
</svg>
