<svg width="36" height="36" viewBox="0 0 36 36" fill="none" xmlns="http://www.w3.org/2000/svg">
<path d="M8 8.85205L9.38889 28.9867C9.45486 30.1501 10.3889 31.0002 11.6111 31.0002H24.3889C25.616 31.0002 26.5326 30.1501 26.6111 28.9867L28 8.85205" stroke="#00AA2E" stroke-width="2" stroke-linecap="round" stroke-linejoin="round"/>
<path d="M6 8.85205H30H6Z" fill="#00AA2E"/>
<path d="M6 8.85205H30" stroke="#00AA2E" stroke-width="2" stroke-miterlimit="10" stroke-linecap="round"/>
<path d="M18.0813 13.3478V27.1063M13.2051 13.3478L13.7469 27.1063M22.9576 13.3478L22.4158 27.1063M13.7469 8.85185V6.56522C13.7463 6.35951 13.7879 6.1557 13.8693 5.96553C13.9508 5.77536 14.0705 5.60257 14.2216 5.4571C14.3726 5.31164 14.5521 5.19637 14.7495 5.11792C14.947 5.03948 15.1587 4.9994 15.3723 5.00001H20.7904C21.004 4.9994 21.2156 5.03948 21.4131 5.11792C21.6106 5.19637 21.79 5.31164 21.9411 5.4571C22.0922 5.60257 22.2119 5.77536 22.2933 5.96553C22.3748 6.1557 22.4164 6.35951 22.4158 6.56522C22.4158 7.58398 22.4158 7.83309 22.4158 8.85185H13.7469Z" stroke="#00AA2E" stroke-width="2" stroke-linecap="round" stroke-linejoin="round"/>
</svg>
