<svg width="127" height="64" viewBox="0 0 127 64" fill="none" xmlns="http://www.w3.org/2000/svg">
<path d="M62.25 39.215H64.2374V43.6641H65.6733L68.2499 39.215H70.4226L67.33 44.4367V44.4733L70.6068 50.1716H68.3609L65.7099 45.391H64.2751V50.1716H62.2866V39.2138H62.25V39.215ZM75.061 42.1201C77.4522 42.1201 79.4042 43.8481 79.4042 46.2378C79.4042 48.6653 77.49 50.3567 75.0976 50.3567C72.7041 50.3567 70.7899 48.6653 70.7899 46.2378C70.7533 43.8116 72.6674 42.1201 75.061 42.1201ZM80.9499 42.303H82.8274V48.4813H85.2942V42.3041H87.1706V48.4813H89.6374V42.3041H91.5149V50.1716H81.0231V42.303H80.9499ZM97.0743 42.1201C99.3191 42.1201 100.571 43.775 100.571 45.8344C100.565 46.093 100.54 46.3507 100.498 46.6058H95.0858C95.1968 47.9658 96.2643 48.7018 97.4427 48.7018C98.2516 48.7018 99.0617 48.3338 99.6875 47.8561L100.461 49.2538C99.6509 49.951 98.4359 50.3933 97.2951 50.3933C94.6808 50.3933 93.0618 48.5178 93.0618 46.2744C93.0618 43.8116 94.7174 42.1201 97.0743 42.1201ZM101.491 48.5178C102.448 48.3704 103.147 47.5624 103.147 44.767V42.3041H108.891V50.1716H106.939V43.8836H105.025V44.7658C105.025 48.1853 104.105 50.1716 101.491 50.2447V48.5167V48.5178ZM114.486 42.1201C116.731 42.1201 117.982 43.775 117.982 45.8344C117.976 46.093 117.952 46.3507 117.909 46.6058H112.497C112.608 47.9658 113.676 48.7018 114.854 48.7018C115.663 48.7018 116.473 48.3338 117.099 47.8561L117.873 49.2538C117.063 49.951 115.847 50.3933 114.707 50.3933C112.093 50.3933 110.473 48.5178 110.473 46.2744C110.473 43.8116 112.13 42.1201 114.486 42.1201ZM119.603 42.303H121.553V45.319H122.511L124.425 42.3041H126.597L124.093 46.0538V46.0916L126.891 50.1716H124.609L122.548 46.9738H121.518V50.1716H119.565V42.303H119.601H119.603ZM75.061 48.6653C76.3493 48.6653 77.4168 47.6721 77.4168 46.2013C77.4168 44.767 76.3493 43.7373 75.0598 43.7373C73.7727 43.7373 72.7418 44.7315 72.7418 46.2013C72.7418 47.6721 73.7715 48.6653 75.061 48.6653ZM98.5834 45.2458C98.5834 44.2161 97.8832 43.591 97 43.591C96.0068 43.591 95.27 44.2527 95.0858 45.2458H98.5834ZM115.995 45.2458C115.995 44.2161 115.296 43.591 114.413 43.591C113.417 43.591 112.682 44.2527 112.497 45.2458H115.995Z" fill="#2D3540"/>
<path d="M89.7475 15.3508V33.92C89.7491 33.9879 89.7368 34.0555 89.7115 34.1186C89.6862 34.1817 89.6483 34.239 89.6002 34.2871C89.5521 34.3352 89.4947 34.373 89.4315 34.3983C89.3683 34.4236 89.3007 34.4358 89.2327 34.4343H85.441C85.3729 34.4358 85.3053 34.4236 85.2421 34.3983C85.1789 34.373 85.1215 34.3352 85.0734 34.2871C85.0253 34.239 84.9874 34.1817 84.9621 34.1186C84.9368 34.0555 84.9245 33.9879 84.9261 33.92V15.3508C84.9245 15.2829 84.9368 15.2153 84.9621 15.1522C84.9874 15.0891 85.0253 15.0318 85.0734 14.9837C85.1215 14.9356 85.1789 14.8978 85.2421 14.8725C85.3053 14.8472 85.3729 14.835 85.441 14.8366H89.2327C89.3007 14.835 89.3683 14.8472 89.4315 14.8725C89.4947 14.8978 89.5521 14.9356 89.6002 14.9837C89.6483 15.0318 89.6862 15.0891 89.7115 15.1522C89.7368 15.2153 89.7491 15.2829 89.7475 15.3508ZM119.344 14.8366C119.492 14.8366 119.676 14.9097 119.859 15.0571C119.97 15.1668 119.97 15.3508 119.933 15.4983L113.675 34.104C113.637 34.2003 113.571 34.2831 113.486 34.3421C113.401 34.4011 113.3 34.4336 113.197 34.4354H109.81C109.589 34.4354 109.405 34.3246 109.332 34.104L105.685 23.2571L102.041 34.1028C102.003 34.1991 101.938 34.282 101.853 34.341C101.767 34.4 101.667 34.4324 101.563 34.4343H98.1764C97.9556 34.4343 97.7714 34.3246 97.6982 34.1028L91.4397 15.4971C91.4031 15.3508 91.4031 15.2034 91.5129 15.0571C91.5873 14.9097 91.7715 14.8366 91.918 14.8366H96.1513C96.3721 14.8366 96.5563 14.9828 96.6307 15.2034L99.9796 26.1977L103.661 15.2034C103.699 15.1071 103.765 15.0243 103.85 14.9653C103.935 14.9063 104.036 14.8738 104.14 14.872H107.121C107.342 14.872 107.526 14.9828 107.6 15.2034L111.281 26.1977L114.632 15.2034C114.662 15.0993 114.724 15.0075 114.81 14.9414C114.896 14.8754 115.001 14.8387 115.11 14.8366H119.343H119.344ZM125.749 14.8366C126.007 14.8366 126.227 15.0571 126.264 15.3508V33.92C126.266 33.9879 126.253 34.0555 126.228 34.1186C126.203 34.1817 126.165 34.239 126.117 34.2871C126.069 34.3352 126.011 34.373 125.948 34.3983C125.885 34.4236 125.817 34.4358 125.749 34.4343H121.957C121.889 34.4358 121.822 34.4236 121.759 34.3983C121.695 34.373 121.638 34.3352 121.59 34.2871C121.542 34.239 121.504 34.1817 121.479 34.1186C121.453 34.0555 121.441 33.9879 121.443 33.92V15.3508C121.441 15.2829 121.453 15.2153 121.479 15.1522C121.504 15.0891 121.542 15.0318 121.59 14.9837C121.638 14.9356 121.695 14.8978 121.759 14.8725C121.822 14.8472 121.889 14.835 121.957 14.8366H125.749ZM82.7167 33.7737C82.9376 34.0308 82.7534 34.3977 82.4216 34.3977H77.7832C77.6919 34.4002 77.6012 34.3815 77.5182 34.3433C77.4353 34.305 77.3623 34.2482 77.3049 34.1771L76.5326 33.2217C74.9125 34.2503 72.9972 34.8766 70.9732 34.8766C65.3052 34.8766 60.7034 30.28 60.7034 24.6171C60.7034 18.9543 65.3052 14.3577 70.9732 14.3577C76.6425 14.3577 81.2442 18.9543 81.2442 24.6171C81.2442 26.64 80.655 28.552 79.6241 30.1691L82.7167 33.7726V33.7737ZM43.9531 42.7817C44.9108 43.1497 45.2792 44.5828 45.3524 45.208C45.5 46.3486 45.1694 46.7897 44.8009 46.7897C44.4325 46.7897 43.9165 46.3486 43.3651 45.4663C42.8124 44.5828 42.5916 43.5908 42.8868 43.0754C43.0699 42.744 43.4749 42.5977 43.9543 42.7817H43.9531ZM38.3583 46.9371C38.9475 46.9371 39.61 47.1943 40.1992 47.7086C41.3399 48.6651 41.6717 49.768 41.0825 50.5771C40.7507 50.9817 40.1992 51.2388 39.5734 51.2388C38.9475 51.2388 38.285 51.0183 37.8434 50.6137C36.8125 49.7314 36.5185 48.2594 37.1798 47.4514C37.4384 47.12 37.8434 46.9371 38.3583 46.9371ZM25.4752 57.5634C11.4858 57.5634 0.148438 46.2377 0.148438 32.2651C0.148438 18.2926 11.4869 6.96799 25.4741 6.96799C39.4624 6.96799 50.8008 18.2937 50.8008 32.2651C50.8008 37.008 49.4759 41.4583 47.2311 45.2457C47.1567 45.3554 46.9725 45.3188 46.9359 45.1714C46.0526 38.9577 42.261 35.5371 36.7393 34.5086C36.2599 34.4343 36.1867 34.1406 36.8125 34.0674C38.5059 33.92 40.8983 33.9566 42.15 34.1771C42.2232 33.552 42.261 32.8903 42.261 32.2286C42.261 22.9988 34.7508 15.4971 25.5107 15.4971C16.2717 15.4971 8.76155 22.9988 8.76155 32.2286C8.76155 41.4583 16.2717 48.96 25.5118 48.96H26.2841C26.0217 47.4671 25.9106 45.9517 25.9523 44.4366C25.9901 43.4068 26.2109 43.2594 26.6525 44.0686C28.9717 48.0766 32.2852 51.68 38.7633 53.1143C44.0641 54.2914 49.3649 55.6514 55.0708 62.8948C55.5857 63.52 54.8134 64.1817 54.2241 63.6674C48.4084 58.5188 43.1076 56.8274 38.285 56.8274C32.8732 56.8651 29.1925 57.5634 25.4741 57.5634H25.4752ZM73.5133 29.6548L71.4881 27.1908C71.2684 26.9337 71.4526 26.5291 71.7833 26.5291H76.0533C76.2741 25.9406 76.3851 25.2788 76.3851 24.6171C76.3851 21.5657 74.1025 18.9177 70.9732 18.9177C67.8452 18.9177 65.5614 21.5657 65.5614 24.6171C65.5614 27.6686 67.8452 30.28 70.9732 30.28C71.8565 30.3166 72.741 30.0594 73.5133 29.6548Z" fill="#FF8C00"/>
</svg>
