<svg width="116" height="38" viewBox="0 0 116 38" fill="none" xmlns="http://www.w3.org/2000/svg">
<path d="M59.9924 12.0999C59.9263 17.372 64.6426 20.3143 68.1955 22.0634C71.846 23.8584 73.0721 25.0092 73.0582 26.6141C73.0303 29.0707 70.1462 30.1547 67.4466 30.1969C62.7373 30.2708 59.9994 28.9123 57.8224 27.8846L56.126 35.9054C58.31 36.9226 62.3541 37.8095 66.548 37.8482C76.3917 37.8482 82.8323 32.9385 82.8671 25.326C82.9054 15.6651 69.6411 15.1301 69.7317 10.8117C69.763 9.5025 70.9996 8.10528 73.7096 7.74981C75.0506 7.57032 78.7533 7.43306 82.9507 9.38636L84.5983 1.62597C82.3411 0.795376 79.4396 -1.90735e-05 75.8274 -1.90735e-05C66.5619 -1.90735e-05 60.0447 4.97649 59.9924 12.0999ZM100.43 0.668674C98.6324 0.668674 97.1172 1.72803 96.4414 3.35402L82.3794 37.278H92.2162L94.1738 31.8123H106.195L107.33 37.278H116L108.434 0.668674H100.43ZM101.806 10.5583L104.645 24.3053H96.8699L101.806 10.5583ZM48.0657 0.668674L40.3119 37.278H49.6854L57.4357 0.668674H48.0657ZM34.1988 0.668674L24.4421 25.5864L20.4956 4.3993C20.0323 2.03423 18.2036 0.668674 16.1728 0.668674H0.22293L0 1.73155C3.27428 2.44952 6.99442 3.60742 9.24809 4.84627C10.6275 5.60295 11.0211 6.26461 11.4739 8.06305L18.949 37.278H28.8554L44.0425 0.668674H34.1988Z" fill="url(#paint0_linear_378_9080)"/>
<defs>
<linearGradient id="paint0_linear_378_9080" x1="53.3301" y1="38.6075" x2="54.4369" y2="-0.262577" gradientUnits="userSpaceOnUse">
<stop stop-color="#222357"/>
<stop offset="1" stop-color="#254AA5"/>
</linearGradient>
</defs>
</svg>
