<svg width="97" height="69" viewBox="0 0 97 69" fill="none" xmlns="http://www.w3.org/2000/svg">
<path d="M62.5549 0C43.3745 0 28.1172 15.5032 28.1172 34.5C28.1172 53.7152 43.5925 69 62.5549 69C81.5176 69 96.9928 53.4968 96.9928 34.5C96.9928 15.5032 81.5176 0 62.5549 0ZM62.5549 47.3829C55.5803 47.3829 49.6954 41.4873 49.6954 34.5C49.6954 27.5127 55.5803 21.6171 62.5549 21.6171C69.5298 21.6171 75.4146 27.5127 75.4146 34.5C75.1971 41.4873 69.5298 47.3829 62.5549 47.3829Z" fill="#8B3FFD"/>
<path d="M27.899 10.0443V60.2657H15.6932L0 10.0443H27.899Z" fill="#8B3FFD"/>
</svg>
